<svg width="1336" height="768" viewBox="0 0 1336 768" fill="none" xmlns="http://www.w3.org/2000/svg">
<g clip-path="url(#clip0_2491_2474)">
<mask id="mask0_2491_2474" style="mask-type:luminance" maskUnits="userSpaceOnUse" x="-7" y="95" width="1331" height="676">
<path d="M1324 95H-7V770.819H1324V95Z" fill="white"/>
</mask>
<g mask="url(#mask0_2491_2474)">
<path opacity="0.5" d="M646.67 748.609C646.67 748.927 647.197 749.182 647.974 749.362C649.632 749.754 651.472 749.472 653.18 749.652C654.761 749.829 658.663 749.711 659.449 751.185C658.749 751.578 657.782 751.534 657.028 751.97C655.924 752.585 655.415 753.24 653.92 753.475C649.565 754.129 645.164 754.531 640.746 754.679C638.534 754.773 635.34 754.287 633.269 755.197C631.597 755.938 633.269 756.248 634.209 756.675C635.149 757.103 635.89 757.801 636.935 758.244C637.98 758.687 641.128 759.271 640.569 760.424C640.115 761.302 638.025 761.69 637.103 761.91C633.768 762.694 630.829 764.322 627.408 764.984C630.361 768.67 637.225 767.165 642.154 767.369C642.127 767.51 642.127 769.411 642.154 769.557C633.846 770.694 626.309 772.403 618.282 774.529C620.099 775.705 620.394 777.485 621.594 778.619C620.308 777.399 599.975 783.403 597.912 784.653C587.068 791.214 595.641 795.072 596.436 802.923C597.535 813.655 576.484 814.945 566.621 818.306C566.562 830.14 567.157 841.728 552.202 847.484C537.983 852.974 522.256 853.127 507.342 856.275C492.428 859.424 490.797 864.145 481.103 872.18C461.569 888.359 425.64 882.238 402.513 896.021C380.848 908.926 358.77 912.22 335.061 919.804C326.852 922.427 315.073 925.196 305.928 924.478C295.82 923.694 290.882 918.706 280.093 924.455C266.465 931.705 257.515 945.128 242.306 951.845C226.379 958.872 218.743 955.315 203.42 951.484C191.845 948.594 184.653 952.158 173.01 954.793C157.051 958.405 140.67 969.832 124.856 970.369C111.405 970.824 93.9291 965.271 83.2444 958.048C78.8743 955.091 75.9441 950.539 71.6194 947.41C62.8018 941.038 52.5396 939.677 42.4546 935.473C36.2401 932.878 26.1005 929.14 22.2528 924.204C16.9559 917.384 21.7576 917.867 20.6673 911.33C18.8502 900.488 8.6062 887.595 3.55914 877.215C-8.4384 852.535 -32.1291 837.712 -50.3367 817.51C-55.9152 811.318 -62.525 805.746 -68.0536 800.037C-71.4289 796.531 -75.7763 796.754 -74.1228 791.104C-71.4516 782.05 -45.9574 777.976 -37.4851 776.564C41.0191 763.479 123.38 778.74 202.693 774.482C244.559 772.227 283.714 757.193 326.103 758.463C348.776 759.142 368.351 754.973 390.61 751.891C439.868 745.076 489.375 733.65 539.16 730.661C566.73 729.007 596.59 726.689 624.11 729.266C643.263 731.061 654.733 736.147 676.389 737.281C670.179 740.743 664.796 743.315 658.15 744.911C655.901 745.46 653.925 746.59 651.553 746.766C650.114 746.856 648.717 747.225 647.465 747.844C646.911 748.115 646.67 748.382 646.67 748.609Z" fill="#7E5F5A"/>
<path d="M-80.5366 635.135C-80.5366 635.135 -30.1115 616.615 -8.81487 603.605C12.4818 590.594 55.2886 554.942 69.4758 548.84C96.2783 550.146 115.185 555.377 145.168 562.737C175.15 570.097 208.19 573.599 208.19 573.599C208.19 573.599 230.786 578.042 236.696 585.967C240.503 600.428 228.901 602.346 236.696 607.142C314.065 626.642 301.717 629.328 304.87 634.563C308.023 639.798 319.584 653.158 330.092 654.612C340.599 656.067 350.762 656.648 359.656 657.804C367.506 661.584 388.24 671.168 399.324 672.623C410.763 675.238 417.314 681.344 443.939 690.241C470.564 699.138 546.575 713.302 557.082 714.792C567.59 716.282 583.003 720.858 595.242 722.603C607.48 724.348 613.808 723.78 623.62 726.383C636.227 729.575 640.047 732.658 655.052 734.226C668.876 735.308 676.857 737.132 676.857 737.132C676.857 737.132 670.807 739.092 660.304 740.833C649.801 742.574 635.345 746.068 625.887 748.029C620.104 749.119 603.818 748.464 597.268 750.205C599.63 753.26 605.935 756.307 605.154 759.797C600.42 762.628 574.676 764.369 556.546 770.694C538.416 777.019 517.401 777.015 499.802 781.368C482.203 785.72 360.565 816.004 240.767 827.121C120.968 838.238 46.3575 832.568 1.16567 827.121C-44.0261 821.674 14.099 811.216 -8.1289 807.726C-30.3568 804.236 -80.5366 798.135 -80.5366 798.135V635.135Z" fill="url(#paint0_linear_2491_2474)"/>
<path d="M265.634 686.62C275.524 689.216 285.672 693.855 294.908 697.02C303.085 699.815 313.592 699.968 320.802 703.07C318.199 705.493 314.896 707.662 314.442 710.94C325.185 710.862 338.128 705.948 348.967 704.474C366.938 702.031 383.524 700.211 401.209 697.972C410.379 696.797 419.383 694.802 428.075 692.02C431.137 691.004 433.84 689.436 436.425 687.707C416.028 680.256 409.686 675.1 399.428 672.751C388.344 671.296 367.629 661.712 359.761 657.932C350.866 656.756 340.681 656.191 330.196 654.74C325.399 654.074 320.384 650.929 316.05 647.204C312.511 651.176 311.898 655.293 304.797 657.944C293.354 662.214 277.4 661.081 264.921 661.042C245.627 661.007 224.826 660.967 207.722 669.202C193.485 676.064 179.557 678.852 164.152 683.181C157.865 684.954 150.696 686.264 147.162 691.224C148.743 690.961 150.992 691.659 152.613 691.51C150.265 699.188 155.625 699.961 162.948 698.568C172.166 696.839 179.534 693.663 189.079 692.385C198.796 691.091 206.882 685.009 215.94 683.962C223.472 683.087 226.734 687.256 233.752 688.083C240.771 688.91 241.684 685.813 247.381 684.879C252.591 684.032 260.637 685.311 265.634 686.62Z" fill="#4B094E"/>
<path d="M250.881 631.793C251.789 626.135 252.352 628.288 258.54 626.472C262.133 625.413 264.041 622.257 267.394 621.233C274.821 618.971 285.61 623.327 292.602 624.527C293.774 624.727 295.041 624.919 296.359 625.151C288.3 621.425 271.655 616.049 236.802 607.266C229.007 602.478 240.609 600.56 236.802 586.091C230.897 578.166 208.296 573.723 208.296 573.723C208.296 573.723 175.252 570.218 145.274 562.861C115.296 555.505 96.3799 550.27 69.5819 548.964C57.7934 554.038 26.23 579.519 3.68405 595.451C9.84409 593.075 15.9769 590.949 22.2414 588.161C26.6434 586.201 30.8727 585.099 34.934 582.73C38.3683 580.734 41.4257 577.511 45.5005 576.35C53.0598 574.186 64.7529 574.17 72.6438 574.111C82.1019 574.041 95.2215 571.366 83.4784 562.587C91.8099 558.069 102.258 556.571 110.976 560.026C117.999 562.806 123.996 563.775 131.528 564.39C140.427 565.124 149.213 567.92 157.803 570.053C164.781 571.782 168.547 575.186 174.748 577.895C177.696 579.185 185.069 581.977 181.721 584.954C180.858 585.738 171.177 586.832 169.215 587.361C163.632 588.859 157.939 590.632 151.988 590.553C145.901 590.487 140.063 588.2 134.031 588.342C130.047 588.44 119.217 589.33 121.67 592.824C122.578 594.09 130.814 596.678 132.45 597.184C138.355 599.004 139.646 597.631 145.192 596.792C153.515 595.557 161.569 598.396 169.869 596.533C176.996 594.937 182.666 594.18 190.148 594.29C198.875 594.412 212.303 589.855 220.498 592.62C219.59 608.391 194.277 610.136 180.581 609.591C174.085 609.336 161.955 608.654 157.308 612.763C155.945 613.971 156.904 616.249 154.991 617.571C152.038 619.61 146.001 618.912 142.48 618.975C128.752 619.226 114.061 616.457 100.832 619.998C88.9933 623.174 77.9589 620.673 66.0067 623.782C57.3754 626.041 50.4159 626.75 41.4166 626.135C31.9584 625.488 23.368 623.096 14.1825 626.562C7.0639 629.244 3.88394 635.075 -3.7934 636.973C-11.2254 638.804 -20.1475 636.369 -27.0435 638.542C-25.2718 649.757 2.62104 641.024 9.97129 640.777C22.9137 640.342 35.2974 641.875 48.099 641.298C50.593 641.189 56.9211 641.251 58.9109 642.408C62.7132 644.624 59.4787 644.969 60.3918 647.016C63.4764 653.933 70.2088 654.074 78.8038 654.466C91.6145 655.015 106.656 654.195 119.067 651.305C127.757 649.286 133.272 651.643 142.135 652.294C154.796 653.223 165.758 642.518 177.483 646.361C182.425 647.98 184.687 649.843 190.834 647.341C195.649 645.38 196.285 642.922 202.191 644.067C210.822 645.737 223.26 647.788 232.546 644.49C237.22 642.828 241.177 640.357 245.856 638.581C251.935 636.299 250.113 636.695 250.881 631.793Z" fill="#4B094E"/>
<path opacity="0.3" d="M644.398 743.97C632.791 742.821 621.348 740.343 610.177 738.83C582.811 735.112 554.523 735.571 526.908 732.077C514.188 730.473 496.085 725.642 483.587 727.728C492.718 733.042 511.785 733.152 523.441 735.375C536.647 737.892 549.558 740.79 562.837 742.382C575.602 743.915 587.477 748.307 599.415 752.327C598.618 751.677 597.896 750.961 597.262 750.189C603.831 748.448 620.117 749.103 625.882 748.013C631.074 746.947 637.725 745.421 644.398 743.97Z" fill="#151515"/>
<path opacity="0.2" d="M276.511 637.565C274.599 633.922 268.888 630.621 266.567 626.539C274.349 624.386 284.534 629.766 293.133 632.879C293.743 633.088 294.365 633.27 294.996 633.424C297.363 633.966 299.629 634.907 302.042 635.295C303.173 635.475 304.259 636.526 305.331 636.589C305.303 636.146 305.263 635.632 305.235 635.099L304.976 634.707C301.824 629.472 314.171 626.786 236.803 607.285C229.007 602.497 240.609 600.58 236.803 586.11C230.897 578.185 208.296 573.743 208.296 573.743C208.296 573.743 175.252 570.237 145.274 562.881C115.296 555.524 96.38 550.29 69.582 548.984C65.4072 550.78 58.752 555.136 50.8975 560.716C57.4209 556.92 64.7848 553.85 70.0726 556.038C73.6342 557.516 73.0436 561.849 75.097 563.206C79.6398 566.237 89.6339 567.092 95.2307 567.869C93.7997 571.006 89.6521 570.547 85.7635 572.304C90.6061 577.17 107.087 578.97 114.61 580.687C129.32 584.032 144.756 586.871 159.62 589.624C179.968 593.392 201.005 589.941 221.121 591.232C217.396 593.459 217.964 596.984 219.022 600.25C205.648 606.042 187.731 602.419 174.984 608.093C188.903 611.912 204.344 610.077 216.928 617.422C211.145 621.19 202.791 621.033 195.667 622.096C184.106 623.813 172.876 625.813 161.174 626.888C144.647 628.401 119.162 627.821 104.612 635.056C112.734 638.585 129.143 637.683 138.814 638.193C156.3 639.095 174.035 640.181 191.561 640.342C210.404 640.514 228.108 634.879 246.574 633.852C257.05 633.256 266.417 637.953 276.511 637.565Z" fill="#F23DE0"/>
<path opacity="0.2" d="M399.43 672.735C388.346 671.28 367.631 661.697 359.763 657.917C350.868 656.74 340.683 656.176 330.198 654.725C323.634 653.815 316.661 648.259 311.573 642.961C312.104 645.392 312.699 647.855 313.117 650.298C313.367 651.772 313.83 653.176 313.667 654.67C313.553 655.689 313.667 656.732 313.599 657.752C312.486 657.936 311.327 658.36 310.169 658.536C309.233 658.677 308.302 658.837 307.375 659.015C308.209 660.251 309.248 661.375 310.46 662.352C286.714 669.41 258.672 666.32 234.095 671.159C239.946 674.566 248.55 675.037 255.701 675.645C270.297 676.9 284.938 680.539 299.43 682.746C308.72 684.162 317.987 685.664 327.259 687.169C335.84 688.561 344.422 689.961 353.017 691.31C357.311 691.982 361.607 692.636 365.905 693.271C368.049 693.592 370.195 693.906 372.342 694.212C374.045 694.455 375.658 694.996 377.398 695.079C378.484 695.126 379.56 695.114 380.637 695.177C383.4 695.38 386.177 695.416 388.946 695.282C392.507 695.071 396.137 695.333 399.676 695.059C402.401 694.851 405.082 694.306 407.798 694.067C412.282 693.675 416.852 693.255 421.29 692.702C424.38 692.31 427.519 692.094 430.562 691.62C431.779 691.392 432.961 691.046 434.088 690.589C434.919 690.287 435.75 689.899 436.559 689.557C436.881 689.424 438.462 688.448 438.576 688.483C416.457 680.609 410.038 675.178 399.43 672.735Z" fill="#F23DE0"/>
<path opacity="0.2" d="M655.071 734.214C640.08 732.646 636.246 729.568 623.639 726.372C613.827 723.752 607.522 724.333 595.26 722.592C582.999 720.851 567.595 716.275 557.101 714.78C547.947 713.483 489.036 702.562 456.428 693.884C456.601 694.276 456.769 694.641 456.932 694.998C458.486 698.362 459.304 701.417 455.937 704.087C453.961 705.656 452.212 707.012 449.909 708.142C445.071 710.655 436.485 712.455 431.883 713.412C427.281 714.369 422.988 715.235 421.348 715.91C419.708 716.584 407.475 717.419 404.286 718.835C402.288 719.732 400.364 720.744 398.525 721.866C398.525 721.866 405.549 720.855 407.189 720.455C408.828 720.055 417.019 721.968 420.413 721.866C423.806 721.764 425.796 718.247 431.065 716.471C436.335 714.694 450.209 715.294 453.28 715.502C456.351 715.71 479.051 717.823 482.563 717.521C486.074 717.22 481.273 716.106 474.604 714.588C467.935 713.071 486.524 714.196 486.597 714.196C491.548 714.737 496.305 715.294 500.575 716.004C534.909 721.721 567.459 728.752 600.848 733.583C615.749 735.736 630.299 737.92 645.772 738.861C653.854 739.355 660.986 738.888 669.026 738.234C671.107 738.057 673.724 737.669 676.449 737.265L676.904 737.124C676.904 737.124 668.895 735.297 655.071 734.214Z" fill="#FFFFA7"/>
<path opacity="0.2" d="M113.164 578.551C121.886 581.422 132.671 584.131 141.974 585.304C159.655 587.539 178.453 584.869 196.106 584.869C205.101 584.869 223.577 587.308 236.01 585.147C229.228 577.74 208.19 573.599 208.19 573.599C208.19 573.599 175.146 570.093 145.168 562.737C118.12 556.094 100.076 551.193 77.1304 549.334C78.6431 550.012 79.9923 550.546 80.9827 550.903C88.8553 553.742 96.6826 556.051 104.605 558.933C115.267 562.804 126.442 566.705 137.277 569.615C145.154 571.721 154.181 571.301 160.196 575.932C147.094 581.312 124.189 571.991 113.164 578.551Z" fill="#FFFFA7"/>
<path opacity="0.2" d="M158.097 593.586C132.121 593.586 108.321 583.806 83.4585 578.775C80.8873 578.257 77.3212 577.548 74.7727 578.83C76.5398 580.363 79.8334 583.536 78.5023 585.759C76.9941 588.276 68.9034 588.327 69.1078 591.57C69.185 592.747 72.4286 594.578 73.4144 595.393C76.9623 598.346 80.0878 600.307 84.9531 601.667C93.0711 603.914 101.657 605.503 110.025 606.981C115.367 607.918 121.423 609.639 126.888 609.53C122.967 605.44 112.582 605.608 106.936 604.354C99.5446 602.722 87.329 599.554 82.8589 593.97C85.7435 591.892 93.698 592.453 91.9445 588.418C101.357 587.81 110.325 591.711 119.428 593.084C128.087 594.397 136.782 594.684 145.54 594.997C149.111 595.103 154.422 595.813 158.097 593.586Z" fill="#FFFFA7"/>
<path opacity="0.1" d="M582.708 749.64C558.594 744.378 530.888 739.473 505.026 737.543C464.309 734.508 436.793 725.187 395.789 724.995C394.59 729.45 385.491 730.54 372.067 729.795C354.713 728.838 339.74 740.571 347.082 742.598C350.548 743.551 370.491 745.221 401.141 743.774C427.943 742.523 471.741 741.421 493.233 744.253C512.335 746.786 588.69 750.954 582.708 749.64Z" fill="#FFFFA7"/>
<path opacity="0.2" d="M440.114 688.927C434.967 691.249 429.997 693.707 424.882 695.594C413.211 699.907 399.338 699.738 387.177 703.616C367.47 709.89 348.599 712.33 328.27 716.808C304.975 721.941 282.597 729.05 258.702 732.155C226.57 736.332 194.089 742.092 162.253 747.672C148.966 749.997 136.637 754.609 123.185 756.216C110.084 757.785 97.0778 759.228 83.8673 759.973C53.0172 761.694 21.899 762.828 -9.01933 762.428C-29.7936 762.161 -49.9045 758.585 -70.6652 757.895C-73.7679 757.789 -77.0978 757.718 -80.5367 757.616V765.537C-65.3773 767.231 -49.046 766.604 -35.9763 766.396C-2.25964 765.855 30.1669 772.968 64.2152 769.984C85.2347 768.141 107.581 772.509 128.128 767.533C149.306 762.4 171.18 760.498 192.181 754.593C209.217 749.785 226.625 747.566 244.047 744.139C252.224 742.531 263.403 739.304 271.512 742.606C265.339 751.036 242.797 755.507 231.922 757.471C220.61 759.514 210.035 761.534 200.84 767.172C178.489 780.83 143.564 779.262 116.98 782.03C72.8374 786.645 27.7774 786.316 -16.5331 785.951C-37.6117 785.767 -59.4308 785.104 -80.5503 782.383V790.527C-67.0627 792.17 -54.0067 795.327 -40.51 796.935C-1.82353 801.538 37.817 795.653 76.3081 793.147C95.7195 791.88 114.795 791.186 134.424 791.186C160.536 791.186 191.291 792.202 215.05 782.038C240.698 771.058 269.473 767.09 294.976 755.965C318.83 745.562 338.133 735.391 364.026 729.132C369.233 727.877 384.982 730.509 389.012 728.932C392.564 727.54 392.469 722.929 395.694 720.741C402.104 716.392 417.863 715.592 426.063 713.902C435.467 711.965 444.066 710.934 452.411 705.707C459.135 701.495 457.767 697.966 455.75 693.735C451.207 692.519 447.201 691.351 443.939 690.257C442.608 689.794 441.336 689.359 440.114 688.927Z" fill="#151515"/>
<path opacity="0.3" d="M424.882 695.586C413.211 699.899 399.338 699.731 387.176 703.609C367.47 709.883 348.599 712.322 328.27 716.8C304.974 721.933 282.597 729.042 258.701 732.148C226.57 736.324 194.089 742.084 162.253 747.664C160.291 748.005 158.351 748.401 156.425 748.841C162.617 748.586 168.799 748.331 174.937 748.162C179.393 748.033 183.736 747.97 188.111 747.237C189.928 746.935 192.726 745.758 194.144 746.931C190.509 748.539 186.421 750.025 183.064 751.966C190.569 752.225 198.964 749.095 206.005 747.307C215.79 744.829 225.639 742.602 235.533 740.331C250.393 736.928 265.398 736.665 280.053 732.207C286.432 730.194 292.963 728.559 299.6 727.313C305.792 726.211 311.298 724.058 317.272 722.474C328.347 719.541 341.349 717.914 352.86 716.49C358.443 715.8 364.217 716.992 369.668 716.133C376.083 715.129 381.348 710.02 387.195 707.699C391.637 705.926 396.003 704.283 400.673 703.417C404.648 702.675 408.805 703.17 412.757 702.558C416.219 702.025 420.48 698.978 423.264 697.241C424.977 696.178 426.826 695.15 428.648 694.104C427.403 694.621 426.149 695.123 424.882 695.586Z" fill="#151515"/>
<path opacity="0.3" d="M313.197 656.851C312.743 652.115 312.02 647.335 311.035 642.343C309.49 640.7 308.045 638.99 306.705 637.218C306.155 638.011 305.504 638.748 304.766 639.417C296.016 637.457 287.403 641.527 279.39 643.79C269.536 646.57 259.533 646.927 249.321 648.538C238.791 650.201 228.497 652.209 217.912 653.467C208.372 654.601 199.386 657.844 189.815 659.118C177.422 660.761 166.333 661.212 154.067 664.216C129.659 670.227 102.988 672.419 77.8527 675.16C59.9313 677.12 43.1184 680.218 25.0335 680.893C10.0423 681.45 -3.62245 677.442 -18.75 679.352C-31.8605 681.014 -44.0034 681.43 -57.173 681.312C-62.7606 681.265 -68.0757 681.34 -73.1682 679.991C-75.6122 679.344 -78.0699 678.744 -80.5366 678.175V710.816C-64.8867 712.498 -46.9199 709.796 -31.6152 707.679C-22.7295 706.448 -13.7256 706.832 -4.85355 705.75C6.50345 704.373 17.5924 701.766 28.9722 700.479C40.3519 699.193 51.8315 698.005 63.2249 696.558C67.7995 695.978 74.8045 696.339 77.9799 693.08C75.5132 689.676 55.8156 692.398 50.2688 692.229C43.8226 692.033 36.2997 692.959 30.2169 692.327C36.4087 689.669 45.3172 690.457 52.1268 689.19C63.7518 687.006 75.6404 686.763 87.329 684.83C100.385 682.669 113.55 680.881 126.788 679.556C132.548 678.983 152.441 675.674 155.725 680.795C153.082 682.104 148.825 682.798 147.271 684.841C151.487 686.41 159.918 682.881 164.08 681.657C169.844 679.987 175.228 677.811 181.101 676.324C191.841 673.607 202.276 669.799 212.733 666.831C231.54 661.498 254.073 662.447 273.679 661.275C286.354 660.526 301.368 661.016 313.197 656.851Z" fill="#151515"/>
<path opacity="0.3" d="M273.743 654.381C276.687 653.283 279.894 652.256 282.943 651.079C284.096 650.636 288.939 649.252 289.398 648.225C290.565 645.613 286.154 645.417 289.998 643.017C293.177 641.021 297.48 640.37 301.164 638.947C293.659 638.555 286.3 641.853 279.39 643.802C269.537 646.582 259.533 646.939 249.321 648.55C238.791 650.213 228.497 652.22 217.912 653.479C208.372 654.612 199.387 657.855 189.815 659.13C178.458 660.636 168.178 661.141 157.107 663.545C164.439 663.02 171.739 662.2 179.14 662.455C184.182 662.628 187.725 662.929 192.573 662.122C196.311 661.498 199.95 660.62 203.625 659.726C205.951 659.157 210.153 657.055 212.379 657.765C211.957 658.075 211.375 659.208 211.053 659.487C214.751 659.851 219.448 659.271 223.182 658.934C232.05 658.149 240.445 657.698 249.53 658.079C255.624 658.287 261.727 658.084 267.783 657.471C270.936 657.189 275.247 657.82 278.123 656.922C276.642 656.134 274.793 655.448 273.743 654.381Z" fill="#151515"/>
<path opacity="0.3" d="M57.7592 572.509C54.0523 578.461 46.7565 588.417 48.9371 595.099C50.8042 600.817 62.0476 607.436 67.8715 610.075C80.5913 615.843 96.1232 615.835 108.275 621.862C100.861 622.203 93.711 625.219 86.3652 625.587C76.5528 626.089 65.7046 622.744 55.9285 625.717C56.1829 633.367 81.1365 634.967 89.0273 637.641C104.473 642.896 119.887 642.704 136.627 644.868C134.537 646.209 130.898 647.08 127.568 647.15C142.323 651.413 160.781 646.099 175.168 650.824C158.959 656.585 130.926 652.001 113.649 650.781C95.0965 649.448 79.8054 643.809 60.067 644.527C38.893 645.311 18.4413 642.919 -2.79179 644.943C-16.3203 646.233 -38.3528 649.338 -50.4912 644.743C-39.2478 638.653 -22.1668 636.116 -11.9955 626.826C-9.05177 624.14 -10.7508 623.532 -8.54752 620.595C-4.10012 614.674 0.883337 610.557 6.6845 605.302C17.5191 595.499 27.3179 591.221 39.8469 583.477C46.2432 579.532 51.204 575.301 57.7592 572.509Z" fill="#151515"/>
<path opacity="0.3" d="M32.8462 685.004C35.2237 684.681 37.544 684.098 39.7512 683.269C37.4056 683.708 35.0983 684.287 32.8462 685.004Z" fill="#151515"/>
<path opacity="0.3" d="M230.805 711.384C248.817 710.73 266.42 708.918 284.41 707.628C296.153 706.785 306.302 706.561 316.709 702.26C307.519 705.624 284.001 696.84 274.743 694.264C261.541 690.594 252.728 684.241 240.89 692.304C236.638 695.193 233.549 698.04 228.624 699.146C224 700.189 217.267 698.938 211.898 699.985C198.978 702.499 187.639 703.122 174.238 704.201C166.479 704.832 159.31 706.702 151.21 706.052C146.577 705.659 136.028 705.742 133.003 702.915C136.301 699.436 151.737 690.272 137.019 693.276C133.507 693.994 129.428 696.119 125.989 697.033C121.977 698.084 118.083 699.445 114.355 701.099C93.2305 710.31 66.6551 719.333 42.5783 717.835C41.6697 715.768 42.124 713.812 43.7185 711.89C35.2099 707.636 21.7859 712.412 12.4913 710.106C7.63505 708.906 8.17564 706.969 3.89177 705.534C-2.59535 703.358 -17.3322 705.875 -0.98265 699.652C10.0836 695.429 21.2771 688.641 32.8703 685.014C24.5979 686.273 13.7633 685.994 6.97634 686.1C-1.75492 686.229 -12.8212 685.143 -1.75038 678.548C4.67768 674.721 14.9081 670.74 8.46638 661.831C4.24157 655.993 -8.26022 657.322 -14.8291 654.722C-5.67536 648.879 9.77016 648.115 20.6729 645.386C35.5824 641.652 49.9194 640.555 64.7381 640.833C57.2788 639.692 41.0655 637.061 36.2729 632.253C32.6386 628.626 35.2326 627.046 36.4682 622.525C37.195 619.846 39.3438 614.964 38.5988 612.184C37.8538 609.404 33.9015 607.984 33.6835 606.216C32.834 599.279 44.7588 593.668 44.2818 588.084C30.5518 593.963 18.5276 602.43 9.09783 612.859C-0.228544 623.105 -5.3074 632.543 -18.7405 639.476C-23.7603 642.064 -28.3121 643.872 -34.0588 644.899C-39.3648 645.852 -47.5691 644.793 -52.2573 647.46C-64.0685 654.153 -42.7991 655.608 -38.8287 661.086C-42.0405 664.427 -46.5833 666.737 -49.9223 670.395C-55.8279 676.858 -58.1311 683.936 -61.4973 691.402C-66.9487 703.514 -76.4522 714.729 -80.5044 726.466V747.017C-79.9046 748.532 -79.1851 750.01 -78.3511 751.44C-75.1166 757.008 -70.3013 761.804 -72.7271 768.227C-73.3813 769.956 -76.2114 771.541 -77.1745 773.352C-78.6282 776.097 -78.5692 779.011 -80.5044 781.458V798.135C-80.5044 798.135 -30.3246 804.236 -8.09668 807.726C-7.25356 807.854 -6.41941 808.023 -5.59814 808.232C5.58624 800.436 16.807 792.986 30.667 787.826C38.9849 784.724 46.1762 779.983 54.2533 776.783C54.4441 776.18 55.657 776.807 54.9392 775.607C46.6486 775.215 38.0582 775.356 30.1219 776.85C39.4846 764.82 62.93 769.051 78.2756 766.98C103.484 763.573 128.828 762.439 153.232 754.648C161.445 752.024 176.968 750.832 181.829 744.751C176.686 741.837 166.279 743.449 160.241 742.79C153.786 742.096 147.453 741.221 141.243 739.527C151.851 735.83 161.105 729.097 171.68 724.674C190.842 716.655 209.222 712.165 230.805 711.384Z" fill="#151515"/>
<path opacity="0.3" d="M682.131 736.649C680.411 736.171 678.607 735.958 676.802 736.022C676.843 736.653 678.846 736.779 679.405 736.971C680.314 737.277 680.768 737.892 679.828 738.328C678.751 738.81 677.293 738.72 676.134 739.112C675.574 739.227 675.025 739.376 674.49 739.559C674.09 739.751 673.963 740.061 673.627 740.273C672.845 740.778 671.455 740.92 670.524 741.01C668.931 741.097 667.351 741.303 665.799 741.625C665.409 741.727 664.328 741.912 664.291 742.41C664.264 742.802 664.991 743.014 665.227 743.253C667.612 745.637 657.99 746.135 656.941 746.268C655.287 746.484 653.611 746.366 651.944 746.558C650.127 746.762 648.31 747.08 646.524 747.343L646.147 747.39C645.693 747.429 645.207 747.484 644.784 747.519C643.709 747.628 642.646 747.812 641.604 748.068C639.292 748.59 636.912 749.244 634.463 749.754C631.777 750.357 629.023 750.706 626.25 750.797C622.915 750.856 619.585 751.189 616.256 751.327C614.443 751.365 612.635 751.496 610.841 751.719C610.027 751.836 608.855 752.04 608.451 752.766C607.683 754.138 611.109 754.758 612.085 755.228C613.062 755.699 615.265 756.267 615.592 757.287C615.965 758.507 614.048 759.248 613.048 759.601C610.441 760.471 607.965 761.428 605.207 761.953C602.909 762.377 600.442 763.028 598.648 764.408C599.42 764.377 600.719 764.357 601.401 764.671C602.082 764.984 602.763 765.639 603.368 766.051C603.036 765.239 601.519 764.659 602.191 763.875C603.245 762.647 606.734 762.679 608.238 762.573C611.813 762.322 615.415 762.322 618.968 761.93C620.489 761.753 622.838 761.538 622.861 759.828C622.861 758.31 620.589 756.848 619.227 756.111C618.636 755.781 614.584 754.358 615.465 753.499C615.919 753.06 617.319 753.268 617.877 753.315C618.82 753.365 619.767 753.3 620.689 753.123C623.415 752.676 626.186 752.503 628.921 752.091C630.602 751.84 632.237 751.805 633.918 751.636C635.154 751.519 636.33 751.201 637.552 751.072C638.27 750.997 639.006 751.013 639.724 750.95C640.7 750.864 641.668 750.633 642.649 750.558C643.485 750.515 644.33 750.617 645.166 750.558C645.429 750.605 645.67 750.648 645.866 750.691C646.374 750.809 647.81 751.005 647.969 751.57C648.151 752.248 647.11 752.221 646.733 752.546C646.356 752.872 646.692 753.072 646.443 753.33C645.988 753.777 644.625 753.585 644.071 753.585C641.504 753.585 638.992 753.727 636.435 753.923C635.676 753.985 631.692 754.315 631.61 755.42C631.533 756.432 634.336 757.232 635.131 757.381C637.666 757.918 640.437 757.926 643.022 758.346C643.826 758.525 644.647 758.642 645.475 758.695C645.84 758.644 646.209 758.618 646.579 758.616C646.989 758.743 647.349 758.969 647.615 759.267C648.032 759.934 647.474 760.016 646.765 760.165C645.448 760.448 644.039 760.51 642.826 761.11C641.959 761.542 641.877 762.012 642.972 762.036C644.067 762.059 645.407 761.687 646.515 761.475C647.746 761.236 648.987 761.083 650.218 760.883C650.672 760.797 651.789 760.738 651.871 760.201C652.026 759.185 649.463 758.605 648.764 758.416C648.187 758.256 645.925 757.942 646.079 757.138C646.206 756.471 648.623 755.84 649.259 755.569C649.981 755.224 651.653 754.785 651.571 753.966C651.544 753.73 651.058 753.244 650.972 752.966C650.758 752.264 651.222 752.425 651.253 751.844C651.303 751.107 649.822 750.891 649.791 750.162C649.659 747.629 657.736 747.884 659.299 747.774C661.706 747.605 664.1 747.382 666.494 747.088C667.498 746.954 671.101 746.99 671.601 745.998C672.137 744.919 669.134 743.206 668.198 743.531C668.652 744.163 669.865 744.802 668.121 744.774C667.321 744.774 667.253 744.586 666.844 744.174C666.544 743.872 665.572 743.245 665.44 742.919C665.082 742.061 668.007 741.974 668.761 741.892C670.301 741.727 671.837 741.947 673.368 742.096C674.34 742.194 677.034 742.943 677.833 742.214C677.493 740.9 676.384 740.806 678.519 740.124C679.882 739.688 681.245 739.532 682.608 739.171C683.135 739.034 685.211 738.528 685.211 737.9C685.211 737.273 682.64 736.794 682.131 736.649Z" fill="white"/>
</g>
</g>
<defs>
<linearGradient id="paint0_linear_2491_2474" x1="-80.5366" y1="691.17" x2="676.885" y2="691.17" gradientUnits="userSpaceOnUse">
<stop stop-color="#4E0076"/>
<stop offset="1" stop-color="#AE0BC4"/>
</linearGradient>
<clipPath id="clip0_2491_2474">
<rect width="1336" height="768" fill="white"/>
</clipPath>
</defs>
</svg>
