<svg width="1336" height="768" viewBox="0 0 1336 768" fill="none" xmlns="http://www.w3.org/2000/svg">
<g clip-path="url(#clip0_2488_1562)">
<path d="M1335 -101H3.47644V784.476H1335V-101Z" fill="url(#paint0_linear_2488_1562)"/>
<g opacity="0.3">
<path d="M3.47644 784.65H1334.12V55.758C1333.67 56.6275 1333.24 57.5015 1332.82 58.3891C1332.63 58.7811 1333 59.9479 1332.27 59.2496C1331.54 58.5513 1332.85 59.3623 1330.66 56.5464C1328.48 53.7306 1327.24 48.2611 1321.7 43.3548C1316.16 38.4485 1301.66 34.6369 1292.76 39.3405C1290.74 40.4083 1288.63 41.2192 1286.57 41.2463C1284.51 41.2733 1282.76 40.557 1280.9 39.8947C1270.62 36.1597 1260.15 45.5083 1255.83 51.0094C1251.5 56.5104 1253.47 60.3669 1251.03 62.8404C1249.54 64.3542 1248.36 58.335 1244.67 58.6414C1240.97 58.9478 1235.76 59.6866 1233.94 64.5299C1227.76 54.6722 1219.12 50.1533 1207.48 52.0456C1205.8 52.3159 1204.78 54.2352 1203.35 53.7216C1201.92 53.208 1201.19 50.4507 1199.18 49.1577C1185.66 40.4578 1171.51 42.2104 1159.92 53.2125C1157.98 55.0552 1158.47 58.0917 1156.04 59.1775C1153.62 60.2633 1147.28 58.5378 1144.5 61.0788C1144.79 53.9423 1147.05 49.6082 1139.4 44.0396C1131.75 38.471 1117.9 42.269 1110.81 47.4276C1103.72 52.5862 1104.37 58.2404 1099.9 63.1242C1097.62 65.6067 1094.77 60.4976 1089.72 63.8135C1084.66 67.1295 1077.84 74.2524 1079.59 82.5062C1065.77 75.4869 1052.03 74.0226 1039.21 83.1414C1031.8 88.4037 1029.92 95.9411 1028.13 104.046C1022.03 102.032 1016.16 101.911 1010.29 104.366C1002.54 93.8687 997.929 85.7005 982.381 83.7632C966.832 81.8259 949.897 89.3858 940.182 102.726C936.204 108.182 936.359 116.319 934.076 121.045C932.772 123.748 926.107 124.293 924.034 125.911C921.96 127.528 921.519 132.033 919.605 131.029C910.167 126.073 902.33 118.725 888.877 120.054C875.425 121.383 863.872 130.416 858.24 143.076C853.993 142.905 849.792 143.581 846.396 145.676C843 147.771 841.85 150.203 840.35 153.515C831.107 147.325 821.805 145.581 811.299 149.397C809.212 150.149 807.78 152.33 806.244 152.645C804.707 152.961 803.875 151.397 802.338 151.001C785.331 146.622 771.26 150.668 760.29 164.454C760.212 162.287 753.993 161.652 754.834 159.548C757.107 154.001 762.299 148.419 761.099 141.004C757.821 120.657 742.091 110.304 721.628 108.889C712.322 108.245 704.807 115.021 697.369 116.039C693.341 116.589 690.718 110.034 686.167 108.263C672.664 103.01 659.953 100.64 646.159 107.101C645.432 107.434 644.927 108.79 644.409 108.173C639.485 102.366 637.59 98.7119 629.797 93.6344C622.005 88.5569 609.793 84.1056 599.182 86.2501C597.364 86.6106 595.286 88.6695 594 87.9982C592.713 87.3269 592.44 83.7046 590.517 82.0106C580.97 73.6217 569.872 70.9635 556.92 70.3373C533.479 69.1974 512.889 71.9727 494.69 87.007C493.076 88.3586 493.326 91.7376 491.258 91.4358C482.97 90.2419 478.787 86.597 468.026 87.5432C457.265 88.4893 443.258 94.9409 437.389 105.65C436.97 106.425 435.684 105.2 434.766 104.983C419.208 101.609 402.614 112.417 400.868 125.911C399.123 139.404 407.915 141.869 416.353 147.577C412.334 151.992 410.193 157.061 412.216 163.071C403.687 166.995 397.118 172.009 391.612 179.475C379.874 164.819 365.875 155.317 346.431 157.732C342.889 158.182 340.407 162.129 338.448 162.107C336.488 162.084 335.965 160.034 334.238 157.872C332.51 155.709 324.641 153.817 323.986 150.312C322.386 141.688 321.749 132.673 315.348 124.406C308.947 116.139 297.19 109.358 287.806 107.286C278.423 105.213 268.657 109.326 264.707 112.823C260.756 116.319 262.788 116.522 261.024 117.616C260.21 118.121 260.06 118.342 260.042 118.418C260.019 118.387 259.951 118.333 259.751 118.274C258.937 118.035 258.842 116.337 258.328 115.192C253.727 105.24 247.713 96.6755 236.756 92.7063C235.419 92.2242 234.542 92.5801 233.346 92.472C232.151 92.3639 231.528 91.9404 230.309 91.9629C229.091 91.9854 228.391 92.9541 227.091 93.274C225.79 93.5938 224.927 93.5848 223.226 93.9498C221.526 94.3147 218.38 96.3105 216.466 96.3286C214.552 96.3466 213.915 99.7752 211.829 98.0091C209.742 96.243 206.241 90.3455 202.172 88.0478C191.68 82.1007 181.341 77.7576 168.78 76.852C166.175 76.6673 163.993 76.2663 160.901 76.6943C157.81 77.1223 156.709 77.8702 152.4 78.7983C148.09 79.7264 143.125 82.2764 137.206 84.2047C131.287 86.133 124.549 93.3551 120.344 97.4459C118.18 99.5544 111.206 96.1439 108.81 97.1891C106.414 98.2343 103.681 98.3335 102.577 98.784C101.472 99.2345 102.172 98.4506 102.045 98.2479C98.5486 92.8414 97.2256 87.9712 92.4975 82.8441C87.7693 77.717 80.8226 72.8557 73.2303 71.0671C58.8276 67.6746 43.2565 70.1661 34.4367 81.952C25.6169 93.738 26.7899 106.186 29.945 118.999C30.3996 120.887 32.7864 121.964 32.35 123.383C31.9135 124.802 31.7862 123.28 29.4585 125.091C27.1308 126.902 22.9573 126.893 19.6249 131.808C16.2925 136.723 17.7655 146.27 23.5483 150.879C24.003 151.235 22.88 150.519 21.5389 150.582C20.1977 150.645 15.5923 150.992 13.1191 151.582C10.646 152.172 10.2959 152.226 7.29533 154.321C6.13148 155.132 4.77214 156.975 3.47644 159.097V784.65Z" fill="white"/>
</g>
<path d="M537.892 488.359C536.701 488.075 535.619 487.377 534.423 487.007C532.683 486.491 530.874 486.24 529.058 486.264C527.399 486.241 525.726 486.12 524.112 486.57H524.039C523.449 486.336 522.841 486.148 522.221 486.007C520.402 485.62 518.72 485.845 516.901 486.057C516.283 486.136 515.661 486.184 515.037 486.201C514.787 486.201 514.533 486.201 514.283 486.174C514.237 486.174 513.878 486.142 513.774 486.124C512.785 485.917 511.787 485.759 510.782 485.651C510.568 485.651 510.327 485.62 510.123 485.611C509.796 485.345 508.036 484.813 507.85 484.75C506.892 484.418 505.904 484.179 504.899 484.038C503.117 483.786 501.408 484.128 499.726 484.327L499.312 484.358L499.098 484.327L498.671 484.21C498.284 484.088 497.907 483.944 497.516 483.827C495.547 483.236 493.424 483.002 491.415 483.592C490.756 483.786 490.124 484.043 489.496 484.291C489.224 484.036 488.929 483.807 488.614 483.606C486.917 482.614 484.939 482.198 482.981 482.421C481.404 482.579 479.945 483.322 478.467 483.867C477.158 484.345 475.68 484.867 474.584 485.759C474.523 485.816 474.466 485.876 474.412 485.94C474.209 485.831 474 485.728 473.784 485.629C470.706 484.241 466.719 483.755 463.528 485.03C462.941 485.276 462.392 485.602 461.896 485.998C461.56 486.203 461.236 486.424 460.923 486.66C460.427 486.512 459.832 486.435 459.395 486.336C458.056 486.067 456.743 485.681 455.472 485.183C454.141 484.633 452.774 484.174 451.38 483.809C449.798 483.416 448.174 483.21 446.543 483.196C445.098 483.094 443.648 483.296 442.288 483.791C441.115 484.291 440.201 485.241 439.069 485.818C438.837 485.944 438.595 486.051 438.346 486.138L438.01 486.214C437.897 486.218 437.784 486.23 437.673 486.25C437.323 486.25 436.968 486.25 436.623 486.25C435.004 486.25 433.381 486.25 431.763 486.25C430.185 486.337 428.603 486.269 427.039 486.048C425.17 485.622 423.231 485.586 421.347 485.944C420.829 486.057 420.306 486.165 419.792 486.291C419.425 486.177 419.05 486.091 418.67 486.034C416.646 485.638 414.564 485.638 412.541 486.034C411.927 486.182 411.3 486.273 410.668 486.305C410.213 486.305 409.572 486.129 409.013 486.048C407.261 485.799 405.492 485.683 403.721 485.701C402.135 485.701 400.539 485.611 398.952 485.94C398.629 486.007 398.311 486.084 397.984 486.142C397.059 485.852 396.094 485.709 395.124 485.719C394.518 485.755 393.911 485.748 393.306 485.696C392.565 485.597 391.815 485.444 391.069 485.34C390.269 485.222 389.459 485.171 388.65 485.187C387.935 485.262 387.214 485.284 386.495 485.255C385.063 485.084 383.731 484.674 382.263 484.701C381.634 484.676 381.004 484.743 380.394 484.899C380.187 484.952 379.996 485.052 379.835 485.192C379.694 485.331 379.644 485.399 379.658 485.431C379.362 485.431 379.062 485.489 378.994 485.705C378.926 485.922 379.376 486.205 379.703 486.332C378.826 486.399 377.939 486.332 377.057 486.453C375.681 486.663 374.29 486.767 372.897 486.764C371.693 486.764 370.511 486.314 369.306 486.21C367.697 486.105 366.084 486.085 364.473 486.151C363.591 486.151 362.709 486.151 361.832 486.237L361.423 486.273C360.059 485.557 358.34 485.503 356.826 485.584C354.276 485.723 351.157 485.192 348.375 485.516C347.093 485.665 345.842 486.232 344.556 486.291C344.324 486.291 344.101 486.291 343.865 486.264C342.973 485.958 342.029 485.833 341.087 485.895C340.591 485.962 340.107 486.094 339.646 486.287C339.534 486.325 339.418 486.349 339.3 486.359L338.673 486.219C336.777 485.813 335.063 485.958 333.149 486.025C332.695 486.025 332.631 486.246 332.94 486.575C333.398 486.959 333.973 487.178 334.572 487.197C335.654 487.197 337.014 486.85 338.032 487.165C339.25 487.544 340.364 487.985 341.669 487.994C342.28 487.987 342.889 487.922 343.487 487.8C344.646 488.067 345.836 488.179 347.024 488.134C348.071 488.069 349.108 487.891 350.116 487.602C351.157 487.354 352.228 487.249 353.298 487.291C354.599 487.332 355.894 487.48 357.195 487.557C357.758 487.589 358.322 487.616 358.89 487.607C359.687 487.944 360.53 488.166 361.391 488.264C362.676 488.366 363.967 488.356 365.251 488.233C366.328 488.179 367.415 488.197 368.497 488.179C369.065 488.179 369.647 488.143 370.215 488.179C370.827 488.254 371.434 488.363 372.034 488.503C374.687 488.963 377.403 488.94 380.049 488.436C381.099 488.233 382.186 488.359 383.231 488.206C384.195 488.062 385.086 487.58 386.059 487.539C388.361 487.438 390.668 487.612 392.928 488.057C395.552 488.571 398.152 489.057 400.816 489.346C403.48 489.634 406.149 489.747 408.822 489.796C411.374 489.904 413.93 489.874 416.478 489.706C421.315 489.296 426.098 489.062 430.926 489.733C433.616 490.149 436.357 490.106 439.032 489.607L440.36 489.355C440.528 489.409 440.696 489.476 440.76 489.494C442.277 489.96 443.878 490.092 445.452 489.882C446.141 489.735 446.794 489.451 447.37 489.048C448.488 489.592 449.708 489.899 450.953 489.949C451.862 489.994 453.276 489.828 453.94 489.886C455.304 489.994 456.595 490.431 457.968 490.495C459.251 490.619 460.547 490.465 461.764 490.044C462.178 489.869 462.582 489.671 462.973 489.449C463.383 489.645 463.807 489.809 464.242 489.94C465.519 490.328 467.079 490.269 468.183 490.391C469.734 490.585 471.161 491.062 472.757 490.999C473.995 490.942 475.219 490.714 476.394 490.323C477.576 489.954 478.79 489.634 479.958 489.215C480.604 488.981 481.186 488.638 481.813 488.363C481.999 488.282 482.186 488.197 482.377 488.134C482.445 488.114 482.515 488.103 482.586 488.102L482.659 488.134C482.959 488.269 483.25 488.431 483.568 488.584C484.05 488.837 484.552 489.053 485.068 489.229C486.309 489.629 487.978 489.909 489.237 489.436C489.467 489.36 489.673 489.225 489.833 489.044C490.452 489.118 491.078 489.118 491.697 489.044C493.44 488.765 495.121 488.189 496.666 487.341C496.879 487.228 497.193 487.138 497.434 487.007C498.238 487.298 499.065 487.519 499.907 487.67C501.785 488.045 503.724 487.997 505.581 487.53C505.881 487.444 506.177 487.332 506.49 487.233C506.6 487.201 506.713 487.156 506.836 487.129C506.876 487.132 506.916 487.14 506.954 487.152C507.714 487.422 508.511 487.574 509.318 487.602C509.493 487.595 509.667 487.57 509.836 487.526C510.118 487.557 510.4 487.589 510.682 487.602C510.983 487.643 511.287 487.663 511.591 487.661L511.741 487.692C512.251 487.8 512.769 487.895 513.296 487.976C514.983 488.226 516.694 488.276 518.393 488.125C519.931 488.385 521.496 488.458 523.053 488.341C523.994 488.576 524.965 488.676 525.935 488.638C526.669 488.552 527.396 488.409 528.108 488.21C528.559 488.138 529.016 488.114 529.472 488.138C529.686 488.189 529.903 488.228 530.122 488.255C531.131 488.391 532.15 488.467 533.15 488.652H533.214C534.645 489.158 536.131 489.5 537.642 489.67C537.964 489.702 539.178 489.742 539.251 489.219C539.324 488.697 538.233 488.436 537.892 488.359Z" fill="#FEC6FF"/>
<path d="M204.14 487.354C202.944 487.07 201.867 486.372 200.671 486.002C198.93 485.486 197.12 485.235 195.302 485.259C193.643 485.237 191.97 485.115 190.356 485.565H190.283C189.7 485.332 189.1 485.144 188.487 485.002C186.669 484.615 184.987 484.84 183.168 485.052C182.55 485.131 181.927 485.179 181.304 485.196C181.054 485.196 180.799 485.196 180.549 485.196C180.504 485.196 180.149 485.16 180.04 485.137C179.035 484.975 178.076 484.741 177.053 484.687C176.835 484.687 176.599 484.655 176.39 484.646C176.067 484.376 174.307 483.849 174.116 483.786C173.159 483.452 172.171 483.214 171.166 483.074C169.384 482.822 167.674 483.16 165.992 483.362L165.583 483.394L165.369 483.362L164.942 483.245C164.551 483.124 164.174 482.979 163.783 482.862C161.814 482.272 159.691 482.038 157.681 482.628C157.022 482.822 156.395 483.078 155.763 483.322C155.489 483.07 155.194 482.843 154.881 482.641C153.191 481.647 151.221 481.221 149.266 481.43C147.684 481.587 146.225 482.331 144.752 482.876C143.438 483.358 141.965 483.876 140.869 484.768C140.807 484.823 140.749 484.884 140.697 484.948C140.487 484.84 140.283 484.736 140.069 484.637C136.987 483.254 133.004 482.759 129.808 484.038C129.223 484.288 128.674 484.613 128.176 485.007C127.944 485.178 127.462 485.457 127.203 485.669C126.708 485.516 126.112 485.444 125.68 485.345C124.34 485.074 123.025 484.688 121.752 484.191C120.422 483.64 119.055 483.179 117.66 482.813C116.079 482.424 114.457 482.219 112.828 482.204C111.383 482.102 109.932 482.305 108.572 482.799C107.395 483.299 106.481 484.25 105.354 484.827C105.121 484.953 104.877 485.06 104.626 485.146C104.514 485.165 104.403 485.191 104.294 485.223C104.181 485.226 104.069 485.24 103.958 485.264C103.608 485.264 103.253 485.264 102.903 485.264C101.285 485.264 99.6616 485.264 98.0432 485.264C96.4656 485.346 94.8836 485.276 93.3195 485.056C91.4516 484.63 89.5146 484.595 87.6321 484.953C87.1138 485.065 86.5865 485.173 86.0727 485.3C85.706 485.184 85.3305 485.098 84.9498 485.043C82.9266 484.646 80.8446 484.646 78.8214 485.043C78.2073 485.192 77.5799 485.281 76.9483 485.309C76.3942 485.253 75.8433 485.169 75.298 485.056C73.5455 484.808 71.7764 484.692 70.0061 484.709C68.4149 484.709 66.801 484.624 65.2371 484.948C64.9143 485.016 64.596 485.092 64.2687 485.146C63.3414 484.862 62.3753 484.72 61.4045 484.727C60.7916 484.77 60.1763 484.77 59.5633 484.727C58.8222 484.624 58.0767 484.471 57.3265 484.367C56.526 484.249 55.7171 484.197 54.9079 484.209C54.1924 484.287 53.4721 484.311 52.7529 484.281C51.3208 484.11 49.9888 483.7 48.5203 483.727C47.8908 483.704 47.2614 483.773 46.6518 483.93C46.446 483.98 46.2557 484.079 46.0971 484.218C45.9562 484.358 45.9062 484.421 45.9153 484.457C45.6198 484.457 45.3197 484.511 45.2561 484.732C45.1924 484.953 45.6334 485.232 45.9608 485.358C45.0879 485.426 44.2013 485.358 43.3148 485.48C41.9398 485.689 40.5506 485.793 39.1595 485.791C37.9502 485.791 36.7727 485.34 35.5679 485.237C33.9592 485.131 32.346 485.112 30.7352 485.178C29.8259 485.178 28.9712 485.178 28.0893 485.264L27.6846 485.3C26.3208 484.583 24.5977 484.529 23.0838 484.61C20.5379 484.75 17.4145 484.218 14.6368 484.543C13.3547 484.691 12.0999 485.259 10.8179 485.313C10.586 485.313 10.3632 485.313 10.1268 485.291C9.23358 484.985 8.28754 484.859 7.34451 484.921C6.84916 484.99 6.3648 485.122 5.90333 485.313C5.79192 485.352 5.67571 485.377 5.5578 485.385L4.93043 485.246C3.03462 484.84 1.32521 484.984 -0.588786 485.052C-1.07069 485.052 -1.11161 485.273 -0.802463 485.601C-0.345297 485.987 0.229902 486.207 0.829657 486.228C1.91168 486.228 3.27103 485.876 4.2894 486.192C5.51235 486.57 6.62619 487.016 7.92643 487.021C8.53747 487.014 9.14643 486.949 9.74495 486.827C10.9038 487.093 12.0933 487.205 13.282 487.16C14.329 487.096 15.3658 486.918 16.3734 486.629C17.4143 486.378 18.4858 486.275 19.5559 486.322C20.8516 486.358 22.1518 486.507 23.4475 486.584C24.0112 486.615 24.5795 486.647 25.1433 486.638C25.9429 486.972 26.7863 487.192 27.6483 487.291C28.9318 487.393 30.2219 487.383 31.5035 487.259C32.581 487.205 33.6721 487.219 34.7541 487.21C35.3224 487.21 35.8998 487.169 36.4681 487.21C37.08 487.283 37.6872 487.392 38.2866 487.534C40.9403 487.994 43.6563 487.971 46.3017 487.467C47.3519 487.264 48.4339 487.39 49.4841 487.232C50.4525 487.093 51.339 486.611 52.3165 486.575C54.6186 486.471 56.925 486.642 59.1859 487.084C61.8046 487.602 64.4096 488.088 67.0692 488.377C69.7288 488.665 72.4066 488.778 75.0798 488.827C77.63 488.935 80.1843 488.905 82.7312 488.737C87.573 488.327 92.3512 488.097 97.1839 488.764C99.8718 489.179 102.611 489.138 105.285 488.643C105.417 488.611 106.317 488.444 106.617 488.386L107.013 488.525C108.532 488.988 110.134 489.121 111.709 488.913C112.398 488.766 113.049 488.482 113.623 488.079C114.741 488.624 115.961 488.931 117.206 488.98C118.115 489.026 119.529 488.859 120.193 488.913C121.557 489.03 122.848 489.463 124.221 489.526C125.507 489.643 126.804 489.482 128.021 489.053C128.435 488.876 128.839 488.678 129.231 488.458C129.638 488.655 130.061 488.819 130.495 488.949C131.777 489.332 133.336 489.278 134.436 489.399C135.991 489.593 137.419 490.071 139.014 490.008C140.252 489.949 141.476 489.722 142.651 489.332C143.833 488.962 145.047 488.643 146.211 488.224C146.857 487.989 147.443 487.651 148.066 487.372C148.252 487.291 148.439 487.205 148.63 487.142C148.698 487.123 148.768 487.112 148.839 487.111L148.912 487.142C149.216 487.277 149.507 487.44 149.821 487.593C150.305 487.845 150.808 488.061 151.326 488.237C152.562 488.638 154.235 488.913 155.49 488.444C155.721 488.37 155.927 488.235 156.086 488.052C156.706 488.127 157.334 488.127 157.954 488.052C159.696 487.774 161.376 487.197 162.919 486.349C163.133 486.241 163.451 486.147 163.687 486.02C164.49 486.307 165.316 486.527 166.156 486.678C168.035 487.054 169.976 487.006 171.834 486.539C172.139 486.453 172.434 486.34 172.743 486.246C172.856 486.203 172.972 486.167 173.089 486.138C173.129 486.14 173.169 486.147 173.207 486.16C173.968 486.434 174.767 486.586 175.576 486.611C175.747 486.603 175.918 486.579 176.085 486.539C176.371 486.566 176.653 486.593 176.935 486.611C177.236 486.652 177.54 486.671 177.844 486.669L177.999 486.701C178.508 486.809 179.026 486.899 179.549 486.985C181.236 487.235 182.947 487.284 184.646 487.129C186.186 487.39 187.752 487.462 189.31 487.345C190.248 487.581 191.216 487.681 192.183 487.642C192.921 487.557 193.651 487.414 194.366 487.214C194.816 487.141 195.274 487.117 195.729 487.142C195.944 487.193 196.161 487.232 196.38 487.259C197.389 487.395 198.407 487.471 199.412 487.656H199.471C200.903 488.159 202.389 488.498 203.899 488.665C204.222 488.701 205.431 488.742 205.509 488.215C205.586 487.687 204.458 487.431 204.14 487.354Z" fill="#FEC6FF"/>
<path d="M323.283 485.444C322.818 485.138 322.269 484.981 321.71 484.994C320.464 484.931 319.219 484.867 317.978 484.768C317.418 484.696 316.855 484.665 316.291 484.674H316.254L315.736 484.525C313.322 483.84 310.935 484.002 308.462 483.998C306.284 483.998 304.057 483.831 301.893 483.998C301.382 483.982 300.876 484.103 300.429 484.349C300.065 484.629 300.274 484.651 299.833 484.683C298.674 484.764 297.478 484.683 296.314 484.683C294.855 484.683 293.373 484.764 291.895 484.791L291.759 484.759C291.404 484.674 291.041 484.602 290.677 484.53C289.717 484.349 288.747 484.228 287.772 484.169C286.863 484.111 285.953 484.093 285.044 484.106C284.64 483.984 284.235 483.854 283.835 483.692C281.889 482.894 279.984 482.083 277.875 481.831C276.511 481.664 275.092 481.579 273.71 481.511C272.691 481.436 271.667 481.496 270.664 481.691C270.11 481.235 269.52 480.822 268.9 480.457C267.248 479.471 265.455 478.74 263.581 478.29C261.763 477.893 258.476 477.501 257.157 479.191C256.806 479.76 256.515 480.364 256.289 480.993C256.15 481.196 255.998 481.39 255.834 481.574L255.38 481.47C254.711 481.34 254.016 481.245 253.361 481.173C252.138 481.062 250.911 481.014 249.683 481.029H249.228H249.192C248.765 480.925 248.333 480.826 247.901 480.741C246.313 480.383 244.669 480.35 243.068 480.641C241.25 481.006 239.19 481.79 237.358 481.678C236.808 481.646 235.676 481.34 234.88 481.227L234.694 481.2C234.358 481.052 234.007 480.937 233.648 480.858C232.748 480.618 231.821 480.489 230.889 480.475C229.594 480.463 228.314 480.736 227.138 481.272C226.683 481.493 226.279 481.808 225.824 482.029C225.435 482.179 225.014 482.227 224.601 482.169C222.137 482.083 219.6 482.079 217.136 482.218L216.059 482.304L215.899 482.245C214.626 481.818 213.284 481.624 211.94 481.673C209.712 481.673 207.762 480.592 205.684 481.889C205.075 482.272 206.448 482.966 206.634 483.047C207.453 483.45 208.373 483.607 209.28 483.498C210.066 483.318 210.875 483.254 211.681 483.309C211.844 483.336 212.003 483.372 212.167 483.394C213.031 483.606 213.835 484.043 214.74 484.142C215.645 484.241 216.386 484.075 217.222 484.214C218.059 484.354 218.855 484.512 219.682 484.588C220.509 484.665 221.264 484.588 222.028 484.714C222.896 484.867 223.728 485.165 224.61 485.282C226.429 485.512 228.311 485.354 230.148 485.485C231.095 485.569 232.035 485.72 232.962 485.935C233.96 486.121 234.974 486.209 235.99 486.197C237.781 486.228 239.386 486.913 241.154 487.17C243.045 487.445 244.791 487.035 246.637 486.773C248.31 486.534 250.101 486.679 251.793 486.679C253.589 486.672 255.383 486.541 257.162 486.287C258.566 486.093 259.771 485.904 261.012 485.178C261.397 484.918 261.805 484.693 262.231 484.507C262.231 484.507 262.49 484.448 262.595 484.417C262.24 484.521 260.049 484.98 262.094 484.358C262.394 484.268 263.031 484.503 263.358 484.548C264.177 484.66 265.009 484.75 265.822 484.931C265.822 484.931 266.418 485.102 266.5 485.129L267.445 485.435C269.443 486.104 271.517 486.527 273.619 486.692C275.401 486.818 277.165 487.12 278.948 487.206C280.78 487.286 282.614 487.124 284.403 486.724C285.73 486.464 287.079 486.339 288.431 486.35C289.063 486.35 289.859 486.39 290.563 486.444C290.495 486.444 291.513 486.543 291.391 486.525C291.695 486.561 292 486.597 292.3 486.656C292.268 486.656 292.3 486.656 292.473 486.706C292.732 486.769 292.996 486.818 293.259 486.872C293.823 486.989 294.391 487.098 294.96 487.188C295.879 487.339 296.806 487.433 297.737 487.472C299.57 487.505 301.401 487.33 303.193 486.949C303.985 486.791 304.766 486.58 305.53 486.318C306.074 486.105 306.635 485.938 307.207 485.818H309.226C310.494 485.818 311.763 485.818 313.027 485.791C313.436 485.791 313.868 485.791 314.277 485.791C314.113 485.791 314.209 485.719 314.431 485.791C314.818 485.908 315.209 486.021 315.604 486.106C318 486.625 320.605 486.106 323.024 485.98C323.488 485.935 323.583 485.714 323.283 485.444Z" fill="#FEC6FF"/>
<path d="M88.3259 477.915C85.9618 477.641 83.8569 476.532 81.4565 476.352C78.8742 476.163 76.2509 476.316 73.6596 476.307C68.9951 476.307 63.5622 475.474 59.0659 476.96C58.3249 477.204 58.2976 477.704 59.0659 477.974C62.9667 479.326 67.7039 478.668 71.7456 478.636C76.9693 478.6 82.1248 478.681 87.3439 478.776C87.9668 478.79 89.9489 478.1 88.3259 477.915Z" fill="#FEC6FF"/>
<path d="M1042.84 472.342C1044.17 470.621 1045.41 469.283 1042.98 467.229C1040.78 465.359 1036.96 464.976 1034.19 464.372C1030.93 463.704 1027.57 463.651 1024.29 464.215C1023.85 463.519 1023.35 462.868 1022.78 462.273C1019.51 458.912 1014.06 456.646 1009.46 456.055C998.092 454.605 985.649 455.636 976.452 462.737C975.392 462.485 974.37 462.611 973.269 462.462C970.832 462.12 968.614 460.66 966.232 460.016C963.6 459.352 960.867 459.179 958.171 459.507C956.775 459.669 955.512 460.155 954.157 460.408C952.634 461.011 952.902 460.746 954.948 459.606C954.724 459.041 954.465 458.491 954.175 457.957C952.511 455.911 949.301 456.258 946.246 457.317C946.192 457.249 946.137 457.182 946.092 457.119C942.879 452.92 939.12 449.162 934.912 445.941C932.407 444.062 930.366 442.089 927.356 441.048C924.117 439.912 920.678 439.441 917.25 439.665C913.081 439.967 909.244 441.431 905.57 443.323C904.761 443.742 903.961 444.179 903.179 444.675C899.774 440.661 895.832 437.016 890.581 435.696C886.431 434.646 881.757 435.516 877.715 436.628C876.506 436.966 875.288 437.349 874.078 437.8C873.687 437.255 873.337 436.786 873.219 436.646C871.978 435.295 870.982 433.871 869.836 432.452C867.141 429.1 862.281 426.838 858.107 426.005C853.274 425.045 847.992 424.203 843.082 424.96C840.592 425.389 838.148 426.045 835.78 426.919C835.457 426.217 835.148 425.487 835.003 425.252C834.199 423.997 833.195 422.878 832.03 421.941C830.552 420.63 829.034 419.188 827.297 418.202C825.274 417.048 822.91 416.733 820.777 415.85C817.359 414.431 816.79 410.29 815.749 406.961C814.431 402.748 814.476 398.617 812.471 394.535C808.662 386.781 802.274 380.438 795.946 374.671C789.686 369.044 782.681 364.291 775.124 360.542C777.508 358.203 779.668 355.65 781.575 352.915C783.88 349.675 786.321 346.413 786.912 342.399C787.585 337.858 786.63 332.654 785.812 328.171C784.252 319.728 778.21 310.456 772.087 304.487C771.351 303.777 770.561 303.124 769.723 302.536C770.701 298.198 770.291 293.666 768.55 289.57C765.199 281.618 757.852 279.23 750.178 276.761C745.054 275.112 739.599 273.607 734.266 272.958C731.861 272.666 729.488 272.814 727.083 272.422C724.728 272.035 722.346 271.836 719.959 271.828C714.958 271.792 710.225 272.846 705.27 273.22C699.691 273.643 694.454 275.189 689.312 277.342C680.178 281.077 671.941 286.679 665.139 293.782C661.598 297.517 659.084 301.973 656.215 306.194C655.684 306.988 655.228 307.828 654.851 308.704C642.331 307.938 631.861 317.588 621.768 323.486C617.053 326.243 612.334 329.194 609.225 333.717C602.351 332.74 596.04 332.78 589.475 335.389C582.574 338.124 568.081 345.895 572.991 355.294C576.946 362.876 586.784 365.782 595.358 367.165C595.813 368.35 596.36 369.498 596.995 370.598C593.028 371.662 589.124 372.945 585.302 374.441C577.882 377.302 570.849 380.618 565.33 386.502C559.811 392.386 557.865 399.91 557.429 407.65L557.038 407.803C552.614 409.664 547.818 410.015 543.531 412.417C541.99 413.283 540.508 414.248 539.093 415.305C536.759 414.468 534.335 413.903 531.869 413.62C525.895 412.939 520.117 412.061 514.089 412.885C505.551 414.043 492.676 415.71 487.302 423.275C484.988 426.536 484.033 432.055 484.738 437.124C481.555 438.025 478.337 438.998 475.259 440.156C470.712 441.864 466.034 444.175 462.306 447.446C458.015 447.293 453.423 448.113 449.531 448.874C446.322 449.505 442.498 450.298 439.102 451.721C432.678 450.424 426.181 450.852 419.708 449.982C416.064 449.539 412.373 449.667 408.769 450.361C406.746 447.779 403.559 445.923 400.659 444.765C394.887 442.506 388.803 441.125 382.614 440.67C381.623 440.589 380.641 440.462 379.668 440.336C379.54 439.973 379.388 439.618 379.214 439.273C378.145 437.165 376.24 435.389 374.895 433.457C373.403 431.33 372.017 429.654 369.48 428.767C367.207 427.974 364.838 426.874 362.424 426.55C359.346 426.135 356.182 426.609 353.091 426.667C350.276 426.721 348.021 426.158 345.33 425.599C342.116 424.937 338.874 425.825 335.747 426.5C330.205 427.699 324.722 429.357 320.203 432.898C314.488 437.376 312.829 443.504 313.602 449.78L313.483 449.888C311.706 451.537 308.755 453.37 307.737 455.636C307.336 456.565 307.213 457.587 307.382 458.583C304.582 456.857 301.849 455.168 298.453 454.587C295.44 454.12 292.37 454.132 289.361 454.623C286.005 455.109 282.709 454.97 279.359 455.335C275.82 455.663 272.302 456.182 268.82 456.889C268.739 452.996 266.788 449.433 262.269 448.185C259.405 447.392 257.196 446.603 254.145 446.928C252.476 447.12 250.824 447.438 249.203 447.878C249.03 447.928 248.88 447.964 248.749 448.004C248.749 447.914 248.503 447.829 247.562 447.811C241.415 447.671 234.669 450.235 228.645 451.415C225.744 451.969 222.798 451.866 219.893 452.433L219.189 452.582L218.811 452.496C217.256 452.172 215.629 452.239 214.042 451.978C207.482 450.901 201.54 450.568 195.011 452.33C192.243 453.077 189.247 453.807 186.669 455.105C184.091 456.402 183.586 457.718 182.123 459.962C181.827 460.304 181.904 460.471 182.354 460.466C181.87 460.603 181.394 460.766 180.927 460.953H180.804C180.165 460.952 179.527 460.995 178.895 461.083C176.04 461.237 172.803 462.156 172.498 463.701C172.466 463.877 172.43 464.052 172.398 464.224C170.717 464.153 169.044 463.945 167.397 463.602C166.033 463.327 165.242 463.278 164.056 462.606C162.869 461.935 162.001 461.214 160.65 460.84C157.395 459.939 153.617 460.534 150.417 461.34C148.498 461.827 144.547 462.385 141.647 463.769C139.801 463.413 137.905 463.278 136.046 463.003C131.723 462.305 127.364 461.853 122.989 461.651C113.442 461.322 103.567 462.102 94.0699 463.147C91.7331 463.404 91.7513 464.625 94.0699 464.886C107.9 466.436 121.552 465.841 135.214 468.999C138.874 469.842 143.234 469.369 146.743 468.098C147.339 467.886 150.185 466.828 150.835 466.048L151.144 465.985L151.476 466.206C152.185 467.067 153.626 467.67 154.658 467.981C157.038 468.671 159.471 469.169 161.932 469.468C169.252 470.369 177.076 468.981 184.073 466.913C184.259 466.855 186.055 466.4 187.455 465.945C187.41 466.129 187.674 466.296 188.283 466.44C188.961 466.735 189.672 466.949 190.401 467.08C193.193 467.706 196.089 467.657 198.903 468.139C204.008 469.04 209.05 469.54 214.169 468.427C217.133 467.81 219.974 466.715 222.58 465.188C222.812 465.048 223.035 464.895 223.267 464.737C223.788 464.869 224.316 464.971 224.849 465.044C227.421 465.358 230.018 465.405 232.6 465.183C234.806 465.055 236.986 464.648 239.088 463.971C239.292 464.165 239.542 464.422 239.856 464.719C240.765 465.62 241.702 466.499 242.675 467.314C238.788 468.323 234.91 469.747 231.054 470.883C228.286 471.698 225.622 471.392 222.73 471.437C215.201 471.554 207.641 471.621 200.117 471.887C196.88 472.013 193.638 472.099 190.406 472.288C189.201 472.288 187.999 472.41 186.819 472.653C186.21 472.82 185.082 473.743 184.628 473.779C183.568 473.87 181.177 474.946 183.577 475.217C184.9 475.362 186.237 475.315 187.546 475.077C188.966 474.879 190.404 474.858 191.829 475.014C197.207 475.365 202.617 475.334 208.005 475.397C213.569 475.464 219.134 475.766 224.699 475.847C229.977 475.929 234.505 474.595 239.533 473.261C241.784 472.662 244.202 472.261 246.33 471.279L246.785 471.094C247.526 471.297 248.371 471.302 249.103 471.545C251.19 472.212 252.795 473.009 255.063 473.009C257.746 473.009 260.11 472.243 262.588 471.378C266.543 469.995 270.293 470.337 274.408 469.824C276.326 469.58 278.186 468.99 280.095 468.779C282.091 468.634 284.094 468.621 286.092 468.738H286.183C286.525 468.873 286.892 468.935 287.26 468.923C287.574 468.968 287.879 469.013 288.17 469.044C290.506 469.283 292.843 469.238 295.189 469.324C300.749 469.522 306.1 471.509 311.651 471.252C314.865 471.099 317.625 470.018 320.794 469.405C323.544 468.902 326.335 468.654 329.132 468.666C329.955 468.666 330.787 468.625 331.628 468.589C333.679 468.829 335.753 468.8 337.797 468.504L338.174 468.526C339.288 468.616 342.184 469.508 343.775 469.806C348.509 470.72 353.382 470.662 358.092 469.635C358.733 469.495 360.651 469.225 362.142 468.801C364.452 469.959 367.339 470.419 369.817 470.743C374.272 471.887 378.945 472.671 383.455 472.455C388.156 472.234 392.548 470.495 397.094 469.752C400.467 470.309 403.892 470.488 407.305 470.283C411.615 469.977 415.566 469.382 419.898 469.418C424.067 469.463 426.641 468.968 429.655 469.139C432.892 469.315 434.847 470.04 438.361 470.684C442.03 471.356 445.808 471.279 449.527 471.22C452.77 471.167 456.004 471.576 459.128 472.437C460.688 472.829 462.706 472.928 464.075 473.514C464.243 473.586 464.448 473.64 464.648 473.707H464.193C461.415 473.707 456.232 473.946 454.446 476.699C453.146 478.704 454.659 480.988 456.155 482.389C458.669 484.741 461.984 485.295 465.348 485.286C467.361 485.293 469.368 485.062 471.326 484.597C472.149 484.399 472.963 484.146 473.772 483.885C474.172 483.755 474.579 483.647 474.991 483.561C478.882 483.664 482.719 484.061 486.593 483.34C490.23 482.669 493.276 480.74 496.849 479.871C498.07 479.591 499.263 479.204 500.413 478.713C500.868 479.074 501.351 479.398 501.859 479.681C504.982 481.366 508.938 481.623 512.416 481.393C515.639 481.182 518.912 480.357 522.081 479.708C523.813 479.353 525.673 478.875 527.196 477.942C527.614 477.71 527.999 477.423 528.341 477.091C528.428 476.996 528.5 476.911 528.569 476.83C530.137 476.952 531.698 477.163 533.242 477.46C534.606 477.911 535.729 478.812 537.143 479.222C538.734 479.699 540.325 479.591 541.898 479.763C541.353 479.763 544.676 480.488 545.163 480.56C547.486 480.862 549.83 480.988 552.173 480.938C556.033 480.938 560.143 480.38 563.966 480.817C567.426 481.213 570.331 481.785 573.882 481.412C577.581 481.015 581.247 480.357 584.852 479.443C586.32 479.078 587.984 478.771 589.357 478.091H589.921C593.817 478.226 597.782 478.334 601.582 477.312C602.748 477.031 603.878 476.621 604.951 476.091L605.683 476.059C607.133 476.023 608.997 475.519 610.579 475.415C610.029 475.654 612.852 476.767 613.639 477.077C619.135 479.33 624.168 483.011 629.878 484.736C637.307 486.962 645.463 485.187 652.828 483.448C655.374 482.858 658.034 482.29 660.475 481.308C660.78 481.556 661.061 481.799 661.307 482.015C663.68 484.115 665.49 486.106 668.581 487.241C671.672 488.377 675.096 488.629 678.306 489.535C681.726 490.535 685.269 491.064 688.835 491.107C696.468 491.184 704.442 489.381 710.225 484.187C711.307 483.218 712.557 481.934 713.08 480.583C715.408 480.686 717.758 480.61 720.095 480.614C723.267 480.692 726.44 480.5 729.579 480.042C731.911 479.654 734.125 478.866 736.353 478.163C737.798 479.326 739.499 481.961 740.444 482.862C742.386 484.741 744.209 485.948 746.982 486.147C750.51 486.394 754.292 485.327 757.488 483.935C757.807 483.799 758.116 483.651 758.429 483.484C760.062 484.52 761.666 485.696 763.621 486.097C766.999 486.795 770.554 486.03 773.737 484.876C776.919 483.723 779.552 482.322 781.606 480.371C783.848 480.997 785.948 482.114 788.262 482.583C791.16 483.219 794.108 483.609 797.073 483.75C799.692 483.822 801.824 483.543 804.347 484.263C809.871 485.845 816.167 484.543 821.773 483.862C825.028 483.47 826.497 483.106 829.72 484.052C831.957 484.705 833.68 486.372 835.894 486.831C838.917 487.467 842.259 486.309 844.955 485.07C845.409 484.854 845.864 484.619 846.318 484.367C847.119 484.624 847.928 484.854 848.746 485.043C855.079 486.552 861.667 485.66 868.1 485.854C870.919 485.935 873.633 486.845 876.451 486.453C879.611 486.002 882.639 484.61 885.621 483.561C888.349 482.592 891.181 481.835 893.777 480.474C894.874 479.914 895.926 479.271 896.923 478.551C897.264 478.551 897.533 478.591 897.633 478.609C899.128 478.898 900.501 479.429 902.042 479.51C903.47 479.573 904.77 479.303 906.184 479.555C907.093 479.718 907.871 480.132 908.816 480.204C911.862 480.429 914.604 478.591 917.586 478.528C920.814 478.465 923.906 480.33 926.906 481.29C932.775 483.173 939.304 485.187 945.464 483.795C948.392 483.133 951.306 480.92 954.17 480.51C955.743 480.285 957.735 481.087 959.326 481.272C960.722 481.434 962.108 481.448 963.518 481.493C966.882 481.601 970.246 481.943 973.615 481.538C976.797 481.146 978.734 480.488 981.994 481.042C985.167 481.524 988.377 481.732 991.586 481.664C994.614 481.664 997.469 480.763 1000.47 480.596C1003.65 480.411 1006.83 480.965 1010.02 480.695C1013.03 480.379 1015.96 479.518 1018.66 478.154C1019.33 477.917 1019.98 477.636 1020.62 477.312C1021.2 477.965 1022.35 478.105 1023.12 478.258C1026.83 478.997 1030.85 477.875 1034.49 477.14C1034.86 477.065 1035.22 476.971 1035.58 476.857C1037.31 477.176 1039.72 476.01 1041.1 475.113C1041.5 474.847 1044.3 472.797 1042.84 472.342Z" fill="#FFCCF5"/>
<path opacity="0.5" d="M1030.15 471.356C1023.16 469.653 1016.32 472.581 1009.32 472.708C1003.83 472.82 996.725 469.414 991.851 472.982C990.728 473.149 989.76 473.523 989.696 474.334C989.569 476.033 993.997 476.415 994.879 476.501C997.088 476.713 1000.7 477.943 1003.52 478.227C1006.71 478.627 1009.96 478.402 1013.06 477.564C1014.57 477.181 1015.96 476.51 1017.45 476.082C1019.13 475.6 1020.89 475.659 1022.62 475.496C1025.42 475.189 1028.17 474.537 1030.8 473.555C1032.87 472.843 1031.8 471.757 1030.15 471.356Z" fill="white"/>
<path opacity="0.2" d="M1042.84 472.342C1044.17 470.621 1045.41 469.283 1042.98 467.229C1040.78 465.359 1036.96 464.976 1034.2 464.372C1030.93 463.704 1027.58 463.651 1024.29 464.215C1023.86 463.519 1023.35 462.868 1022.78 462.273C1019.51 458.912 1014.07 456.646 1009.46 456.055C998.094 454.605 985.651 455.636 976.454 462.737C975.394 462.485 974.371 462.611 973.271 462.462C970.834 462.12 968.616 460.66 966.233 460.016C963.602 459.352 960.868 459.179 958.173 459.507C956.777 459.669 955.513 460.155 954.159 460.408C952.636 461.011 952.904 460.746 954.95 459.606C954.725 459.041 954.467 458.491 954.177 457.957C952.513 455.911 949.303 456.258 946.248 457.317C946.193 457.249 946.139 457.182 946.093 457.119C942.881 452.92 939.122 449.162 934.914 445.941C932.409 444.062 930.368 442.089 927.358 441.048C924.119 439.912 920.68 439.441 917.252 439.665C913.083 439.967 909.246 441.431 905.572 443.323C904.763 443.742 903.963 444.179 903.181 444.675C899.776 440.661 895.834 437.016 890.583 435.696C886.432 434.646 881.759 435.516 877.717 436.628C876.508 436.966 875.289 437.349 874.08 437.8C873.689 437.255 873.339 436.786 873.221 436.646C871.98 435.295 870.984 433.871 869.838 432.452C867.142 429.1 862.282 426.838 858.109 426.005C853.276 425.045 847.993 424.203 843.083 424.96C840.594 425.389 838.15 426.045 835.782 426.919C835.459 426.217 835.15 425.487 835.005 425.252C834.201 423.997 833.197 422.878 832.031 421.941C830.554 420.63 829.035 419.188 827.299 418.202C825.276 417.048 822.911 416.733 820.779 415.85C817.36 414.431 816.792 410.29 815.751 406.961C814.433 402.748 814.478 398.617 812.473 394.535C808.663 386.781 802.276 380.438 795.947 374.671C789.688 369.044 782.683 364.291 775.125 360.542C777.51 358.203 779.669 355.65 781.577 352.915C783.881 349.675 786.323 346.413 786.914 342.399C787.587 337.858 786.632 332.654 785.814 328.171C784.254 319.728 778.212 310.456 772.088 304.487C771.353 303.777 770.562 303.124 769.724 302.536C770.703 298.198 770.293 293.666 768.551 289.57C765.201 281.618 757.854 279.23 750.18 276.761C745.056 275.112 739.601 273.607 734.268 272.958C731.863 272.666 729.49 272.814 727.085 272.422C724.73 272.035 722.347 271.836 719.961 271.828C714.96 271.792 710.227 272.846 705.272 273.22C699.693 273.643 694.456 275.189 689.314 277.342C680.18 281.077 671.943 286.679 665.141 293.782C661.6 297.517 659.086 301.973 656.217 306.194C655.686 306.988 655.23 307.828 654.853 308.704C642.333 307.938 631.862 317.588 621.77 323.486C617.055 326.243 612.336 329.194 609.226 333.717C602.352 332.74 596.042 332.78 589.477 335.389C582.576 338.124 568.082 345.895 572.992 355.294C576.948 362.876 586.786 365.782 595.36 367.165C595.815 368.35 596.362 369.498 596.997 370.598C593.03 371.662 589.126 372.945 585.304 374.441C577.884 377.302 570.851 380.618 565.332 386.502C559.813 392.386 557.867 399.91 557.43 407.65L557.039 407.803C552.616 409.664 547.82 410.015 543.532 412.417C541.992 413.283 540.51 414.248 539.095 415.305C536.761 414.468 534.337 413.903 531.871 413.62C525.897 412.939 520.119 412.061 514.091 412.885C505.553 414.043 492.677 415.71 487.304 423.275C484.99 426.536 484.035 432.056 484.74 437.12C481.557 438.021 478.338 438.998 475.261 440.156C470.714 441.864 466.036 444.175 462.308 447.446C458.016 447.293 453.425 448.113 449.533 448.874C446.323 449.505 442.5 450.298 439.104 451.721C432.68 450.424 426.183 450.852 419.709 449.982C416.066 449.539 412.375 449.667 408.771 450.361C406.748 447.779 403.561 445.923 400.66 444.765C394.889 442.506 388.805 441.125 382.616 440.67C381.625 440.589 380.643 440.462 379.67 440.336C379.541 439.973 379.39 439.618 379.216 439.273C378.147 437.165 376.242 435.389 374.897 433.457C373.405 431.33 372.019 429.654 369.482 428.767C367.209 427.974 364.84 426.874 362.426 426.55C359.348 426.136 356.184 426.609 353.092 426.667C350.278 426.721 348.023 426.158 345.332 425.599C342.118 424.937 338.876 425.825 335.748 426.5C330.206 427.699 324.724 429.357 320.205 432.898C314.49 437.376 312.83 443.504 313.603 449.78L313.485 449.888C311.708 451.537 308.757 453.37 307.739 455.636C307.338 456.565 307.215 457.587 307.384 458.583C304.583 456.857 301.851 455.168 298.455 454.587C295.442 454.12 292.372 454.132 289.362 454.623C286.007 455.109 282.711 454.97 279.361 455.335C275.822 455.663 272.304 456.182 268.822 456.889C268.74 452.996 266.79 449.433 262.271 448.185C259.407 447.392 257.197 446.603 254.147 446.928C252.478 447.12 250.826 447.438 249.205 447.878C249.032 447.928 248.882 447.964 248.75 448.004C248.75 447.914 248.505 447.829 247.564 447.806C241.417 447.671 234.671 450.235 228.647 451.41C225.746 451.965 222.8 451.861 219.895 452.429L219.19 452.577L218.813 452.492C217.258 452.167 215.631 452.235 214.044 451.974C209.593 451.244 205.406 450.856 201.164 451.235C203.921 451.973 206.719 452.554 209.543 452.974C216.567 454.015 265.658 447.594 258.493 465.458C269.159 466.895 279.729 460.408 290.654 461.615C296.082 462.219 303.883 466.814 308.998 466.251C314.113 465.688 317.045 459.124 322.209 457.43C326.756 455.934 335.567 455.713 340.131 457.209C338.908 453.037 333.407 451.703 329.361 451.415C329.969 450.564 330.628 449.751 331.334 448.978C332.971 443.422 338.703 438.881 343.568 436.214C350.842 432.227 360.571 432.159 368.059 435.353C371.146 436.664 374.187 438.624 376.324 441.21C374.087 441.422 371.86 443.621 370.414 445.238C372.105 445.468 373.819 445.468 375.51 445.238C378.6 444.966 381.712 445.06 384.78 445.517C388.872 446.076 392.932 446.72 396.801 448.194C399.824 449.343 402.665 450.969 405.539 452.42C406.976 453.208 408.317 454.159 409.535 455.254C409.349 454.656 409.29 454.027 409.362 453.406C423.26 448.802 435.844 458.993 449.024 461.899C455.916 460.664 461.954 457.394 469.073 460.367C474.474 462.62 479.498 470.144 485.767 468.761C486.076 466.341 485.122 463.868 483.98 461.881C488.281 459.362 498.842 468.274 504.552 468.188C514.959 468.008 524.82 456.889 534.79 453.451C545.324 449.82 566.541 447.329 575.579 456.483C581.376 448.824 592.128 442.778 599.22 442.066C602.534 441.728 607.99 442.107 612.2 443.954C613.172 441.76 614.561 439.772 616.291 438.097C623.515 431.479 635.172 429.943 644.542 430.758C654.776 431.659 667.023 439.264 672.643 449.257C674.284 444.4 677.644 439.291 681.212 436.876C675.789 430.38 672.888 421.085 681.549 416.417C693.16 410.16 715.191 423.793 719.283 435.849C721.315 434.225 723.547 432.862 725.925 431.794C733.518 428.357 740.046 430.483 745.815 435.975C746.429 435.525 747.052 435.115 747.661 434.664C753.758 430.159 759.804 424.004 766.837 420.909C779.667 415.264 792.392 420.139 803.703 426.928C813.067 432.602 821.865 439.146 829.976 446.473C833.272 449.433 834.068 451.383 838.501 451.609C843.629 451.866 850.598 448.41 855.613 447.275C862.432 445.725 869.747 444.99 876.767 446.306C888.064 448.419 891.001 454.776 902.613 451.712C911.46 449.388 924.594 448.396 930.877 456.515C928.79 457.164 926.331 457.52 924.13 457.939C928.413 460.723 934.546 461.367 939.479 462.895C944.479 464.453 949.667 466.855 954.813 467.54C973.699 470.063 992.943 458.502 1010.86 464.161C1018.66 466.625 1026.53 467.166 1034.2 469.301C1036.96 470.067 1040.43 471.293 1043.15 473.122C1043.2 473.055 1043.24 472.976 1043.25 472.892C1043.26 472.808 1043.25 472.722 1043.22 472.643C1043.19 472.564 1043.14 472.494 1043.07 472.442C1043 472.389 1042.92 472.354 1042.84 472.342Z" fill="white"/>
<path opacity="0.1" d="M601.996 423.649C590.398 411.304 568.321 418.54 568.321 418.54C568.321 418.54 566.353 413.007 550.072 414.282C533.792 415.557 520.822 426.203 521.253 435.137C516.957 434.286 498.067 433.011 484.701 437.111C481.519 438.012 478.3 438.985 475.222 440.143C470.676 441.85 465.998 444.162 462.27 447.432C457.978 447.279 453.386 448.099 449.495 448.861C446.77 449.354 444.078 450.013 441.434 450.834C447.144 451.284 453.818 450.005 458.496 451.812C457.987 452.785 458.087 454.064 457.774 455.1C461.738 452.87 465.443 450.266 469.703 448.342C477.886 444.612 486.283 442.76 495.48 443.697C503.664 444.526 517.398 443.58 523.831 448.78C524.645 445.829 537.434 438.913 541.225 437.75C545.994 436.282 552.255 436.669 557.265 436.926C557.642 439.3 557.069 441.224 557.31 443.522C560.265 440.53 562.452 436.944 565.448 434.061C573.209 426.528 592.117 417.981 601.996 423.649Z" fill="white"/>
<g opacity="0.1">
<path d="M606.084 396.554L606.035 396.531C606.047 396.542 606.056 396.556 606.062 396.572C606.197 396.692 606.206 396.688 606.084 396.554Z" fill="white"/>
<path d="M765.766 298.851C765.416 290.926 761.328 285.002 755.764 279.478C755.277 278.996 754.759 278.541 754.227 278.099C752.9 277.649 751.549 277.198 750.19 276.748C745.066 275.099 739.611 273.594 734.278 272.945C731.873 272.652 729.5 272.801 727.095 272.409C724.74 272.022 722.358 271.823 719.971 271.814C714.97 271.778 710.237 272.833 705.282 273.207C699.703 273.63 694.466 275.175 689.324 277.329C680.19 281.064 671.953 286.666 665.152 293.769C661.61 297.504 659.096 301.96 656.227 306.181C656.018 306.496 655.823 306.821 655.636 307.145C660.091 308.366 665.638 307.407 669.775 308.519C674.176 309.7 680.041 315.818 684.596 315.223C680.736 316.498 674.931 314.584 669.139 312.029C663.347 309.475 654.841 308.691 654.841 308.691C642.32 307.925 631.85 317.575 621.757 323.473C617.856 325.752 613.965 328.181 610.973 331.51C612.43 331.716 613.868 332.034 615.274 332.461C619.334 333.709 625.649 342.994 625.649 342.994C625.649 342.994 615.647 334.695 609.214 333.704C602.34 332.727 596.03 332.767 589.465 335.376C585.746 336.849 579.84 339.782 575.935 343.643C575.026 346.999 575.085 350.55 576.39 353.649C577.613 356.528 579.436 358.758 582.3 360.236C585.164 361.714 589.46 361.588 591.802 363.3C592.583 361.754 594.125 360.02 595.989 359.912C594.948 362.268 595.038 365.152 595.68 367.985C596.065 368.881 596.504 369.754 596.993 370.598C596.83 370.639 596.666 370.693 596.498 370.734C597.118 372.519 597.889 374.249 598.803 375.906C589.965 377.429 578.431 384.822 575.726 394.08C584.364 391.039 598.153 392.278 606.068 396.545C603.822 392.94 599.798 391.886 596.63 389.62C605.472 375.699 630.477 373.112 643.698 381.961C642.111 379.118 639.074 377.663 636.651 375.329C638.183 374.554 643.593 375.586 643.993 373.473C644.416 371.256 638.447 369.035 636.933 368.49C629.718 365.904 621.93 366.237 614.365 366.954C610.541 367.319 607.95 367.458 604.777 365.305C605.009 360.853 608.682 358.907 612.478 356.902C620.487 352.655 629.256 350 638.292 349.085C645.266 348.338 652.84 348.184 659.482 345.81C664.483 344.008 669.002 341.206 673.967 339.345C684.014 335.578 697.667 333.137 708.064 336.268C701.449 329.776 689.638 327.879 680.759 329.55C683.487 325.419 692.352 324.329 696.512 321.95C701.881 318.877 705.577 313.363 710.928 310.209C715.902 307.276 721.989 304.802 727.85 305.086C732.469 305.294 735.619 307.596 739.634 309.141C739.233 304.965 734.751 301.279 731.068 299.91C740.716 297.972 754.927 302.834 762.547 308.889C765.557 306.884 765.907 302.117 765.766 298.851Z" fill="white"/>
</g>
<path opacity="0.2" d="M547.527 339.998C545.113 340.034 542.772 338.565 540.308 338.435C539.948 338.435 539.021 338.642 538.739 338.498C538.457 338.354 538.307 337.844 538.166 337.691C537.421 336.907 536.348 336.524 535.307 336.227C533.011 335.532 530.645 335.091 528.251 334.911C527.23 334.899 526.21 335.005 525.214 335.227C524.171 335.373 523.115 335.392 522.068 335.285C519.553 335.008 517.022 334.909 514.494 334.988C511.611 335.141 508.724 335.394 505.856 335.61C504.733 335.695 503.583 335.659 502.482 335.813C501.797 335.966 501.089 335.988 500.396 335.876C499.786 335.767 499.145 335.529 498.541 335.389C495.967 334.799 493.367 333.974 490.757 333.654C487.843 333.294 484.92 333.159 482.006 332.753C479.092 332.348 476.146 331.767 473.209 331.249C470.378 330.702 467.485 330.55 464.612 330.798L464.03 330.14C462.007 327.888 460.393 325.91 457.62 324.45C456.435 323.886 455.3 323.228 454.223 322.481C453.398 321.789 452.48 321.213 451.496 320.769C450.642 320.443 449.741 320.258 448.827 320.22C448.634 318.828 448.29 317.461 447.799 316.142C447.195 314.574 446.658 312.885 445.826 311.421C445.099 310.132 444.008 309.024 443.099 307.861C441.142 305.487 438.845 303.41 436.279 301.698C433.138 299.513 429.701 299.135 425.955 299.346C424.463 299.432 423.568 299.891 422.354 300.698C421.14 301.504 419.963 302.261 419.026 303.505C418.182 304.619 417.638 305.927 417.444 307.307C417.385 307.686 417.312 308.064 417.235 308.438C415.975 308.587 414.766 308.934 413.502 309.154C412.884 309.263 412.27 309.357 411.647 309.456C410.406 308.037 408.747 306.911 407.251 305.775C405.963 304.701 404.518 303.827 402.964 303.185C401.309 302.59 399.65 302.572 397.963 302.284C396.144 302 394.408 301.833 392.621 302.342C391.153 302.711 389.766 303.345 388.529 304.212C385.983 306.154 383.883 308.992 382.065 311.592C381.16 312.818 380.475 314.19 380.041 315.647C379.951 315.98 379.887 316.318 379.823 316.66C377.423 315.462 374.65 314.597 372.095 314.673C371.372 314.657 370.658 314.838 370.033 315.198C369.407 315.557 368.893 316.08 368.548 316.71C367.826 317.944 367.916 319.413 368.203 320.765C368.481 322.115 369.06 323.386 369.899 324.486C370.332 325.068 370.822 325.605 371.363 326.09C371.817 326.496 372.495 326.743 372.895 327.198C372.996 327.308 373.06 327.446 373.077 327.593C373.094 327.74 373.064 327.889 372.99 328.018L372.804 327.964C371.852 327.713 370.885 327.526 369.908 327.406C369.591 327.37 369.272 327.355 368.953 327.361C368.92 327.356 368.886 327.356 368.853 327.361L368.939 327.324C368.861 327.321 368.783 327.308 368.708 327.284C368.354 327.171 367.992 327.085 367.626 327.027C365.807 326.689 364.084 327.054 362.302 327.433C361.671 327.542 361.059 327.739 360.483 328.018C359.915 328.388 359.386 328.816 358.906 329.293C357.805 330.265 356.453 330.914 355 331.168C353.764 331.334 352.523 331.33 351.291 331.582C350.116 331.784 349.001 332.237 348.022 332.911C347.972 332.952 347.931 332.997 347.886 333.037C347.525 332.723 347.145 332.432 346.749 332.163C344.865 330.933 342.762 330.071 340.552 329.622C338.425 329.161 336.217 329.214 334.115 329.775C333.215 329.962 332.392 330.411 331.751 331.064C331.519 331.338 331.351 331.66 331.26 332.006C329.767 331.525 328.228 331.2 326.668 331.037C323.94 330.803 321.485 331.487 318.939 332.348C317.916 332.695 316.871 332.893 315.834 333.177C314.893 333.434 314.302 334.078 313.415 334.384C312.893 334.556 312.338 334.758 311.783 335.002C310.964 334.447 310.08 333.993 309.151 333.65C308.896 332.046 308.242 330.42 307.824 329C307.453 327.855 306.719 326.858 305.732 326.158C305.246 325.851 304.305 325.59 303.914 325.383C303.914 325.356 303.7 325.175 303.686 325.157C303.327 324.835 302.928 324.558 302.5 324.333C299.522 322.616 295.889 322.17 292.498 322.324C289.429 322.463 286.042 322.972 283.301 324.387C282.228 324.937 280.891 325.392 280.064 326.293C279.112 327.293 278.42 328.506 278.045 329.829C277.877 330.627 278.013 331.451 277.877 332.258C277.818 332.614 277.754 332.956 277.704 333.299C277.513 333.299 277.322 333.326 277.127 333.348C276.844 332.689 276.454 332.08 275.972 331.546C274.713 330.149 272.899 329.717 271.126 329.293C269.216 328.801 267.237 328.632 265.27 328.793C263.552 328.982 261.77 329.073 259.774 329.433C258.101 329.73 256.546 330.032 255.046 330.87C254.387 331.249 253.753 331.671 253.15 332.132C252.491 331.294 251.936 330.33 251.104 329.64C250.043 328.777 248.8 328.161 247.467 327.838C246.457 327.624 245.415 327.606 244.398 327.784C243.943 327.874 243.275 328.135 243.089 328.162C242.207 328.28 241.27 328.086 240.361 328.199C239.729 328.291 239.102 328.417 238.483 328.577C236.851 328.126 234.974 328.523 233.169 328.816C231.932 329.018 230.732 329.433 229.532 329.717C228.196 329.947 226.9 330.362 225.681 330.951C225.237 331.198 224.813 331.478 224.413 331.789L224.131 331.339C223.271 330.068 222.167 329.172 221.007 328.185C219.598 326.982 217.993 326.45 216.216 325.995C214.472 325.539 212.7 325.199 210.91 324.977C209.069 324.77 207.214 324.617 205.423 325.198C203.122 325.946 201.186 328.212 201.381 330.694C201.453 331.414 201.694 332.107 202.086 332.717C202.518 333.465 202.681 334.308 203.127 335.042C203.591 335.829 204.191 336.529 204.9 337.11C205.159 337.317 205.464 337.461 205.695 337.651C204.959 337.475 204.222 337.331 203.486 337.169C202.048 336.836 200.565 336.736 199.094 336.871C197.73 337.015 196.366 337.191 194.971 337.259C193.556 337.298 192.164 337.621 190.879 338.209C189.834 338.694 188.905 339.393 188.151 340.259C187.866 340.659 187.55 341.035 187.206 341.386C187.039 341.481 186.878 341.587 186.724 341.701L186.506 341.638C186.176 341.54 185.841 341.467 185.501 341.417H185.392L185.087 341.323C184.358 341.054 183.591 340.902 182.814 340.872C182.632 340.768 182.432 340.674 182.264 340.588C181.368 340.125 180.423 339.764 179.445 339.511C178.097 339.149 176.716 338.916 175.322 338.818C174.617 338.777 173.899 338.818 173.194 338.718C172.489 338.619 171.789 338.453 171.071 338.385C169.68 338.254 168.343 337.903 166.952 337.777C165.568 337.663 164.176 337.701 162.801 337.89C161.437 338.07 160.137 338.34 158.709 338.313C158.045 338.266 157.378 338.266 156.714 338.313C156.014 338.385 155.35 338.583 154.636 338.651C153.196 338.73 151.753 338.73 150.312 338.651C148.926 338.651 147.467 338.804 146.098 338.534C144.507 338.223 142.947 338.286 141.338 338.151C140.524 338.079 139.733 337.908 138.915 337.912H138.41C138.36 337.912 138.156 337.912 138.147 337.912C137.756 337.835 137.378 337.673 136.987 337.61C136.606 337.55 136.218 337.531 135.833 337.556C135.68 337.548 135.527 337.56 135.378 337.592C135.345 337.588 135.311 337.588 135.278 337.592H135.246C134.611 337.308 133.903 337.225 133.218 337.353C132.732 337.532 132.236 337.683 131.732 337.804C131.458 337.836 131.193 337.923 130.954 338.059C130.715 338.195 130.506 338.378 130.341 338.597C129.886 339.155 132.223 340.039 132.5 340.088C132.993 340.209 133.504 340.242 134.009 340.187C134.464 340.102 134.037 340.048 134.628 340.259C134.875 340.351 135.127 340.429 135.382 340.494C136.455 340.737 137.501 340.322 138.565 340.494C139.629 340.665 140.483 341.246 141.556 341.255C141.711 341.255 142.043 341.142 142.134 341.142C142.36 341.199 142.578 341.282 142.784 341.39C143.231 341.548 143.708 341.605 144.18 341.557H144.243C146.416 341.935 148.599 342.219 150.703 342.53C151.958 342.715 153.172 342.589 154.427 342.67C155.954 342.769 157.45 343.12 158.973 343.188C162.61 343.391 166.279 343.188 169.884 343.472C173.312 343.728 176.476 345.143 179.8 345.814C182.769 346.414 185.36 345.558 188.224 344.913C189.774 344.58 191.211 344.499 192.716 343.976C194.221 343.454 195.775 342.967 197.294 342.39C197.76 342.215 198.235 342.064 198.717 341.94C200.03 342.531 201.412 342.956 202.831 343.206C204.631 343.583 206.472 343.734 208.31 343.656C210.265 343.562 212.024 342.809 213.942 342.571C215.797 342.334 217.624 341.92 219.398 341.336C219.807 341.566 220.23 341.76 220.548 341.94C222.253 342.922 223.731 343.143 225.64 343.508C229.932 344.319 233.878 344.886 238.252 344.476C239.897 344.39 241.506 343.968 242.98 343.237C243.397 343.042 243.764 342.755 244.055 342.4C244.345 342.044 244.551 341.628 244.657 341.183C244.848 341.308 245.051 341.415 245.262 341.503C246.735 342.084 248.326 342.242 249.867 342.566C252.672 343.156 255.505 343.71 258.383 343.661C261.683 343.602 264.97 343.309 268.271 343.251C269.939 343.219 271.603 342.863 273.272 342.89C275.049 342.922 276.827 343.503 278.564 343.837C281.715 344.44 284.953 344.457 288.111 343.886C291.13 343.377 294.089 344.017 297.035 342.922C298.231 342.471 299.472 342.282 300.672 341.845L300.904 341.791L301.231 341.845C302.077 342.138 303.259 342.039 304.136 342.066C305.71 342.081 307.27 342.344 308.76 342.845C309.815 343.18 310.941 343.236 312.024 343.008C313.206 342.778 313.461 342.3 314.297 341.656C315.461 340.755 317.425 341.025 318.844 340.845C322.276 340.394 325.754 340.48 329.214 340.503C332.824 340.525 336.579 340.331 340.161 340.75C343.435 341.138 346.753 340.683 349.968 341.39C351.375 341.7 352.813 341.851 354.255 341.841C356.014 341.841 357.483 342.35 359.151 342.818C362.07 343.647 364.72 342.899 367.676 342.994C370.631 343.089 373.649 343.823 376.604 343.638C377.777 343.566 379.259 342.863 380.296 343.071C381.692 343.35 383.133 344.22 384.565 344.589C387.888 345.428 391.338 345.656 394.744 345.26C396.531 345.053 398.222 344.431 399.991 344.161C401.859 343.882 403.773 343.764 405.655 343.503C407.019 343.309 408.429 343.143 409.815 342.967C410.315 343.206 410.811 343.463 411.329 343.692C413.457 344.62 415.557 345.643 417.767 346.396C419.461 346.991 421.235 347.336 423.031 347.418C424.065 347.446 425.099 347.359 426.114 347.157C427.023 346.968 428.096 346.31 428.991 346.256L429.573 346.058C429.604 346.255 429.693 346.44 429.829 346.588C429.965 346.736 430.142 346.842 430.337 346.891C430.682 347.128 431.047 347.334 431.428 347.508C432.202 347.929 433.038 348.224 433.906 348.382C436.047 348.752 437.861 348.085 439.921 347.743C441.876 347.418 444.044 348.234 446.081 348.139C448.586 348.027 450.918 347.198 453.355 346.688C458.283 345.666 463.198 345.076 468.053 343.643C470.208 343.008 472.681 341.773 474.941 341.868C477.269 341.967 479.551 342.715 481.888 342.868C486.793 343.188 491.735 343.801 496.654 343.318C499.004 343.08 501.314 342.575 503.664 342.296C506.389 341.974 509.132 341.833 511.875 341.872C517.394 341.917 522.786 342.548 528.301 342.967C531.126 343.173 533.965 343.112 536.78 342.787C539.553 342.476 542.481 341.908 545.268 341.859C546.15 341.859 547.995 341.827 548.586 341.021C549.177 340.214 548.291 339.984 547.527 339.998Z" fill="white"/>
<path d="M525.306 337.443C523.67 336.047 517.223 337.953 515.305 337.962C510.467 337.993 505.757 338.025 500.934 338.214C497.178 338.363 495.574 337.313 492.296 335.961C487.254 333.907 481.839 335.583 476.838 336.889C471.315 338.345 466.836 337.511 461.563 335.885C455.03 333.875 449.629 335.078 443.105 336.633H443.055C442.418 336.029 441.743 335.465 441.036 334.943C424.383 322.549 399.247 330.104 381.875 336.646C375.251 339.137 371.214 339.133 364.331 338.182C359.503 337.516 355.584 339.025 351.02 339.66C348.255 340.039 345.564 339.466 342.786 339.354C338.017 339.151 333.384 339.719 328.629 340.034C322.805 340.417 317.072 339.237 311.299 339.583C309.339 339.705 307.466 340.394 305.534 340.318C305.261 340.922 305.711 340.624 307.521 342.26C313.681 344.729 322.141 342.935 328.67 342.926C336.13 342.926 343.141 344.481 350.415 345.603C362.463 347.468 375.874 347.459 387.535 343.882C390.154 343.08 396.242 341.827 399.483 340.003C402.284 341.25 405.884 341.751 408.489 342.498C415.088 344.453 421.874 345.717 428.739 346.269C436.581 346.882 442.987 346.522 449.379 342.26C454.884 338.592 462.063 341.057 468.314 341.566C476.561 342.237 483.931 337.853 491.918 339.421C496.065 340.228 500.188 341.413 504.407 341.764C509.34 342.17 514.309 340.453 519.196 339.962C520.424 339.836 528.221 339.93 525.306 337.443Z" fill="#FEC6FF"/>
</g>
<defs>
<linearGradient id="paint0_linear_2488_1562" x1="669.241" y1="-101" x2="669.241" y2="784.476" gradientUnits="userSpaceOnUse">
<stop stop-color="#944FA4"/>
<stop offset="1" stop-color="#E17FF4"/>
</linearGradient>
<clipPath id="clip0_2488_1562">
<rect width="1336" height="768" fill="white"/>
</clipPath>
</defs>
</svg>
