<svg width="1000" height="110" viewBox="0 0 1000 110" fill="none" xmlns="http://www.w3.org/2000/svg">
<path d="M60.7391 69.1421H6.76562V81.1867H60.7391V69.1421Z" fill="#7B4073"/>
<path opacity="0.3" d="M60.7391 69.1421H6.76562V81.1867H60.7391V69.1421Z" fill="black"/>
<path d="M61.4718 41.6987H4.39648V68.3396H61.4718V41.6987Z" fill="white"/>
<path opacity="0.3" d="M58.7306 44.6753H7.5293V56.4604H58.7306V44.6753Z" fill="black"/>
<path opacity="0.4" d="M61.4718 41.6187H4.39648V43.0657H61.4718V41.6187Z" fill="black"/>
<path d="M62.2314 39.4483C61.0809 38.9889 59.7688 38.7692 58.446 38.7624C51.115 38.7251 11.8327 38.5377 6.41104 38.7685C0.427425 39.0232 0.320486 41.6352 0 41.6988H0.534365H64.6448C64.4462 40.6047 63.3496 39.8949 62.2314 39.4483Z" fill="#7B4073"/>
<path d="M62.1115 67.5205V73.5506H60.0578L57.724 69.1331H38.0528L36.0413 73.5506H32.8294L31.1622 69.1331H11.3798L9.47648 73.5506H6.64823L4.37826 69.1331C4.37826 69.1331 3.54035 67.5205 4.37826 67.5205C5.21651 67.5205 62.1115 67.5205 62.1115 67.5205Z" fill="#7B4073"/>
<path d="M65.2265 77.5537H64.1289V80.6946H65.2265V77.5537Z" fill="#7B4073"/>
<path d="M21.3336 69.8862C14.621 69.8862 9.17969 74.0225 9.17969 79.1247C9.17969 84.2271 14.6213 88.3633 21.3336 88.3633C28.0462 88.3633 33.4878 84.2271 33.4878 79.1247C33.4878 74.0225 28.0462 69.8862 21.3336 69.8862ZM21.3336 87.1567C15.4981 87.1567 10.7672 83.5609 10.7672 79.1249C10.7672 74.6892 15.4981 71.0932 21.3336 71.0932C27.1694 71.0932 31.9 74.6892 31.9 79.1249C31.9 83.5606 27.1694 87.1567 21.3336 87.1567Z" fill="#7B4073"/>
<path d="M32.3229 79.312H10.2695" stroke="#7B4073" stroke-miterlimit="10"/>
<path d="M29.6652 84.6781L12.7715 73.9028" stroke="#7B4073" stroke-miterlimit="10"/>
<path d="M23.0893 87.489L19.2598 70.9805" stroke="#7B4073" stroke-miterlimit="10"/>
<path d="M15.6758 86.4304L26.7025 71.9131" stroke="#7B4073" stroke-miterlimit="10"/>
<path d="M10.8926 81.9969L31.6162 76.2637" stroke="#7B4073" stroke-miterlimit="10"/>
<path d="M10.9766 76.2637L31.6999 81.9969" stroke="#7B4073" stroke-miterlimit="10"/>
<path d="M15.8906 71.9131L26.9173 86.4306" stroke="#7B4073" stroke-miterlimit="10"/>
<path d="M23.3315 70.9805L19.502 87.489" stroke="#7B4073" stroke-miterlimit="10"/>
<path d="M29.8234 73.9028L12.9297 84.6781" stroke="#7B4073" stroke-miterlimit="10"/>
<path d="M23.228 80.6615C24.3451 79.8124 24.3451 78.4357 23.228 77.5866C22.111 76.7375 20.2999 76.7375 19.1828 77.5866C18.0657 78.4357 18.0657 79.8124 19.1828 80.6615C20.2999 81.5106 22.111 81.5106 23.228 80.6615Z" fill="white"/>
<path d="M22.6342 79.1244C22.6342 79.7247 21.9939 80.2117 21.2038 80.2117C20.4137 80.2117 19.7734 79.7249 19.7734 79.1244C19.7734 78.5238 20.4137 78.0371 21.2038 78.0371C21.9939 78.0371 22.6342 78.5238 22.6342 79.1244Z" fill="#7B4073"/>
<path d="M47.3085 69.8862C40.5959 69.8862 35.1543 74.0225 35.1543 79.1247C35.1543 84.2271 40.5959 88.3633 47.3085 88.3633C54.0211 88.3633 59.4627 84.2271 59.4627 79.1247C59.4627 74.0225 54.0211 69.8862 47.3085 69.8862ZM47.3085 87.1567C41.473 87.1567 36.7421 83.5609 36.7421 79.1249C36.7421 74.6892 41.473 71.0932 47.3085 71.0932C53.144 71.0932 57.8749 74.6892 57.8749 79.1249C57.8749 83.5606 53.1443 87.1567 47.3085 87.1567Z" fill="#7B4073"/>
<path d="M58.2995 79.312H36.2461" stroke="#7B4073" stroke-miterlimit="10"/>
<path d="M55.6418 84.6781L38.748 73.9028" stroke="#7B4073" stroke-miterlimit="10"/>
<path d="M49.0659 87.4893L45.2363 70.9805" stroke="#7B4073" stroke-miterlimit="10"/>
<path d="M41.6523 86.4304L52.679 71.9131" stroke="#7B4073" stroke-miterlimit="10"/>
<path d="M36.8691 81.9969L57.5924 76.2637" stroke="#7B4073" stroke-miterlimit="10"/>
<path d="M36.9531 76.2637L57.6764 81.9969" stroke="#7B4073" stroke-miterlimit="10"/>
<path d="M41.8672 71.9131L52.8939 86.4304" stroke="#7B4073" stroke-miterlimit="10"/>
<path d="M49.3081 70.9805L45.4785 87.489" stroke="#7B4073" stroke-miterlimit="10"/>
<path d="M55.8 73.9028L38.9062 84.6781" stroke="#7B4073" stroke-miterlimit="10"/>
<path d="M49.9573 79.6313C50.3204 78.4627 49.3683 77.2916 47.8309 77.0156C46.2934 76.7397 44.7528 77.4634 44.3898 78.632C44.0267 79.8007 44.9788 80.9717 46.5162 81.2477C48.0537 81.5237 49.5943 80.8 49.9573 79.6313Z" fill="white"/>
<path d="M48.6088 79.1244C48.6088 79.7247 47.9685 80.2117 47.1784 80.2117C46.3887 80.2117 45.748 79.7249 45.748 79.1244C45.748 78.5238 46.3884 78.0371 47.1784 78.0371C47.9685 78.0371 48.6088 78.5238 48.6088 79.1244Z" fill="#7B4073"/>
<path d="M65.3057 80.6276C65.3057 79.6181 65.3057 78.6085 65.3057 77.5988C65.3057 77.4768 65.0566 77.4768 65.0566 77.5988C65.0566 78.6083 65.0566 79.6181 65.0566 80.6276C65.0566 80.7495 65.3057 80.7498 65.3057 80.6276Z" fill="black"/>
<path d="M64.1288 77.0181H60.6562V81.1895H64.1288V77.0181Z" fill="#7B4073"/>
<path d="M64.2237 81.1331C64.2237 79.7835 64.2237 78.4337 64.2237 77.0841C64.2237 76.9622 63.9746 76.9622 63.9746 77.0841C63.9746 78.4337 63.9746 79.7835 63.9746 81.1331C63.9746 81.255 64.2237 81.2553 64.2237 81.1331Z" fill="black"/>
<path d="M14.0185 45.252H8.16211V55.9614H14.0185V45.252Z" fill="white"/>
<path opacity="0.5" d="M14.0185 45.252H8.16211V55.9614H14.0185V45.252Z" fill="white"/>
<path d="M28.4428 45.252H15.4434V55.9614H28.4428V45.252Z" fill="white"/>
<path opacity="0.5" d="M28.4428 45.252H15.4434V55.9614H28.4428V45.252Z" fill="white"/>
<path opacity="0.5" d="M28.4428 45.6025L15.4434 50.9359V54.3045L28.4428 48.5501V45.6025Z" fill="white"/>
<path d="M43.1674 45.2026H30.168V55.9121H43.1674V45.2026Z" fill="white"/>
<path opacity="0.5" d="M43.1674 45.2026H30.168V55.9121H43.1674V45.2026Z" fill="white"/>
<path opacity="0.5" d="M43.1674 45.5532L30.168 50.8866V54.2552L43.1674 48.5008V45.5532Z" fill="white"/>
<path d="M57.7104 45.0625H44.7109V55.7719H57.7104V45.0625Z" fill="white"/>
<path opacity="0.5" d="M57.7104 45.0625H44.7109V55.7719H57.7104V45.0625Z" fill="white"/>
<path opacity="0.5" d="M57.7104 45.4126L44.7109 50.746V54.1146L57.7104 48.3601V45.4126Z" fill="white"/>
<path opacity="0.5" d="M30.168 55.9115H33.6521L43.1674 51.8307V50.2144L30.168 55.9115Z" fill="white"/>
<path opacity="0.2" d="M58.7326 57.7407H7.53125V66.2663H58.7326V57.7407Z" fill="black"/>
<path d="M57.9606 58.1787H8.16211V65.8404H57.9606V58.1787Z" fill="white"/>
<path opacity="0.2" d="M7.53125 57.7407L8.16159 58.1785H57.9601L58.7326 57.7407H7.53125Z" fill="black"/>
<path opacity="0.2" d="M55.4452 59.4941H9.98242V64.4862H55.4452V59.4941Z" fill="black"/>
<path d="M2.95117 47.5064C2.95117 51.2872 2.95117 55.0678 2.95117 58.8487C2.95117 58.9706 3.20025 58.9706 3.20025 58.8487C3.20025 55.0678 3.20025 51.2872 3.20025 47.5064C3.20025 47.3847 2.95117 47.3845 2.95117 47.5064Z" fill="white"/>
<path d="M2.95117 59.6084C2.95117 59.8844 2.95117 60.1605 2.95117 60.4365C2.95117 60.4756 2.95117 60.5145 2.95117 60.5536C2.95117 60.6755 3.20025 60.6755 3.20025 60.5536C3.20025 60.2777 3.20025 60.0017 3.20025 59.7256C3.20025 59.6864 3.20025 59.6476 3.20025 59.6084C3.20025 59.4868 2.95117 59.4865 2.95117 59.6084Z" fill="white"/>
<path d="M213.834 59.417H212.574V62.7121H213.834V59.417Z" fill="white"/>
<path d="M208.235 77.7388H84.9609V83.6502H208.235V77.7388Z" fill="#7B4073"/>
<path opacity="0.3" d="M208.235 77.7388H84.9609V83.6502H208.235V77.7388Z" fill="black"/>
<path d="M204.91 67.8398H84.9609V79.6333H204.91V67.8398Z" fill="#7B4073"/>
<path opacity="0.3" d="M204.91 67.8398H84.9609V79.6333H204.91V67.8398Z" fill="black"/>
<path d="M156.002 69.8853C149.289 69.8853 143.848 74.0215 143.848 79.1237C143.848 84.2261 149.289 88.3624 156.002 88.3624C162.714 88.3624 168.156 84.2261 168.156 79.1237C168.155 74.0215 162.714 69.8853 156.002 69.8853ZM156.002 87.1557C150.166 87.1557 145.435 83.5599 145.435 79.1239C145.435 74.6883 150.166 71.0922 156.002 71.0922C161.837 71.0922 166.568 74.6883 166.568 79.1239C166.568 83.5596 161.837 87.1557 156.002 87.1557Z" fill="#7B4073"/>
<path d="M166.993 79.311H144.939" stroke="#7B4073" stroke-miterlimit="10"/>
<path d="M164.335 84.6769L147.441 73.9019" stroke="#7B4073" stroke-miterlimit="10"/>
<path d="M157.759 87.4883L153.93 70.9795" stroke="#7B4073" stroke-miterlimit="10"/>
<path d="M150.346 86.4294L161.372 71.9121" stroke="#7B4073" stroke-miterlimit="10"/>
<path d="M145.562 81.9962L166.285 76.2627" stroke="#7B4073" stroke-miterlimit="10"/>
<path d="M145.646 76.2627L166.369 81.9962" stroke="#7B4073" stroke-miterlimit="10"/>
<path d="M150.561 71.9121L161.587 86.4296" stroke="#7B4073" stroke-miterlimit="10"/>
<path d="M158.001 70.9795L154.172 87.4881" stroke="#7B4073" stroke-miterlimit="10"/>
<path d="M164.494 73.9023L147.6 84.6774" stroke="#7B4073" stroke-miterlimit="10"/>
<path d="M158.65 79.6299C159.014 78.4615 158.063 77.2898 156.526 77.0129C154.989 76.736 153.448 77.4587 153.083 78.6271C152.719 79.7955 153.67 80.9672 155.207 81.2441C156.744 81.521 158.286 80.7983 158.65 79.6299Z" fill="white"/>
<path d="M157.302 79.1234C157.302 79.7237 156.662 80.2107 155.872 80.2107C155.082 80.2107 154.441 79.724 154.441 79.1234C154.441 78.5228 155.082 78.0361 155.872 78.0361C156.662 78.0361 157.302 78.5228 157.302 79.1234Z" fill="#7B4073"/>
<path d="M186.113 26.9302V30.0534L190.327 39.903V51.704H198.966V39.903L203.812 30.0534V26.9302H186.113Z" fill="#7B4073"/>
<path opacity="0.3" d="M186.113 26.9302V30.0534L190.327 39.903V51.704H198.966V39.903L203.812 30.0534V26.9302H186.113Z" fill="white"/>
<path opacity="0.3" d="M186.113 30.0522H200.925L197.007 39.7027L196.989 51.7028H190.327V39.9018L186.113 30.0522Z" fill="black"/>
<path d="M117.231 49.4922H139.045L141.747 52.4932H182.163L183.826 51.7036H204.908L205.956 52.4932H209.385C209.385 52.4932 213.541 56.6 212.918 61.8124C212.294 67.0249 209.177 69.947 209.177 69.947H204.908H116.707L117.231 49.4922Z" fill="#7B4073"/>
<path opacity="0.2" d="M117.072 55.7212H138.982C138.982 55.7212 141.696 56.7226 141.696 56.989C141.696 57.2553 182.096 56.989 182.096 56.989L183.926 56.1713C183.926 56.1713 205.455 56.1713 204.909 56.1713L206.001 57.0506H212.289C212.289 57.0506 213.14 59.5859 212.976 61.0649H206.001L204.808 60.4588H183.826L182.096 61.6458H141.244L138.953 60.7865H117.232L117.072 55.7212Z" fill="white"/>
<path opacity="0.3" d="M139.046 49.4922C139.046 49.4922 138.837 67.0284 139.046 67.188C139.256 67.3473 141.696 67.188 141.696 67.188V52.4935L139.046 49.4922Z" fill="black"/>
<g opacity="0.3">
<path d="M137.987 53.2175C138.307 53.2175 138.308 52.8389 137.987 52.8389C137.666 52.8389 137.666 53.2175 137.987 53.2175Z" fill="white"/>
</g>
<g opacity="0.3">
<path d="M137.987 57.7151C138.307 57.7151 138.308 57.3364 137.987 57.3364C137.666 57.3364 137.666 57.7151 137.987 57.7151Z" fill="white"/>
</g>
<g opacity="0.3">
<path d="M137.987 62.7795C138.307 62.7795 138.308 62.4009 137.987 62.4009C137.666 62.4009 137.666 62.7795 137.987 62.7795Z" fill="white"/>
</g>
<g opacity="0.3">
<path d="M137.987 67.0935C138.307 67.0935 138.308 66.7148 137.987 66.7148C137.666 66.7148 137.666 67.0935 137.987 67.0935Z" fill="white"/>
</g>
<path d="M138.975 49.5548C138.975 54.0617 138.975 58.5686 138.975 63.0752C138.975 64.3538 138.975 65.6325 138.975 66.9113C138.975 67.0333 139.224 67.0333 139.224 66.9113C139.224 62.4045 139.224 57.8976 139.224 53.391C139.224 52.1123 139.224 50.8337 139.224 49.5548C139.224 49.4329 138.975 49.4329 138.975 49.5548Z" fill="black"/>
<path d="M117.233 41.6519H84.9609V67.188H117.233V41.6519Z" fill="white"/>
<path opacity="0.2" d="M115.5 57.7451H87.1074V66.2706H115.5V57.7451Z" fill="black"/>
<path d="M115.072 58.1831H87.457V65.8448H115.072V58.1831Z" fill="white"/>
<path opacity="0.2" d="M87.1074 57.7451L87.4568 58.1829H115.071L115.5 57.7451H87.1074Z" fill="black"/>
<path opacity="0.2" d="M113.679 59.498H88.4688V64.4901H113.679V59.498Z" fill="black"/>
<path opacity="0.3" d="M115.5 44.4551H87.1074V56.1715H115.5V44.4551Z" fill="black"/>
<path d="M93.9638 45.0117H88.1074V55.7211H93.9638V45.0117Z" fill="white"/>
<path d="M114.335 45.0117H108.479V55.7211H114.335V45.0117Z" fill="white"/>
<path d="M106.978 45.0117H95.3867V55.7211H106.978V45.0117Z" fill="white"/>
<path opacity="0.5" d="M93.9638 45.0117H88.1074V55.7211H93.9638V45.0117Z" fill="white"/>
<path opacity="0.5" d="M114.335 45.0117H108.479V55.7211H114.335V45.0117Z" fill="white"/>
<path opacity="0.5" d="M106.978 45.0117H95.3867V55.7211H106.978V45.0117Z" fill="white"/>
<path d="M117.073 58.3772C118.868 58.3772 120.663 58.3772 122.458 58.3772C126.769 58.3772 131.079 58.3772 135.389 58.3772C140.603 58.3772 145.816 58.3772 151.03 58.3772C155.534 58.3772 160.039 58.3772 164.543 58.3772C166.722 58.3772 168.915 58.4328 171.093 58.3772C171.123 58.3765 171.152 58.3772 171.181 58.3772C171.822 58.3772 171.824 57.6199 171.181 57.6199C169.386 57.6199 167.591 57.6199 165.796 57.6199C161.486 57.6199 157.175 57.6199 152.865 57.6199C147.652 57.6199 142.438 57.6199 137.225 57.6199C132.72 57.6199 128.216 57.6199 123.711 57.6199C121.532 57.6199 119.339 57.5644 117.161 57.6199C117.132 57.6207 117.103 57.6199 117.073 57.6199C116.432 57.6199 116.431 58.3772 117.073 58.3772Z" fill="white"/>
<path d="M116.162 58.1447C116.162 61.2389 116.162 64.3329 116.162 67.4268C116.162 67.914 117.158 67.915 117.158 67.4268C117.158 64.3329 117.158 61.2386 117.158 58.1447C117.158 57.6572 116.162 57.6565 116.162 58.1447Z" fill="white"/>
<path d="M129.527 58.1447C129.527 61.2389 129.527 64.3329 129.527 67.4268C129.527 67.914 130.524 67.915 130.524 67.4268C130.524 64.3329 130.524 61.2386 130.524 58.1447C130.524 57.6572 129.527 57.6565 129.527 58.1447Z" fill="white"/>
<path d="M142.891 58.1447C142.891 61.2389 142.891 64.3329 142.891 67.4268C142.891 67.914 143.887 67.915 143.887 67.4268C143.887 64.3329 143.887 61.2386 143.887 58.1447C143.887 57.6572 142.891 57.6565 142.891 58.1447Z" fill="white"/>
<path d="M156.262 58.1447C156.262 61.2389 156.262 64.3329 156.262 67.4268C156.262 67.914 157.258 67.915 157.258 67.4268C157.258 64.3329 157.258 61.2386 157.258 58.1447C157.258 57.6572 156.262 57.6565 156.262 58.1447Z" fill="white"/>
<path d="M169.625 58.1447C169.625 61.2389 169.625 64.3329 169.625 67.4268C169.625 67.914 170.621 67.915 170.621 67.4268C170.621 64.3329 170.621 61.2386 170.621 58.1447C170.621 57.6572 169.625 57.6565 169.625 58.1447Z" fill="white"/>
<path d="M84.9629 67.1885V73.3739H89.6732L91.7243 68.9563H112.008L114.335 73.3739H117.235L119.186 68.9563H139.47L141.179 73.3739H144.472L146.535 68.9563H166.704L169.097 73.3739H171.203V67.3437L84.9629 67.1885Z" fill="#7B4073"/>
<path opacity="0.3" d="M84.9629 67.1885V73.3739H89.6732L91.7243 68.9563H112.008L114.335 73.3739H117.235L119.186 68.9563H139.47L141.179 73.3739H144.472L146.535 68.9563H166.704L169.097 73.3739H171.203V67.3437L84.9629 67.1885Z" fill="white"/>
<path d="M133.567 49.4916C130.157 51.3586 126.748 51.3586 123.338 49.4916V40.7666H133.567V49.4916Z" fill="#7B4073"/>
<path d="M122.885 40.952C122.885 40.952 123.178 37.5933 128.545 37.5933C133.912 37.5933 134.02 40.952 134.02 40.952H122.885Z" fill="#7B4073"/>
<path d="M129.826 38.1044H127.08V37.3383C127.08 36.7619 127.694 36.2949 128.453 36.2949C129.211 36.2949 129.825 36.7622 129.825 37.3383L129.826 38.1044Z" fill="#7B4073"/>
<path d="M77.4453 41.6519C77.4453 41.6519 84.9609 41.6519 84.9609 46.6884V41.6519H77.4453Z" fill="white"/>
<path opacity="0.4" d="M81.2031 42.2822H117.233V41.3857L77.4453 41.6526C77.4453 41.6526 79.2008 41.641 81.2031 42.2822Z" fill="black"/>
<path d="M115.505 38.7216C115.505 38.7216 82.625 38.4669 78.4593 38.7216C74.2933 38.9763 74.2189 41.5884 73.9961 41.652H74.3681H119.002C118.704 39.2949 115.505 38.7216 115.505 38.7216Z" fill="#7B4073"/>
<path opacity="0.3" d="M204.908 51.7041V69.9477H206.001V52.494L204.908 51.7041Z" fill="black"/>
<path d="M199.027 48.8343H189.968C189.371 48.8343 188.887 48.4663 188.887 48.0124C188.887 47.5585 189.371 47.1904 189.968 47.1904H199.027C199.624 47.1904 200.109 47.5585 200.109 48.0124C200.109 48.4663 199.624 48.8343 199.027 48.8343Z" fill="#7B4073"/>
<path opacity="0.3" d="M199.027 48.8343H189.968C189.371 48.8343 188.887 48.4663 188.887 48.0124C188.887 47.5585 189.371 47.1904 189.968 47.1904H199.027C199.624 47.1904 200.109 47.5585 200.109 48.0124C200.109 48.4663 199.624 48.8343 199.027 48.8343Z" fill="white"/>
<path d="M166.137 52.5339C163.119 54.2455 160.353 54.2455 157.84 52.5339V50.1079H166.137V52.5339Z" fill="#7B4073"/>
<path d="M166.775 50.4915H157.207C156.95 50.4915 156.742 50.3332 156.742 50.1381C156.742 49.9429 156.95 49.7847 157.207 49.7847H166.775C167.031 49.7847 167.24 49.9429 167.24 50.1381C167.239 50.3332 167.031 50.4915 166.775 50.4915Z" fill="#7B4073"/>
<path d="M161.987 46.1625C161.987 46.1625 157.305 46.0449 157.305 49.7841H166.678C166.678 49.7841 166.748 46.1625 161.987 46.1625Z" fill="#7B4073"/>
<path d="M84.9616 70.2817H75.627V81.4201H84.9616V70.2817Z" fill="#7B4073"/>
<path d="M76.8809 70.1044C76.8809 74.7577 76.8809 79.4113 76.8809 84.0646C76.8809 84.4301 77.6281 84.4306 77.6281 84.0646C77.6281 79.4113 77.6281 74.7577 77.6281 70.1044C77.6281 69.7389 76.8809 69.7384 76.8809 70.1044Z" fill="#7B4073"/>
<path d="M77.3668 83.6735C79.6487 83.6735 81.9303 83.6735 84.2122 83.6735C84.6931 83.6735 84.6938 83.1055 84.2122 83.1055C81.9303 83.1055 79.6487 83.1055 77.3668 83.1055C76.8859 83.1055 76.8852 83.6735 77.3668 83.6735Z" fill="#7B4073"/>
<path d="M84.7355 84.1772C84.7355 79.4862 84.7355 74.7953 84.7355 70.1044C84.7355 69.7389 83.9883 69.7384 83.9883 70.1044C83.9883 74.7953 83.9883 79.4862 83.9883 84.1772C83.9883 84.5427 84.7355 84.5434 84.7355 84.1772Z" fill="#7B4073"/>
<path d="M77.3277 73.0914C79.5987 73.0914 81.8697 73.0914 84.1409 73.0914C84.6218 73.0914 84.6225 72.5234 84.1409 72.5234C81.87 72.5234 79.599 72.5234 77.3277 72.5234C76.8468 72.5234 76.8462 73.0914 77.3277 73.0914Z" fill="#7B4073"/>
<path d="M77.6286 76.6373C79.801 76.6373 81.9733 76.6373 84.1456 76.6373C84.6265 76.6373 84.6272 76.0693 84.1456 76.0693C81.9733 76.0693 79.801 76.0693 77.6286 76.0693C77.1477 76.0693 77.1467 76.6373 77.6286 76.6373Z" fill="#7B4073"/>
<path d="M77.5485 80.2389C79.8195 80.2389 82.0905 80.2389 84.3618 80.2389C84.8427 80.2389 84.8433 79.6709 84.3618 79.6709C82.0908 79.6709 79.8198 79.6709 77.5485 79.6709C77.0677 79.6709 77.0667 80.2389 77.5485 80.2389Z" fill="#7B4073"/>
<g opacity="0.3">
<path d="M76.8809 70.1044C76.8809 74.7577 76.8809 79.4113 76.8809 84.0646C76.8809 84.4301 77.6281 84.4306 77.6281 84.0646C77.6281 79.4113 77.6281 74.7577 77.6281 70.1044C77.6281 69.7389 76.8809 69.7384 76.8809 70.1044Z" fill="white"/>
<path d="M77.3668 83.6735C79.6487 83.6735 81.9303 83.6735 84.2122 83.6735C84.6931 83.6735 84.6938 83.1055 84.2122 83.1055C81.9303 83.1055 79.6487 83.1055 77.3668 83.1055C76.8859 83.1055 76.8852 83.6735 77.3668 83.6735Z" fill="white"/>
<path d="M84.7355 84.1772C84.7355 79.4862 84.7355 74.7953 84.7355 70.1044C84.7355 69.7389 83.9883 69.7384 83.9883 70.1044C83.9883 74.7953 83.9883 79.4862 83.9883 84.1772C83.9883 84.5427 84.7355 84.5434 84.7355 84.1772Z" fill="white"/>
<path d="M77.3277 73.0914C79.5987 73.0914 81.8697 73.0914 84.1409 73.0914C84.6218 73.0914 84.6225 72.5234 84.1409 72.5234C81.87 72.5234 79.599 72.5234 77.3277 72.5234C76.8468 72.5234 76.8462 73.0914 77.3277 73.0914Z" fill="white"/>
<path d="M77.6286 76.6373C79.801 76.6373 81.9733 76.6373 84.1456 76.6373C84.6265 76.6373 84.6272 76.0693 84.1456 76.0693C81.9733 76.0693 79.801 76.0693 77.6286 76.0693C77.1477 76.0693 77.1467 76.6373 77.6286 76.6373Z" fill="white"/>
<path d="M77.5485 80.2389C79.8195 80.2389 82.0905 80.2389 84.3618 80.2389C84.8427 80.2389 84.8433 79.6709 84.3618 79.6709C82.0908 79.6709 79.8198 79.6709 77.5485 79.6709C77.0677 79.6709 77.0667 80.2389 77.5485 80.2389Z" fill="white"/>
</g>
<path d="M75.6243 77.5537H70.1484V80.5492H75.6243V77.5537Z" fill="#7B4073"/>
<path d="M70.1496 78.084H64.6777V79.9561H70.1496V78.084Z" fill="#7B4073"/>
<path d="M75.6367 57.3662C75.6367 61.7552 75.6367 66.1442 75.6367 70.5331C75.6367 71.0204 76.633 71.0214 76.633 70.5331C76.633 66.1442 76.633 61.7552 76.633 57.3662C76.633 56.879 75.6367 56.8782 75.6367 57.3662Z" fill="#7B4073"/>
<path d="M186.462 84.2139C187.291 81.5705 185.143 78.9172 181.665 78.2876C178.188 77.658 174.697 79.2905 173.869 81.9339C173.041 84.5773 175.188 87.2306 178.666 87.8602C182.143 88.4898 185.634 86.8573 186.462 84.2139Z" fill="#7B4073"/>
<path opacity="0.3" d="M184.489 83.863C185.057 82.0457 183.579 80.2225 181.188 79.7908C178.798 79.3591 176.399 80.4824 175.831 82.2997C175.263 84.1171 176.741 85.9403 179.132 86.372C181.523 86.8037 183.921 85.6804 184.489 83.863Z" fill="white"/>
<path d="M182.387 83.0749C182.387 84.009 181.391 84.766 180.162 84.766C178.934 84.766 177.938 84.009 177.938 83.0749C177.938 82.1409 178.934 81.3838 180.162 81.3838C181.391 81.3838 182.387 82.1409 182.387 83.0749Z" fill="#7B4073"/>
<path d="M202.532 83.8766C203.109 81.1949 200.716 78.6658 197.188 78.2278C193.66 77.7897 190.333 79.6086 189.756 82.2903C189.18 84.972 191.573 87.5011 195.101 87.9391C198.629 88.3772 201.956 86.5583 202.532 83.8766Z" fill="#7B4073"/>
<path opacity="0.3" d="M200.587 83.0746C200.587 84.9427 198.594 86.4569 196.137 86.4569C193.679 86.4569 191.688 84.9425 191.688 83.0746C191.688 81.2068 193.68 79.6924 196.137 79.6924C198.595 79.6924 200.587 81.2065 200.587 83.0746Z" fill="white"/>
<path d="M198.364 83.0759C198.364 84.0099 197.368 84.767 196.139 84.767C194.91 84.767 193.914 84.0099 193.914 83.0759C193.914 82.1418 194.91 81.3848 196.139 81.3848C197.368 81.3848 198.364 82.1418 198.364 83.0759Z" fill="#7B4073"/>
<path d="M167.338 73.5908H140.799V74.2494H167.338V73.5908Z" fill="#7B4073"/>
<path opacity="0.6" d="M167.338 73.5908H140.799V74.2494H167.338V73.5908Z" fill="white"/>
<path d="M174.87 75.0623C175.648 75.0623 176.427 75.0623 177.205 75.0623C177.526 75.0623 177.526 74.6836 177.205 74.6836C176.427 74.6836 175.648 74.6836 174.87 74.6836C174.549 74.6836 174.548 75.0623 174.87 75.0623Z" fill="#7B4073"/>
<path d="M176.002 72.4922C168.405 72.4922 160.808 72.4922 153.211 72.4922C151.064 72.4922 148.917 72.4922 146.77 72.4922C146.449 72.4922 146.449 72.8709 146.77 72.8709C154.367 72.8709 161.964 72.8709 169.561 72.8709C171.708 72.8709 173.854 72.8709 176.002 72.8709C176.322 72.8709 176.323 72.4922 176.002 72.4922Z" fill="#7B4073"/>
<path d="M152.105 72.0917C152.105 72.5582 152.105 73.0247 152.105 73.4912C152.105 73.7348 152.604 73.7353 152.604 73.4912C152.604 73.0247 152.604 72.5582 152.604 72.0917C152.604 71.8478 152.105 71.8476 152.105 72.0917Z" fill="#7B4073"/>
<path d="M164.74 72.1742C164.74 72.6132 164.74 73.0524 164.74 73.4914C164.74 73.5937 164.855 73.6808 164.989 73.6808C165.124 73.6808 165.238 73.5942 165.238 73.4914C165.238 73.0524 165.238 72.6132 165.238 72.1742C165.238 72.072 165.124 71.9849 164.989 71.9849C164.854 71.9849 164.74 72.0715 164.74 72.1742Z" fill="#7B4073"/>
<path d="M175.244 72.682C175.244 73.3366 175.244 73.9914 175.244 74.646C175.244 74.8896 175.742 74.8901 175.742 74.646C175.742 73.9914 175.742 73.3366 175.742 72.682C175.742 72.4382 175.244 72.4379 175.244 72.682Z" fill="#7B4073"/>
<g opacity="0.6">
<path d="M174.87 75.0623C175.648 75.0623 176.427 75.0623 177.205 75.0623C177.526 75.0623 177.526 74.6836 177.205 74.6836C176.427 74.6836 175.648 74.6836 174.87 74.6836C174.549 74.6836 174.548 75.0623 174.87 75.0623Z" fill="white"/>
<path d="M176.002 72.4922C168.405 72.4922 160.808 72.4922 153.211 72.4922C151.064 72.4922 148.917 72.4922 146.77 72.4922C146.449 72.4922 146.449 72.8709 146.77 72.8709C154.367 72.8709 161.964 72.8709 169.561 72.8709C171.708 72.8709 173.854 72.8709 176.002 72.8709C176.322 72.8709 176.323 72.4922 176.002 72.4922Z" fill="white"/>
<path d="M152.105 72.0917C152.105 72.5582 152.105 73.0247 152.105 73.4912C152.105 73.7348 152.604 73.7353 152.604 73.4912C152.604 73.0247 152.604 72.5582 152.604 72.0917C152.604 71.8478 152.105 71.8476 152.105 72.0917Z" fill="white"/>
<path d="M164.74 72.1742C164.74 72.6132 164.74 73.0524 164.74 73.4914C164.74 73.5937 164.855 73.6808 164.989 73.6808C165.124 73.6808 165.238 73.5942 165.238 73.4914C165.238 73.0524 165.238 72.6132 165.238 72.1742C165.238 72.072 165.124 71.9849 164.989 71.9849C164.854 71.9849 164.74 72.0715 164.74 72.1742Z" fill="white"/>
<path d="M175.244 72.682C175.244 73.3366 175.244 73.9914 175.244 74.646C175.244 74.8896 175.742 74.8901 175.742 74.646C175.742 73.9914 175.742 73.3366 175.742 72.682C175.742 72.4382 175.244 72.4379 175.244 72.682Z" fill="white"/>
</g>
<path d="M102.181 69.8853C95.4686 69.8853 90.0273 74.0215 90.0273 79.1237C90.0273 84.2261 95.469 88.3624 102.181 88.3624C108.893 88.3624 114.335 84.2261 114.335 79.1237C114.335 74.0215 108.894 69.8853 102.181 69.8853ZM102.181 87.1557C96.3454 87.1557 91.6148 83.5599 91.6148 79.1239C91.6148 74.6883 96.3457 71.0922 102.181 71.0922C108.017 71.0922 112.748 74.6883 112.748 79.1239C112.748 83.5596 108.017 87.1557 102.181 87.1557Z" fill="#7B4073"/>
<path d="M113.173 79.311H91.1191" stroke="#7B4073" stroke-miterlimit="10"/>
<path d="M110.515 84.6772L93.6211 73.9019" stroke="#7B4073" stroke-miterlimit="10"/>
<path d="M103.939 87.4883L100.109 70.9795" stroke="#7B4073" stroke-miterlimit="10"/>
<path d="M96.5254 86.4294L107.552 71.9121" stroke="#7B4073" stroke-miterlimit="10"/>
<path d="M91.7422 81.9962L112.465 76.2627" stroke="#7B4073" stroke-miterlimit="10"/>
<path d="M91.8262 76.2627L112.549 81.9962" stroke="#7B4073" stroke-miterlimit="10"/>
<path d="M96.7402 71.9121L107.767 86.4294" stroke="#7B4073" stroke-miterlimit="10"/>
<path d="M104.181 70.9795L100.352 87.4881" stroke="#7B4073" stroke-miterlimit="10"/>
<path d="M110.673 73.9019L93.7793 84.6772" stroke="#7B4073" stroke-miterlimit="10"/>
<path d="M104.83 79.6289C105.194 78.4605 104.243 77.2888 102.706 77.0119C101.169 76.735 99.6274 77.4577 99.2631 78.6261C98.8988 79.7945 99.8496 80.9662 101.387 81.2431C102.924 81.52 104.465 80.7973 104.83 79.6289Z" fill="white"/>
<path d="M103.482 79.1234C103.482 79.7237 102.842 80.2107 102.051 80.2107C101.261 80.2107 100.621 79.724 100.621 79.1234C100.621 78.5228 101.261 78.0361 102.051 78.0361C102.842 78.0361 103.482 78.5228 103.482 79.1234Z" fill="#7B4073"/>
<path d="M129.09 69.8853C122.377 69.8853 116.936 74.0215 116.936 79.1237C116.936 84.2261 122.377 88.3624 129.09 88.3624C135.802 88.3624 141.244 84.2261 141.244 79.1237C141.244 74.0215 135.802 69.8853 129.09 69.8853ZM129.09 87.1557C123.254 87.1557 118.523 83.5599 118.523 79.1239C118.523 74.6883 123.254 71.0922 129.09 71.0922C134.925 71.0922 139.656 74.6883 139.656 79.1239C139.656 83.5596 134.926 87.1557 129.09 87.1557Z" fill="#7B4073"/>
<path d="M140.081 79.311H118.027" stroke="#7B4073" stroke-miterlimit="10"/>
<path d="M137.423 84.6772L120.529 73.9019" stroke="#7B4073" stroke-miterlimit="10"/>
<path d="M130.847 87.488L127.018 70.9795" stroke="#7B4073" stroke-miterlimit="10"/>
<path d="M123.434 86.4294L134.46 71.9121" stroke="#7B4073" stroke-miterlimit="10"/>
<path d="M118.65 81.9962L139.374 76.2627" stroke="#7B4073" stroke-miterlimit="10"/>
<path d="M118.734 76.2627L139.458 81.9962" stroke="#7B4073" stroke-miterlimit="10"/>
<path d="M123.648 71.9121L134.675 86.4294" stroke="#7B4073" stroke-miterlimit="10"/>
<path d="M131.089 70.9795L127.26 87.4881" stroke="#7B4073" stroke-miterlimit="10"/>
<path d="M137.581 73.9019L120.688 84.6772" stroke="#7B4073" stroke-miterlimit="10"/>
<path d="M130.052 81.1319C131.512 80.6747 132.209 79.4039 131.608 78.2935C131.006 77.1831 129.334 76.6536 127.874 77.1107C126.413 77.5679 125.716 78.8386 126.317 79.9491C126.919 81.0595 128.591 81.589 130.052 81.1319Z" fill="white"/>
<path d="M130.392 79.1234C130.392 79.7237 129.752 80.2107 128.962 80.2107C128.172 80.2107 127.531 79.724 127.531 79.1234C127.531 78.5228 128.172 78.0361 128.962 78.0361C129.751 78.0361 130.392 78.5228 130.392 79.1234Z" fill="#7B4073"/>
<path opacity="0.3" d="M198.967 48.8345H190.328V49.6731H198.967V48.8345Z" fill="black"/>
<path d="M190.411 47.1864C193.264 47.1864 196.116 47.1864 198.968 47.1864C199.128 47.1864 199.128 46.9971 198.968 46.9971C196.116 46.9971 193.264 46.9971 190.411 46.9971C190.251 46.9971 190.251 47.1864 190.411 47.1864Z" fill="black"/>
<path d="M190.73 40.1976C193.341 40.1976 195.952 40.1976 198.563 40.1976C198.723 40.1976 198.723 40.0083 198.563 40.0083C195.952 40.0083 193.341 40.0083 190.73 40.0083C190.569 40.0083 190.569 40.1976 190.73 40.1976Z" fill="black"/>
<path d="M161.988 47.0984C161.632 47.0984 161.344 46.879 161.344 46.6084V45.51C161.344 45.2394 161.632 45.02 161.988 45.02C162.344 45.02 162.633 45.2394 162.633 45.51V46.6084C162.633 46.879 162.344 47.0984 161.988 47.0984Z" fill="#7B4073"/>
<path d="M157.206 50.6215C160.395 50.6215 163.584 50.6215 166.774 50.6215C166.934 50.6215 166.934 50.4321 166.774 50.4321C163.585 50.4321 160.395 50.4321 157.206 50.4321C157.046 50.4321 157.046 50.6215 157.206 50.6215Z" fill="black"/>
<path d="M157.206 49.9164C160.395 49.9164 163.584 49.9164 166.774 49.9164C166.934 49.9164 166.934 49.7271 166.774 49.7271C163.585 49.7271 160.395 49.7271 157.206 49.7271C157.046 49.7271 157.046 49.9164 157.206 49.9164Z" fill="black"/>
<path d="M149.947 74.729H137.014V75.9195H149.947V74.729Z" fill="#7B4073"/>
<path d="M157.382 76.3477H154.303V79.1609H157.382V76.3477Z" fill="#7B4073"/>
<path opacity="0.6" d="M157.382 76.3477H154.303V79.1609H157.382V76.3477Z" fill="white"/>
<path opacity="0.6" d="M149.947 74.729H137.014V75.9195H149.947V74.729Z" fill="white"/>
<path d="M155.938 82.0405H100.221" stroke="white" stroke-width="3" stroke-miterlimit="10"/>
<path d="M155.844 79.2378L130.715 82.0409" stroke="white" stroke-width="3" stroke-miterlimit="10"/>
<path d="M131.59 81.1851H126.338V82.8961H131.59V81.1851Z" fill="white"/>
<path d="M158.471 81.1851H153.219V82.8961H158.471V81.1851Z" fill="white"/>
<path d="M104.441 81.1851H99.1895V82.8961H104.441V81.1851Z" fill="white"/>
<path d="M160.419 74.2485H149.947V76.5998H160.419V74.2485Z" fill="#7B4073"/>
<path opacity="0.6" d="M160.419 74.2485H149.947V76.5998H160.419V74.2485Z" fill="white"/>
<path d="M157.413 79.1232C157.413 79.7695 156.724 80.2933 155.873 80.2933C155.023 80.2933 154.334 79.7695 154.334 79.1232C154.334 78.4769 155.023 77.9531 155.873 77.9531C156.724 77.9531 157.413 78.4769 157.413 79.1232Z" fill="#7B4073"/>
<g opacity="0.3">
<path d="M183.828 51.7041V69.9475H182.098C182.098 64.164 182.098 58.3176 182.098 52.5339L183.828 51.7041Z" fill="black"/>
</g>
<path d="M183.805 51.7041C183.805 56.4448 183.805 61.1857 183.805 65.9263C183.805 67.2403 183.805 68.5543 183.805 69.8682C183.805 69.9902 184.054 69.9902 184.054 69.8682C184.054 65.1276 184.054 60.3867 184.054 55.6461C184.054 54.3321 184.054 53.0181 184.054 51.7041C184.054 51.5825 183.805 51.5822 183.805 51.7041Z" fill="black"/>
<g opacity="0.3">
<path d="M184.916 53.7454C185.237 53.7454 185.238 53.3667 184.916 53.3667C184.596 53.3667 184.595 53.7454 184.916 53.7454Z" fill="white"/>
</g>
<g opacity="0.3">
<path d="M184.916 58.2439C185.237 58.2439 185.238 57.8652 184.916 57.8652C184.596 57.8652 184.595 58.2439 184.916 58.2439Z" fill="white"/>
</g>
<g opacity="0.3">
<path d="M184.916 63.3084C185.237 63.3084 185.238 62.9297 184.916 62.9297C184.596 62.9297 184.595 63.3084 184.916 63.3084Z" fill="white"/>
</g>
<g opacity="0.3">
<path d="M184.916 67.6223C185.237 67.6223 185.238 67.2437 184.916 67.2437C184.596 67.2437 184.595 67.6223 184.916 67.6223Z" fill="white"/>
</g>
<g opacity="0.3">
<path d="M203.809 53.7454C204.129 53.7454 204.13 53.3667 203.809 53.3667C203.488 53.3667 203.488 53.7454 203.809 53.7454Z" fill="white"/>
</g>
<g opacity="0.3">
<path d="M203.809 58.2439C204.129 58.2439 204.13 57.8652 203.809 57.8652C203.488 57.8652 203.488 58.2439 203.809 58.2439Z" fill="white"/>
</g>
<g opacity="0.3">
<path d="M203.809 63.3098C204.129 63.3098 204.13 62.9312 203.809 62.9312C203.488 62.9312 203.488 63.3098 203.809 63.3098Z" fill="white"/>
</g>
<g opacity="0.3">
<path d="M203.809 67.6233C204.129 67.6233 204.13 67.2446 203.809 67.2446C203.488 67.2446 203.488 67.6233 203.809 67.6233Z" fill="white"/>
</g>
<path d="M157.849 52.5156C160.194 54.1148 163.727 54.1532 166.136 52.6112C166.259 52.5327 166.082 52.3992 165.96 52.4775C163.657 53.9507 160.263 53.908 158.025 52.3818C157.906 52.3005 157.729 52.4338 157.849 52.5156Z" fill="black"/>
<path d="M123.054 49.7544C123.89 51.1259 126.427 51.4737 128.207 51.4536C130.29 51.4301 132.324 50.8565 133.909 49.8288C134.031 49.7496 133.854 49.6163 133.732 49.695C132.232 50.6682 130.305 51.2183 128.336 51.2622C126.61 51.3008 124.083 50.9954 123.269 49.6587C123.202 49.5484 122.987 49.6445 123.054 49.7544Z" fill="black"/>
<path d="M122.927 41.0678C126.6 41.0678 130.272 41.0678 133.945 41.0678C134.105 41.0678 134.105 40.8784 133.945 40.8784C130.272 40.8784 126.6 40.8784 122.927 40.8784C122.767 40.8784 122.766 41.0678 122.927 41.0678Z" fill="black"/>
<path opacity="0.3" d="M133.567 41.1182H123.338V41.6518H133.567V41.1182Z" fill="black"/>
<path d="M124.094 39.0674C126.176 37.4142 129.548 37.1516 132.052 38.4106C132.186 38.478 132.311 38.3141 132.178 38.247C129.584 36.9431 126.073 37.2223 123.918 38.9334C123.807 39.0217 123.983 39.1558 124.094 39.0674Z" fill="black"/>
<path opacity="0.5" d="M106.978 45.3608L95.3867 50.6942V54.0628L106.978 48.3084V45.3608Z" fill="white"/>
<path opacity="0.5" d="M95.3867 55.7202L106.978 50.1675V51.6413L98.3342 55.7202H95.3867Z" fill="white"/>
<path opacity="0.5" d="M108.479 49.1962L114.335 46.0752V48.5539L108.479 51.5348V49.1962Z" fill="white"/>
<path opacity="0.5" d="M93.9638 51.8847L88.1074 54.5851V52.2475L93.9638 49.6157V51.8847Z" fill="white"/>
<path d="M75.4746 77.574C75.4746 78.8488 75.4746 80.1237 75.4746 81.3985C75.4746 81.5204 75.7237 81.5204 75.7237 81.3985C75.7237 80.1237 75.7237 78.8488 75.7237 77.574C75.7237 77.452 75.4746 77.4518 75.4746 77.574Z" fill="black"/>
<path d="M70.0586 77.5964C70.0586 78.5656 70.0586 79.5347 70.0586 80.5036C70.0586 80.6255 70.3077 80.6255 70.3077 80.5036C70.3077 79.5344 70.3077 78.5653 70.3077 77.5964C70.3077 77.4745 70.0586 77.4742 70.0586 77.5964Z" fill="black"/>
<path opacity="0.3" d="M70.1142 78.084H69.4785V79.9675H70.1142V78.084Z" fill="black"/>
<path opacity="0.3" d="M75.5087 77.5537H74.873V80.5492H75.5087V77.5537Z" fill="black"/>
<path d="M186.052 30.2792C192.016 30.2792 197.98 30.2792 203.944 30.2792C204.104 30.2792 204.104 30.0898 203.944 30.0898C197.98 30.0898 192.016 30.0898 186.052 30.0898C185.892 30.0898 185.891 30.2792 186.052 30.2792Z" fill="black"/>
<path opacity="0.3" d="M176.699 75.9194H170.676V77.63H176.699V75.9194Z" fill="black"/>
<path opacity="0.3" d="M173.685 74.2485H171.695V75.9195H173.685V74.2485Z" fill="black"/>
<path opacity="0.3" d="M193.945 71.7192H178.879V72.4602H193.945V71.7192Z" fill="black"/>
<path d="M197.866 76.7261H178.281C177.689 76.7261 177.209 76.3613 177.209 75.9112V73.83C177.209 73.3799 177.689 73.0151 178.281 73.0151H197.866C198.458 73.0151 198.938 73.3799 198.938 73.83V75.9112C198.938 76.3613 198.458 76.7261 197.866 76.7261Z" fill="white"/>
<path d="M149.771 74.4618C155.611 74.4618 161.451 74.4618 167.291 74.4618C167.451 74.4618 167.451 74.2725 167.291 74.2725C161.451 74.2725 155.611 74.2725 149.771 74.2725C149.61 74.2725 149.61 74.4618 149.771 74.4618Z" fill="black"/>
<path d="M149.912 74.449C149.912 75.1619 149.912 75.8748 149.912 76.5879C149.912 76.7099 150.161 76.7099 150.161 76.5879C150.161 75.875 150.161 75.1621 150.161 74.449C150.161 74.327 149.912 74.3268 149.912 74.449Z" fill="black"/>
<path d="M149.983 76.8036C153.381 76.8036 156.779 76.8036 160.177 76.8036C160.337 76.8036 160.337 76.6143 160.177 76.6143C156.779 76.6143 153.381 76.6143 149.983 76.6143C149.823 76.6143 149.823 76.8036 149.983 76.8036Z" fill="black"/>
<path opacity="0.3" d="M198.781 70.561H193.947V72.5404H198.781V70.561Z" fill="black"/>
<path d="M104.606 82.8309C104.606 82.2922 104.606 81.7535 104.606 81.2148C104.606 81.1635 104.549 81.1201 104.481 81.1201C102.936 81.1201 101.39 81.1201 99.8446 81.1201C99.6261 81.1201 99.4075 81.1201 99.1887 81.1201C99.0283 81.1201 99.0283 81.3095 99.1887 81.3095C100.734 81.3095 102.28 81.3095 103.826 81.3095C104.044 81.3095 104.263 81.3095 104.481 81.3095C104.44 81.2779 104.398 81.2463 104.357 81.2148C104.357 81.7535 104.357 82.2922 104.357 82.8309C104.357 82.9529 104.606 82.9531 104.606 82.8309Z" fill="black"/>
<path d="M126.219 81.2497C126.219 81.7708 126.219 82.2921 126.219 82.8131C126.219 82.9351 126.468 82.9351 126.468 82.8131C126.468 82.2921 126.468 81.7708 126.468 81.2497C126.468 81.1278 126.219 81.1276 126.219 81.2497Z" fill="black"/>
<path d="M131.533 81.2497C131.533 81.7827 131.533 82.3153 131.533 82.8482C131.533 82.9701 131.782 82.9701 131.782 82.8482C131.782 82.3153 131.782 81.7827 131.782 81.2497C131.782 81.1278 131.533 81.1276 131.533 81.2497Z" fill="black"/>
<path d="M153.092 81.2385C153.092 81.7585 153.092 82.2788 153.092 82.7989C153.092 82.9208 153.341 82.9208 153.341 82.7989C153.341 82.2788 153.341 81.7585 153.341 81.2385C153.341 81.1166 153.092 81.1163 153.092 81.2385Z" fill="black"/>
<path d="M153.282 81.3344C154.934 81.3344 156.586 81.3344 158.237 81.3344C158.398 81.3344 158.398 81.145 158.237 81.145C156.586 81.145 154.934 81.145 153.282 81.145C153.122 81.145 153.122 81.3344 153.282 81.3344Z" fill="black"/>
<path opacity="0.3" d="M105.554 81.6201H104.482V82.435H105.554V81.6201Z" fill="black"/>
<path opacity="0.3" d="M126.324 81.6201H125.252V82.435H126.324V81.6201Z" fill="black"/>
<path opacity="0.3" d="M153.172 81.6611H152.1V82.4192H153.172V81.6611Z" fill="black"/>
<path opacity="0.3" d="M132.808 82.4353H131.736V81.548L132.808 81.4258V82.4353Z" fill="black"/>
<path d="M208.556 83.9212C208.377 83.9212 208.232 83.8111 208.232 83.6756V77.7222C208.232 77.5866 208.377 77.4766 208.556 77.4766C208.734 77.4766 208.879 77.5864 208.879 77.7222V83.6756C208.879 83.8111 208.734 83.9212 208.556 83.9212Z" fill="#7B4073"/>
<path d="M211.008 78.5059H208.711V82.3104H211.008V78.5059Z" fill="#7B4073"/>
<path d="M239.162 88.0539H211.354C211.079 88.0539 210.855 87.8843 210.855 87.6752V77.7688C210.855 77.6393 210.943 77.5189 211.086 77.4492C211.23 77.3798 211.411 77.371 211.565 77.4258L239.373 87.3322C239.585 87.4076 239.699 87.5841 239.648 87.7573C239.598 87.9307 239.396 88.0539 239.162 88.0539ZM211.852 87.2966H236.925L211.852 78.3643V87.2966Z" fill="white"/>
<path d="M233.459 88.054C233.373 88.054 233.286 88.0374 233.207 88.0015L215.587 80.1056L226.44 87.3916C226.647 87.53 226.666 87.7693 226.484 87.926C226.302 88.0826 225.987 88.0977 225.781 87.9591L211.024 78.0527C210.832 77.9235 210.8 77.7043 210.95 77.5463C211.102 77.3885 211.386 77.3434 211.607 77.4428L233.713 87.3492C233.95 87.4555 234.029 87.6875 233.889 87.8677C233.796 87.9876 233.63 88.054 233.459 88.054Z" fill="white"/>
<path d="M214.998 88.0539C214.781 88.0539 214.581 87.9443 214.519 87.7772L210.874 77.8708C210.807 77.6893 210.926 77.4979 211.153 77.4222C211.38 77.3464 211.646 77.4088 211.777 77.5686L219.89 87.475C220.036 87.6525 219.964 87.8862 219.731 87.9965C219.497 88.1066 219.19 88.0528 219.045 87.8754L212.772 80.2165L215.479 87.5732C215.553 87.7746 215.399 87.9837 215.134 88.04C215.088 88.0496 215.043 88.0539 214.998 88.0539Z" fill="white"/>
<path d="M208.721 77.7702C208.721 79.7614 208.721 81.7527 208.721 83.744C208.721 83.8659 208.97 83.8659 208.97 83.744C208.97 81.7527 208.97 79.7614 208.97 77.7702C208.97 77.6482 208.721 77.6482 208.721 77.7702Z" fill="black"/>
<g opacity="0.3">
<path d="M197.349 74.1156H178.8C178.602 74.1156 178.441 73.9934 178.441 73.843C178.441 73.6925 178.602 73.5703 178.8 73.5703H197.349C197.547 73.5703 197.708 73.6925 197.708 73.843C197.708 73.9934 197.547 74.1156 197.349 74.1156Z" fill="black"/>
</g>
<g opacity="0.3">
<path d="M197.349 75.1366H178.8C178.602 75.1366 178.441 75.0147 178.441 74.8639C178.441 74.7135 178.602 74.5913 178.8 74.5913H197.349C197.547 74.5913 197.708 74.7135 197.708 74.8639C197.708 75.0147 197.547 75.1366 197.349 75.1366Z" fill="black"/>
</g>
<g opacity="0.3">
<path d="M197.349 76.1571H178.8C178.602 76.1571 178.441 76.0349 178.441 75.8845C178.441 75.7337 178.602 75.6118 178.8 75.6118H197.349C197.547 75.6118 197.708 75.7337 197.708 75.8845C197.708 76.0352 197.547 76.1571 197.349 76.1571Z" fill="black"/>
</g>
<path d="M83.3027 47.5059C83.3027 51.2868 83.3027 55.0673 83.3027 58.8482C83.3027 58.9701 83.5518 58.9701 83.5518 58.8482C83.5518 55.0673 83.5518 51.2868 83.5518 47.5059C83.5518 47.3842 83.3027 47.384 83.3027 47.5059Z" fill="white"/>
<path d="M83.3027 59.6084C83.3027 59.8844 83.3027 60.1605 83.3027 60.4365C83.3027 60.4756 83.3027 60.5145 83.3027 60.5536C83.3027 60.6755 83.5518 60.6755 83.5518 60.5536C83.5518 60.2777 83.5518 60.0017 83.5518 59.7256C83.5518 59.6864 83.5518 59.6476 83.5518 59.6084C83.5518 59.4868 83.3027 59.4865 83.3027 59.6084Z" fill="white"/>
<g opacity="0.7">
<path d="M199.997 21.2444C198.921 20.0306 196.533 19.63 194.885 20.3868C194.341 17.7483 191.663 15.4334 188.29 14.6861C184.917 13.9391 181.022 14.7982 178.699 16.8021C176.169 14.8825 171.41 15.1337 169.253 17.3007C170.247 15.4717 168.638 13.4007 166.65 12.1233C162.057 9.17199 155.028 8.64564 149.766 10.8586C150.329 9.82355 150.028 8.59061 149.206 7.66111C148.383 6.73187 147.099 6.08208 145.728 5.6711C141.393 4.37051 136.344 5.36817 132.466 7.33293C130.268 8.44646 128.267 9.93513 127.427 11.8388C126.587 13.7425 127.181 16.1026 129.324 17.2764C127.257 17.7667 125.237 18.4894 123.696 19.6456C122.155 20.8016 121.145 22.4409 121.364 24.078C121.68 26.446 124.407 28.2383 127.278 29.1888C132.97 31.073 139.949 30.4916 144.97 27.7155C143.987 28.3436 144.15 29.6096 145.001 30.3402C145.852 31.0707 147.161 31.3785 148.42 31.569C151.126 31.9788 154.025 31.9805 156.545 31.1263C159.065 30.272 161.119 28.4413 161.282 26.3475C161.913 27.3696 163.416 28.0399 164.897 27.9601C165.987 27.9015 167.01 27.4393 167.65 26.7703C167.345 27.6037 167.62 28.5766 168.3 29.2943C169.214 30.2589 170.701 30.8233 172.208 31.1396C174.893 31.7034 177.967 31.535 180.193 30.2614C182.419 28.9878 183.468 26.4725 182.103 24.6258C183.633 25.8509 186.803 25.3461 187.557 23.7572C187.317 24.3742 187.477 26.628 188.224 26.9304H199.364C200.906 26.0537 201.073 22.4581 199.997 21.2444Z" fill="#500953"/>
</g>
<g opacity="0.7">
<path d="M156.344 2.49329C154.472 2.48244 153.633 3.90445 153.997 4.83622C154.361 5.76824 155.955 6.28247 157.09 5.83439C156.565 6.27818 156.61 7.00825 157.08 7.48612C157.55 7.964 158.355 8.20382 159.14 8.21973C161.031 8.25835 162.783 6.94842 162.764 5.51075C163.543 5.36913 164.335 5.22297 165.025 4.91397C165.716 4.60524 166.302 4.10388 166.423 3.5018C166.603 2.60184 165.644 1.72586 164.49 1.48251C163.336 1.2394 162.083 1.51583 161.062 1.99169C161.438 1.31387 160.92 0.46213 160.043 0.150867C159.166 -0.160396 158.064 0.0317123 157.349 0.527764C156.635 1.02407 156.285 1.77635 156.275 2.51222" fill="#500953"/>
</g>
<g opacity="0.7">
<path d="M112.855 23.6692L113.768 23.5427C114.684 23.2622 115.022 22.3307 114.669 21.6297C114.315 20.9287 113.455 20.4435 112.556 20.1327C111.59 19.7985 110.49 19.621 109.458 19.8116C108.426 20.0019 107.492 20.6171 107.305 21.4118C106.341 20.3117 104.647 19.6028 102.908 19.5728C101.17 19.5427 99.4347 20.1923 98.4062 21.2578C97.8067 21.8791 97.4387 22.6554 97.5536 23.4208C97.6685 24.1864 98.3235 24.9221 99.2799 25.1773C97.4703 25.279 96.264 26.9318 96.8067 28.248C97.3494 29.5642 99.2225 30.3923 101.037 30.3955C102.852 30.3988 104.569 29.7099 105.925 28.794C107.044 29.6996 108.824 30.2357 110.355 29.8015C111.886 29.3671 112.75 27.7517 111.731 26.7808C112.922 27.5121 115.015 26.9994 115.42 25.8773C115.826 24.7554 114.37 23.5023 112.855 23.6692Z" fill="#500953"/>
</g>
<g opacity="0.7">
<path d="M200.782 16.8567C200.782 17.4509 200.148 17.9326 199.367 17.9326C198.585 17.9326 197.951 17.4509 197.951 16.8567C197.951 16.2624 198.585 15.7808 199.367 15.7808C200.148 15.7808 200.782 16.2624 200.782 16.8567Z" fill="#500953"/>
</g>
</svg>
