<svg width="1336" height="768" viewBox="0 0 1336 768" fill="none" xmlns="http://www.w3.org/2000/svg">
<path d="M683.564 445.161C682.396 444.852 681.334 444.09 680.162 443.687C678.455 443.124 676.681 442.851 674.9 442.876C673.272 442.852 671.631 442.719 670.048 443.211H669.977C669.398 442.955 668.801 442.75 668.193 442.596C666.41 442.174 664.76 442.42 662.976 442.65C662.369 442.737 661.759 442.789 661.148 442.808C660.902 442.808 660.653 442.808 660.407 442.778C660.363 442.778 660.011 442.744 659.908 442.724C658.938 442.498 657.959 442.326 656.974 442.208C656.764 442.208 656.528 442.174 656.327 442.164C656.006 441.874 654.281 441.294 654.098 441.226C653.159 440.863 652.189 440.603 651.204 440.449C649.456 440.174 647.779 440.547 646.129 440.764L645.723 440.798L645.514 440.764L645.095 440.636C644.716 440.503 644.346 440.346 643.962 440.218C642.031 439.575 639.949 439.319 637.978 439.963C637.331 440.174 636.712 440.454 636.096 440.724C635.829 440.447 635.539 440.197 635.231 439.978C633.566 438.896 631.626 438.442 629.706 438.685C628.159 438.857 626.728 439.668 625.278 440.262C623.994 440.783 622.545 441.353 621.47 442.326C621.41 442.388 621.354 442.454 621.301 442.523C621.102 442.405 620.896 442.292 620.685 442.184C617.667 440.67 613.756 440.14 610.626 441.53C610.05 441.799 609.512 442.155 609.025 442.587C608.696 442.81 608.377 443.051 608.07 443.309C607.584 443.147 607 443.063 606.572 442.955C605.258 442.661 603.971 442.24 602.724 441.697C601.419 441.098 600.078 440.597 598.711 440.199C597.159 439.771 595.566 439.546 593.966 439.53C592.549 439.419 591.126 439.64 589.792 440.179C588.642 440.724 587.746 441.761 586.635 442.39C586.408 442.527 586.171 442.644 585.926 442.739L585.596 442.822C585.486 442.826 585.375 442.839 585.266 442.862C584.923 442.862 584.575 442.862 584.236 442.862C582.649 442.862 581.057 442.862 579.469 442.862C577.922 442.956 576.37 442.882 574.836 442.641C573.003 442.176 571.101 442.138 569.254 442.528C568.745 442.65 568.232 442.768 567.728 442.906C567.368 442.781 567 442.688 566.627 442.626C564.643 442.194 562.601 442.194 560.616 442.626C560.014 442.788 559.398 442.886 558.779 442.921C558.333 442.921 557.704 442.729 557.156 442.641C555.437 442.37 553.702 442.243 551.965 442.262C550.409 442.262 548.844 442.164 547.288 442.523C546.971 442.596 546.659 442.68 546.338 442.744C545.431 442.427 544.484 442.271 543.533 442.282C542.939 442.322 542.343 442.314 541.749 442.257C541.023 442.149 540.287 441.982 539.556 441.869C538.771 441.74 537.977 441.684 537.183 441.702C536.481 441.783 535.775 441.808 535.07 441.776C533.665 441.589 532.359 441.142 530.918 441.172C530.301 441.145 529.684 441.218 529.085 441.388C528.882 441.445 528.695 441.555 528.537 441.707C528.399 441.859 528.35 441.933 528.363 441.967C528.073 441.967 527.779 442.031 527.712 442.267C527.645 442.503 528.087 442.813 528.408 442.95C527.547 443.024 526.678 442.95 525.812 443.083C524.462 443.311 523.098 443.425 521.732 443.422C520.551 443.422 519.391 442.931 518.21 442.818C516.632 442.703 515.049 442.682 513.47 442.754C512.604 442.754 511.739 442.754 510.879 442.847L510.477 442.886C509.14 442.105 507.454 442.046 505.969 442.135C503.468 442.287 500.409 441.707 497.68 442.061C496.422 442.223 495.196 442.842 493.934 442.906C493.707 442.906 493.488 442.906 493.256 442.876C492.382 442.543 491.455 442.406 490.532 442.474C490.046 442.547 489.57 442.691 489.118 442.901C489.009 442.943 488.895 442.969 488.779 442.98L488.164 442.827C486.304 442.385 484.623 442.542 482.746 442.616C482.3 442.616 482.238 442.857 482.541 443.215C482.99 443.634 483.554 443.873 484.142 443.894C485.203 443.894 486.536 443.515 487.535 443.859C488.73 444.272 489.823 444.753 491.102 444.763C491.702 444.756 492.299 444.685 492.886 444.552C494.023 444.843 495.189 444.965 496.355 444.916C497.382 444.845 498.399 444.651 499.388 444.336C500.409 444.065 501.459 443.951 502.509 443.997C503.784 444.041 505.055 444.203 506.33 444.287C506.883 444.321 507.436 444.351 507.994 444.341C508.776 444.709 509.602 444.95 510.446 445.058C511.707 445.169 512.973 445.158 514.232 445.024C515.289 444.965 516.355 444.984 517.416 444.965C517.973 444.965 518.544 444.925 519.101 444.965C519.701 445.047 520.297 445.165 520.885 445.318C523.488 445.82 526.152 445.795 528.747 445.245C529.777 445.024 530.842 445.161 531.868 444.994C532.813 444.837 533.687 444.311 534.642 444.267C536.9 444.157 539.162 444.347 541.379 444.832C543.952 445.392 546.503 445.923 549.116 446.237C551.729 446.552 554.347 446.675 556.969 446.729C559.471 446.846 561.978 446.813 564.478 446.63C569.222 446.183 573.913 445.928 578.649 446.66C581.287 447.113 583.976 447.067 586.6 446.522L587.902 446.247C588.067 446.306 588.232 446.38 588.294 446.399C589.782 446.907 591.352 447.051 592.896 446.822C593.572 446.662 594.212 446.352 594.778 445.913C595.874 446.506 597.071 446.841 598.292 446.896C599.183 446.945 600.57 446.763 601.221 446.827C602.559 446.945 603.825 447.421 605.172 447.49C606.431 447.626 607.701 447.458 608.895 446.999C609.302 446.808 609.698 446.592 610.081 446.35C610.483 446.564 610.899 446.743 611.326 446.886C612.579 447.308 614.108 447.245 615.192 447.377C616.712 447.588 618.112 448.109 619.678 448.041C620.892 447.978 622.092 447.73 623.245 447.303C624.404 446.901 625.595 446.552 626.741 446.095C627.374 445.839 627.945 445.466 628.56 445.166C628.743 445.078 628.926 444.984 629.113 444.916C629.18 444.894 629.249 444.882 629.318 444.881L629.39 444.916C629.684 445.063 629.969 445.24 630.281 445.407C630.755 445.683 631.247 445.918 631.753 446.11C632.97 446.547 634.607 446.851 635.842 446.336C636.068 446.253 636.269 446.105 636.426 445.908C637.033 445.989 637.647 445.989 638.254 445.908C639.964 445.604 641.613 444.976 643.128 444.051C643.338 443.928 643.646 443.83 643.882 443.687C644.67 444.004 645.482 444.246 646.308 444.409C648.15 444.819 650.051 444.767 651.873 444.257C652.167 444.164 652.457 444.041 652.765 443.933C652.872 443.898 652.983 443.849 653.103 443.82C653.143 443.823 653.182 443.831 653.219 443.844C653.964 444.14 654.747 444.306 655.538 444.336C655.71 444.328 655.88 444.3 656.046 444.252C656.323 444.287 656.599 444.321 656.876 444.336C657.171 444.381 657.469 444.402 657.768 444.4L657.915 444.434C658.414 444.552 658.923 444.655 659.44 444.744C661.094 445.016 662.772 445.071 664.439 444.906C665.948 445.19 667.483 445.269 669.009 445.142C669.933 445.398 670.885 445.507 671.836 445.466C672.557 445.371 673.269 445.215 673.968 444.999C674.41 444.92 674.858 444.894 675.305 444.92C675.516 444.976 675.729 445.018 675.943 445.048C676.933 445.196 677.932 445.279 678.913 445.481H678.975C680.38 446.033 681.837 446.405 683.319 446.591C683.635 446.625 684.826 446.67 684.897 446.1C684.968 445.53 683.898 445.245 683.564 445.161Z" fill="#FEC6FF"/>
<path d="M356.208 444.066C355.035 443.756 353.978 442.994 352.805 442.592C351.098 442.028 349.322 441.755 347.539 441.781C345.912 441.756 344.271 441.624 342.688 442.115H342.616C342.045 441.86 341.456 441.655 340.855 441.501C339.071 441.078 337.421 441.324 335.638 441.555C335.031 441.641 334.421 441.694 333.81 441.712C333.564 441.712 333.315 441.712 333.069 441.712C333.025 441.712 332.677 441.673 332.57 441.648C331.584 441.471 330.644 441.216 329.64 441.157C329.426 441.157 329.194 441.122 328.989 441.113C328.673 440.818 326.947 440.243 326.76 440.174C325.821 439.811 324.851 439.551 323.866 439.398C322.118 439.123 320.441 439.491 318.791 439.712L318.39 439.747L318.18 439.712L317.761 439.584C317.378 439.452 317.007 439.295 316.624 439.167C314.693 438.523 312.611 438.268 310.64 438.911C309.993 439.123 309.378 439.403 308.758 439.668C308.49 439.394 308.2 439.145 307.893 438.926C306.235 437.841 304.303 437.377 302.386 437.604C300.834 437.776 299.403 438.587 297.958 439.182C296.669 439.707 295.224 440.272 294.15 441.245C294.089 441.306 294.032 441.371 293.98 441.442C293.775 441.324 293.575 441.211 293.365 441.103C290.342 439.594 286.435 439.054 283.301 440.449C282.727 440.721 282.188 441.077 281.7 441.506C281.472 441.692 281 441.997 280.746 442.228C280.26 442.061 279.675 441.982 279.252 441.874C277.937 441.578 276.648 441.158 275.399 440.616C274.094 440.015 272.753 439.512 271.386 439.113C269.835 438.688 268.244 438.466 266.646 438.449C265.229 438.338 263.806 438.559 262.472 439.098C261.317 439.643 260.421 440.68 259.315 441.309C259.086 441.447 258.848 441.564 258.601 441.658C258.492 441.679 258.383 441.707 258.276 441.741C258.165 441.745 258.054 441.76 257.946 441.786C257.603 441.786 257.255 441.786 256.911 441.786C255.324 441.786 253.732 441.786 252.145 441.786C250.597 441.875 249.046 441.8 247.512 441.56C245.679 441.095 243.78 441.057 241.933 441.447C241.425 441.57 240.908 441.687 240.404 441.825C240.044 441.699 239.676 441.606 239.302 441.545C237.318 441.112 235.276 441.112 233.291 441.545C232.689 441.707 232.074 441.804 231.454 441.835C230.911 441.774 230.37 441.682 229.835 441.56C228.117 441.289 226.381 441.162 224.645 441.181C223.084 441.181 221.501 441.088 219.967 441.442C219.651 441.515 219.339 441.599 219.018 441.658C218.108 441.347 217.16 441.193 216.208 441.201C215.607 441.248 215.004 441.248 214.402 441.201C213.676 441.088 212.944 440.921 212.208 440.808C211.423 440.68 210.63 440.622 209.836 440.636C209.134 440.721 208.428 440.747 207.723 440.715C206.318 440.528 205.011 440.081 203.571 440.11C202.954 440.085 202.336 440.16 201.738 440.331C201.537 440.386 201.35 440.494 201.194 440.646C201.056 440.798 201.007 440.867 201.016 440.906C200.726 440.906 200.432 440.965 200.369 441.206C200.307 441.447 200.74 441.751 201.061 441.889C200.204 441.963 199.335 441.889 198.465 442.022C197.117 442.25 195.754 442.363 194.39 442.361C193.204 442.361 192.049 441.869 190.867 441.756C189.289 441.642 187.707 441.62 186.127 441.692C185.235 441.692 184.397 441.692 183.532 441.786L183.135 441.825C181.797 441.044 180.107 440.985 178.622 441.073C176.125 441.226 173.062 440.646 170.337 441C169.08 441.162 167.849 441.781 166.591 441.84C166.364 441.84 166.145 441.84 165.914 441.815C165.037 441.481 164.11 441.344 163.185 441.412C162.699 441.487 162.224 441.631 161.771 441.84C161.662 441.883 161.548 441.909 161.432 441.918L160.817 441.766C158.957 441.324 157.281 441.481 155.403 441.555C154.931 441.555 154.891 441.796 155.194 442.154C155.642 442.574 156.206 442.815 156.795 442.837C157.856 442.837 159.189 442.454 160.188 442.798C161.388 443.211 162.48 443.697 163.755 443.702C164.355 443.695 164.952 443.624 165.539 443.491C166.676 443.781 167.842 443.903 169.008 443.854C170.035 443.784 171.052 443.59 172.04 443.274C173.061 443.001 174.112 442.888 175.162 442.94C176.433 442.98 177.708 443.142 178.979 443.225C179.532 443.26 180.089 443.294 180.642 443.284C181.426 443.648 182.254 443.888 183.099 443.997C184.358 444.108 185.623 444.097 186.88 443.962C187.937 443.903 189.007 443.918 190.069 443.908C190.626 443.908 191.192 443.864 191.75 443.908C192.35 443.988 192.946 444.107 193.534 444.262C196.136 444.763 198.8 444.738 201.395 444.188C202.425 443.967 203.486 444.105 204.516 443.933C205.466 443.781 206.336 443.255 207.294 443.216C209.552 443.103 211.815 443.289 214.032 443.771C216.601 444.336 219.156 444.866 221.764 445.181C224.373 445.495 226.999 445.618 229.621 445.672C232.123 445.789 234.628 445.757 237.126 445.574C241.875 445.127 246.562 444.876 251.302 445.603C253.938 446.056 256.625 446.011 259.248 445.471C259.377 445.436 260.26 445.255 260.555 445.191L260.943 445.343C262.432 445.848 264.004 445.992 265.549 445.766C266.224 445.605 266.862 445.296 267.426 444.857C268.522 445.451 269.719 445.785 270.94 445.839C271.832 445.888 273.219 445.707 273.87 445.766C275.207 445.893 276.474 446.365 277.82 446.434C279.082 446.562 280.354 446.386 281.548 445.918C281.954 445.726 282.35 445.509 282.734 445.269C283.134 445.484 283.549 445.663 283.974 445.805C285.232 446.223 286.761 446.164 287.84 446.296C289.365 446.508 290.765 447.028 292.33 446.96C293.545 446.896 294.745 446.648 295.898 446.223C297.057 445.82 298.248 445.471 299.389 445.014C300.023 444.758 300.598 444.39 301.209 444.085C301.391 443.997 301.574 443.903 301.762 443.835C301.828 443.813 301.897 443.802 301.967 443.8L302.038 443.835C302.337 443.982 302.622 444.159 302.93 444.326C303.405 444.601 303.898 444.836 304.406 445.029C305.619 445.466 307.26 445.766 308.49 445.255C308.717 445.174 308.919 445.026 309.075 444.827C309.683 444.908 310.299 444.908 310.907 444.827C312.616 444.523 314.263 443.895 315.777 442.97C315.986 442.852 316.298 442.749 316.53 442.611C317.318 442.924 318.128 443.163 318.952 443.329C320.795 443.738 322.698 443.686 324.521 443.176C324.82 443.083 325.11 442.96 325.413 442.857C325.524 442.81 325.637 442.771 325.752 442.739C325.791 442.741 325.83 442.75 325.868 442.763C326.614 443.062 327.398 443.228 328.191 443.255C328.359 443.247 328.527 443.22 328.69 443.176C328.971 443.206 329.248 443.235 329.524 443.255C329.82 443.3 330.118 443.321 330.416 443.319L330.568 443.353C331.067 443.471 331.575 443.569 332.088 443.663C333.743 443.936 335.421 443.989 337.087 443.82C338.598 444.104 340.134 444.184 341.662 444.056C342.582 444.313 343.532 444.422 344.48 444.38C345.204 444.287 345.919 444.131 346.621 443.913C347.063 443.833 347.511 443.807 347.958 443.835C348.169 443.889 348.382 443.932 348.596 443.962C349.586 444.11 350.585 444.193 351.57 444.395H351.628C353.033 444.944 354.49 445.313 355.971 445.495C356.288 445.535 357.474 445.579 357.55 445.004C357.626 444.429 356.52 444.149 356.208 444.066Z" fill="#FEC6FF"/>
<path d="M473.065 441.982C472.609 441.648 472.07 441.477 471.522 441.491C470.3 441.422 469.079 441.353 467.861 441.245C467.313 441.167 466.76 441.132 466.207 441.142H466.171L465.663 440.98C463.295 440.233 460.954 440.41 458.528 440.405C456.392 440.405 454.207 440.223 452.085 440.405C451.583 440.387 451.087 440.52 450.649 440.788C450.292 441.093 450.497 441.117 450.065 441.152C448.928 441.24 447.755 441.152 446.613 441.152C445.182 441.152 443.728 441.24 442.279 441.27L442.145 441.235C441.797 441.142 441.441 441.063 441.084 440.985C440.143 440.787 439.191 440.656 438.235 440.592C437.343 440.528 436.451 440.508 435.559 440.523C435.162 440.39 434.765 440.248 434.373 440.071C432.464 439.201 430.596 438.317 428.527 438.042C427.189 437.86 425.798 437.767 424.442 437.693C423.443 437.611 422.438 437.677 421.455 437.889C420.911 437.392 420.332 436.941 419.725 436.543C418.104 435.468 416.345 434.671 414.507 434.18C412.724 433.747 409.5 433.32 408.207 435.162C407.863 435.784 407.577 436.442 407.355 437.128C407.219 437.349 407.07 437.561 406.909 437.762L406.463 437.649C405.808 437.506 405.125 437.403 404.483 437.324C403.284 437.203 402.08 437.151 400.876 437.167H400.43H400.394C399.975 437.054 399.551 436.946 399.128 436.853C397.571 436.463 395.958 436.426 394.388 436.745C392.604 437.143 390.584 437.997 388.787 437.875C388.248 437.84 387.137 437.506 386.357 437.383L386.174 437.354C385.844 437.192 385.501 437.067 385.148 436.98C384.265 436.719 383.356 436.579 382.442 436.563C381.172 436.55 379.916 436.847 378.763 437.432C378.317 437.673 377.92 438.017 377.474 438.258C377.093 438.422 376.68 438.474 376.275 438.41C373.858 438.317 371.37 438.312 368.953 438.464L367.896 438.558L367.74 438.494C366.49 438.027 365.174 437.816 363.856 437.87C361.671 437.87 359.758 436.69 357.72 438.106C357.123 438.523 358.469 439.28 358.652 439.368C359.455 439.807 360.357 439.978 361.247 439.86C362.019 439.664 362.812 439.594 363.602 439.653C363.762 439.683 363.918 439.722 364.079 439.747C364.926 439.978 365.715 440.454 366.603 440.562C367.49 440.67 368.217 440.489 369.038 440.641C369.858 440.793 370.638 440.965 371.45 441.049C372.261 441.132 373.002 441.049 373.751 441.186C374.603 441.353 375.419 441.678 376.284 441.805C378.067 442.056 379.913 441.884 381.715 442.026C382.644 442.119 383.567 442.283 384.475 442.518C385.454 442.721 386.449 442.816 387.445 442.803C389.202 442.837 390.776 443.584 392.51 443.864C394.365 444.164 396.078 443.717 397.888 443.432C399.529 443.171 401.286 443.329 402.945 443.329C404.707 443.321 406.467 443.178 408.211 442.901C409.589 442.69 410.771 442.483 411.988 441.692C412.365 441.409 412.765 441.164 413.183 440.96C413.183 440.96 413.437 440.896 413.54 440.862C413.192 440.975 411.043 441.476 413.049 440.798C413.344 440.7 413.968 440.955 414.289 441.004C415.092 441.127 415.908 441.226 416.706 441.422C416.706 441.422 417.29 441.609 417.37 441.638L418.298 441.972C420.257 442.702 422.291 443.163 424.353 443.343C426.101 443.481 427.831 443.81 429.579 443.903C431.376 443.991 433.176 443.814 434.93 443.378C436.231 443.095 437.555 442.958 438.881 442.97C439.501 442.97 440.281 443.014 440.973 443.073C440.906 443.073 441.904 443.181 441.784 443.161C442.083 443.201 442.382 443.24 442.676 443.304C442.645 443.304 442.676 443.304 442.845 443.358C443.1 443.427 443.358 443.481 443.617 443.54C444.17 443.668 444.727 443.786 445.285 443.884C446.186 444.048 447.096 444.152 448.009 444.193C449.807 444.23 451.602 444.039 453.36 443.623C454.137 443.451 454.903 443.221 455.652 442.935C456.186 442.703 456.736 442.521 457.297 442.39H459.277C460.521 442.39 461.766 442.39 463.005 442.361C463.407 442.361 463.83 442.361 464.231 442.361C464.071 442.361 464.165 442.282 464.383 442.361C464.762 442.488 465.146 442.611 465.534 442.705C467.883 443.27 470.439 442.705 472.811 442.567C473.266 442.518 473.359 442.277 473.065 441.982Z" fill="#FEC6FF"/>
<path d="M242.616 433.772C240.297 433.472 238.232 432.263 235.878 432.067C233.345 431.86 230.772 432.027 228.23 432.018C223.655 432.018 218.327 431.109 213.917 432.73C213.19 432.995 213.163 433.541 213.917 433.836C217.742 435.31 222.389 434.592 226.353 434.558C231.477 434.519 236.533 434.607 241.652 434.71C242.263 434.725 244.208 433.973 242.616 433.772Z" fill="#FEC6FF"/>
<path d="M1178.83 427.694C1180.13 425.817 1181.35 424.358 1178.97 422.117C1176.81 420.078 1173.07 419.66 1170.35 419.002C1167.15 418.273 1163.86 418.215 1160.64 418.83C1160.21 418.071 1159.71 417.362 1159.15 416.712C1155.95 413.047 1150.61 410.575 1146.09 409.932C1134.94 408.35 1122.74 409.475 1113.72 417.218C1112.68 416.943 1111.67 417.081 1110.59 416.919C1108.2 416.545 1106.03 414.953 1103.69 414.251C1101.11 413.526 1098.43 413.338 1095.78 413.695C1094.42 413.872 1093.18 414.403 1091.85 414.678C1090.35 415.337 1090.62 415.047 1092.62 413.804C1092.4 413.188 1092.15 412.587 1091.87 412.005C1090.23 409.774 1087.09 410.153 1084.09 411.307C1084.04 411.234 1083.98 411.16 1083.94 411.091C1080.79 406.513 1077.1 402.414 1072.97 398.901C1070.52 396.852 1068.51 394.7 1065.56 393.565C1062.38 392.326 1059.01 391.812 1055.65 392.057C1051.56 392.386 1047.8 393.983 1044.19 396.046C1043.4 396.503 1042.61 396.98 1041.85 397.52C1038.51 393.142 1034.64 389.167 1029.49 387.728C1025.42 386.583 1020.84 387.531 1016.87 388.745C1015.69 389.113 1014.49 389.531 1013.3 390.022C1012.92 389.428 1012.58 388.917 1012.46 388.765C1011.24 387.291 1010.27 385.738 1009.14 384.19C1006.5 380.535 1001.73 378.068 997.639 377.159C992.899 376.112 987.718 375.194 982.902 376.019C980.46 376.487 978.063 377.203 975.74 378.156C975.424 377.39 975.12 376.594 974.978 376.338C974.189 374.969 973.204 373.749 972.061 372.727C970.612 371.297 969.123 369.725 967.419 368.649C965.435 367.391 963.116 367.047 961.025 366.084C957.672 364.536 957.114 360.021 956.093 356.39C954.8 351.796 954.845 347.29 952.878 342.838C949.141 334.382 942.876 327.464 936.669 321.175C930.53 315.039 923.659 309.855 916.246 305.766C918.585 303.216 920.703 300.431 922.574 297.448C924.835 293.915 927.229 290.358 927.809 285.98C928.469 281.027 927.532 275.352 926.73 270.463C925.2 261.255 919.274 251.144 913.267 244.633C912.546 243.859 911.771 243.147 910.949 242.506C911.908 237.775 911.506 232.832 909.798 228.365C906.512 219.693 899.306 217.088 891.779 214.396C886.753 212.598 881.402 210.956 876.172 210.249C873.813 209.93 871.485 210.092 869.126 209.664C866.817 209.242 864.48 209.025 862.139 209.016C857.234 208.976 852.592 210.126 847.731 210.534C842.26 210.996 837.123 212.681 832.08 215.03C823.121 219.103 815.042 225.213 808.37 232.959C804.897 237.032 802.431 241.892 799.617 246.495C799.097 247.361 798.649 248.277 798.279 249.232C785.999 248.397 775.729 258.922 765.83 265.353C761.206 268.36 756.577 271.579 753.527 276.512C746.785 275.446 740.596 275.49 734.157 278.335C727.388 281.317 713.172 289.793 717.988 300.042C721.867 308.312 731.517 311.481 739.927 312.989C740.373 314.281 740.91 315.533 741.532 316.733C737.641 317.893 733.812 319.293 730.063 320.924C722.786 324.045 715.888 327.661 710.474 334.078C705.061 340.495 703.152 348.7 702.724 357.142L702.341 357.309C698.002 359.338 693.298 359.721 689.093 362.34C687.582 363.285 686.128 364.337 684.74 365.49C682.451 364.578 680.073 363.961 677.655 363.652C671.796 362.91 666.128 361.952 660.215 362.851C651.841 364.114 639.212 365.932 633.942 374.181C631.672 377.739 630.736 383.758 631.427 389.285C628.305 390.268 625.148 391.329 622.129 392.592C617.67 394.454 613.082 396.975 609.425 400.542C605.216 400.375 600.712 401.269 596.895 402.1C593.747 402.788 589.997 403.652 586.666 405.205C580.365 403.79 573.993 404.257 567.643 403.308C564.069 402.825 560.449 402.965 556.914 403.721C554.93 400.906 551.804 398.881 548.959 397.619C543.298 395.155 537.331 393.649 531.261 393.152C530.289 393.064 529.326 392.926 528.371 392.789C528.245 392.392 528.096 392.005 527.925 391.629C526.878 389.33 525.009 387.394 523.689 385.286C522.227 382.967 520.867 381.139 518.378 380.171C516.149 379.306 513.826 378.107 511.458 377.754C508.439 377.301 505.335 377.817 502.303 377.881C499.543 377.94 497.331 377.326 494.691 376.717C491.539 375.994 488.359 376.962 485.291 377.699C479.856 379.006 474.478 380.815 470.046 384.677C464.441 389.561 462.813 396.243 463.571 403.087L463.455 403.205C461.712 405.004 458.818 407.003 457.819 409.475C457.426 410.487 457.305 411.602 457.471 412.688C454.724 410.806 452.044 408.964 448.713 408.33C445.757 407.821 442.747 407.834 439.795 408.369C436.504 408.9 433.271 408.748 429.985 409.146C426.514 409.504 423.063 410.07 419.648 410.841C419.568 406.595 417.655 402.709 413.223 401.348C410.413 400.483 408.246 399.623 405.254 399.977C403.617 400.187 401.997 400.534 400.407 401.014C400.238 401.068 400.091 401.107 399.961 401.151C399.961 401.053 399.72 400.96 398.797 400.94C392.769 400.788 386.151 403.584 380.243 404.871C377.398 405.475 374.508 405.362 371.659 405.981L370.968 406.143L370.598 406.05C369.073 405.696 367.476 405.77 365.92 405.485C359.485 404.311 353.657 403.947 347.254 405.868C344.538 406.684 341.6 407.48 339.071 408.895C336.543 410.31 336.048 411.745 334.612 414.192C334.322 414.565 334.398 414.747 334.84 414.742C334.365 414.892 333.897 415.069 333.44 415.273H333.319C332.693 415.271 332.067 415.319 331.446 415.415C328.646 415.582 325.471 416.585 325.172 418.27C325.141 418.461 325.105 418.653 325.074 418.84C323.425 418.763 321.784 418.536 320.169 418.162C318.831 417.862 318.056 417.808 316.892 417.076C315.728 416.344 314.876 415.558 313.552 415.15C310.359 414.167 306.653 414.816 303.514 415.695C301.632 416.226 297.757 416.835 294.912 418.344C293.102 417.955 291.243 417.808 289.419 417.508C285.179 416.747 280.903 416.255 276.612 416.034C267.248 415.676 257.563 416.526 248.247 417.665C245.955 417.946 245.973 419.277 248.247 419.562C261.812 421.252 275.203 420.604 288.603 424.048C292.192 424.967 296.469 424.451 299.911 423.065C300.495 422.834 303.287 421.68 303.924 420.83L304.228 420.761L304.553 421.002C305.249 421.94 306.662 422.599 307.675 422.938C310.009 423.691 312.395 424.233 314.809 424.559C321.988 425.542 329.663 424.028 336.525 421.773C336.708 421.709 338.469 421.213 339.843 420.717C339.798 420.918 340.057 421.1 340.654 421.257C341.32 421.578 342.017 421.813 342.732 421.955C345.47 422.638 348.311 422.584 351.071 423.11C356.079 424.092 361.024 424.638 366.045 423.424C368.951 422.751 371.738 421.557 374.294 419.891C374.522 419.739 374.74 419.572 374.968 419.4C375.479 419.543 375.997 419.655 376.519 419.734C379.042 420.077 381.59 420.128 384.122 419.886C386.286 419.747 388.424 419.302 390.485 418.565C390.686 418.776 390.931 419.056 391.239 419.38C392.131 420.363 393.05 421.321 394.004 422.21C390.191 423.311 386.388 424.864 382.606 426.102C379.891 426.991 377.277 426.657 374.441 426.706C367.057 426.834 359.642 426.908 352.262 427.198C349.087 427.335 345.907 427.429 342.737 427.635C341.555 427.634 340.376 427.768 339.219 428.033C338.621 428.215 337.515 429.222 337.069 429.261C336.03 429.36 333.685 430.534 336.039 430.829C337.337 430.987 338.648 430.936 339.932 430.676C341.324 430.461 342.735 430.438 344.133 430.608C349.408 430.991 354.714 430.956 359.998 431.025C365.456 431.099 370.914 431.428 376.372 431.517C381.549 431.605 385.991 430.151 390.922 428.696C393.13 428.043 395.502 427.605 397.589 426.534L398.035 426.333C398.762 426.554 399.591 426.559 400.309 426.824C402.356 427.551 403.93 428.421 406.155 428.421C408.786 428.421 411.105 427.586 413.535 426.642C417.414 425.134 421.093 425.507 425.129 424.947C427.01 424.682 428.834 424.038 430.707 423.807C432.665 423.65 434.629 423.635 436.589 423.763H436.678C437.014 423.91 437.374 423.978 437.735 423.965C438.042 424.014 438.341 424.063 438.627 424.097C440.919 424.358 443.211 424.308 445.511 424.402C450.965 424.618 456.213 426.785 461.658 426.505C464.811 426.338 467.517 425.159 470.625 424.49C473.323 423.942 476.061 423.672 478.803 423.684C479.611 423.684 480.427 423.64 481.252 423.601C483.264 423.862 485.298 423.831 487.303 423.508L487.673 423.532C488.765 423.63 491.606 424.603 493.166 424.928C497.809 425.925 502.589 425.861 507.208 424.741C507.837 424.589 509.719 424.294 511.181 423.832C513.447 425.095 516.278 425.596 518.708 425.95C523.078 427.198 527.662 428.053 532.086 427.817C536.697 427.576 541.004 425.679 545.463 424.869C548.771 425.477 552.131 425.671 555.479 425.448C559.706 425.114 563.581 424.466 567.83 424.505C571.919 424.554 574.443 424.014 577.4 424.2C580.575 424.392 582.492 425.183 585.939 425.886C589.538 426.618 593.243 426.534 596.891 426.47C600.071 426.412 603.243 426.858 606.308 427.797C607.838 428.224 609.818 428.333 611.16 428.971C611.325 429.05 611.526 429.109 611.722 429.183H611.276C608.551 429.183 603.468 429.443 601.715 432.445C600.44 434.632 601.925 437.123 603.392 438.651C605.858 441.216 609.109 441.82 612.409 441.81C614.383 441.818 616.352 441.566 618.272 441.058C619.079 440.842 619.878 440.567 620.671 440.282C621.064 440.141 621.463 440.023 621.866 439.928C625.683 440.041 629.447 440.474 633.246 439.688C636.813 438.955 639.801 436.853 643.306 435.904C644.503 435.599 645.673 435.177 646.802 434.641C647.248 435.036 647.722 435.389 648.22 435.698C651.283 437.536 655.163 437.816 658.574 437.565C661.736 437.334 664.946 436.435 668.054 435.727C669.753 435.339 671.577 434.818 673.071 433.801C673.481 433.547 673.859 433.235 674.195 432.873C674.279 432.769 674.351 432.676 674.417 432.588C675.956 432.722 677.486 432.951 679.002 433.276C680.339 433.767 681.441 434.75 682.827 435.197C684.388 435.718 685.949 435.6 687.492 435.786C686.957 435.786 690.216 436.577 690.693 436.656C692.973 436.985 695.271 437.123 697.569 437.069C701.355 437.069 705.386 436.459 709.136 436.936C712.53 437.368 715.379 437.992 718.862 437.585C722.49 437.152 726.086 436.435 729.622 435.437C731.062 435.039 732.694 434.705 734.041 433.963H734.594C738.415 434.111 742.304 434.229 746.031 433.113C747.175 432.807 748.283 432.36 749.336 431.782L750.054 431.747C751.476 431.708 753.304 431.158 754.856 431.045C754.317 431.305 757.086 432.519 757.857 432.858C763.248 435.315 768.185 439.329 773.785 441.211C781.071 443.638 789.071 441.702 796.295 439.806C798.792 439.162 801.401 438.543 803.795 437.472C804.094 437.742 804.371 438.007 804.611 438.243C806.939 440.533 808.714 442.704 811.746 443.943C814.778 445.181 818.136 445.456 821.284 446.444C824.639 447.534 828.114 448.111 831.612 448.158C839.098 448.242 846.92 446.277 852.592 440.611C853.653 439.555 854.879 438.155 855.392 436.681C857.675 436.794 859.981 436.71 862.273 436.715C865.384 436.8 868.496 436.591 871.574 436.091C873.862 435.668 876.034 434.809 878.219 434.042C879.637 435.31 881.304 438.184 882.232 439.167C884.136 441.216 885.924 442.532 888.644 442.749C892.104 443.019 895.814 441.854 898.949 440.336C899.261 440.189 899.565 440.027 899.872 439.845C901.473 440.975 903.047 442.257 904.965 442.695C908.278 443.456 911.765 442.621 914.886 441.363C918.008 440.105 920.589 438.577 922.605 436.45C924.803 437.133 926.863 438.351 929.133 438.862C931.976 439.556 934.867 439.982 937.775 440.135C940.343 440.213 942.435 439.909 944.91 440.695C950.328 442.419 956.503 441 962.002 440.258C965.194 439.83 966.635 439.432 969.796 440.464C971.99 441.176 973.68 442.994 975.852 443.496C978.817 444.188 982.094 442.926 984.739 441.574C985.185 441.339 985.631 441.083 986.076 440.808C986.861 441.088 987.655 441.339 988.458 441.545C994.669 443.191 1001.13 442.218 1007.44 442.429C1010.21 442.518 1012.87 443.51 1015.63 443.083C1018.73 442.591 1021.7 441.073 1024.63 439.928C1027.3 438.872 1030.08 438.047 1032.63 436.563C1033.7 435.952 1034.73 435.25 1035.71 434.465C1036.05 434.465 1036.31 434.509 1036.41 434.528C1037.87 434.843 1039.22 435.423 1040.73 435.511C1042.13 435.58 1043.41 435.285 1044.79 435.56C1045.69 435.737 1046.45 436.189 1047.38 436.268C1050.36 436.514 1053.05 434.509 1055.98 434.44C1059.14 434.371 1062.18 436.405 1065.12 437.452C1070.88 439.506 1077.28 441.702 1083.32 440.184C1086.19 439.462 1089.05 437.049 1091.86 436.602C1093.4 436.356 1095.36 437.231 1096.92 437.432C1098.29 437.609 1099.65 437.624 1101.03 437.673C1104.33 437.791 1107.63 438.164 1110.93 437.722C1114.05 437.295 1115.95 436.577 1119.15 437.182C1122.26 437.708 1125.41 437.934 1128.56 437.86C1131.53 437.86 1134.33 436.877 1137.27 436.695C1140.39 436.494 1143.52 437.098 1146.64 436.803C1149.59 436.459 1152.46 435.52 1155.11 434.032C1155.77 433.774 1156.41 433.467 1157.04 433.113C1157.6 433.826 1158.73 433.978 1159.49 434.145C1163.13 434.951 1167.07 433.728 1170.64 432.927C1171 432.845 1171.36 432.742 1171.71 432.617C1173.41 432.966 1175.77 431.693 1177.12 430.716C1177.52 430.426 1180.26 428.19 1178.83 427.694Z" fill="#FFCCF5"/>
<path opacity="0.5" d="M1166.38 426.618C1159.53 424.761 1152.82 427.954 1145.96 428.092C1140.56 428.215 1133.6 424.5 1128.82 428.392C1127.72 428.574 1126.77 428.981 1126.71 429.866C1126.58 431.718 1130.92 432.136 1131.79 432.229C1133.96 432.46 1137.5 433.801 1140.26 434.111C1143.4 434.547 1146.58 434.302 1149.63 433.389C1151.1 432.971 1152.47 432.239 1153.93 431.772C1155.57 431.246 1157.3 431.31 1159 431.133C1161.74 430.799 1164.44 430.087 1167.03 429.016C1169.05 428.239 1168.01 427.055 1166.38 426.618Z" fill="white"/>
<path opacity="0.2" d="M1178.83 427.694C1180.13 425.817 1181.35 424.358 1178.97 422.117C1176.81 420.078 1173.07 419.66 1170.35 419.002C1167.15 418.273 1163.86 418.215 1160.64 418.83C1160.21 418.071 1159.71 417.362 1159.15 416.712C1155.95 413.047 1150.61 410.575 1146.09 409.932C1134.94 408.35 1122.74 409.475 1113.72 417.218C1112.68 416.943 1111.67 417.081 1110.59 416.919C1108.2 416.545 1106.03 414.953 1103.69 414.251C1101.11 413.526 1098.43 413.338 1095.78 413.695C1094.42 413.872 1093.18 414.403 1091.85 414.678C1090.35 415.337 1090.62 415.047 1092.62 413.804C1092.4 413.188 1092.15 412.587 1091.87 412.005C1090.23 409.775 1087.09 410.153 1084.09 411.307C1084.03 411.234 1083.98 411.16 1083.94 411.091C1080.79 406.513 1077.1 402.414 1072.97 398.901C1070.51 396.852 1068.51 394.7 1065.56 393.565C1062.38 392.326 1059.01 391.812 1055.65 392.057C1051.56 392.386 1047.8 393.983 1044.19 396.046C1043.4 396.503 1042.61 396.98 1041.85 397.52C1038.51 393.142 1034.64 389.167 1029.49 387.728C1025.42 386.583 1020.84 387.531 1016.87 388.745C1015.69 389.113 1014.49 389.531 1013.3 390.022C1012.92 389.428 1012.58 388.917 1012.46 388.765C1011.24 387.291 1010.27 385.738 1009.14 384.19C1006.5 380.535 1001.73 378.068 997.639 377.159C992.899 376.112 987.717 375.194 982.901 376.019C980.46 376.487 978.062 377.203 975.74 378.156C975.423 377.39 975.12 376.594 974.978 376.338C974.189 374.969 973.204 373.749 972.061 372.727C970.612 371.297 969.123 369.725 967.419 368.649C965.435 367.391 963.116 367.047 961.025 366.084C957.672 364.536 957.114 360.021 956.093 356.39C954.8 351.796 954.844 347.29 952.878 342.839C949.141 334.382 942.876 327.464 936.669 321.175C930.53 315.039 923.658 309.855 916.246 305.766C918.585 303.216 920.703 300.431 922.574 297.448C924.834 293.915 927.229 290.358 927.809 285.98C928.469 281.027 927.532 275.352 926.73 270.463C925.2 261.255 919.274 251.144 913.267 244.633C912.546 243.859 911.771 243.147 910.949 242.506C911.908 237.775 911.506 232.832 909.798 228.365C906.512 219.693 899.306 217.088 891.779 214.396C886.753 212.598 881.402 210.956 876.172 210.249C873.813 209.93 871.485 210.092 869.126 209.664C866.817 209.242 864.48 209.025 862.139 209.016C857.234 208.976 852.592 210.126 847.731 210.534C842.26 210.996 837.123 212.681 832.08 215.03C823.121 219.103 815.042 225.213 808.37 232.959C804.897 237.032 802.431 241.892 799.617 246.495C799.096 247.361 798.649 248.277 798.279 249.232C785.999 248.397 775.729 258.922 765.83 265.353C761.206 268.36 756.577 271.579 753.527 276.512C746.785 275.446 740.596 275.49 734.157 278.335C727.388 281.317 713.172 289.793 717.988 300.042C721.867 308.312 731.517 311.481 739.927 312.989C740.373 314.281 740.91 315.533 741.532 316.733C737.641 317.893 733.812 319.293 730.063 320.925C722.786 324.045 715.887 327.661 710.474 334.078C705.061 340.495 703.152 348.7 702.724 357.142L702.341 357.309C698.002 359.338 693.297 359.721 689.092 362.34C687.581 363.285 686.128 364.337 684.74 365.49C682.451 364.578 680.073 363.961 677.655 363.652C671.795 362.91 666.128 361.952 660.215 362.851C651.841 364.114 639.212 365.932 633.942 374.181C631.672 377.739 630.735 383.758 631.427 389.28C628.305 390.263 625.148 391.329 622.129 392.592C617.67 394.454 613.082 396.975 609.425 400.542C605.216 400.375 600.712 401.269 596.895 402.1C593.747 402.788 589.997 403.652 586.666 405.205C580.365 403.79 573.993 404.257 567.643 403.308C564.069 402.825 560.449 402.965 556.914 403.721C554.93 400.906 551.804 398.881 548.959 397.619C543.298 395.155 537.331 393.649 531.261 393.152C530.289 393.064 529.325 392.926 528.371 392.789C528.245 392.392 528.096 392.005 527.925 391.629C526.877 389.33 525.009 387.394 523.689 385.286C522.227 382.967 520.867 381.139 518.378 380.171C516.149 379.306 513.825 378.107 511.458 377.754C508.439 377.301 505.335 377.817 502.303 377.881C499.543 377.94 497.331 377.326 494.691 376.717C491.539 375.995 488.359 376.962 485.291 377.699C479.856 379.006 474.478 380.815 470.046 384.677C464.44 389.561 462.813 396.243 463.571 403.087L463.455 403.205C461.711 405.004 458.817 407.003 457.819 409.475C457.425 410.487 457.305 411.602 457.471 412.688C454.724 410.806 452.044 408.964 448.713 408.33C445.757 407.821 442.747 407.834 439.795 408.369C436.504 408.9 433.271 408.748 429.985 409.146C426.514 409.504 423.063 410.07 419.648 410.841C419.568 406.596 417.655 402.709 413.223 401.348C410.413 400.483 408.246 399.623 405.254 399.977C403.617 400.187 401.997 400.534 400.407 401.014C400.238 401.068 400.09 401.107 399.961 401.151C399.961 401.053 399.72 400.96 398.797 400.935C392.768 400.788 386.151 403.584 380.243 404.866C377.398 405.47 374.508 405.357 371.659 405.976L370.968 406.139L370.598 406.045C369.073 405.691 367.476 405.765 365.92 405.48C361.554 404.684 357.447 404.262 353.287 404.674C355.991 405.479 358.735 406.113 361.505 406.571C368.395 407.706 416.545 400.704 409.517 420.186C419.978 421.753 430.346 414.678 441.061 415.995C446.385 416.653 454.037 421.665 459.054 421.051C464.07 420.437 466.946 413.278 472.012 411.43C476.471 409.799 485.113 409.558 489.59 411.19C488.39 406.64 482.995 405.185 479.026 404.871C479.623 403.943 480.269 403.056 480.962 402.213C482.567 396.154 488.19 391.202 492.961 388.293C500.096 383.944 509.638 383.871 516.983 387.354C520.01 388.784 522.993 390.922 525.089 393.742C522.895 393.973 520.71 396.371 519.292 398.135C520.951 398.385 522.633 398.385 524.291 398.135C527.322 397.838 530.374 397.94 533.383 398.439C537.397 399.048 541.379 399.751 545.173 401.358C548.139 402.611 550.926 404.384 553.744 405.967C555.154 406.827 556.469 407.864 557.663 409.057C557.481 408.406 557.423 407.72 557.494 407.043C571.126 402.021 583.469 413.135 596.396 416.304C603.156 414.958 609.077 411.391 616.06 414.634C621.358 417.091 626.285 425.296 632.434 423.788C632.738 421.149 631.801 418.452 630.682 416.285C634.9 413.538 645.259 423.257 650.86 423.164C661.067 422.967 670.739 410.841 680.518 407.092C690.849 403.132 711.66 400.414 720.525 410.399C726.21 402.046 736.756 395.452 743.713 394.675C746.963 394.307 752.314 394.72 756.443 396.734C757.398 394.341 758.76 392.173 760.457 390.347C767.542 383.129 778.976 381.453 788.166 382.343C798.203 383.325 810.216 391.619 815.728 402.517C817.338 397.221 820.633 391.649 824.133 389.015C818.814 381.93 815.969 371.793 824.463 366.703C835.852 359.878 857.461 374.746 861.474 387.895C863.467 386.123 865.657 384.637 867.989 383.473C875.436 379.724 881.839 382.043 887.498 388.032C888.1 387.541 888.711 387.094 889.308 386.603C895.288 381.689 901.219 374.977 908.117 371.602C920.701 365.445 933.182 370.762 944.276 378.166C953.461 384.354 962.089 391.491 970.046 399.481C973.279 402.709 974.059 404.836 978.407 405.082C983.437 405.362 990.272 401.594 995.191 400.355C1001.88 398.665 1009.05 397.864 1015.94 399.299C1027.02 401.603 1029.9 408.536 1041.29 405.195C1049.97 402.66 1062.85 401.579 1069.01 410.433C1066.97 411.14 1064.55 411.529 1062.39 411.986C1066.6 415.022 1072.61 415.725 1077.45 417.39C1082.35 419.09 1087.44 421.709 1092.49 422.456C1111.01 425.208 1129.89 412.6 1147.46 418.771C1155.11 421.459 1162.83 422.048 1170.35 424.377C1173.06 425.213 1176.46 426.549 1179.13 428.544C1179.18 428.472 1179.22 428.385 1179.23 428.294C1179.24 428.202 1179.23 428.108 1179.2 428.022C1179.17 427.936 1179.12 427.86 1179.06 427.802C1178.99 427.745 1178.91 427.707 1178.83 427.694Z" fill="white"/>
<path opacity="0.1" d="M746.437 374.589C735.062 361.127 713.408 369.018 713.408 369.018C713.408 369.018 711.477 362.984 695.509 364.374C679.541 365.765 666.819 377.375 667.242 387.119C663.029 386.19 644.501 384.8 631.391 389.271C628.269 390.254 625.112 391.315 622.094 392.578C617.634 394.44 613.046 396.96 609.389 400.528C605.18 400.36 600.676 401.255 596.859 402.085C594.186 402.623 591.546 403.342 588.953 404.237C594.554 404.729 601.1 403.333 605.688 405.303C605.189 406.365 605.287 407.76 604.979 408.89C608.868 406.458 612.502 403.618 616.68 401.52C624.707 397.452 632.943 395.432 641.964 396.454C649.99 397.358 663.461 396.327 669.771 401.997C670.569 398.778 683.113 391.236 686.831 389.969C691.509 388.367 697.649 388.789 702.563 389.069C702.933 391.659 702.372 393.757 702.608 396.263C705.506 393 707.651 389.089 710.59 385.944C718.202 377.729 736.747 368.408 746.437 374.589Z" fill="white"/>
<g opacity="0.1">
<path d="M750.451 345.04L750.402 345.015C750.414 345.027 750.423 345.042 750.429 345.059C750.562 345.191 750.571 345.186 750.451 345.04Z" fill="white"/>
<path d="M907.07 238.487C906.726 229.844 902.718 223.383 897.26 217.359C896.782 216.833 896.274 216.337 895.752 215.855C894.45 215.364 893.126 214.873 891.793 214.381C886.767 212.583 881.416 210.942 876.186 210.234C873.827 209.915 871.499 210.077 869.14 209.65C866.83 209.227 864.494 209.011 862.153 209.001C857.248 208.962 852.606 210.111 847.745 210.519C842.274 210.981 837.137 212.666 832.093 215.015C823.135 219.089 815.056 225.198 808.384 232.944C804.911 237.018 802.445 241.877 799.631 246.481C799.426 246.825 799.234 247.179 799.051 247.532C803.421 248.864 808.861 247.817 812.919 249.031C817.236 250.318 822.988 256.991 827.456 256.342C823.67 257.733 817.976 255.644 812.295 252.858C806.614 250.073 798.271 249.218 798.271 249.218C785.99 248.382 775.721 258.907 765.822 265.339C761.996 267.825 758.179 270.473 755.244 274.104C756.673 274.329 758.083 274.675 759.463 275.141C763.445 276.502 769.639 286.629 769.639 286.629C769.639 286.629 759.828 277.578 753.519 276.497C746.777 275.431 740.587 275.475 734.148 278.32C730.501 279.927 724.708 283.125 720.878 287.336C719.986 290.997 720.044 294.869 721.324 298.249C722.523 301.389 724.311 303.821 727.121 305.432C729.93 307.044 734.144 306.906 736.44 308.774C737.207 307.088 738.719 305.197 740.547 305.079C739.526 307.648 739.615 310.793 740.244 313.884C740.622 314.861 741.053 315.812 741.533 316.733C741.372 316.778 741.212 316.837 741.047 316.881C741.654 318.828 742.411 320.715 743.307 322.521C734.639 324.182 723.326 332.245 720.673 342.342C729.145 339.026 742.67 340.377 750.433 345.03C748.23 341.099 744.284 339.949 741.176 337.478C749.849 322.295 774.374 319.475 787.341 329.125C785.785 326.025 782.806 324.438 780.43 321.893C781.932 321.047 787.239 322.173 787.631 319.868C788.046 317.451 782.191 315.028 780.706 314.434C773.63 311.614 765.991 311.977 758.571 312.758C754.821 313.156 752.279 313.309 749.167 310.96C749.394 306.106 752.997 303.983 756.72 301.796C764.576 297.165 773.176 294.269 782.039 293.272C788.88 292.456 796.309 292.289 802.824 289.7C807.729 287.734 812.161 284.678 817.03 282.649C826.885 278.541 840.276 275.878 850.474 279.293C843.986 272.213 832.401 270.144 823.692 271.967C826.368 267.461 835.063 266.272 839.143 263.678C844.41 260.327 848.035 254.313 853.283 250.873C858.162 247.675 864.132 244.977 869.88 245.287C874.411 245.513 877.501 248.024 881.438 249.709C881.046 245.154 876.649 241.135 873.037 239.641C882.5 237.529 896.439 242.83 903.913 249.434C906.865 247.247 907.208 242.049 907.07 238.487Z" fill="white"/>
</g>
<path opacity="0.2" d="M693.013 283.361C690.645 283.4 688.348 281.799 685.931 281.656C685.579 281.656 684.669 281.882 684.393 281.725C684.117 281.568 683.969 281.012 683.831 280.845C683.1 279.99 682.048 279.573 681.026 279.249C678.775 278.49 676.454 278.009 674.106 277.814C673.104 277.801 672.104 277.916 671.127 278.158C670.105 278.317 669.068 278.338 668.041 278.222C665.575 277.919 663.093 277.811 660.612 277.897C657.785 278.064 654.954 278.34 652.14 278.575C651.039 278.669 649.91 278.629 648.831 278.796C648.159 278.964 647.464 278.988 646.785 278.865C646.187 278.747 645.558 278.487 644.965 278.335C642.441 277.691 639.891 276.792 637.331 276.443C634.473 276.05 631.606 275.902 628.747 275.46C625.889 275.018 622.999 274.384 620.119 273.819C617.343 273.223 614.504 273.057 611.687 273.328L611.116 272.61C609.131 270.154 607.548 267.997 604.828 266.405C603.667 265.79 602.553 265.072 601.497 264.258C600.688 263.503 599.787 262.874 598.822 262.39C597.985 262.035 597.101 261.832 596.204 261.791C596.015 260.273 595.677 258.782 595.197 257.344C594.604 255.634 594.077 253.792 593.261 252.195C592.548 250.79 591.478 249.581 590.586 248.313C588.667 245.724 586.414 243.459 583.897 241.592C580.816 239.209 577.445 238.796 573.77 239.027C572.308 239.12 571.429 239.622 570.239 240.501C569.048 241.381 567.893 242.206 566.975 243.562C566.147 244.777 565.613 246.204 565.423 247.709C565.365 248.122 565.294 248.535 565.218 248.942C563.983 249.104 562.796 249.483 561.557 249.724C560.95 249.842 560.348 249.945 559.737 250.053C558.52 248.505 556.893 247.277 555.425 246.038C554.163 244.866 552.744 243.914 551.22 243.213C549.597 242.565 547.97 242.545 546.315 242.231C544.532 241.921 542.828 241.739 541.076 242.294C539.636 242.696 538.275 243.388 537.063 244.334C534.566 246.451 532.505 249.547 530.722 252.382C529.834 253.719 529.163 255.215 528.737 256.804C528.648 257.167 528.586 257.536 528.523 257.909C526.169 256.602 523.449 255.659 520.943 255.743C520.234 255.725 519.534 255.922 518.92 256.314C518.307 256.706 517.803 257.277 517.465 257.963C516.756 259.31 516.845 260.912 517.126 262.386C517.399 263.858 517.967 265.245 518.789 266.444C519.214 267.078 519.695 267.664 520.225 268.193C520.671 268.635 521.335 268.906 521.728 269.402C521.827 269.521 521.889 269.672 521.906 269.832C521.923 269.993 521.893 270.155 521.821 270.296L521.638 270.237C520.705 269.963 519.756 269.759 518.798 269.628C518.487 269.589 518.174 269.573 517.862 269.579C517.829 269.573 517.796 269.573 517.763 269.579L517.848 269.54C517.771 269.536 517.694 269.521 517.621 269.495C517.274 269.373 516.919 269.279 516.559 269.215C514.776 268.847 513.086 269.245 511.338 269.657C510.719 269.777 510.119 269.992 509.554 270.296C508.996 270.7 508.478 271.166 508.007 271.687C506.927 272.747 505.601 273.454 504.176 273.731C502.964 273.913 501.746 273.908 500.538 274.183C499.386 274.403 498.292 274.898 497.332 275.632C497.283 275.676 497.242 275.726 497.198 275.77C496.844 275.428 496.472 275.109 496.083 274.817C494.236 273.475 492.173 272.535 490.005 272.045C487.919 271.542 485.753 271.6 483.691 272.212C482.808 272.416 482.001 272.905 481.372 273.618C481.145 273.917 480.98 274.267 480.891 274.645C479.427 274.12 477.918 273.766 476.387 273.588C473.712 273.333 471.304 274.08 468.806 275.018C467.803 275.396 466.778 275.613 465.761 275.922C464.838 276.202 464.258 276.905 463.389 277.239C462.876 277.426 462.332 277.647 461.788 277.912C460.984 277.307 460.118 276.812 459.206 276.438C458.956 274.689 458.314 272.915 457.904 271.367C457.54 270.118 456.821 269.031 455.853 268.267C455.375 267.933 454.452 267.648 454.069 267.422C454.069 267.392 453.859 267.196 453.846 267.176C453.493 266.825 453.102 266.523 452.682 266.277C449.761 264.405 446.199 263.919 442.872 264.086C439.862 264.238 436.54 264.793 433.851 266.336C432.799 266.935 431.488 267.432 430.676 268.414C429.743 269.505 429.064 270.828 428.696 272.271C428.531 273.141 428.665 274.04 428.531 274.92C428.473 275.308 428.411 275.681 428.362 276.055C428.175 276.055 427.987 276.084 427.796 276.109C427.518 275.39 427.136 274.726 426.663 274.143C425.428 272.62 423.649 272.149 421.91 271.687C420.037 271.15 418.095 270.966 416.166 271.141C414.481 271.348 412.733 271.446 410.775 271.839C409.134 272.163 407.609 272.493 406.138 273.406C405.491 273.82 404.87 274.279 404.278 274.782C403.631 273.868 403.087 272.817 402.271 272.065C401.231 271.124 400.012 270.452 398.704 270.1C397.714 269.866 396.692 269.846 395.694 270.041C395.248 270.139 394.593 270.424 394.41 270.453C393.545 270.581 392.626 270.37 391.734 270.493C391.114 270.593 390.499 270.731 389.893 270.905C388.292 270.414 386.45 270.847 384.68 271.166C383.467 271.387 382.29 271.839 381.113 272.149C379.803 272.399 378.531 272.853 377.336 273.495C376.901 273.764 376.485 274.069 376.092 274.409L375.815 273.917C374.972 272.532 373.889 271.554 372.752 270.478C371.37 269.166 369.795 268.586 368.052 268.09C366.342 267.593 364.603 267.222 362.848 266.98C361.042 266.754 359.223 266.587 357.466 267.22C355.21 268.036 353.31 270.507 353.502 273.215C353.572 274 353.809 274.755 354.193 275.421C354.616 276.237 354.777 277.155 355.214 277.956C355.669 278.815 356.258 279.578 356.953 280.212C357.207 280.438 357.506 280.595 357.733 280.801C357.011 280.61 356.289 280.452 355.566 280.275C354.156 279.913 352.701 279.803 351.259 279.951C349.921 280.108 348.583 280.3 347.214 280.374C345.827 280.416 344.461 280.769 343.201 281.41C342.176 281.939 341.264 282.701 340.526 283.646C340.246 284.081 339.936 284.492 339.598 284.874C339.435 284.979 339.277 285.094 339.125 285.218L338.911 285.15C338.589 285.043 338.259 284.963 337.926 284.909H337.819L337.52 284.806C336.805 284.513 336.053 284.347 335.291 284.314C335.112 284.201 334.916 284.098 334.751 284.005C333.872 283.5 332.945 283.106 331.986 282.83C330.664 282.435 329.309 282.181 327.942 282.074C327.251 282.03 326.546 282.074 325.855 281.966C325.164 281.858 324.477 281.676 323.773 281.602C322.408 281.46 321.097 281.076 319.733 280.939C318.375 280.815 317.01 280.856 315.661 281.062C314.324 281.258 313.048 281.553 311.648 281.523C310.996 281.472 310.342 281.472 309.691 281.523C309.004 281.602 308.353 281.818 307.653 281.892C306.24 281.978 304.825 281.978 303.412 281.892C302.052 281.892 300.621 282.059 299.278 281.764C297.718 281.425 296.188 281.494 294.61 281.347C293.811 281.268 293.036 281.081 292.233 281.086H291.738C291.689 281.086 291.488 281.086 291.479 281.086C291.096 281.003 290.726 280.826 290.342 280.757C289.968 280.691 289.588 280.671 289.21 280.698C289.06 280.689 288.91 280.702 288.764 280.737C288.731 280.733 288.698 280.733 288.666 280.737H288.634C288.011 280.428 287.317 280.337 286.646 280.477C286.169 280.672 285.682 280.836 285.187 280.968C284.919 281.003 284.659 281.098 284.425 281.247C284.19 281.395 283.986 281.595 283.823 281.833C283.377 282.442 285.669 283.405 285.941 283.459C286.425 283.591 286.926 283.627 287.422 283.567C287.867 283.474 287.448 283.415 288.028 283.646C288.27 283.746 288.517 283.831 288.768 283.902C289.821 284.167 290.846 283.715 291.89 283.902C292.933 284.088 293.771 284.722 294.824 284.732C294.975 284.732 295.301 284.609 295.39 284.609C295.612 284.671 295.826 284.761 296.028 284.879C296.466 285.052 296.934 285.114 297.397 285.061H297.459C299.591 285.474 301.731 285.783 303.796 286.122C305.026 286.324 306.217 286.186 307.448 286.275C308.946 286.383 310.413 286.766 311.907 286.84C315.474 287.061 319.073 286.84 322.609 287.149C325.971 287.429 329.074 288.972 332.334 289.704C335.246 290.358 337.788 289.424 340.597 288.722C342.117 288.358 343.527 288.27 345.003 287.7C346.479 287.13 348.004 286.599 349.493 285.97C349.95 285.778 350.416 285.614 350.889 285.479C352.176 286.123 353.532 286.587 354.924 286.859C356.689 287.271 358.495 287.436 360.297 287.351C362.215 287.248 363.941 286.427 365.822 286.167C367.641 285.908 369.433 285.458 371.173 284.82C371.575 285.071 371.989 285.282 372.301 285.479C373.974 286.55 375.423 286.791 377.296 287.189C381.505 288.073 385.376 288.692 389.665 288.245C391.279 288.151 392.858 287.691 394.303 286.894C394.712 286.68 395.072 286.368 395.357 285.98C395.642 285.592 395.844 285.139 395.948 284.653C396.136 284.79 396.334 284.907 396.541 285.002C397.986 285.636 399.547 285.808 401.059 286.162C403.81 286.805 406.588 287.41 409.411 287.356C412.648 287.292 415.872 286.972 419.109 286.909C420.746 286.874 422.378 286.486 424.014 286.516C425.758 286.55 427.501 287.184 429.205 287.547C432.296 288.206 435.472 288.224 438.569 287.601C441.53 287.046 444.433 287.744 447.322 286.55C448.495 286.059 449.712 285.852 450.89 285.376L451.117 285.317L451.438 285.376C452.267 285.695 453.427 285.587 454.287 285.616C455.83 285.633 457.361 285.919 458.822 286.466C459.857 286.831 460.961 286.892 462.024 286.643C463.183 286.393 463.433 285.872 464.254 285.169C465.395 284.187 467.322 284.481 468.713 284.285C472.079 283.793 475.491 283.887 478.884 283.911C482.425 283.936 486.108 283.725 489.622 284.182C492.832 284.604 496.088 284.108 499.24 284.879C500.621 285.217 502.031 285.382 503.445 285.371C505.171 285.371 506.611 285.926 508.248 286.437C511.11 287.341 513.71 286.525 516.609 286.629C519.507 286.732 522.468 287.533 525.366 287.331C526.517 287.253 527.97 286.486 528.987 286.712C530.356 287.017 531.77 287.965 533.174 288.368C536.434 289.283 539.818 289.531 543.158 289.1C544.911 288.874 546.57 288.196 548.304 287.901C550.137 287.596 552.014 287.469 553.86 287.184C555.198 286.972 556.58 286.791 557.94 286.599C558.431 286.859 558.917 287.14 559.425 287.39C561.512 288.402 563.572 289.518 565.739 290.338C567.402 290.988 569.141 291.364 570.903 291.454C571.917 291.484 572.932 291.389 573.926 291.169C574.818 290.962 575.871 290.245 576.749 290.186L577.32 289.97C577.35 290.185 577.438 290.386 577.571 290.548C577.704 290.71 577.877 290.825 578.069 290.879C578.407 291.137 578.765 291.362 579.139 291.552C579.898 292.01 580.718 292.332 581.569 292.505C583.67 292.908 585.449 292.181 587.469 291.807C589.386 291.454 591.513 292.343 593.511 292.24C595.968 292.117 598.256 291.213 600.646 290.658C605.479 289.542 610.3 288.899 615.062 287.336C617.176 286.643 619.602 285.297 621.818 285.4C624.101 285.508 626.339 286.324 628.631 286.491C633.443 286.84 638.29 287.508 643.115 286.982C645.42 286.722 647.685 286.172 649.991 285.867C652.663 285.517 655.353 285.362 658.044 285.405C663.457 285.454 668.746 286.142 674.155 286.599C676.926 286.823 679.711 286.758 682.471 286.403C685.191 286.064 688.063 285.444 690.796 285.39C691.661 285.39 693.472 285.356 694.052 284.476C694.631 283.597 693.762 283.346 693.013 283.361Z" fill="white"/>
<path d="M671.216 280.575C669.611 279.052 663.287 281.13 661.406 281.14C656.661 281.175 652.041 281.209 647.31 281.415C643.627 281.577 642.053 280.433 638.838 278.959C633.893 276.718 628.582 278.546 623.677 279.971C618.259 281.558 613.867 280.649 608.694 278.875C602.286 276.684 596.989 277.996 590.59 279.691H590.541C589.916 279.032 589.255 278.417 588.561 277.848C572.227 264.331 547.572 272.571 530.534 279.705C524.037 282.423 520.077 282.418 513.326 281.381C508.591 280.654 504.747 282.3 500.27 282.993C497.559 283.405 494.919 282.781 492.194 282.658C487.517 282.437 482.973 283.056 478.308 283.4C472.596 283.818 466.973 282.531 461.31 282.909C459.388 283.042 457.551 283.793 455.656 283.71C455.388 284.368 455.83 284.044 457.605 285.828C463.647 288.52 471.945 286.565 478.349 286.555C485.666 286.555 492.542 288.25 499.677 289.473C511.493 291.508 524.648 291.498 536.086 287.596C538.654 286.722 544.625 285.356 547.804 283.366C550.551 284.727 554.083 285.272 556.638 286.088C563.11 288.219 569.766 289.598 576.499 290.201C584.191 290.869 590.474 290.476 596.744 285.828C602.144 281.828 609.185 284.516 615.316 285.071C623.405 285.803 630.633 281.022 638.468 282.732C642.535 283.612 646.579 284.904 650.717 285.287C655.555 285.729 660.429 283.857 665.223 283.322C666.427 283.184 674.074 283.287 671.216 280.575Z" fill="#FEC6FF"/>
</svg>
