<svg width="1306" height="201" viewBox="0 0 1306 201" fill="none" xmlns="http://www.w3.org/2000/svg">
<mask id="mask0_2677_51484" style="mask-type:alpha" maskUnits="userSpaceOnUse" x="0" y="0" width="1306" height="201">
<rect width="1306" height="201" fill="#D9D9D9"/>
</mask>
<g mask="url(#mask0_2677_51484)">
<path d="M1306.14 -0.460938H1V200.6H1306.14V-0.460938Z" fill="url(#paint0_radial_2677_51484)"/>
<g opacity="0.3">
<path d="M970.005 186.729C955.856 183.378 941.381 180.77 927.072 178.203C908.031 174.789 886.574 175.939 867.092 175.716C863.114 175.671 859.146 176.162 855.164 175.778C852.992 175.551 845.032 173.822 847.342 170.149C848.02 169.07 849.652 168.656 850.74 168.13C852.154 167.444 853.416 166.347 854.887 165.701C856.359 165.055 858.267 164.729 859.574 163.833C860.737 163.04 860.88 161.997 860.02 160.865C858.468 158.855 855.007 158.765 852.751 158.525C848.934 158.119 845.202 157.103 841.394 156.675C840.569 156.582 838.415 156.327 838 155.414C837.586 154.5 838.843 154.603 838.732 153.756C838.58 152.534 833.63 151.598 832.667 151.162C831.878 150.814 830.585 150.27 830.438 149.29C830.228 147.542 832.993 146.491 832.783 144.645C832.337 140.941 829.662 140.407 826.259 139.19C797.939 129.143 767.613 124.642 738.124 119.521C731.19 118.322 690.309 116.597 701.113 105.458C703.468 103.042 710.99 101.83 711.601 97.9168C712.346 93.0808 705.55 92.0958 702.201 91.7971C689.832 90.6918 666.639 92.8624 658.1 81.2293C662.559 77.775 669.997 76.6073 674.015 72.8677C682.933 64.5775 665.302 65.9859 660.245 65.7363C651.617 65.3397 643.167 62.8838 634.601 61.8274C624.594 60.5884 615.217 61.7115 605.246 61.3817C597.474 61.1321 574.183 53.5238 568.583 60.7533C574.255 66.5475 585.617 64.2566 593.023 64.9162C600.158 65.5492 630.824 65.5491 634.074 72.5379C636.134 76.9683 631.729 76.7811 627.493 77.6814C620.139 79.2414 612.251 80.066 604.804 81.1045C594.954 82.4818 563.981 83.7788 559.535 94.3154C563.424 98.2466 571.642 95.7462 576.596 95.5055C585.233 95.0598 594.062 95.9779 602.606 97.0878C611.868 98.2956 640.103 99.196 644.379 109.082C640.322 112.919 631.14 111.03 627.711 115.38C623.698 120.479 632.295 123.964 629.807 128.782C627.412 133.427 609.741 130.489 605.91 130.262C598.486 129.816 586.517 127.289 579.851 131.564C583.744 140.103 605.326 139.939 613.79 141.984C628.206 145.479 642.685 147.476 657.32 149.887C662.72 150.778 695.446 156.894 683.022 165.371C680.249 167.261 669.342 168.406 673.119 174.098C676.16 178.68 687.232 172.551 689.823 178.667C683.08 187.509 665.235 178.39 657.556 189.546C654.809 193.558 656.531 193.865 651.291 194.966C647.371 195.786 634.155 195.488 631.287 200.582H988.465C988.773 199.009 991.02 197.832 993.054 195.586C989.928 190.763 975.583 188.058 970.005 186.729Z" fill="white"/>
</g>
<g style="mix-blend-mode:lighten">
<path d="M1306.14 -0.460938H1V200.6H1306.14V-0.460938Z" fill="url(#paint1_linear_2677_51484)"/>
</g>
<g style="mix-blend-mode:screen" opacity="0.3">
<path d="M680.941 38.2315C678.194 39.2521 675.488 40.3397 672.857 41.5164C669.031 43.219 641.964 57.1163 640.171 55.1373C645.246 60.6731 651.185 61.2926 658.191 62.5896C652.661 69.5026 645.602 68.7895 638.049 71.0314C629.13 73.679 618.963 77.8241 611.392 83.5114C604.056 89.0204 601.773 95.4297 593.627 98.8929C586.577 101.897 578.911 103.631 571.585 107.13C562.577 111.422 553.717 113.343 561.623 123.202C555.724 134.309 524.099 123.389 515.582 121.138C504.822 118.286 486.536 117.885 477.742 110.856C480.908 103.604 495.267 103.724 501.001 98.0371C495.445 85.5305 483.691 88.5123 474.01 81.9915C475.446 64.885 520.942 62.5896 532.157 60.731C539.368 59.541 544.451 57.3258 551.207 55.1061C554.025 54.1791 567.514 54.6961 569.074 52.4319C576.485 41.7036 545.793 42.4568 542.939 39.466C550.676 39.1362 558.662 36.141 566.194 34.0685C577.137 31.0599 591.834 33.4222 601.363 28.1628C596.458 21.1963 585.538 23.3313 579.607 17.7688C586.835 20.6615 595.383 17.225 603 16.4584C621.862 14.5507 641.513 14.7691 660.442 15.4555C690.243 16.5386 721.172 10.049 750.847 12.3935C744.975 24.8066 725.756 24.5659 714.545 27.8864C703.54 31.158 691.888 34.1666 680.941 38.2315Z" fill="#A715DC"/>
</g>
<g opacity="0.3">
<path d="M949.298 69.4491C946.217 68.5175 942.909 68.6646 939.823 68.0495C935.122 67.1149 930.476 65.9245 925.906 64.4838C913.772 60.664 903.481 53.8268 891.829 48.9597C884.07 45.7193 875.629 44.1594 867.375 42.5771C855.83 40.3485 844.063 38.3517 832.384 37.0458C801.219 33.5603 769.853 36.3594 738.617 34.7236C720.094 33.752 699.715 35.5214 681.745 35.2763C681.233 36.2775 680.505 37.1528 679.613 37.8391C679.288 39.2253 680.108 39.5729 680.563 40.8075C680.661 41.0794 681.531 41.0126 681.749 41.7971C681.968 42.5815 681.254 43.0317 681.353 43.5799C681.678 45.4029 680.314 44.917 682.69 46.1472C683.983 46.8024 684.991 46.4637 686.405 46.4592C689.91 46.4592 693 47.4487 696.411 47.3863C699.622 47.3372 707.113 45.3494 709.057 48.9329C705.45 51.1614 699.84 50.6088 695.47 50.8584C694.538 52.766 696.87 53.2608 697.941 54.2369C696.75 56.3184 691.02 57.0404 696.955 58.2483C703.327 59.5587 708.995 56.1624 715.474 56.7596C719.09 57.0984 722.444 58.3776 726.087 58.5425C729.119 58.694 736.856 59.2155 739.411 57.651C743.576 55.0704 735.843 54.335 733.65 54.2102C729.801 53.9962 725.222 53.8046 721.944 51.4913C723.309 50.7069 725.235 51.1837 726.849 51.3397C729.926 51.6384 732.165 51.3397 735.183 50.9386C738.626 50.4929 742.015 51.1838 745.439 51.1303C749.087 51.0723 752.757 50.0784 756.427 50.5508C757.858 50.7291 768.6 53.8179 767.53 48.9329C767.2 47.462 759.027 47.3284 756.953 46.1338C758.46 44.2619 765.189 46.2676 767.325 46.5261C770.001 46.8425 785.844 46.2586 784.27 51.8746C783.044 56.2292 765.095 53.809 761.599 53.604C756.694 53.3277 747.776 52.7972 744.039 56.6794C747.83 60.1158 754.532 58.8589 759.223 58.8589C763.044 58.8589 770.076 57.7402 773.144 60.098C771.864 62.077 769.225 61.4351 767.187 61.6491C764.137 61.9834 764.823 63.0219 762.902 64.1451C758.71 66.5831 751.91 64.2832 747.352 64.1451C738.586 63.8464 729.788 64.096 721.017 63.6993C719.139 63.6147 708.79 62.6519 710.761 66.5118C712.009 68.9454 720.638 69.4491 722.881 69.5917C726.831 69.8458 740.316 70.7372 731.451 75.0428C734.8 77.3649 739.817 73.7056 743.625 74.1513C747.348 74.5525 750.683 76.8256 754.438 77.2045C757.898 77.5699 761.715 76.7989 765.189 76.6072C766.919 76.5092 779.989 76.4601 780.239 74.3787C780.609 71.2943 768.172 73.0014 766.322 71.9495C767.41 69.8992 771.017 70.2424 773.189 70.3138C779.039 70.5188 785.674 70.7595 791.409 71.9718C795.293 72.8008 798.414 74.2004 793.567 76.6161C789.607 78.6085 782.535 77.1109 780.337 81.8844C781.568 83.6896 783.904 84.4651 785.813 85.3699C785.813 92.5548 769.853 82.4059 767.842 88.0754C765.336 95.1266 782.557 93.8072 786.125 94.6229C799.025 97.5913 810.686 94.7121 823.653 92.9693C822.561 88.5122 814.324 91.6812 811.221 88.7083C814.998 85.5883 828.353 86.3327 833.071 86.8586C839.786 87.6119 849.208 89.8983 855.942 87.9996C855.808 84.7905 853.043 84.991 851.001 84.376C857.422 76.313 872.441 83.5514 881.421 79.8654C881.152 79.3583 880.94 78.8232 880.788 78.2697C878.282 78.3811 875.647 78.604 873.983 76.9014C878.541 72.6582 887.361 78.5372 889.359 83.284C885.542 85.361 880.275 84.7682 875.847 86.0028C871.959 87.0815 869.069 89.0381 864.94 88.8509C870.38 93.4329 885.537 90.2327 892.444 90.5937C900.966 91.0394 915.24 85.731 922.619 90.5937C920.64 92.7376 916.435 94.4446 913.514 95.2692C910.513 96.1161 903.838 94.9527 901.381 96.9852C892.864 104.005 916.613 101.202 919.431 101.175C924.901 101.147 930.355 100.575 935.711 99.4678C943.292 97.9657 950.248 100.595 957.695 98.9463C973.668 95.4252 981.775 82.8115 998.956 84.9554C1013.01 86.7071 1027.02 84.8039 1041 87.184C1053.04 89.2164 1067.64 92.7464 1079.68 88.218C1077.16 81.6616 1064.41 78.3143 1058.37 76.3531C1040.09 70.3666 1021.04 67.0212 1001.8 66.4182C984.686 65.8344 965.539 74.3697 949.298 69.4491Z" fill="#746B7D"/>
</g>
<g opacity="0.3">
<path d="M481.696 130.917C482.431 130.584 483.091 130.105 483.636 129.51C484.181 128.915 484.599 128.215 484.866 127.454C481.745 123.822 474.098 126.059 469.705 124.508C467.667 123.79 464.613 122.939 465.317 119.988C465.763 118.018 468.256 118.513 468.564 116.338C467.462 116.227 466.834 115.38 465.915 115.037C467.302 112.064 476.617 113.953 479.828 113.806C484.091 113.61 488.746 112.255 492.599 110.811C492.599 110.678 492.599 109.84 492.599 109.701C488.585 110.094 485.045 108.632 480.889 109.256C477.223 109.808 473.496 110.107 469.665 109.184C466.579 108.436 461.367 105.948 466.133 103.43C469.045 101.892 473.901 104.001 477.281 102.187C474.695 94.5739 455.075 98.621 449.367 97.8722C447.583 97.6493 442.554 97.8989 445.184 95.3717C446.669 93.9454 450.798 93.9588 452.694 94.0346C455.16 94.146 457.652 94.5561 460.14 94.5293C463.373 94.5026 466.343 93.112 469.558 92.8713C474.289 92.5281 479.221 92.898 483.983 92.7866C487.332 92.7063 496.514 94.3956 498.445 90.7631C496.34 88.9312 490.632 89.2699 488.077 89.1094C484.51 88.8955 480.942 88.637 477.411 88.5167C475.511 88.4498 473.594 88.8019 471.721 88.7172C468.461 88.5657 465.175 86.9611 461.911 86.5288C460.261 86.3149 453.113 86.7962 453.073 83.9258C453.041 81.412 462.504 82.3257 463.498 82.2722C466.214 82.1296 480.273 76.6964 481.714 80.8549C481.112 81.5814 478.726 81.8265 478.757 83.0835C478.806 84.8396 481.357 84.4206 482.601 84.5231C488.661 85.0045 494.302 84.5766 500.317 84.2779C505.057 84.0462 509.9 85.1114 514.613 84.6479C516.624 84.4517 523.924 84.376 524.82 82.7625C523.759 81.4254 521.44 81.6571 519.866 81.6972C515.603 81.7532 511.34 81.5374 507.104 81.051C504.429 80.788 489.334 81.831 489.312 77.2981C489.312 74.6684 501.615 75.4885 503.443 75.4484C509.213 75.3459 515.126 76.1214 520.861 75.0027C521.895 74.8021 524.312 74.3564 522.827 73.0192C522.029 72.2927 519.398 73.7458 520.232 71.2721C520.651 70.0285 522.956 69.7388 523.969 69.0435C522.729 67.6484 518.243 68.8117 516.294 67.7554C518.555 63.2671 528.441 65.9725 532.249 65.5848C534.332 65.3708 535.973 64.4927 537.962 64.047C540.289 63.5255 542.746 63.6013 545.096 63.0308C552.9 61.1321 541.319 58.9793 538.648 58.6272C534.546 58.0878 530.131 57.1429 525.984 57.4148C523.67 57.5664 516.286 59.2378 514.805 56.675C513.552 54.5088 519.474 53.2787 520.232 51.7721C518.114 49.5436 512.736 49.5435 509.873 49.3831C507.568 49.2538 504.491 48.7234 507.291 46.223C508.66 45.0017 518.341 41.7168 519.153 43.7047C517.311 44.2574 515.688 44.7298 514.06 45.6658C516.103 46.223 518.52 45.4252 520.615 45.2469C523.496 44.9928 526.386 45.5544 529.284 45.2469C529.358 45.3482 529.411 45.4634 529.44 45.5856C526.961 46.9228 523.723 46.8782 521.293 48.7324C523.969 51.7632 532.753 51.4066 536.851 51.1793C539.772 51.0367 542.648 51.3353 545.533 51.2462C546.982 51.2061 549.823 50.5286 550.215 49.0176C547.254 47.7964 543.433 50.5152 541.297 47.5066C540.771 46.7623 541.587 46.3255 539.87 45.4876C538.831 44.9884 537.721 45.1845 536.985 44.2485C538.193 43.415 540.775 43.5354 542.336 43.3972C545.172 43.1476 548.039 43.6557 550.893 43.5799C552.307 43.5487 553.97 43.5799 555.352 43.1342C556.619 42.7197 557.675 41.6589 558.969 41.289C560.503 40.8433 562.759 41.5831 563.918 40.4733C561.689 38.6102 559.521 40.1836 557.06 40.2638C553.974 40.3619 550.893 39.7111 547.696 39.6443C546.416 39.6175 536.196 39.9919 537.502 37.7233C538.126 36.6402 541.886 37.4068 542.884 37.3667C545.257 37.2731 547.567 36.7739 549.916 36.5287C552.81 36.2346 555.41 36.2479 558.054 35.2406C557.163 34.63 556.199 33.9035 554.991 33.8099C555.838 30.8816 561.14 31.4967 563.379 31.1356C565.617 30.7746 568.043 30.1417 569.938 28.9382C570.919 28.3098 574.17 23.8616 574.638 23.8839C574.598 23.8839 440.801 17.7687 383.479 23.8839C364.175 25.9386 357.259 43.9677 356.05 61.0875C355.283 71.9094 356.278 82.8338 357.923 93.5309C358.681 98.4338 358.307 102.717 362.026 106.336C365.067 109.296 369.272 110.985 372.857 113.165C377.28 115.839 379.483 118.785 380.652 124.058C381.695 128.756 381.312 129.406 386.208 131.599C398.64 137.144 415.638 136.627 429.145 137.371C435.762 137.732 441.412 135.731 447.664 133.899C453.238 132.254 458.219 132.085 464.024 131.804C468.265 131.604 476.844 133.297 481.696 130.917Z" fill="#746B7D"/>
</g>
<path opacity="0.2" d="M890.529 111.957C876.634 111.582 862.677 111.186 848.787 110.513C836.252 109.902 823.972 110.78 811.468 111.444C801.029 111.997 790.751 111.132 780.325 111.07C771.144 111.016 762.043 110.744 752.906 110.388C750.676 110.299 748.42 110.12 746.217 110.165C744.777 110.196 742.909 110.753 740.01 110.611C738.293 110.294 737.379 111.181 738.4 112.394C739.007 113.12 741.285 113.45 742.2 113.936C743.114 114.422 744.875 115.242 745.539 116.066C746.298 117.016 746.164 117.956 746.904 118.99C748.648 121.419 753.223 122.832 755.862 123.523C761.213 124.923 766.564 126.269 771.915 127.534C773.922 128.016 782.484 128.555 782.72 130.757C781.685 131.082 776.548 131.492 777.039 133.324C777.485 134.982 785.511 134.336 786.88 134.474C791.139 134.889 795.353 135.459 799.576 136.025C802.144 136.373 808.94 138.214 810.813 135.847C808.182 133.654 801.859 134.996 799.959 132.397C801.225 130.833 809.644 131.278 806.322 128.724C805.261 127.909 802.541 127.994 801.225 127.864C797.926 127.534 794.586 127.637 791.29 127.129C788.673 126.732 783.474 125.056 788.722 124.16C794.889 123.117 800.886 124.575 806.924 125.498C810.398 126.037 813.898 126.603 817.39 126.937C819.7 127.147 823.887 126.937 825.76 128.586C829.278 131.653 821.778 131.818 819.731 133.235C815.606 136.101 823.089 136.226 825.225 136.747C831.021 138.16 837.099 138.133 842.753 140.139C845.09 140.973 847.832 142.76 849.143 139.961C847.36 138.459 842.169 137.024 845.857 135.058C849.308 133.226 854.16 134.309 857.839 132.419C855.489 131.782 856.394 130.191 857.977 129.366C861.803 127.329 867.056 127.744 871.194 126.861C875.332 125.979 879.274 125.079 883.448 124.544C886.154 124.205 890.168 124.285 892.415 122.948C889.918 120.452 885.521 122.81 882.761 121.526C886.021 117.742 894.234 119.685 898.506 117.894C901.628 116.557 903.835 115.095 905.895 112.429C901.102 111.284 895.398 112.09 890.529 111.957Z" fill="#564361"/>
<path opacity="0.6" d="M941.302 141.958C959.139 136.302 962.385 130.013 954.559 125.845C948.762 122.761 944.896 122.418 938.248 121.031C932.005 119.73 925.628 119.021 919.43 117.417C917.249 116.855 915.171 115.188 912.795 115.108C910.418 115.028 908.237 116.828 905.981 117.417C900.015 118.968 893.767 119.235 887.516 119.258C880.403 119.284 873.189 120.764 866.072 119.988C857.676 119.095 849.225 118.819 840.788 119.164C830.885 119.61 820.909 120.88 810.841 121.237C803.768 121.486 796.571 123.019 789.633 122.961C786.32 122.926 771.283 121.357 770.904 117.167C762.802 115.188 754.379 116.788 746.063 114.658C741.554 113.503 737.055 112.474 732.409 111.707C729.372 111.208 722.313 111.885 720.418 109.291C726.585 108.846 733.171 108.645 739.352 108.792C757.879 109.211 776.403 108.413 794.975 108.396C818.484 108.396 841.729 111.68 865.131 112.148C874.049 112.327 883.262 113.628 892.069 112.238C900.421 110.9 909.874 112.46 917.771 109.563C922.458 107.843 927.403 99.7576 929.08 95.3005C931.626 88.5524 928.763 88.3741 922.694 87.2375C916.625 86.101 910.726 84.1487 904.608 82.8963C898.187 81.5592 889.612 82.4506 883.717 80.0972C885.054 79.2459 886.891 78.1896 887.36 76.585C884.497 73.3001 879.815 72.217 875.708 71.5128C871.102 70.7283 866.295 69.8503 861.635 69.6319C861.283 69.6319 860.935 69.5962 860.591 69.5829C857.799 69.5535 855.013 69.3271 852.253 68.9054C851.021 68.7039 849.827 68.3161 848.712 67.7554C848.931 67.8847 849.796 67.0824 849.769 66.8061C849.724 66.2534 848.534 65.9147 848.119 65.8121C846.469 65.3664 844.793 64.6488 843.067 64.4259C841.569 64.2254 840.084 64.1942 838.581 64.0337C835.04 63.6593 831.487 63.1423 827.977 62.6342C825.877 62.3534 823.884 61.5957 821.792 61.3238C821.083 61.2302 820.089 61.2659 819.527 60.8514C820.281 60.3522 821.382 60.5126 822.203 60.5572C823.142 60.5689 824.08 60.5003 825.007 60.3522C829.431 59.8574 833.823 58.8412 838.278 58.6985C844.275 58.5069 849.872 59.9064 855.749 60.5126C861.84 61.1411 868.043 61.6982 874.174 62.3935C887.32 63.8822 900.528 65.0678 913.771 64.7469C948.459 63.9624 987.878 52.3962 1020.49 69.0703C1037.86 77.9444 1048.51 100.506 1057.65 116.708C1062.68 125.622 1069.24 133.297 1075.67 141.222C1078.5 144.712 1231.65 196.21 1232.74 200.609C1231.7 200.636 1207.66 200.609 1207.58 200.609C1203.45 200.609 1197.28 196.812 1193.48 195.403C1184.12 191.953 1175.05 190.179 1165.09 189.163C1157.39 188.37 1149.88 186.213 1142.46 183.864C1136.79 182.081 1131.51 181.47 1125.76 180.405C1117.34 178.849 1109.22 175.729 1100.84 173.862C1093.38 172.199 1086.12 171.339 1079.34 167.555C1080.34 165.567 1081.97 163.624 1083.39 161.939C1071.33 161.146 1059.1 156.751 1047.59 152.534C1035.8 148.224 1024.78 143.656 1012.14 142.377C1004.41 141.557 938.198 142.947 941.302 141.958Z" fill="white"/>
<path opacity="0.6" d="M489.357 54.2237C474.361 53.5195 459.584 55.8283 444.538 54.4956C422.568 52.5434 400.879 48.523 378.793 47.752C365.237 47.275 351.547 47.8678 337.978 48.0015C329.755 48.0773 321.64 48.7637 313.386 48.7503C307.107 48.7503 298.822 46.3346 292.062 47.07H292.022C236.176 45.1267 1 50.4975 1 50.4975V199.838H87.4629C87.4629 199.838 99.0567 187.594 123.524 177.584C147.991 167.573 192.815 165.153 217.853 158.935C240.563 153.301 262.953 129.42 311.205 124.138C323.187 123.282 335.182 122.69 347.173 122.034C367.239 120.933 387.35 118.023 407.398 117.132C415.478 116.762 423.242 118.023 430.978 119.463C437.604 120.702 444.208 122.075 450.973 122.694C461.947 123.692 449.751 118.032 446.407 116.276C441.912 113.918 437.489 111.172 433.145 108.81C428.316 106.189 414.702 100.992 415.309 93.8564C416.018 85.7935 432.164 82.4997 438.336 80.6411C442.795 79.3039 452.605 79.4377 455.463 75.4262C452.409 74.1426 448.734 75.297 445.89 73.5587C450.995 72.4711 456.542 70.3986 461.644 68.7584C469.777 66.1287 479.133 65.2506 487.583 64.172C500.148 62.5585 518.453 65.2595 531.577 57.6557C534.426 56.0155 540.758 56.635 545.4 55.8728C537.476 52.2848 508.006 55.1107 489.357 54.2237Z" fill="white"/>
<path style="mix-blend-mode:difference" opacity="0.6" d="M1306 0H2V196H1306V0Z" fill="url(#paint2_radial_2677_51484)"/>
</g>
<defs>
<radialGradient id="paint0_radial_2677_51484" cx="0" cy="0" r="1" gradientUnits="userSpaceOnUse" gradientTransform="translate(821.435 133.925) scale(383.567 118.852)">
<stop stop-color="#942F9D"/>
<stop offset="0.18" stop-color="#BD4BFF"/>
<stop offset="0.53" stop-color="#852ED6"/>
<stop offset="0.81" stop-color="#C72EED"/>
<stop offset="1" stop-color="#E42EF5"/>
</radialGradient>
<linearGradient id="paint1_linear_2677_51484" x1="653.57" y1="-0.460938" x2="653.57" y2="200.6" gradientUnits="userSpaceOnUse">
<stop stop-color="#F9CBFF"/>
<stop offset="0.11" stop-color="#EEBDEB"/>
<stop offset="0.33" stop-color="#BD9AC0"/>
<stop offset="0.63" stop-color="#776174"/>
<stop offset="1" stop-color="#151515"/>
</linearGradient>
<radialGradient id="paint2_radial_2677_51484" cx="0" cy="0" r="1" gradientUnits="userSpaceOnUse" gradientTransform="translate(189.773 215.019) scale(727.089 185.788)">
<stop stop-color="#15559D"/>
<stop offset="0.2" stop-color="#154376"/>
<stop offset="0.45" stop-color="#152F4C"/>
<stop offset="0.67" stop-color="#15212E"/>
<stop offset="0.86" stop-color="#15181C"/>
<stop offset="1" stop-color="#151515"/>
</radialGradient>
</defs>
</svg>
