<svg width="1336" height="768" viewBox="0 0 1336 768" fill="none" xmlns="http://www.w3.org/2000/svg">
<g clip-path="url(#clip0_2488_1563)">
<path d="M1336 564.751H0V767.987H1336V564.751Z" fill="url(#paint0_radial_2488_1563)"/>
<g opacity="0.3">
<path d="M991.917 753.967C977.433 750.579 962.616 747.943 947.969 745.348C928.478 741.897 906.513 743.059 886.57 742.834C882.499 742.789 878.436 743.285 874.36 742.897C872.137 742.668 863.989 740.919 866.354 737.207C867.048 736.117 868.718 735.698 869.832 735.166C871.279 734.472 872.571 733.364 874.077 732.711C875.583 732.057 877.537 731.729 878.875 730.823C880.066 730.021 880.212 728.967 879.331 727.822C877.743 725.79 874.2 725.7 871.891 725.457C867.983 725.047 864.163 724.02 860.265 723.587C859.42 723.493 857.216 723.236 856.791 722.312C856.367 721.389 857.654 721.492 857.54 720.636C857.384 719.402 852.318 718.456 851.332 718.014C850.524 717.663 849.2 717.113 849.05 716.122C848.835 714.356 851.665 713.293 851.45 711.428C850.994 707.684 848.255 707.143 844.772 705.913C815.783 695.758 784.739 691.208 754.553 686.031C747.456 684.819 705.607 683.075 716.667 671.817C719.077 669.375 726.778 668.149 727.403 664.193C728.166 659.305 721.209 658.31 717.781 658.008C705.119 656.89 681.379 659.084 672.637 647.326C677.202 643.834 684.816 642.653 688.928 638.873C698.058 630.494 680.009 631.917 674.833 631.665C666 631.264 657.351 628.782 648.582 627.714C638.339 626.461 628.74 627.597 618.533 627.263C610.577 627.011 586.736 619.32 581.003 626.628C586.809 632.485 598.44 630.169 606.022 630.836C613.325 631.476 644.716 631.476 648.043 638.54C650.152 643.018 645.642 642.829 641.306 643.739C633.779 645.316 625.704 646.15 618.081 647.199C607.998 648.591 576.293 649.903 571.742 660.553C575.722 664.527 584.135 661.999 589.206 661.756C598.047 661.306 607.085 662.234 615.831 663.355C625.312 664.576 654.215 665.487 658.592 675.479C654.438 679.358 645.04 677.448 641.53 681.845C637.422 687 646.222 690.523 643.675 695.393C641.224 700.088 623.134 697.119 619.213 696.889C611.613 696.438 599.362 693.884 592.538 698.204C596.523 706.837 618.615 706.67 627.279 708.738C642.036 712.27 656.858 714.288 671.839 716.726C677.366 717.627 710.866 723.808 698.149 732.377C695.31 734.288 684.145 735.445 688.011 741.199C691.124 745.83 702.458 739.635 705.11 745.817C698.208 754.755 679.941 745.537 672.08 756.814C669.269 760.869 671.031 761.18 665.667 762.293C661.655 763.122 648.125 762.82 645.19 767.97H1010.81C1011.13 766.379 1013.43 765.19 1015.51 762.919C1012.31 758.044 997.627 755.309 991.917 753.967Z" fill="white"/>
</g>
<g style="mix-blend-mode:lighten">
<path d="M1336 564.751H0V767.987H1336V564.751Z" fill="url(#paint1_linear_2488_1563)"/>
</g>
<g style="mix-blend-mode:screen" opacity="0.3">
<path d="M696.016 603.863C693.205 604.894 690.434 605.994 687.741 607.183C683.824 608.904 656.117 622.952 654.282 620.951C659.477 626.547 665.557 627.173 672.728 628.484C667.068 635.472 659.842 634.751 652.11 637.017C642.98 639.694 632.573 643.884 624.822 649.632C617.314 655.201 614.977 661.68 606.637 665.18C599.421 668.217 591.574 669.97 584.074 673.506C574.854 677.845 565.784 679.787 573.877 689.752C567.838 700.98 535.466 689.942 526.748 687.666C515.733 684.783 497.014 684.378 488.013 677.273C491.254 669.943 505.952 670.064 511.822 664.315C506.134 651.673 494.102 654.687 484.192 648.096C485.662 630.805 532.234 628.484 543.714 626.606C551.095 625.403 556.299 623.164 563.214 620.92C566.099 619.983 579.907 620.505 581.505 618.217C589.091 607.372 557.673 608.134 554.752 605.111C562.671 604.777 570.846 601.75 578.556 599.655C589.757 596.614 604.802 599.001 614.557 593.685C609.536 586.643 598.357 588.801 592.286 583.179C599.685 586.103 608.436 582.629 616.232 581.854C635.54 579.926 655.656 580.147 675.033 580.84C705.538 581.935 737.198 575.375 767.575 577.745C761.564 590.293 741.891 590.049 730.415 593.406C719.15 596.713 707.222 599.754 696.016 603.863Z" fill="#A715DC"/>
</g>
<path opacity="0.5" d="M391.278 361.98C390.562 361.376 387.754 362.201 386.924 362.205C384.815 362.205 382.765 362.232 380.661 362.313C379.027 362.376 378.329 361.917 376.904 361.336C374.709 360.435 372.34 361.169 370.176 361.741C367.771 362.372 365.822 362.007 363.521 361.291C360.677 360.417 358.326 360.939 355.483 361.615C355.208 361.351 354.915 361.106 354.606 360.881C347.353 355.506 336.403 358.781 328.835 361.619C325.95 362.701 324.192 362.696 321.189 362.286C319.089 361.998 317.382 362.651 315.392 362.926C314.187 363.093 313.018 362.845 311.809 362.795C309.748 362.78 307.687 362.878 305.637 363.088C303.104 363.255 300.616 362.741 298.092 362.899C297.239 362.953 296.422 363.25 295.577 363.219C295.458 363.48 295.659 363.349 296.444 364.061C299.128 365.134 302.835 364.354 305.66 364.35C308.906 364.35 311.964 365.025 315.127 365.512C320.381 366.323 326.215 366.314 331.3 364.764C332.441 364.417 335.093 363.863 336.503 363.079C337.722 363.624 339.292 363.841 340.429 364.165C343.302 365.013 346.258 365.561 349.247 365.8C352.666 366.066 355.455 365.909 358.24 364.061C360.636 362.471 363.767 363.539 366.488 363.759C370.08 364.048 373.289 362.151 376.772 362.827C378.598 363.183 380.373 363.692 382.208 363.845C384.363 364.021 386.522 363.277 388.649 363.052C389.151 363.016 392.556 363.061 391.278 361.98Z" fill="white"/>
<g opacity="0.3">
<path d="M970.721 635.418C967.567 634.476 964.18 634.625 961.021 634.003C956.21 633.058 951.454 631.855 946.775 630.399C934.355 626.538 923.82 619.627 911.893 614.707C903.95 611.431 895.309 609.854 886.86 608.255C875.043 606.002 862.997 603.984 851.042 602.664C819.14 599.141 787.033 601.97 755.058 600.317C736.097 599.334 715.236 601.123 696.841 600.875C696.317 601.887 695.572 602.772 694.659 603.466C694.326 604.867 695.166 605.218 695.631 606.466C695.732 606.741 696.622 606.674 696.846 607.467C697.069 608.26 696.339 608.715 696.439 609.269C696.773 611.111 695.376 610.62 697.809 611.864C699.133 612.526 700.164 612.184 701.611 612.179C705.199 612.179 708.362 613.179 711.854 613.116C715.141 613.067 722.809 611.057 724.799 614.68C721.106 616.932 715.364 616.374 710.891 616.626C709.937 618.554 712.324 619.054 713.42 620.041C712.201 622.145 706.335 622.875 712.411 624.096C718.934 625.42 724.735 621.987 731.368 622.591C735.07 622.933 738.502 624.226 742.231 624.393C745.335 624.546 753.255 625.073 755.87 623.492C760.134 620.883 752.219 620.14 749.973 620.014C746.034 619.798 741.346 619.604 737.991 617.266C739.388 616.473 741.36 616.955 743.012 617.113C746.161 617.414 748.453 617.112 751.543 616.707C755.067 616.256 758.536 616.955 762.042 616.901C765.775 616.842 769.532 615.837 773.289 616.315C774.754 616.495 785.75 619.617 784.655 614.68C784.317 613.193 775.95 613.058 773.827 611.85C775.37 609.958 782.258 611.985 784.445 612.247C787.183 612.567 803.401 611.976 801.79 617.653C800.535 622.055 782.162 619.609 778.584 619.401C773.563 619.122 764.433 618.586 760.608 622.51C764.488 625.984 771.349 624.713 776.151 624.713C780.063 624.713 787.261 623.582 790.401 625.966C789.091 627.966 786.389 627.317 784.303 627.533C781.181 627.871 781.884 628.921 779.917 630.056C775.626 632.521 768.665 630.196 764 630.056C755.026 629.754 746.02 630.007 737.041 629.606C735.12 629.52 724.525 628.547 726.543 632.449C727.821 634.909 736.653 635.418 738.949 635.562C742.994 635.819 756.797 636.72 747.723 641.072C751.151 643.419 756.286 639.72 760.184 640.171C763.995 640.576 767.41 642.874 771.253 643.257C774.795 643.626 778.702 642.847 782.258 642.653C784.029 642.554 797.408 642.505 797.664 640.401C798.043 637.283 785.312 639.008 783.418 637.945C784.531 635.873 788.224 636.22 790.447 636.292C796.436 636.499 803.228 636.742 809.098 637.968C813.074 638.806 816.269 640.22 811.307 642.662C807.254 644.676 800.014 643.162 797.764 647.988C799.024 649.812 801.416 650.596 803.369 651.511C803.369 658.773 787.033 648.515 784.974 654.246C782.409 661.373 800.037 660.039 803.689 660.864C816.894 663.864 828.831 660.954 842.105 659.192C840.986 654.687 832.555 657.89 829.378 654.885C833.245 651.732 846.916 652.484 851.745 653.016C858.619 653.777 868.264 656.088 875.157 654.169C875.02 650.925 872.19 651.128 870.099 650.506C876.672 642.356 892.046 649.673 901.239 645.947C900.964 645.434 900.746 644.893 900.591 644.334C898.025 644.446 895.328 644.672 893.625 642.951C898.29 638.662 907.319 644.604 909.364 649.402C905.456 651.502 900.066 650.903 895.533 652.151C891.553 653.241 888.595 655.219 884.368 655.029C889.937 659.661 905.452 656.426 912.522 656.791C921.245 657.242 935.857 651.876 943.411 656.791C941.384 658.958 937.08 660.684 934.09 661.517C931.018 662.373 924.185 661.197 921.67 663.252C912.952 670.348 937.262 667.514 940.147 667.487C945.747 667.459 951.329 666.88 956.813 665.761C964.572 664.243 971.693 666.901 979.316 665.234C995.666 661.675 1003.96 648.925 1021.55 651.092C1035.94 652.862 1050.28 650.939 1064.59 653.344C1076.91 655.399 1091.86 658.967 1104.19 654.39C1101.61 647.762 1088.55 644.379 1082.38 642.396C1063.65 636.345 1044.15 632.964 1024.46 632.354C1006.95 631.764 987.345 640.392 970.721 635.418Z" fill="#746B7D"/>
</g>
<g opacity="0.3">
<path d="M492.064 697.551C492.816 697.214 493.492 696.73 494.05 696.128C494.607 695.527 495.036 694.82 495.309 694.05C492.114 690.378 484.286 692.64 479.79 691.072C477.704 690.347 474.577 689.486 475.298 686.504C475.755 684.512 478.306 685.012 478.621 682.814C477.494 682.701 476.85 681.845 475.91 681.498C477.329 678.493 486.865 680.403 490.151 680.255C494.515 680.057 499.281 678.687 503.224 677.227C503.224 677.092 503.224 676.245 503.224 676.105C499.116 676.502 495.492 675.024 491.238 675.655C487.486 676.214 483.67 676.515 479.749 675.583C476.59 674.826 471.254 672.312 476.134 669.766C479.114 668.212 484.085 670.343 487.545 668.509C484.898 660.814 464.813 664.905 458.971 664.148C457.145 663.923 451.996 664.175 454.689 661.621C456.209 660.179 460.436 660.193 462.376 660.269C464.9 660.382 467.452 660.796 469.999 660.769C473.308 660.742 476.348 659.337 479.639 659.093C484.482 658.746 489.531 659.12 494.406 659.008C497.834 658.927 507.232 660.634 509.209 656.962C507.054 655.111 501.211 655.453 498.596 655.291C494.944 655.074 491.293 654.813 487.677 654.692C485.733 654.624 483.77 654.98 481.853 654.894C478.516 654.741 475.152 653.119 471.811 652.682C470.122 652.466 462.805 652.952 462.764 650.051C462.732 647.51 472.418 648.434 473.436 648.38C476.216 648.235 490.608 642.743 492.082 646.947C491.466 647.681 489.024 647.929 489.056 649.2C489.106 650.975 491.717 650.551 492.991 650.655C499.194 651.141 504.968 650.709 511.126 650.407C515.978 650.173 520.935 651.249 525.76 650.781C527.818 650.583 535.291 650.506 536.208 648.875C535.122 647.523 532.748 647.758 531.137 647.798C526.773 647.855 522.409 647.637 518.073 647.145C515.334 646.879 499.883 647.933 499.86 643.352C499.86 640.693 512.454 641.522 514.325 641.482C520.232 641.378 526.285 642.162 532.155 641.031C533.214 640.829 535.688 640.378 534.168 639.026C533.351 638.292 530.658 639.761 531.511 637.26C531.94 636.003 534.3 635.711 535.336 635.008C534.067 633.598 529.475 634.773 527.481 633.706C529.795 629.169 539.914 631.904 543.813 631.512C545.944 631.295 547.624 630.408 549.66 629.957C552.043 629.43 554.558 629.507 556.963 628.93C564.951 627.011 553.097 624.835 550.363 624.479C546.163 623.934 541.644 622.978 537.399 623.253C535.03 623.406 527.471 625.096 525.956 622.505C524.673 620.316 530.735 619.072 531.511 617.55C529.343 615.297 523.838 615.297 520.908 615.135C518.548 615.004 515.398 614.468 518.265 611.94C519.666 610.706 529.576 607.385 530.406 609.395C528.521 609.953 526.86 610.431 525.194 611.377C527.284 611.94 529.758 611.134 531.904 610.954C534.852 610.697 537.81 611.265 540.777 610.954C540.853 611.056 540.907 611.173 540.937 611.296C538.399 612.648 535.085 612.603 532.597 614.477C535.336 617.54 544.328 617.18 548.523 616.95C551.513 616.806 554.457 617.108 557.411 617.018C558.894 616.977 561.802 616.292 562.203 614.765C559.173 613.531 555.261 616.279 553.074 613.238C552.536 612.485 553.371 612.044 551.614 611.197C550.55 610.692 549.413 610.891 548.66 609.944C549.897 609.102 552.54 609.224 554.138 609.084C557.041 608.832 559.976 609.345 562.897 609.269C564.344 609.237 566.047 609.269 567.462 608.818C568.758 608.399 569.84 607.327 571.164 606.953C572.734 606.502 575.044 607.25 576.23 606.128C573.948 604.245 571.73 605.836 569.21 605.917C566.051 606.016 562.897 605.358 559.624 605.29C558.314 605.263 547.852 605.642 549.19 603.349C549.829 602.254 553.677 603.029 554.699 602.988C557.128 602.894 559.492 602.389 561.898 602.141C564.86 601.844 567.521 601.857 570.228 600.839C569.315 600.222 568.329 599.488 567.092 599.393C567.959 596.433 573.387 597.055 575.678 596.69C577.969 596.325 580.453 595.685 582.393 594.469C583.397 593.833 586.724 589.337 587.204 589.36C587.163 589.36 450.202 583.178 391.524 589.36C371.764 591.437 364.685 609.661 363.448 626.966C362.662 637.905 363.68 648.947 365.365 659.76C366.141 664.716 365.757 669.046 369.564 672.704C372.677 675.695 376.982 677.403 380.651 679.606C385.18 682.309 387.434 685.287 388.63 690.617C389.698 695.366 389.306 696.024 394.318 698.24C407.044 703.845 424.444 703.322 438.27 704.075C445.044 704.439 450.827 702.417 457.227 700.565C462.933 698.902 468.031 698.731 473.974 698.447C478.315 698.245 487.098 699.957 492.064 697.551Z" fill="#746B7D"/>
</g>
<path opacity="0.2" d="M910.562 678.385C896.339 678.007 882.051 677.606 867.833 676.925C855.002 676.308 842.431 677.196 829.632 677.867C818.946 678.426 808.425 677.552 797.753 677.489C788.354 677.435 779.038 677.16 769.685 676.799C767.403 676.709 765.093 676.529 762.838 676.574C761.364 676.606 759.451 677.169 756.484 677.025C754.727 676.705 753.791 677.601 754.836 678.827C755.457 679.561 757.79 679.894 758.725 680.386C759.661 680.877 761.464 681.706 762.144 682.539C762.92 683.499 762.783 684.449 763.541 685.495C765.326 687.95 770.009 689.378 772.711 690.077C778.189 691.491 783.666 692.852 789.144 694.131C791.198 694.618 799.962 695.163 800.204 697.389C799.145 697.718 793.886 698.132 794.388 699.984C794.845 701.66 803.061 701.006 804.463 701.146C808.822 701.565 813.135 702.142 817.458 702.714C820.087 703.065 827.043 704.926 828.961 702.534C826.268 700.317 819.795 701.673 817.85 699.047C819.147 697.465 827.765 697.916 824.364 695.334C823.278 694.51 820.493 694.595 819.147 694.465C815.769 694.131 812.35 694.235 808.977 693.721C806.297 693.32 800.975 691.626 806.348 690.721C812.661 689.667 818.8 691.14 824.98 692.072C828.536 692.618 832.119 693.19 835.693 693.528C838.058 693.739 842.344 693.528 844.261 695.195C847.863 698.294 840.185 698.461 838.09 699.894C833.868 702.791 841.527 702.917 843.713 703.444C849.647 704.872 855.869 704.845 861.657 706.872C864.049 707.715 866.856 709.522 868.198 706.692C866.372 705.174 861.059 703.723 864.834 701.736C868.367 699.885 873.333 700.979 877.099 699.069C874.693 698.425 875.62 696.817 877.24 695.983C881.157 693.924 886.534 694.343 890.77 693.451C895.006 692.559 899.041 691.649 903.313 691.108C906.084 690.766 910.192 690.847 912.493 689.495C909.936 686.972 905.436 689.356 902.61 688.058C905.947 684.233 914.355 686.197 918.728 684.386C921.923 683.035 924.183 681.557 926.291 678.863C921.384 677.705 915.546 678.52 910.562 678.385Z" fill="#564361"/>
<path opacity="0.6" d="M962.535 708.711C980.794 702.994 984.117 696.637 976.106 692.424C970.172 689.307 966.215 688.96 959.409 687.558C953.018 686.243 946.491 685.527 940.146 683.905C937.914 683.337 935.787 681.652 933.354 681.571C930.921 681.49 928.689 683.31 926.379 683.905C920.272 685.472 913.877 685.743 907.477 685.765C900.197 685.792 892.811 687.288 885.526 686.504C876.932 685.601 868.281 685.322 859.645 685.671C849.507 686.121 839.296 687.405 828.989 687.766C821.75 688.018 814.383 689.568 807.28 689.509C803.889 689.473 788.497 687.887 788.109 683.652C779.815 681.652 771.192 683.269 762.68 681.116C758.065 679.949 753.459 678.908 748.703 678.133C745.594 677.629 738.369 678.314 736.429 675.691C742.741 675.241 749.483 675.038 755.81 675.187C774.776 675.61 793.737 674.804 812.749 674.786C836.813 674.786 860.608 678.106 884.563 678.579C893.692 678.76 903.123 680.075 912.138 678.669C920.687 677.318 930.364 678.895 938.448 675.966C943.245 674.227 948.308 666.054 950.024 661.549C952.63 654.728 949.7 654.548 943.487 653.399C937.275 652.25 931.236 650.277 924.973 649.011C918.4 647.659 909.623 648.56 903.588 646.181C904.958 645.321 906.838 644.253 907.318 642.631C904.387 639.311 899.594 638.216 895.39 637.504C890.675 636.711 885.755 635.824 880.985 635.603C880.624 635.603 880.268 635.567 879.916 635.553C877.058 635.524 874.206 635.295 871.381 634.869C870.12 634.665 868.898 634.273 867.756 633.706C867.98 633.837 868.866 633.026 868.838 632.747C868.793 632.188 867.574 631.845 867.149 631.742C865.46 631.291 863.744 630.566 861.978 630.341C860.444 630.138 858.924 630.106 857.386 629.944C853.761 629.566 850.123 629.043 846.531 628.53C844.381 628.246 842.341 627.48 840.2 627.205C839.474 627.11 838.456 627.146 837.881 626.727C838.653 626.223 839.78 626.385 840.62 626.43C841.581 626.442 842.542 626.373 843.491 626.223C848.019 625.723 852.515 624.695 857.075 624.551C863.215 624.358 868.943 625.772 874.959 626.385C881.194 627.02 887.544 627.583 893.82 628.286C907.277 629.791 920.797 630.989 934.354 630.665C969.862 629.872 1010.21 618.181 1043.6 635.035C1061.38 644.005 1072.28 666.811 1081.63 683.188C1086.79 692.199 1093.5 699.957 1100.08 707.968C1102.97 711.495 1259.74 763.55 1260.87 767.997C1259.8 768.024 1235.19 767.997 1235.11 767.997C1230.88 767.997 1224.57 764.158 1220.68 762.735C1211.09 759.247 1201.81 757.454 1191.62 756.427C1183.73 755.625 1176.05 753.445 1168.45 751.07C1162.65 749.268 1157.24 748.651 1151.35 747.574C1142.74 746.002 1134.42 742.848 1125.84 740.96C1118.21 739.28 1110.78 738.41 1103.83 734.585C1104.86 732.576 1106.53 730.611 1107.99 728.908C1095.63 728.107 1083.12 723.664 1071.33 719.402C1059.27 715.046 1047.98 710.428 1035.05 709.135C1027.13 708.306 959.358 709.711 962.535 708.711Z" fill="white"/>
<path opacity="0.6" d="M499.905 620.028C484.554 619.316 469.427 621.65 454.026 620.302C431.536 618.329 409.334 614.265 386.726 613.486C372.849 613.004 358.836 613.603 344.946 613.738C336.529 613.815 328.221 614.509 319.772 614.495C313.345 614.495 304.864 612.053 297.944 612.797H297.903C240.736 610.832 0 616.261 0 616.261V767.217H88.5074C88.5074 767.217 100.375 754.841 125.421 744.722C150.467 734.603 196.35 732.156 221.98 725.872C245.228 720.177 268.147 696.037 317.54 690.698C329.805 689.833 342.084 689.234 354.358 688.572C374.899 687.459 395.485 684.517 416.007 683.616C424.278 683.242 432.225 684.517 440.145 685.972C446.928 687.225 453.688 688.612 460.613 689.239C471.846 690.248 459.362 684.526 455.938 682.751C451.337 680.368 446.809 677.592 442.363 675.204C437.42 672.555 423.484 667.302 424.105 660.089C424.831 651.939 441.359 648.609 447.677 646.731C452.241 645.379 462.283 645.514 465.209 641.459C462.082 640.162 458.321 641.329 455.409 639.572C460.635 638.472 466.314 636.377 471.536 634.72C479.861 632.061 489.438 631.174 498.088 630.084C510.951 628.453 529.688 631.183 543.122 623.497C546.039 621.839 552.521 622.465 557.272 621.695C549.161 618.068 518.994 620.924 499.905 620.028Z" fill="white"/>
</g>
<defs>
<radialGradient id="paint0_radial_2488_1563" cx="0" cy="0" r="1" gradientUnits="userSpaceOnUse" gradientTransform="translate(839.834 700.591) scale(392.637 120.138)">
<stop stop-color="#942F9D"/>
<stop offset="0.18" stop-color="#BD4BFF"/>
<stop offset="0.53" stop-color="#852ED6"/>
<stop offset="0.81" stop-color="#C72EED"/>
<stop offset="1" stop-color="#AC2EF5"/>
</radialGradient>
<linearGradient id="paint1_linear_2488_1563" x1="668" y1="564.751" x2="668" y2="767.987" gradientUnits="userSpaceOnUse">
<stop stop-color="#F9CBFF"/>
<stop offset="0.11" stop-color="#EEBDEB"/>
<stop offset="0.33" stop-color="#BD9AC0"/>
<stop offset="0.63" stop-color="#776174"/>
<stop offset="1" stop-color="#151515"/>
</linearGradient>
<clipPath id="clip0_2488_1563">
<rect width="1336" height="768" fill="white"/>
</clipPath>
</defs>
</svg>
