<svg width="1336" height="768" viewBox="0 0 1336 768" fill="none" xmlns="http://www.w3.org/2000/svg">
<path d="M0 768H1336V141.942C1335.54 142.689 1335.11 143.439 1334.69 144.202C1334.5 144.538 1334.88 145.541 1334.14 144.941C1333.41 144.341 1334.72 145.037 1332.53 142.619C1330.33 140.2 1329.09 135.503 1323.53 131.288C1317.97 127.074 1303.4 123.8 1294.47 127.84C1292.44 128.758 1290.32 129.454 1288.25 129.477C1286.19 129.501 1284.43 128.885 1282.56 128.316C1272.24 125.108 1261.73 133.138 1257.39 137.863C1253.05 142.588 1255.02 145.9 1252.57 148.025C1251.08 149.325 1249.89 144.155 1246.18 144.418C1242.47 144.681 1237.24 145.316 1235.41 149.476C1229.21 141.009 1220.53 137.128 1208.84 138.753C1207.16 138.985 1206.13 140.634 1204.7 140.193C1203.27 139.751 1202.53 137.383 1200.52 136.273C1186.94 128.8 1172.73 130.305 1161.1 139.755C1159.15 141.338 1159.64 143.946 1157.21 144.879C1154.77 145.811 1148.4 144.329 1145.62 146.512C1145.91 140.382 1148.17 136.66 1140.49 131.877C1132.82 127.094 1118.91 130.356 1111.79 134.787C1104.67 139.217 1105.32 144.074 1100.83 148.269C1098.55 150.401 1095.69 146.013 1090.61 148.861C1085.54 151.709 1078.69 157.827 1080.44 164.916C1066.57 158.887 1052.78 157.63 1039.9 165.462C1032.46 169.982 1030.57 176.456 1028.78 183.417C1022.65 181.688 1016.76 181.583 1010.86 183.692C1003.08 174.676 998.453 167.66 982.842 165.996C967.232 164.332 950.229 170.825 940.474 182.284C936.48 186.97 936.635 193.958 934.344 198.018C933.034 200.34 926.342 200.808 924.261 202.197C922.179 203.586 921.736 207.456 919.815 206.593C910.339 202.336 902.469 196.025 888.963 197.166C875.456 198.308 863.857 206.067 858.202 216.941C853.938 216.794 849.721 217.374 846.311 219.174C842.901 220.973 841.746 223.063 840.24 225.907C830.96 220.59 821.621 219.092 811.072 222.37C808.977 223.016 807.539 224.889 805.997 225.16C804.454 225.431 803.619 224.088 802.076 223.748C785 219.986 770.872 223.461 759.858 235.303C759.78 233.441 753.536 232.896 754.38 231.088C756.663 226.325 761.875 221.53 760.67 215.161C757.379 197.685 741.586 188.792 721.041 187.577C711.697 187.024 704.152 192.844 696.684 193.719C692.64 194.191 690.006 188.56 685.437 187.039C671.88 182.527 659.117 180.492 645.268 186.041C644.538 186.327 644.031 187.492 643.511 186.962C638.568 181.974 636.664 178.836 628.84 174.474C621.017 170.113 608.756 166.29 598.103 168.132C596.277 168.442 594.191 170.21 592.899 169.633C591.607 169.057 591.333 165.946 589.402 164.491C579.817 157.285 568.675 155.002 555.67 154.464C532.135 153.485 511.462 155.869 493.19 168.782C491.57 169.943 491.821 172.845 489.744 172.586C481.423 171.561 477.223 168.43 466.419 169.243C455.614 170.055 441.551 175.597 435.658 184.795C435.238 185.461 433.946 184.408 433.024 184.222C417.404 181.324 400.743 190.607 398.991 202.197C397.238 213.787 406.066 215.904 414.538 220.807C410.502 224.599 408.353 228.952 410.384 234.115C401.821 237.485 395.225 241.792 389.697 248.204C377.911 235.616 363.857 227.455 344.334 229.529C340.778 229.916 338.286 233.306 336.319 233.286C334.351 233.267 333.827 231.506 332.092 229.649C330.357 227.791 322.456 226.166 321.799 223.155C320.192 215.749 319.553 208.006 313.126 200.905C306.699 193.804 294.895 187.98 285.474 186.2C276.053 184.42 266.248 187.953 262.281 190.956C258.315 193.958 260.355 194.133 258.584 195.073C257.767 195.506 257.616 195.696 257.598 195.762C257.575 195.735 257.507 195.688 257.306 195.638C256.489 195.433 256.393 193.974 255.877 192.991C251.258 184.443 245.219 177.086 234.218 173.677C232.876 173.263 231.995 173.569 230.795 173.476C229.594 173.383 228.969 173.019 227.746 173.039C226.522 173.058 225.819 173.89 224.514 174.165C223.208 174.44 222.341 174.432 220.634 174.745C218.927 175.059 215.768 176.773 213.846 176.789C211.925 176.804 211.286 179.749 209.19 178.232C207.095 176.715 203.581 171.65 199.495 169.676C188.96 164.568 178.58 160.838 165.968 160.06C163.353 159.901 161.162 159.557 158.058 159.924C154.954 160.292 153.849 160.934 149.522 161.731C145.195 162.529 140.21 164.719 134.267 166.375C128.324 168.031 121.56 174.235 117.337 177.748C115.165 179.559 108.162 176.63 105.757 177.528C103.351 178.425 100.608 178.511 99.4989 178.898C98.3897 179.284 99.0926 178.611 98.9648 178.437C95.4547 173.793 94.1264 169.61 89.3792 165.206C84.632 160.803 77.6573 156.627 70.0345 155.091C55.5739 152.177 39.9401 154.317 31.0848 164.44C22.2295 174.563 23.4072 185.255 26.575 196.261C27.0315 197.882 29.4279 198.807 28.9897 200.026C28.5515 201.245 28.4237 199.937 26.0866 201.493C23.7496 203.048 19.5593 203.041 16.2134 207.263C12.8676 211.484 14.3465 219.684 20.1527 223.643C20.6091 223.949 19.4817 223.333 18.1351 223.388C16.7886 223.442 12.1646 223.74 9.68149 224.247C7.19835 224.754 6.84688 224.8 3.83425 226.6C2.66572 227.296 1.30091 228.879 0 230.701V768Z" fill="#E6A6F2"/>
</svg>
