<svg width="1336" height="768" viewBox="0 0 1336 768" fill="none" xmlns="http://www.w3.org/2000/svg">
<g clip-path="url(#clip0_2491_2169)">
<path d="M1058.03 734.816C1083.9 739.758 1108.61 745.666 1135.18 747.771C1165.43 750.165 1299.97 741.238 1337 743.944V235.568L1325.19 217.112C1320.24 215.399 1310.86 216.645 1305.36 216.645C1288.77 203.256 1268.79 194.478 1254.5 178.709C1244.87 168.079 1233.91 160.841 1220.85 153.178C1207.36 153.178 1193.94 157.705 1180.94 156.095C1160.04 170.921 1137.81 182.387 1116.78 196.947C1110.09 197.498 1105.06 193.144 1098.78 193.461C1092.9 193.76 1084.58 197.045 1080 200.596C1075.76 203.863 1072.16 207.302 1070.6 212.263C1063.97 213.957 1054.12 223.09 1049.47 227.579C1036.41 228.629 1024.76 235.797 1011.89 239.246C999.018 242.695 982.22 238.779 970.442 242.914C970.031 249.205 972.092 259.434 973.574 266.989C961.217 292.918 952.512 316.685 944.551 343.22C940.1 358.046 926.767 371.635 924.446 386.783C923.079 395.697 926.813 406.272 928.227 415.073C929.595 423.473 927.771 430.562 925.737 438.822C922.34 452.514 918.177 465.259 911.351 477.747C907.415 484.952 906.818 493.077 903.143 499.68C893.17 517.619 809.857 607.672 801.399 626.75C769.835 644.88 744.222 656.299 714.811 668.955C699.878 675.381 695.044 685.177 694.173 687.375C707.315 692.923 776.844 686.063 823.81 688.873C872.687 691.799 899.084 704.329 914.096 706.606C929.718 708.939 934.068 719.673 948.527 724.134C962.535 728.465 974.815 725.875 988.654 724.951C1005.63 723.822 1024.31 728.582 1040.81 731.769C1042.11 732.016 1043.41 732.236 1044.71 732.469C1049.21 733.164 1053.64 733.981 1058.03 734.816Z" fill="url(#paint0_linear_2491_2169)"/>
<path opacity="0.1" d="M849.654 628.686C862.043 624.78 871.254 602.74 871.254 602.74C871.254 602.74 856.439 616.642 834.173 629.34C828.144 630.349 822.043 630.848 815.934 630.833C815.934 630.833 859.508 599.258 879.84 567.123C870.944 580.19 837.128 607.64 801.411 626.717C769.847 644.847 744.234 656.267 714.823 668.923C699.89 675.349 695.056 685.144 694.185 687.342L709.771 677.813C709.771 677.813 825.181 637.469 849.654 628.686Z" fill="white"/>
<path opacity="0.1" d="M1166.08 200.554C1169.8 194.922 1170.96 188.071 1174.67 183.022C1180.5 175.088 1193.64 171.402 1202.48 166.264C1211.33 161.125 1216.76 155.796 1224.69 155.413C1223.44 154.653 1222.17 153.897 1220.86 153.136C1207.38 153.136 1193.96 157.663 1180.96 156.053C1160.05 170.879 1137.83 182.345 1116.79 196.905C1110.11 197.456 1105.08 193.102 1098.8 193.419C1092.91 193.718 1084.59 197.003 1080.01 200.554C1075.78 203.821 1072.18 207.26 1070.62 212.221L1059.68 233.375C1055.22 246.75 1048.73 261.044 1047.74 275.086C1046.73 289.348 1047.58 304.099 1041.43 317.553C1029.66 343.295 1019.38 369.456 1007.37 395.142C1003 404.475 1000.29 414.597 997.563 424.616C1000.41 419.95 1004.9 416.31 1008.05 411.774C1013.45 403.957 1018 395.352 1021.89 386.816C1027.46 374.603 1033.34 362.204 1038.57 349.884C1041.99 341.825 1045.82 333.863 1051.34 326.9C1053.62 324.012 1057.03 321.338 1058.26 317.866C1059.38 314.697 1058.91 308.532 1059.17 304.64C1060.21 287.408 1062.95 270.328 1067.34 253.657C1071.44 237.879 1084.25 221.923 1102.45 218.026C1099.16 226.861 1092.58 234.08 1087.96 242.573C1083.22 251.3 1080.56 262.127 1074.57 269.869C1079.75 264.735 1094.38 264.847 1101.17 261.842C1116.52 235.074 1149.48 225.694 1166.08 200.554Z" fill="white"/>
<path opacity="0.1" d="M1049.48 227.542C1036.42 228.592 1024.77 235.76 1011.9 239.209C999.026 242.657 982.228 238.742 970.449 242.877C970.044 249.167 972.1 259.397 973.582 266.952C961.225 292.88 952.525 316.648 944.559 343.183C940.108 358.009 926.775 371.598 924.454 386.746C923.086 395.66 926.821 406.234 928.234 415.036C929.602 423.436 927.778 430.525 925.745 438.785C922.347 452.477 918.184 465.221 911.358 477.71C907.423 484.915 906.826 493.04 903.15 499.643C893.807 516.443 894.108 537.537 887.218 555.83C891.322 549.955 893.037 542.857 895.563 536.328C903.237 516.462 913.538 499.204 924.536 480.794C927.226 476.291 929.019 470.751 932.347 466.631C934.627 463.831 937.459 461.81 939.643 458.898C942.051 455.692 947.513 450.218 948.53 446.415C949.547 442.611 945.844 436.204 944.882 431.971C943.282 424.971 942.169 418.904 939.014 412.222C935.858 405.539 928.667 393.91 929.215 386.802C929.671 380.862 937.796 373.344 941.234 368.331C950.272 355.157 957.171 340.201 964.202 325.972C969.674 314.917 974.973 303.772 980.395 292.796C982.971 287.565 985.342 280.584 989.542 276.407C982.419 268.94 980.878 260.778 980.878 250.143C991.019 250.143 1002.31 253.279 1011.14 249.172C1015.31 247.226 1049.48 227.528 1049.48 227.528V227.542Z" fill="white"/>
<path d="M545.877 605.913C538.882 589.771 536.967 572.611 529.553 556.628C523.789 544.2 514.505 532.678 511.149 519.761C504.309 493.506 488.678 466.99 475.213 442.145C465.952 425.069 470.548 408.843 469.312 390.676C468.77 382.672 461.56 378.164 461.255 370.375C460.949 362.587 463.471 354.915 463.941 347.364C464.438 339.361 465.373 331.446 464.853 323.34C464.369 316.041 460.466 304.267 463.941 297.958C454.858 289.604 444.415 279.664 436.709 270.233C430.636 262.808 426.536 256.573 415.702 252.462C421.68 244.37 429.336 239.507 421.457 231.513C411.653 221.573 404.485 207.522 392.31 199.131C382.885 192.635 354.965 180.278 343.278 187.534C331.217 177.17 320.829 163.911 304.56 157.378C290.908 151.885 277.292 150.644 266.052 143C259.162 145.231 251.045 147.2 245.455 150.467C244.42 155.969 239.983 161.041 239.185 166.711C238.273 166.609 237.106 166.534 238.342 167.323C238.284 169.289 238.072 171.248 237.708 173.18C236.492 174.962 235.204 176.694 233.846 178.374C230.325 182.76 226.463 186.876 222.683 190.997C218.775 195.258 213.048 204.936 208.242 207.615C198.972 212.776 184.421 204.722 174.658 209.323C169.501 211.754 165.899 218.423 161.686 222.674C151.558 232.899 134.623 237.44 121.463 243.675C114.683 246.881 109.607 250.88 102.526 252.854C96.6894 254.483 93.306 256.895 89.3024 260.787C85.8962 264.096 81.464 270.009 77.3464 269.103C73.808 268.329 67.2007 259.593 66.494 256.405C58.6966 254.072 50.2882 256.55 42.4498 257.745C29.0073 259.789 14.5799 257.903 1.00977 257.684V721.348C7.1291 721.521 13.2758 721.596 19.4727 721.47C54.2234 720.756 89.047 718.417 123.67 716.257C180.668 712.691 236.933 700.502 294.045 700.717C349.301 700.922 405.556 699.662 460.981 698.01C486.932 697.235 519.215 685.816 519.494 685.793C534.997 682.027 556.146 678.732 587.7 673.09C572.598 648.375 557.176 631.981 545.877 605.913Z" fill="url(#paint1_linear_2491_2169)"/>
<path opacity="0.1" d="M587.691 673.048C572.598 648.385 557.176 631.981 545.877 605.922C540.405 593.28 538.025 580.008 533.693 567.189L536.857 602.306C533.465 603.552 486.015 574.166 477.123 567.147C468.231 560.128 449.162 523.849 449.162 523.849C449.162 523.849 450.854 554.649 464.666 567.147C478.477 579.644 500.424 591.082 508.477 602.306C516.53 613.529 582.479 673.982 582.479 673.982L587.691 673.048Z" fill="white"/>
<path opacity="0.1" d="M511.148 519.78C504.309 493.525 488.677 467.009 475.212 442.163C465.951 425.088 470.547 408.862 469.312 390.694C468.769 382.691 461.56 378.183 461.254 370.394C460.949 362.605 463.47 354.933 463.94 347.383C464.437 339.379 465.372 331.465 464.852 323.358C464.369 316.06 460.466 304.286 463.94 297.976C454.857 289.623 444.415 279.683 436.709 270.251C430.635 262.827 426.536 256.592 415.701 252.481C421.679 244.389 429.34 239.531 421.456 231.532C411.652 221.592 404.484 207.54 392.309 199.15C382.884 192.654 354.964 180.296 343.277 187.553C331.216 177.17 320.829 163.911 304.559 157.378C290.907 151.885 277.291 150.644 266.051 143C265.463 143.191 264.866 143.378 264.268 143.565C265.905 147.802 267.46 153.29 270.552 155.161C276.735 158.895 288.914 160.407 296.493 163.473C309.26 168.639 318.271 185.579 319.908 196.364C326.374 195.976 332.785 193.391 339.474 192.374C350.418 190.703 353.409 192.374 360.226 198.636C375.451 212.636 393.007 228.527 402.314 245.075C404.972 244.529 408.15 244.837 410.977 244.608C410.708 256.209 392.574 260.834 389.696 270.62C387.872 276.78 395.921 278.554 400.745 283.416C407.808 290.528 410.658 301.616 419.171 307.515C438.861 298.317 435.131 328.898 436.161 337.359C437.073 344.755 443.065 351.359 444.191 358.209C445.76 367.72 433.152 372.802 430.32 381.221C429.148 384.712 430.658 385.85 431.779 389.453C430.631 390.86 429.637 392.392 428.815 394.022C406.837 376.657 402.195 351.933 386.003 331.819C377.672 321.464 361.216 302.624 361.785 290.169C362.059 284.303 367.859 275.133 370.814 269.635C366.943 269.635 358.165 263.527 357.212 260.685C356.026 257.166 360.094 253.423 361.89 249.975C352.47 250.539 343.496 245.168 335.206 242.368C318.284 236.656 304.482 228.429 288.49 221.578C290.077 217.784 288.946 213.92 288.399 210.046C276.247 208.964 262.722 205.482 250.662 203.424C244.205 202.323 240.32 201.534 240.753 195.818C237.78 199.145 234.424 208.054 240.976 216.776C238.017 218.946 284.751 237.589 290.921 240.31C295.367 242.275 299.79 244.977 304.308 246.722C309.256 248.649 311.746 247.907 317.076 248.589C324.171 249.489 321.458 249.125 325.562 252.667C328.526 255.234 333.277 259.289 335.019 262.407C339.634 270.671 328.179 269.589 326.013 277.009C325.179 279.87 327.956 284.648 328.717 287.644C330.61 295.139 331.066 302.578 332.187 310.147C335.507 332.403 347.768 354.457 355.58 376.027C361.12 391.324 364.056 408.32 370.107 423.048C374.722 434.29 386.217 433.539 396.614 440.983C414.137 453.517 423.024 473.281 438.268 487.407C432.381 472.599 426.668 454.861 419.153 439.41C415.346 431.579 408.396 423.898 406.577 415.572C405.246 409.506 406.303 402.837 405.008 396.845C408.492 401.54 414.488 405.824 418.592 410.733C426.344 420.029 436.713 431.542 448.464 439.359C448.984 439.933 449.504 440.516 450.033 441.118C461.359 453.97 471.578 465.59 480.306 479.483C496.347 505.019 508.121 531.75 528.809 555.135C523.036 543.262 514.381 532.151 511.148 519.78Z" fill="white"/>
<path d="M1 324.581C17.9262 323.68 107.906 336.308 119.183 339.468C130.459 342.627 166.646 335.86 166.646 335.86C173.796 335.86 179.87 338.362 186.842 340.947C194.525 343.803 199.609 344.68 208 343.98C214.962 343.397 222.714 342.09 229.513 344.078C232.737 345.012 236.111 346.879 238.988 347.112C243.402 347.476 248.432 346.776 252.759 346.132C258.901 345.226 262.955 342.865 267.807 346.664C272.768 350.579 276.612 355.423 280.976 359.698C284.51 355.965 285.618 356.991 289.881 359.231C297.063 362.965 304.623 364.967 312.088 368.098C323.797 372.989 336.711 374.398 348.995 378.285C351.307 387.343 350.523 399.001 350.979 408.507C351.252 414.191 350.577 420.547 352.871 425.536C356.172 432.704 361.672 439.377 365.716 446.111C371.501 455.603 376.783 465.406 381.539 475.479C385.529 484.093 388.57 492.918 393.185 501.206C397.535 509.023 403.216 516.387 407.74 524.208C412.557 532.63 418.058 540.623 424.183 548.102C426.85 551.331 431.98 553.86 434.073 557.174C435.696 559.754 435.286 563.507 435.441 566.507C435.678 570.605 435.897 573.246 437.684 576.797C439.782 580.941 439.636 582.01 439.636 586.681C439.636 589.402 439.782 595.548 441.059 597.993C442.988 601.675 449.577 605.376 452.828 607.896C452.828 618.163 449.636 631.314 454.533 640.908C458.076 647.876 462.221 654.736 464.971 662.03C468.714 671.979 477.237 676.175 479.612 687.057C472.048 687.911 462.896 684.724 455.295 684.355C447.169 683.963 439.791 685.709 431.684 685.704C416.413 685.704 401.411 683.609 386.217 684.355C376.915 684.822 368.457 681.901 359.063 682.325C346.715 682.876 334.563 684.551 322.283 685.69C305.868 687.211 290.957 689.297 274.46 687.734C252.85 685.69 231.647 688.154 210.038 687.211C196.386 686.614 182.847 687.837 169.163 687.127C154.221 686.339 139.479 684.295 124.527 683.716C100.911 682.783 73.6842 676.319 50.3468 680.291H1V324.581Z" fill="#66196B"/>
<path opacity="0.5" d="M454.706 684.299C452.221 683.366 447.096 681.266 451.515 679.815C449.786 678.065 444.839 676.786 442.317 675.829C438.314 674.294 433.544 672.814 430.918 669.426C438.46 666.748 446.699 677.761 454.661 676.217C451.67 672.88 447.944 669.361 445.372 665.679C443.818 663.444 443.298 660.896 441.228 658.987C439.157 657.078 436.668 656.742 434.087 655.529C430.594 653.896 427.493 651.693 424.379 649.504C421.018 647.143 417.612 645.682 413.969 643.858C411.215 642.525 408.639 640.837 406.304 638.836C401.119 634.52 392.902 633.997 387.485 629.634C384.977 627.613 383.796 624.892 381.028 623.1C380.048 622.479 378.42 622.106 377.782 621.07C376.701 619.315 377.69 619.67 377.823 617.878C377.973 615.862 378.561 616.683 377.572 614.994C376.409 613.025 373.509 611.046 372.004 609.198C364.836 600.406 363.591 589.215 357.29 580.031C356.081 578.263 354.098 576.013 356.501 575.075C359.962 573.727 369.41 580.059 372.091 581.609C377.59 584.763 382.848 587.825 387.863 591.665C391.776 594.657 395.665 598.525 400.011 600.924C403.568 602.884 406.44 603.626 409.213 606.72C410.371 602.147 404.17 596.15 401.142 593.042C396.395 588.161 391.644 582.309 390.453 575.528C389.801 571.832 390.832 567.991 390.098 564.328C388.342 555.657 378.543 550.547 374.047 543.384C372.223 540.448 372.98 540.322 374.503 537.317C376.614 533.145 376.272 529.594 375.99 524.969C375.351 514.557 371.794 506.769 367.298 497.501C365.807 494.43 363.108 485.563 360.067 484.275C360.144 482.843 359.205 480.887 359.925 479.609C360.887 477.887 363.651 478.125 365.014 477.21C363.915 475.208 358.553 474.951 356.606 475.913C355.151 476.627 353.929 478.587 352.629 479.814C347.445 472.903 344.75 464.372 341.134 456.583C340.117 454.404 339.31 452.439 337.459 450.806C334.969 448.603 331.928 446.886 329.433 444.632C331.367 440.562 330.496 437.748 326.451 435.868C324.518 434.972 320.478 433.959 319.338 432.092C318.462 430.664 319.288 427.776 319.365 426.212C319.666 420.122 319.671 413.897 319.675 407.83C319.675 405.823 320.008 403.896 318.585 402.459C315.973 399.813 310.546 399.411 307.51 396.957C306.287 395.967 304.185 392.939 306.424 391.394C307.546 390.619 310.806 391.445 312.133 391.483C314.564 391.557 318.389 392.416 320.487 391.422C317.778 385.094 305.54 382.201 299.694 379.228C293.196 375.924 288.709 371.211 280.825 371.631C279.079 371.724 272.791 374.169 271.405 373.469C269.945 372.732 270.907 370.165 270.73 368.929C269.439 359.983 250.803 359.315 243.858 359.306C238.915 359.306 230.808 362.573 226.002 363.543C223.188 364.117 213.152 366.763 211.246 364.421C212.395 362.867 215.304 361.593 215.3 359.647C210.197 360.874 204.379 359.325 200.011 357.043C195.907 354.905 192.715 354.541 188.037 353.519C183.933 352.614 177.946 350.957 173.75 352.152C171.334 352.838 170.326 354.737 168.607 356.301C165.927 358.707 162.614 360.254 159.081 360.748C151.845 361.849 144.677 360.179 137.5 359.908C133.76 359.768 130.286 360.053 126.556 359.684C122.675 359.297 118.622 356.548 114.769 356.725C112.644 356.823 109.516 358.405 107.081 358.755C102.398 359.423 97.6737 359.819 92.9725 360.771C87.2316 361.933 75.4717 365.233 70.1959 362.134C67.4235 360.51 66.4295 356.73 63.2649 355.134C59.877 353.416 55.0572 353.169 51.3044 352.996C35.6048 352.282 19.4948 352.063 3.84992 352.096C2.88778 352.096 1.93933 352.133 1 352.175V680.244H50.3423C73.6797 676.273 100.907 682.741 124.522 683.669C139.474 684.248 154.216 686.292 169.159 687.081C182.838 687.79 196.381 686.567 210.033 687.165C231.642 688.098 252.846 685.643 274.455 687.687C290.953 689.251 305.873 687.165 322.279 685.643C334.559 684.505 346.711 682.843 359.059 682.279C368.452 681.854 376.911 684.771 386.213 684.309C401.406 683.562 416.408 685.648 431.679 685.657C439.609 685.671 446.822 684.015 454.706 684.299Z" fill="#151515"/>
<path opacity="0.3" d="M332.53 470.588C334.413 472.655 337.199 474.578 338.795 476.744C339.707 477.962 339.707 479.413 340.354 480.682C342.552 485.004 347.308 487.626 350.386 491.355C355.438 497.482 360.176 504.109 364.955 510.46C367.691 514.114 369.287 515.832 368.881 520.204C368.717 521.959 368.539 523.243 369.264 525.007C369.875 526.5 371.389 527.391 372 528.614C372.985 530.574 371.927 536.547 371.02 538.843C371.576 539.31 372.264 539.94 373.003 540.57C373.103 539.739 373.696 538.951 374.512 537.336C376.624 533.164 376.282 529.613 375.999 524.988C375.361 514.576 371.804 506.788 367.308 497.52C365.817 494.449 363.117 485.582 360.076 484.294C360.153 482.862 359.214 480.906 359.934 479.628C360.897 477.906 363.66 478.144 365.023 477.229C363.924 475.227 358.562 474.97 356.615 475.932C355.16 476.646 353.938 478.606 352.639 479.833C347.454 472.921 344.759 464.391 341.143 456.602C340.126 454.423 339.319 452.458 337.468 450.825C334.978 448.622 331.937 446.905 329.443 444.651C331.376 440.581 330.505 437.767 326.461 435.887C324.527 434.991 320.487 433.978 319.347 432.111C318.472 430.683 319.297 427.795 319.375 426.231C319.675 420.141 319.68 413.916 319.685 407.849C319.685 405.842 320.017 403.915 318.595 402.478C315.982 399.832 310.556 399.43 307.519 396.976C306.297 395.986 304.195 392.958 306.434 391.413C307.555 390.638 310.816 391.464 312.143 391.502C314.573 391.576 318.399 392.435 320.496 391.441C317.788 385.113 305.549 382.22 299.703 379.247C293.205 375.943 288.719 371.23 280.835 371.65C279.088 371.743 272.8 374.188 271.414 373.488C269.955 372.751 270.917 370.184 270.739 368.948C269.449 360.001 250.812 359.334 243.868 359.325C238.925 359.325 230.817 362.591 226.011 363.562C223.198 364.136 213.162 366.782 211.256 364.439C212.405 362.885 215.314 361.611 215.309 359.665C210.207 360.893 204.388 359.343 200.02 357.061C195.916 354.924 192.724 354.56 188.046 353.538C183.942 352.633 177.955 350.976 173.76 352.171C171.343 352.857 170.335 354.756 168.616 356.319C165.936 358.726 162.623 360.273 159.091 360.767L158.676 360.823C163.993 361.859 168.885 362.115 174.549 362.4C180.212 362.685 185.588 364.178 189.975 367.715C194.908 371.701 196.463 378.076 202.209 381.296C204.734 382.714 207.334 383.988 209.997 385.113C209.085 382.038 206.905 379.298 205.729 376.13C204.908 373.936 204.083 371.673 203.071 369.456C201.894 366.866 202.004 364.514 201.301 362.055C203.262 362.302 205.141 361.434 206.431 362.909C207.863 364.537 206.559 365.28 208.593 366.544C215.318 370.716 226.03 366.544 233.54 366.819C237.589 366.973 240.06 367.286 242.545 370.492C245.163 373.876 247.899 376.559 250.666 379.76C247.534 381.702 238.46 379.424 237.899 382.752C240.352 386.989 247.616 389.238 251.496 392.202C254.032 394.138 256.918 395.468 259.531 397.186C260.985 398.152 262.458 399.197 263.831 400.27C268.656 404.006 273.102 408.227 277.105 412.87C284.204 421.084 291.564 427.636 300.013 434.482C302.503 436.503 308.093 438.929 308.7 441.986C309.133 444.179 307.738 443.951 309.056 446.251C314.628 455.944 325.138 462.491 332.53 470.588Z" fill="#151515"/>
<path opacity="0.1" d="M363.614 480.78C367.407 488.284 371.52 495.937 375.287 503.568C378.073 509.214 381.041 514.688 381.794 521.002C382.537 527.214 382.017 533.402 383.267 539.571C384.179 543.995 386.039 547.234 388.168 550.594C388.593 550.944 389.012 551.294 389.413 551.634C393.9 555.456 398.442 558.541 402.368 562.835C409.285 570.446 417.393 576.835 424.31 584.535C426.59 587.083 433.352 591.637 433.667 594.717C427.899 595.501 422.098 589.813 417.739 586.952C412.997 583.839 406.96 577.451 401.506 576.163C401.091 577.185 403.813 583.139 404.579 584.46C408.291 590.839 415.705 596.159 420.79 601.675C425.35 606.632 429.599 612.628 433.471 618.065C434.798 619.932 437.675 622.652 437.41 625.065C437.214 626.834 434.26 628.999 434.219 630.861C434.191 634.31 441.71 638.267 443.958 640.838C446.206 643.41 447.816 646.802 449.667 649.789C452.827 654.88 455.244 659.757 457.875 665.054C460.082 669.478 464.865 672.745 468.139 676.571C470.875 679.745 474.25 683.422 476.402 687.146C477.458 687.168 478.515 687.121 479.566 687.006C477.191 676.123 468.668 671.928 464.925 661.979C462.189 654.684 458.03 647.824 454.487 640.857C449.604 631.262 452.782 618.102 452.782 607.845C449.531 605.325 442.942 601.624 441.013 597.942C439.736 595.501 439.59 589.351 439.59 586.63C439.59 581.963 439.736 580.89 437.638 576.746C435.846 573.195 435.632 570.553 435.395 566.456C435.222 563.469 435.632 559.717 434.027 557.123C431.934 553.809 426.804 551.28 424.137 548.05C418.028 540.577 412.543 532.592 407.739 524.18C403.18 516.364 397.512 509 393.148 501.183C388.533 492.895 385.492 484.07 381.502 475.455C376.746 465.383 371.464 455.58 365.679 446.088C361.635 439.354 356.135 432.68 352.834 425.512C350.554 420.524 351.215 414.168 350.942 408.484C350.486 398.978 351.27 387.32 348.958 378.262C336.647 374.375 323.76 372.965 312.051 368.075C304.586 364.953 297.026 362.941 289.844 359.208C285.581 356.982 284.473 355.941 280.939 359.675C276.611 355.423 272.767 350.579 267.797 346.664C262.955 342.86 258.901 345.226 252.75 346.132C248.422 346.776 243.393 347.476 238.979 347.112C236.102 346.874 232.727 345.026 229.499 344.078C222.705 342.09 214.953 343.397 207.99 343.98C199.582 344.685 194.516 343.803 186.832 340.947C180.417 338.558 174.735 336.252 168.283 335.907C175.67 339.376 183.332 342.194 191.187 344.33C201.825 347.233 212.413 348.405 222.363 351.606C225.938 352.754 230.201 355.895 233.644 355.75C235.636 355.666 237.542 354.229 239.471 354.126C241.993 353.986 244.998 354.915 247.638 355.213C253.169 355.834 263.794 356.249 268.613 358.844C273.374 361.392 274.031 365.48 279.867 366.535C294.276 369.134 306.314 379.485 319.647 385.397C323.209 386.975 341.991 394.315 335.68 400.182C333.172 397.885 332.319 398.889 329.428 398.581C323.779 397.979 317.367 397.47 312.844 394.096C312.233 395.308 312.062 396.702 312.361 398.03C314.787 398.534 319.155 399.029 321.12 400.364C325.443 403.252 322.032 404.041 322.219 408.619C322.388 412.912 324.9 416.632 324.987 421.154C325.033 423.529 323.213 428.984 324.718 431.075C326.328 433.31 330.527 432.475 332.014 434.426C334.234 437.286 333.838 441.892 336.441 445.252C341.032 451.085 344.84 457.52 347.763 464.386C349.245 467.783 350.955 475.983 354.439 477.481C355.907 474.452 357.987 473.579 360.727 473.425C363.258 473.29 370.508 474.984 372.286 476.571C370.846 479.557 366.272 478.988 363.614 480.78Z" fill="white"/>
<path d="M300.893 322.01C300.843 322.078 300.8 322.152 300.765 322.229C300.765 322.336 300.765 322.523 300.765 322.878C300.765 323.232 300.715 323.47 300.624 323.377C300.624 323.526 300.564 323.671 300.56 323.844C300.56 324.152 300.605 324.488 300.56 324.777C300.56 324.889 300.514 324.996 300.501 325.108C300.491 325.267 300.462 325.424 300.414 325.575C300.309 325.783 300.192 325.984 300.063 326.177C300.003 326.289 299.931 326.415 299.876 326.522C299.917 326.713 299.984 326.897 300.076 327.068C300.115 327.145 300.161 327.217 300.213 327.283C300.141 327.434 300.078 327.59 300.026 327.75C299.967 327.885 299.931 328.031 299.921 328.179C299.921 328.23 299.921 328.212 299.962 328.249C299.983 328.263 300.006 328.273 300.031 328.277C300.003 328.356 299.976 328.426 299.953 328.496C299.793 328.987 299.601 329.465 299.379 329.929C299.151 330.283 298.943 330.649 298.754 331.026C298.704 331.161 298.563 331.548 298.631 331.698C298.69 331.628 298.736 331.478 298.8 331.418C298.864 331.357 298.832 331.418 298.864 331.492C298.895 331.567 298.864 331.581 298.955 331.53C299.046 331.478 299.183 331.306 299.306 331.208C299.198 331.418 299.079 331.622 298.95 331.819C298.9 331.894 298.85 331.964 298.804 332.048C298.759 332.132 298.69 332.207 298.645 332.305C298.599 332.403 298.567 332.486 298.526 332.57C298.492 332.618 298.463 332.67 298.439 332.724C298.503 332.944 298.658 332.883 298.772 332.823C298.977 332.745 299.167 332.631 299.333 332.486C299.333 332.598 299.301 332.715 299.274 332.823C299.235 332.961 299.173 333.092 299.092 333.21C299.006 333.336 298.908 333.454 298.8 333.56C298.704 333.663 298.608 333.63 298.508 333.677C298.515 333.795 298.545 333.91 298.595 334.017C298.635 334.115 298.694 334.204 298.768 334.279C298.731 334.391 298.699 334.512 298.663 334.605C298.585 334.806 298.476 334.955 298.385 335.147C298.296 335.316 298.199 335.482 298.093 335.641C297.86 336.003 297.696 336.407 297.61 336.831V336.981C297.644 337.004 297.683 337.018 297.724 337.023L297.482 337.256C297.191 337.445 296.938 337.691 296.739 337.979C296.652 338.147 297.249 338.189 297.304 338.161C297.561 338.041 297.762 337.823 297.865 337.555C297.961 337.681 297.787 337.816 297.828 337.965C297.869 338.115 297.988 338.017 298.075 337.965C297.876 338.326 297.642 338.665 297.377 338.978C296.977 339.363 296.63 339.803 296.346 340.285C296.251 340.471 296 341.003 296.109 341.218C296.219 341.12 296.296 340.919 296.41 340.835C296.524 340.751 296.465 340.835 296.52 340.947C296.574 341.059 296.52 341.069 296.666 341.003C296.871 340.901 297.072 340.709 297.277 340.579C297.085 340.868 296.875 341.144 296.647 341.405C296.153 341.924 295.771 342.544 295.526 343.225C295.421 343.551 295.184 344.345 295.307 344.662C295.465 344.414 295.65 344.185 295.859 343.981C295.959 343.906 296.073 343.897 296.15 343.757C296.213 343.597 296.263 343.434 296.301 343.267C296.429 342.889 296.451 342.968 296.47 343.131C296.406 343.29 296.346 343.439 296.287 343.598C296.169 343.887 295.722 345.077 295.863 345.343C295.945 345.241 296.059 345.129 296.164 345.161C296.164 345.376 295.932 345.665 295.831 345.81C295.33 346.552 294.719 347.135 294.436 348.143C294.169 348.497 293.967 348.897 293.839 349.324C294.007 349.557 294.295 349.455 294.482 349.609L294.368 349.725C294.162 350.024 293.975 350.336 293.807 350.659C293.67 350.869 293.497 350.906 293.351 351.125C293.377 351.457 293.454 351.783 293.579 352.091C293.66 352.269 293.757 352.437 293.87 352.595L293.752 352.745C293.563 352.993 293.409 353.268 293.296 353.561C293.227 353.698 293.173 353.842 293.136 353.991C293.241 354.033 293.337 354.313 293.428 354.457C293.469 354.537 293.515 354.621 293.565 354.705H293.524C293.419 354.694 293.317 354.664 293.223 354.616C293.122 354.608 293.021 354.624 292.928 354.663C292.835 354.702 292.751 354.762 292.685 354.84C292.45 355.066 292.27 355.346 292.161 355.657C292.087 355.857 292.049 356.068 292.047 356.282C292.083 356.539 292.22 356.394 292.316 356.45C292.167 357.024 291.938 357.572 291.636 358.079C291.506 358.323 291.34 358.544 291.144 358.737L291.057 358.821C290.839 358.872 290.638 358.979 290.473 359.133C290.501 359.507 290.765 359.665 290.879 359.913C290.824 360.085 290.715 360.141 290.656 360.286C290.596 360.431 290.656 360.501 290.738 360.645C290.82 360.79 290.884 360.855 290.957 360.949C290.929 360.916 290.546 362.517 290.501 362.671C290.363 363.176 290.134 363.651 289.826 364.071C289.639 364.304 289.37 364.243 289.201 364.477C289.418 365.268 289.875 365.969 290.505 366.479C291.194 366.441 291.91 366.119 292.544 366.413C293.775 366.987 294.787 368.462 296.119 368.807C297.231 369.005 298.375 368.754 299.31 368.107C299.57 367.935 299.835 367.487 300.09 367.37C300.345 367.253 300.678 367.435 300.902 367.463C301.163 367.516 301.434 367.486 301.678 367.378C301.922 367.27 302.129 367.088 302.27 366.857C302.47 366.502 302.634 366.126 302.758 365.737C302.907 365.342 303.152 364.992 303.469 364.719C303.469 364.565 303.469 364.407 303.442 364.253C303.414 364.099 303.391 363.865 303.36 363.674C303.556 363.623 303.816 363.795 304.007 363.609C303.688 362.783 303.309 361.873 302.935 361.098C302.935 361.023 302.894 360.944 302.876 360.855C302.822 360.683 302.571 360.277 302.635 360.043C302.671 359.894 302.767 360.001 302.707 359.782C302.647 359.608 302.569 359.441 302.475 359.283C302.525 359.203 302.603 359.199 302.657 359.11C302.712 359.023 302.755 358.929 302.785 358.83C302.648 358.648 302.53 358.41 302.407 358.214C302.252 358.003 302.128 357.77 302.037 357.523C301.967 357.326 301.915 357.123 301.882 356.917C301.855 356.744 301.832 356.571 301.796 356.403C301.77 356.28 301.736 356.158 301.695 356.039C301.763 355.948 301.811 355.843 301.837 355.731C301.868 355.638 301.923 355.381 301.987 355.372C301.916 354.896 301.761 354.438 301.531 354.019C301.442 353.837 301.376 353.644 301.335 353.445C301.402 353.389 301.458 353.321 301.499 353.244C301.546 353.14 301.58 353.03 301.599 352.917C301.65 352.675 301.508 352.563 301.463 352.348C301.609 352.348 301.75 352.563 301.891 352.469C301.887 352.047 301.767 351.635 301.545 351.279C301.467 351.153 301.381 351.06 301.308 350.925C301.267 350.855 301.242 350.777 301.233 350.697C301.224 350.616 301.233 350.535 301.257 350.458C301.282 350.567 301.338 350.666 301.417 350.743C301.466 350.53 301.485 350.312 301.472 350.094C301.726 350.156 301.956 350.294 302.133 350.491C302.288 350.089 301.786 349.305 301.709 348.909C301.677 348.755 301.677 348.442 301.654 348.19C301.749 348.352 301.882 348.487 302.042 348.582C302.005 348.05 301.867 347.53 301.636 347.051C301.759 346.851 301.481 346.071 301.431 345.866C301.414 345.785 301.393 345.706 301.367 345.628L301.34 345.535C301.468 345.648 301.627 345.72 301.796 345.74C302.078 345.74 301.837 345.273 301.759 345.049C301.476 344.209 300.897 343.145 301.157 342.072C301.299 342.109 301.362 342.455 301.431 342.599C301.558 342.837 301.773 343.099 301.996 343.113C301.965 342.941 301.924 342.771 301.873 342.604C301.823 342.352 301.782 342.137 301.732 341.857C301.592 341.349 301.494 340.829 301.44 340.303C301.44 340.084 301.44 339.897 301.44 339.692C301.682 339.925 301.618 339.323 301.618 339.034C301.618 338.745 301.618 338.339 301.563 338.003C301.605 338.047 301.651 338.087 301.7 338.124C301.855 338.236 302.046 338.259 302.156 338.479C302.185 338.176 302.14 337.871 302.024 337.592C302.071 337.57 302.114 337.538 302.149 337.498C302.183 337.457 302.209 337.41 302.224 337.359C302.24 337.302 302.242 337.243 302.229 337.186C302.216 337.128 302.189 337.075 302.151 337.032C302.124 336.526 302.011 336.029 301.818 335.562C301.745 335.338 301.663 335.095 301.604 334.862C301.576 334.753 301.557 334.642 301.545 334.531L301.631 334.61C301.75 334.759 301.887 334.904 302.024 334.909C302.083 334.909 302.101 334.862 302.096 334.797C302.123 334.773 302.145 334.745 302.16 334.713C302.107 334.54 302.035 334.374 301.946 334.218C301.685 333.585 301.574 332.897 301.622 332.211C301.709 332.211 301.75 332.482 301.791 332.584C301.832 332.687 302.001 332.944 302.128 332.953C302.128 332.953 302.096 332.766 302.092 332.748C302.075 332.685 302.066 332.621 302.065 332.556C302.07 332.4 302.086 332.244 302.11 332.09C302.148 331.889 302.2 331.691 302.265 331.497C302.279 331.439 302.279 331.378 302.265 331.32C302.248 331.269 302.225 331.22 302.197 331.175C302.141 331.056 302.093 330.933 302.055 330.806C302.028 330.727 302.005 330.648 301.978 330.568C301.982 330.177 301.916 329.788 301.782 329.42C301.673 329.15 301.542 328.889 301.39 328.641C301.32 328.518 301.275 328.381 301.257 328.24C301.257 327.992 301.371 328.286 301.39 328.137C301.408 327.988 301.312 327.876 301.299 327.792C301.285 327.708 301.299 327.656 301.326 327.708C301.364 327.786 301.398 327.867 301.426 327.95C301.447 327.994 301.473 328.035 301.504 328.072C301.586 328.165 301.686 328.072 301.75 327.936C301.777 327.894 301.914 327.395 301.868 327.386C301.691 327.386 301.568 327.213 301.44 326.989C301.525 326.974 301.601 326.928 301.654 326.858C301.654 326.728 301.618 326.588 301.59 326.462C301.563 326.336 301.49 326.144 301.44 325.995C301.365 325.705 301.305 325.41 301.262 325.113C301.302 325.178 301.354 325.234 301.417 325.276C301.401 325.024 301.366 324.772 301.312 324.525C301.281 324.402 301.257 324.278 301.239 324.152C301.23 324.023 301.23 323.893 301.239 323.764C301.239 323.638 301.189 323.62 301.139 323.517C301.06 323.2 301.027 322.873 301.043 322.546C301.042 322.412 301.02 322.278 300.979 322.15C300.938 321.968 300.934 321.972 300.893 322.01Z" fill="#1E2727"/>
<path d="M194.033 317.95C193.919 318.319 193.828 318.617 193.709 319.014C193.591 319.411 193.486 319.653 193.363 319.98C193.232 320.221 193.135 320.481 193.075 320.75L193.162 320.699C192.941 321.299 192.633 321.862 192.25 322.369C192.07 322.555 191.917 322.765 191.794 322.995C191.849 323.331 192.25 322.957 192.355 322.925C192.328 323 192.328 323.083 192.355 323.158C192.424 323.105 192.487 323.044 192.542 322.976V323.013C192.402 323.722 192.078 324.378 191.603 324.913C191.507 325.011 191.292 325.165 191.32 325.379C191.384 325.846 191.68 325.65 191.899 325.473L191.853 325.608C191.707 326.067 191.59 326.534 191.502 327.008C191.452 327.265 191.302 327.792 191.53 327.629C191.489 327.806 191.457 327.969 191.416 328.165C191.295 328.619 191.143 329.064 190.96 329.495C190.882 329.724 190.814 329.92 190.736 330.139C190.67 330.279 190.612 330.422 190.563 330.569C190.736 330.592 190.937 330.401 191.069 330.209C191.147 330.097 191.247 329.799 191.361 329.794C191.393 330.704 190.905 331.483 190.558 332.127C190.414 332.293 190.288 332.474 190.184 332.669C190.196 332.711 190.218 332.749 190.248 332.781C190.248 332.86 190.248 332.925 190.326 332.939C190.538 332.93 190.739 332.839 190.887 332.683L191.019 332.613C190.98 332.742 190.933 332.868 190.878 332.991C190.749 333.259 190.606 333.519 190.449 333.77C190.103 334.27 189.848 334.83 189.697 335.422C189.64 335.461 189.595 335.515 189.566 335.579C189.537 335.642 189.526 335.712 189.532 335.781C189.542 335.849 189.566 335.913 189.601 335.971C189.636 336.029 189.683 336.079 189.738 336.117C189.522 336.407 189.385 336.75 189.341 337.111C189.541 336.892 189.797 336.92 190.02 336.836C190.092 336.808 190.162 336.775 190.23 336.738C190.102 337.121 189.997 337.513 189.902 337.928C189.829 338.264 189.569 338.936 189.952 338.745C189.883 338.983 189.829 339.211 189.751 339.449C189.542 340.035 189.265 340.593 188.926 341.111L188.506 341.899C188.39 342.063 188.282 342.233 188.183 342.408C188.346 342.421 188.51 342.396 188.663 342.337C188.816 342.277 188.954 342.183 189.067 342.063C189.204 341.932 189.391 341.559 189.583 341.596C189.561 342.233 189.331 342.844 188.93 343.332C188.579 343.791 188.196 344.225 187.786 344.629C187.604 344.835 187.12 345.227 187.476 345.348C187.911 345.419 188.356 345.326 188.73 345.087C188.632 345.273 188.518 345.45 188.388 345.614C188.117 345.899 187.819 346.155 187.499 346.379C186.87 346.83 186.327 347.394 185.898 348.045V348.078C186.125 348.08 186.349 348.024 186.55 347.915C186.386 348.171 186.245 348.461 186.14 348.596C185.969 348.771 185.781 348.927 185.579 349.063L192.017 351.513C192.372 351.663 192.718 351.834 193.053 352.026L193.641 352.367L194.589 352.932L194.744 353.025C194.758 353.029 194.772 353.029 194.785 353.025C195.011 352.847 195.181 352.605 195.273 352.33C194.671 352.796 194.361 352.437 193.951 352.381C193.749 352.342 193.55 352.284 193.358 352.208L193.294 352.18H193.262L193.18 352.134L192.61 351.826C192.328 351.676 192.131 351.592 191.999 351.536L187.344 349.753L187.531 349.684C187.754 349.595 188.037 349.301 188.228 349.268C188.137 349.534 187.904 349.693 187.772 349.903C188.023 349.973 188.291 349.941 188.52 349.814C188.704 349.725 188.905 349.678 189.108 349.678C189.312 349.678 189.513 349.725 189.697 349.814C190.522 350.178 191.165 350.911 191.899 351.462L188.411 350.113C188.163 349.758 187.809 349.496 187.403 349.366C187.403 349.469 187.403 349.586 187.403 349.712L192.939 351.844C192.886 351.68 192.886 351.504 192.939 351.34C193.358 351.34 193.618 351.858 193.892 352.204L186.454 349.334L186.432 349.235C186.318 348.694 186.158 347.756 185.72 347.901C185.62 348.092 185.506 348.316 185.392 348.587L185.287 348.872L195.068 352.647C195.41 351.037 194.991 349.847 194.694 348.559C194.587 348.241 194.558 347.902 194.607 347.569C194.753 347.569 194.835 347.784 194.881 347.957C195.2 347.7 195.136 345.978 195.118 345.558C195.118 345.348 195.086 345.133 195.068 344.914C195.155 344.718 195.209 344.625 195.232 345.157C195.232 345.367 195.177 345.684 195.209 345.847C195.241 346.011 195.383 346.132 195.474 346.277C195.648 346.64 195.779 347.024 195.861 347.42C196.153 347.079 196.203 345.941 196.208 345.479C196.173 344.501 195.922 343.543 195.474 342.679C195.276 342.26 195.101 341.83 194.949 341.391C195.173 341.633 195.355 341.951 195.583 342.161C195.725 342.301 195.684 342.287 195.788 342.161C195.893 342.035 195.788 341.829 195.962 342.063C196.08 342.217 196.108 342.497 196.213 342.669C196.422 342.441 196.281 341.661 196.213 341.391C196.008 340.672 195.701 339.988 195.301 339.361C195.056 338.882 194.849 338.384 194.68 337.872C194.776 337.975 194.918 338.096 194.995 337.956C195.073 337.816 194.895 337.559 195.05 337.438C195.121 337.809 195.322 338.141 195.615 338.371C195.679 338.418 196.459 338.572 196.395 338.334C196.208 337.905 195.947 337.515 195.624 337.181C195.533 337.065 195.451 336.939 195.369 336.813C195.421 336.83 195.477 336.83 195.529 336.813V336.621C195.529 335.543 195.1 334.867 194.799 334.059C194.7 333.865 194.647 333.649 194.644 333.429C194.726 333.429 194.799 333.537 194.845 333.639C194.99 333.434 194.845 332.305 194.781 332.029C194.758 331.894 194.735 331.754 194.708 331.605C194.749 331.46 194.781 331.395 194.817 331.749C194.822 331.906 194.836 332.061 194.858 332.216C194.899 332.356 194.981 332.384 195.045 332.468C195.176 332.687 195.283 332.92 195.364 333.163C195.467 332.737 195.482 332.294 195.41 331.861C195.334 331.229 195.139 330.617 194.835 330.06C194.703 329.788 194.588 329.507 194.489 329.22C194.626 329.369 194.744 329.57 194.886 329.687C195.027 329.803 194.949 329.761 195.004 329.687C195.059 329.612 195.004 329.467 195.104 329.612C195.205 329.757 195.205 329.892 195.273 329.999C195.387 329.831 195.273 329.318 195.237 329.141C195.1 328.67 194.907 328.219 194.662 327.797C194.514 327.469 194.393 327.128 194.302 326.779C194.357 326.845 194.443 326.933 194.489 326.831C194.535 326.728 194.434 326.555 194.525 326.462C194.556 326.708 194.671 326.934 194.849 327.101C194.89 327.134 195.346 327.213 195.305 327.05C195.2 326.764 195.046 326.5 194.849 326.271C194.573 325.831 194.383 325.342 194.288 324.829C194.134 324.107 194.064 323.369 194.079 322.631C194.079 322.565 194.079 322.411 194.079 322.164C194.161 322.276 194.215 322.192 194.27 322.01C194.268 322.229 194.33 322.443 194.448 322.626C194.476 322.173 194.436 321.718 194.329 321.277C194.149 320.76 194.079 320.21 194.124 319.663C194.12 319.29 194.161 318.919 194.247 318.557C194.333 318.322 194.397 318.08 194.439 317.833C194.436 317.634 194.389 317.438 194.302 317.259C194.19 317.48 194.1 317.711 194.033 317.95Z" fill="#1E2727"/>
<path d="M222.276 314.959C222.162 315.323 222.075 315.626 221.952 316.023C221.829 316.419 221.729 316.662 221.605 316.989C221.474 317.23 221.377 317.489 221.318 317.759L221.4 317.707C221.184 318.308 220.876 318.87 220.488 319.373C220.306 319.558 220.152 319.771 220.032 320.003C220.092 320.335 220.488 319.966 220.593 319.933C220.566 320.009 220.566 320.091 220.593 320.167C220.66 320.112 220.721 320.051 220.776 319.985V320.022C220.629 320.73 220.298 321.385 219.818 321.917C219.722 322.015 219.508 322.169 219.535 322.36C219.604 322.827 219.896 322.631 220.114 322.449L220.069 322.584C219.923 323.042 219.807 323.51 219.722 323.984C219.668 324.241 219.517 324.773 219.745 324.605C219.704 324.787 219.672 324.95 219.631 325.141C219.511 325.597 219.359 326.043 219.175 326.476C219.098 326.705 219.029 326.901 218.952 327.12C218.886 327.259 218.83 327.403 218.783 327.549C218.952 327.549 219.152 327.381 219.285 327.19C219.362 327.078 219.462 326.779 219.576 326.775C219.608 327.68 219.12 328.464 218.774 329.108C218.629 329.271 218.503 329.451 218.4 329.645C218.413 329.688 218.434 329.728 218.464 329.761C218.464 329.841 218.464 329.906 218.541 329.92C218.754 329.908 218.954 329.815 219.102 329.659L219.234 329.589C219.196 329.72 219.149 329.847 219.093 329.971C218.963 330.238 218.82 330.498 218.664 330.751C218.32 331.25 218.065 331.807 217.912 332.398V332.421C217.798 332.524 217.711 332.641 217.743 332.776C217.753 332.844 217.777 332.909 217.812 332.968C217.847 333.026 217.894 333.077 217.948 333.117C217.762 333.443 217.515 333.835 217.556 334.106C217.752 333.891 218.012 333.915 218.231 333.835C218.304 333.808 218.374 333.773 218.441 333.733C218.313 334.12 218.208 334.507 218.113 334.923C218.04 335.263 217.78 335.935 218.163 335.744C218.094 335.982 218.035 336.187 217.967 336.444C217.754 337.031 217.474 337.591 217.132 338.11L216.722 338.894C216.603 339.059 216.494 339.23 216.394 339.407C216.557 339.42 216.721 339.395 216.873 339.335C217.026 339.276 217.164 339.182 217.278 339.062C217.415 338.931 217.602 338.558 217.793 338.595C217.771 339.232 217.542 339.843 217.141 340.331C216.79 340.79 216.407 341.224 215.997 341.629C215.819 341.829 215.331 342.231 215.687 342.347C216.122 342.415 216.566 342.322 216.941 342.086C216.845 342.274 216.73 342.45 216.599 342.613C216.34 342.913 216.053 343.185 215.742 343.425C215.111 343.874 214.567 344.437 214.136 345.087V345.124C214.364 345.126 214.588 345.07 214.788 344.961C214.624 345.217 214.483 345.502 214.378 345.642C214.207 345.816 214.019 345.973 213.817 346.109L220.228 348.55C220.583 348.699 220.929 348.871 221.263 349.063L221.852 349.399L222.8 349.964L222.955 350.062C222.961 350.066 222.968 350.068 222.976 350.068C222.983 350.068 222.99 350.066 222.996 350.062C223.224 349.886 223.394 349.643 223.484 349.366C222.882 349.833 222.572 349.478 222.162 349.422C221.96 349.381 221.762 349.323 221.569 349.25L221.505 349.217H221.473L221.391 349.17L220.821 348.858C220.538 348.713 220.342 348.624 220.21 348.573L215.555 346.79L215.742 346.72C215.969 346.631 216.248 346.337 216.444 346.3C216.348 346.566 216.115 346.729 215.988 346.939C216.238 347.005 216.502 346.973 216.731 346.851C216.915 346.761 217.117 346.714 217.321 346.714C217.526 346.714 217.728 346.761 217.912 346.851C218.742 347.215 219.385 347.952 220.119 348.503L216.622 347.154C216.374 346.8 216.02 346.538 215.614 346.407C215.614 346.51 215.614 346.622 215.614 346.753L221.149 348.885C221.097 348.722 221.097 348.545 221.149 348.381C221.569 348.381 221.829 348.9 222.103 349.245L214.665 346.375L214.643 346.272C214.529 345.735 214.369 344.793 213.931 344.942C213.831 345.129 213.717 345.357 213.603 345.628C213.571 345.717 213.539 345.81 213.498 345.913L223.302 349.646C223.644 348.041 223.224 346.846 222.928 345.563C222.822 345.245 222.792 344.906 222.841 344.573C222.987 344.573 223.069 344.783 223.119 344.956C223.434 344.704 223.37 342.977 223.352 342.562C223.352 342.352 223.325 342.133 223.302 341.918C223.388 341.717 223.448 341.629 223.466 342.161C223.466 342.366 223.416 342.688 223.466 342.851C223.516 343.015 223.635 343.136 223.73 343.281C223.901 343.644 224.029 344.026 224.113 344.419C224.405 344.083 224.46 342.945 224.46 342.483C224.426 341.505 224.175 340.547 223.726 339.683C223.528 339.264 223.353 338.834 223.201 338.395C223.42 338.633 223.607 338.955 223.835 339.165C223.977 339.3 223.936 339.286 224.04 339.165C224.145 339.043 224.04 338.838 224.214 339.071C224.332 339.221 224.364 339.505 224.465 339.673C224.674 339.449 224.533 338.67 224.465 338.399C224.259 337.681 223.952 336.997 223.553 336.369C223.309 335.89 223.101 335.393 222.932 334.881C223.028 334.979 223.17 335.105 223.247 334.965C223.325 334.825 223.147 334.568 223.306 334.447C223.377 334.817 223.576 335.149 223.867 335.38C223.931 335.427 224.711 335.581 224.647 335.338C224.461 334.91 224.2 334.521 223.876 334.19C223.79 334.073 223.703 333.943 223.621 333.821C223.673 333.836 223.728 333.836 223.781 333.821V333.63C223.781 332.552 223.352 331.875 223.056 331.068C222.953 330.874 222.898 330.658 222.896 330.438C222.983 330.438 223.051 330.545 223.097 330.648C223.242 330.438 223.097 329.313 223.033 329.038C223.01 328.903 222.987 328.763 222.964 328.609C222.942 328.455 223.033 328.403 223.074 328.758C223.077 328.914 223.09 329.07 223.11 329.225C223.151 329.36 223.233 329.393 223.302 329.477C223.429 329.697 223.535 329.93 223.616 330.172C223.716 329.746 223.733 329.303 223.667 328.87C223.585 328.238 223.388 327.627 223.087 327.069C222.956 326.796 222.84 326.515 222.741 326.229C222.878 326.378 222.996 326.579 223.138 326.695C223.279 326.812 223.201 326.77 223.256 326.695C223.311 326.621 223.256 326.476 223.356 326.616C223.457 326.756 223.457 326.901 223.525 327.003C223.639 326.835 223.525 326.327 223.489 326.145C223.353 325.676 223.162 325.226 222.919 324.805C222.769 324.478 222.648 324.138 222.559 323.788C222.609 323.853 222.695 323.937 222.741 323.835C222.786 323.732 222.686 323.564 222.782 323.471C222.809 323.716 222.923 323.943 223.101 324.11C223.138 324.143 223.598 324.222 223.557 324.059C223.452 323.773 223.298 323.509 223.101 323.279C222.825 322.84 222.635 322.35 222.54 321.837C222.386 321.116 222.316 320.378 222.331 319.639C222.331 319.574 222.331 319.42 222.331 319.173C222.413 319.28 222.467 319.201 222.522 319.019C222.52 319.237 222.582 319.452 222.7 319.635C222.728 319.182 222.688 318.727 222.581 318.286C222.509 318.046 222.451 317.801 222.408 317.553C222.377 317.26 222.366 316.966 222.376 316.671C222.372 316.299 222.413 315.927 222.499 315.565C222.585 315.331 222.649 315.089 222.691 314.842C222.688 314.642 222.641 314.446 222.554 314.268C222.439 314.488 222.346 314.719 222.276 314.959Z" fill="#1E2727"/>
<path d="M262.8 310.702C262.786 310.795 262.786 310.89 262.8 310.982L263.133 311.524C263.261 311.808 263.352 312.074 263.206 312.046C263.242 312.192 263.288 312.336 263.343 312.476C263.495 312.741 263.632 313.015 263.753 313.297C263.785 313.404 263.785 313.516 263.812 313.628C263.858 313.779 263.875 313.938 263.863 314.095C263.803 314.331 263.727 314.561 263.635 314.786C263.603 314.916 263.548 315.033 263.507 315.168C263.619 315.334 263.756 315.48 263.913 315.602C263.985 315.659 264.061 315.71 264.141 315.756C264.084 315.918 264.044 316.085 264.022 316.256C263.992 316.397 263.992 316.544 264.022 316.685C264.022 316.732 264.022 316.722 264.086 316.741C264.118 316.748 264.15 316.748 264.182 316.741C264.182 316.825 264.15 316.9 264.136 316.97C264.032 317.486 263.879 317.991 263.68 318.477C263.521 318.911 263.224 319.172 263.074 319.653C263.037 319.788 262.923 320.194 263.033 320.334C263.101 320.255 263.129 320.106 263.201 320.031C263.274 319.956 263.242 320.031 263.302 320.096C263.361 320.162 263.329 320.185 263.416 320.096C263.553 319.981 263.684 319.858 263.808 319.728C263.71 319.958 263.594 320.179 263.461 320.39C263.411 320.474 263.352 320.554 263.311 320.638C263.251 320.728 263.196 320.821 263.147 320.918C263.106 321.006 263.078 321.114 263.033 321.202C263 321.256 262.971 321.312 262.946 321.37C263.065 321.585 263.256 321.506 263.402 321.431C263.643 321.327 263.867 321.188 264.068 321.016C264.066 321.133 264.057 321.25 264.04 321.366C264.012 321.516 263.955 321.659 263.872 321.786C263.782 321.929 263.676 322.063 263.557 322.182C263.448 322.304 263.325 322.28 263.201 322.341C263.233 322.465 263.287 322.582 263.361 322.686C263.432 322.788 263.524 322.872 263.63 322.934C263.603 323.055 263.58 323.186 263.548 323.293C263.48 323.517 263.366 323.694 263.288 323.909C263.211 324.104 263.115 324.29 263.001 324.464C262.779 324.84 262.64 325.26 262.595 325.696V325.846C262.644 325.867 262.697 325.877 262.75 325.874C262.663 325.962 262.568 326.046 262.472 326.13C262.217 326.345 261.797 326.597 261.637 326.9C261.551 327.068 262.321 327.064 262.39 327.036C262.532 326.978 262.661 326.89 262.769 326.778C262.876 326.667 262.96 326.533 263.014 326.387C263.156 326.499 262.955 326.648 263.014 326.793C263.074 326.938 263.229 326.83 263.329 326.765C263.122 327.147 262.869 327.501 262.577 327.82C262.135 328.205 261.744 328.647 261.414 329.136C261.314 329.318 261.045 329.826 261.2 330.032C261.332 329.938 261.409 329.747 261.546 329.663C261.761 329.542 261.615 329.663 261.701 329.775C261.788 329.887 261.733 329.887 261.893 329.826C262.144 329.724 262.381 329.537 262.631 329.406C262.413 329.701 262.169 329.974 261.902 330.223C261.343 330.682 260.892 331.264 260.584 331.926C260.47 332.225 260.183 332.944 260.342 333.261C260.55 333.038 260.782 332.84 261.036 332.673C261.159 332.612 261.305 332.608 261.405 332.482C261.475 332.332 261.531 332.176 261.574 332.015C261.719 331.656 261.756 331.735 261.788 331.898L261.569 332.318C261.437 332.598 260.876 333.69 261.054 333.961C261.102 333.908 261.162 333.868 261.229 333.844C261.295 333.821 261.367 333.814 261.437 333.826C261.437 334.036 261.136 334.292 260.981 334.404C260.324 335.039 259.54 335.478 259.107 336.313C258.745 336.559 258.449 336.892 258.245 337.284C258.427 337.564 258.788 337.531 259.016 337.75L258.86 337.839C258.565 338.069 258.286 338.32 258.026 338.59C257.83 338.758 257.606 338.749 257.424 338.912C257.414 339.247 257.463 339.581 257.57 339.897C257.649 340.095 257.745 340.286 257.857 340.466L257.684 340.569C257.408 340.734 257.16 340.943 256.95 341.19C256.839 341.293 256.742 341.41 256.663 341.54C256.79 341.619 256.854 341.908 256.936 342.09C256.973 342.184 257.014 342.277 257.055 342.37H257.005C256.878 342.326 256.758 342.264 256.649 342.184C256.419 342.093 256.163 342.093 255.933 342.184C255.619 342.3 255.339 342.494 255.117 342.748C254.987 342.903 254.89 343.085 254.834 343.281C254.834 343.533 255.026 343.448 255.126 343.537C254.8 344.023 254.383 344.437 253.899 344.755C253.668 344.931 253.409 345.063 253.133 345.147L253.01 345.185C252.746 345.14 252.476 345.151 252.217 345.217C252.148 345.558 252.436 345.819 252.504 346.09C252.39 346.221 252.244 346.225 252.13 346.328L252.094 346.365C252.075 346.397 252.059 346.43 252.043 346.463C251.929 346.664 251.989 346.757 252.043 346.995C252.066 347.211 252.1 347.426 252.144 347.639C252.061 347.77 251.989 347.907 251.929 348.05C251.829 348.26 251.706 348.517 251.578 348.787C251.346 349.254 251.15 349.627 251.122 349.693C251.025 349.875 250.888 350.033 250.724 350.155C250.559 350.277 250.369 350.36 250.169 350.397C249.941 350.397 249.604 350.239 249.431 350.225L249.517 350.257L249.613 350.299L249.946 350.463L250.593 350.794L250.671 350.836L250.707 350.859H250.73L249.704 350.332H249.791C249.956 350.33 250.117 350.386 250.247 350.491C250.52 350.705 250.789 350.957 251.072 351.219C251.774 351.746 252.604 352.087 253.252 352.656C253.856 353.223 254.349 353.903 254.706 354.658C255.012 355.4 255.402 356.101 255.869 356.749C256.381 357.347 257.012 357.826 257.72 358.152C258.428 358.479 259.196 358.647 259.973 358.643C260.429 358.643 261.04 358.247 261.423 358.233C261.806 358.219 262.066 358.648 262.308 358.811C262.565 358.992 262.867 359.097 263.179 359.115C263.41 359.109 263.639 359.057 263.85 358.96C264.061 358.863 264.252 358.723 264.41 358.55C264.672 358.303 264.907 358.027 265.112 357.729L265.705 356.851C265.899 356.564 266.12 356.296 266.366 356.053C266.546 355.865 266.754 355.708 266.982 355.587C267.018 355.377 267.059 355.153 267.077 354.957C267.096 354.761 267.105 354.49 267.109 354.247C267.365 354.247 267.656 354.504 267.935 354.355C267.884 354.134 267.82 353.918 267.743 353.706L267.634 353.407C267.593 353.319 267.552 353.249 267.506 353.169C267.481 353.098 267.439 353.034 267.384 352.982C267.329 352.931 267.263 352.894 267.191 352.875C267.077 352.813 266.966 352.744 266.858 352.67H266.827V352.614V352.507C266.827 352.409 266.827 352.311 266.827 352.213C266.827 352.007 266.658 351.461 266.827 351.237C266.922 351.093 267.009 351.237 267.004 350.985C266.986 350.77 266.945 350.557 266.881 350.351C266.968 350.285 267.064 350.309 267.159 350.239C267.256 350.168 267.341 350.081 267.41 349.982C267.301 349.73 267.232 349.422 267.137 349.161C267.016 348.875 266.935 348.573 266.895 348.265C266.872 348.026 266.872 347.785 266.895 347.546C266.895 347.345 266.931 347.154 266.936 346.953C266.941 346.808 266.931 346.663 266.909 346.519C267.016 346.445 267.105 346.346 267.169 346.23C267.232 346.141 267.369 345.871 267.451 345.885C267.579 345.273 267.292 344.741 267.205 344.242C267.138 344.016 267.098 343.782 267.086 343.547C267.183 343.508 267.27 343.449 267.342 343.374C267.418 343.27 267.482 343.157 267.533 343.038C267.643 342.781 267.483 342.618 267.474 342.366C267.656 342.366 267.789 342.683 267.989 342.618C268.061 342.138 267.979 341.647 267.757 341.218C267.679 341.068 267.588 340.942 267.52 340.779C267.451 340.616 267.406 340.396 267.52 340.275C267.54 340.404 267.594 340.525 267.675 340.625C267.774 340.41 267.832 340.177 267.843 339.939C268.149 340.062 268.418 340.265 268.623 340.527C268.865 340.158 268.363 339.127 268.322 338.632C268.322 338.446 268.322 338.105 268.322 337.783C268.431 337.992 268.587 338.172 268.778 338.306H268.806C268.824 337.662 268.696 337.023 268.432 336.439C268.614 336.224 268.29 335.296 268.236 335.039C268.236 334.946 268.19 334.852 268.158 334.759C268.126 334.666 268.135 334.689 268.126 334.652C268.284 334.789 268.474 334.882 268.678 334.922C269.038 334.964 268.737 334.381 268.641 334.124C268.29 333.149 267.52 331.954 267.78 330.774C267.962 330.811 268.062 331.194 268.163 331.352C268.243 331.496 268.351 331.622 268.48 331.721C268.61 331.821 268.758 331.892 268.915 331.931C268.842 331.764 268.759 331.601 268.664 331.446C268.587 331.17 268.523 330.886 268.432 330.61C268.22 330.057 268.049 329.487 267.921 328.907C267.884 328.669 267.857 328.468 267.821 328.244C268.163 328.482 268.008 327.829 267.962 327.516C267.913 327.142 267.841 326.771 267.748 326.406C267.807 326.452 267.871 326.491 267.939 326.522C268.153 326.625 268.395 326.63 268.582 326.858C268.566 326.523 268.457 326.199 268.267 325.925C268.322 325.896 268.369 325.856 268.407 325.807C268.445 325.758 268.472 325.701 268.486 325.64C268.527 325.524 268.445 325.407 268.345 325.304C268.227 324.764 267.994 324.257 267.661 323.82C267.515 323.605 267.383 323.381 267.264 323.148C267.214 323.043 267.173 322.934 267.141 322.822L267.264 322.887C267.412 323.033 267.603 323.123 267.807 323.144C267.889 323.144 267.903 323.088 267.889 323.018C267.917 322.994 267.939 322.964 267.953 322.929C267.853 322.761 267.735 322.604 267.602 322.462C267.283 321.888 266.831 321.198 266.877 320.423C266.986 320.423 267.077 320.694 267.155 320.796C267.232 320.899 267.469 321.142 267.638 321.132L267.556 320.927C267.528 320.865 267.508 320.799 267.497 320.731C267.482 320.576 267.482 320.42 267.497 320.264C267.509 320.042 267.541 319.822 267.593 319.606C267.609 319.544 267.609 319.478 267.593 319.415C267.559 319.364 267.521 319.318 267.479 319.275C267.389 319.157 267.307 319.034 267.232 318.906C267.187 318.827 267.141 318.743 267.091 318.664C267.021 318.24 266.857 317.837 266.612 317.488C266.417 317.219 266.192 316.975 265.942 316.76C265.828 316.656 265.739 316.527 265.682 316.382C265.6 316.13 265.842 316.382 265.823 316.237C265.805 316.092 265.655 315.994 265.609 315.91C265.563 315.826 265.559 315.775 265.609 315.817C265.659 315.859 265.732 315.976 265.796 316.036C265.838 316.075 265.884 316.11 265.933 316.139C266.065 316.214 266.161 316.083 266.206 315.929C266.206 315.873 266.261 315.304 266.206 315.313C266.084 315.318 265.963 315.297 265.85 315.25C265.736 315.204 265.634 315.133 265.55 315.042C265.649 315.007 265.731 314.933 265.778 314.837C265.719 314.704 265.652 314.574 265.577 314.45C265.463 314.296 265.34 314.165 265.221 314.03C265.025 313.792 264.857 313.512 264.674 313.246C264.753 313.29 264.84 313.319 264.93 313.33C264.807 313.086 264.654 312.86 264.474 312.658C264.387 312.555 264.296 312.462 264.218 312.35C264.153 312.233 264.093 312.113 264.04 311.99C263.977 311.874 263.913 311.888 263.808 311.822C263.571 311.673 263.393 311.267 263.197 311.038C263.119 310.926 263.024 310.828 262.914 310.749C262.818 310.637 262.823 310.642 262.8 310.702Z" fill="#1E2727"/>
<path d="M253.447 285.824C253.248 285.805 253.047 285.816 252.85 285.857C252.823 285.857 252.467 286.384 252.084 286.828C251.701 287.271 251.327 287.672 251.145 287.332C250.903 287.515 250.685 287.73 250.497 287.971C250.155 288.47 250.082 289.184 249.754 289.67C249.631 289.856 249.444 289.992 249.298 290.178C249.147 290.447 248.946 290.681 248.705 290.869C248.249 291.2 247.666 291.256 247.178 291.555C246.909 291.723 246.626 291.835 246.366 292.022C246.413 292.488 246.558 292.938 246.79 293.342C246.898 293.546 247.029 293.736 247.182 293.907C247.174 293.917 247.163 293.925 247.15 293.93C246.855 294.138 246.589 294.384 246.357 294.663C246.234 294.803 245.842 295.186 245.901 295.424C245.928 295.536 245.901 295.498 246.029 295.587C246.097 295.643 246.177 295.684 246.261 295.708C246.156 295.825 246.051 295.951 245.956 296.082C245.275 296.944 244.552 297.771 243.79 298.56C243.142 299.26 242.171 299.624 241.615 300.426C241.446 300.669 240.999 301.388 241.264 301.686C241.469 301.574 241.596 301.304 241.824 301.22C242.171 301.075 241.934 301.22 242.071 301.397C242.207 301.574 242.121 301.565 242.385 301.495C242.8 301.388 243.179 301.154 243.589 301.028C243.226 301.405 242.832 301.75 242.413 302.06C242.244 302.174 242.083 302.298 241.929 302.433C241.765 302.587 241.551 302.685 241.4 302.853C241.25 303.021 241.159 303.17 241.017 303.32C240.918 303.394 240.826 303.478 240.744 303.572C241.013 303.982 241.551 303.931 241.943 303.866C242.601 303.81 243.251 303.672 243.876 303.455C243.843 303.658 243.789 303.856 243.717 304.048C243.591 304.307 243.397 304.525 243.156 304.678C242.856 304.89 242.531 305.064 242.189 305.196C241.859 305.275 241.52 305.305 241.181 305.284C241.251 305.518 241.374 305.731 241.542 305.905C241.74 306.116 241.969 306.294 242.221 306.432C242.126 306.609 242.019 306.779 241.902 306.941C241.656 307.24 241.305 307.44 241.04 307.711C240.749 307.954 240.43 308.161 240.092 308.327C239.453 308.742 238.86 309.153 238.614 309.764L238.578 309.965C238.7 310.048 238.836 310.108 238.979 310.142C238.696 310.264 238.404 310.38 238.108 310.488C237.319 310.772 236.024 311.029 235.468 311.687C235.172 312.037 237.292 312.434 237.483 312.415C238.239 312.351 238.942 311.994 239.449 311.416C239.786 311.748 239.152 311.925 239.312 312.275C239.472 312.625 239.877 312.485 240.174 312.42C239.436 313.094 238.641 313.698 237.798 314.226C236.581 314.968 235.245 315.626 234.383 316.807C234.105 317.194 233.343 318.361 233.817 318.827C234.168 318.622 234.369 318.197 234.761 318.025C235.349 317.773 234.948 317.987 235.181 318.281C235.413 318.575 235.276 318.543 235.723 318.417C236.43 318.221 237.091 317.843 237.775 317.619C237.147 318.205 236.488 318.757 235.801 319.271C234.378 320.344 233.065 321.478 232.536 323.121C232.308 323.807 231.838 325.454 232.449 326.047C232.978 325.58 233.361 324.955 234.073 324.6C234.401 324.432 234.793 324.39 235.012 324.105C235.146 323.783 235.245 323.446 235.308 323.102C235.596 322.332 235.71 322.491 235.856 322.822L235.4 323.755C235.112 324.348 234.105 326.756 234.757 327.213C234.883 327.081 235.034 326.976 235.201 326.905C235.368 326.835 235.547 326.8 235.728 326.803C235.851 327.204 235.167 327.801 234.884 328.1C233.475 329.589 231.656 330.872 231.136 332.655C230.45 333.22 229.922 333.96 229.604 334.801C230.311 335.147 231.255 334.913 232.025 335.123C231.907 335.193 231.788 335.268 231.679 335.343C231.013 335.711 230.648 336.663 230.092 337.429C229.727 337.961 229.125 338.115 228.797 338.651C229.084 339.424 229.543 340.117 230.137 340.677C230.545 341.034 230.988 341.347 231.46 341.61L231.122 341.993C230.601 342.588 230.2 343.282 229.941 344.037C229.777 344.362 229.669 344.714 229.622 345.077C230.033 345.077 230.534 345.6 230.954 345.866L231.597 346.267L231.565 346.319L231.432 346.356C231.065 346.419 230.692 346.441 230.32 346.421C229.656 346.519 229.043 346.837 228.573 347.327C227.96 347.928 227.522 348.692 227.31 349.534C227.2 350.009 227.216 350.505 227.356 350.971C227.675 351.485 228.031 351.037 228.409 351.065C228.285 352.49 227.906 353.881 227.292 355.167C227.013 355.868 226.625 356.519 226.143 357.094L225.924 357.369C225.268 357.696 224.684 358.155 224.205 358.718C224.268 358.841 224.353 358.95 224.456 359.04C224.506 359.084 224.56 359.125 224.615 359.161C224.67 359.203 224.711 359.161 224.761 359.194C224.967 359.194 225.217 359.194 225.441 359.194C225.664 359.194 225.869 359.11 226.024 359.096C225.811 359.206 225.592 359.304 225.368 359.39C225.14 359.502 225.368 359.451 225.76 359.39L226.635 359.301C226.562 359.331 226.494 359.374 226.435 359.427C226.344 359.511 226.198 359.474 226.189 360.211C226.189 360.533 226.161 360.855 226.148 361.145C226.148 361.546 226.175 361.929 226.189 362.269C226.216 362.899 226.239 363.385 226.248 363.567C226.318 365.423 226.218 367.283 225.947 369.12C225.733 370.203 224.748 370.469 224.679 371.533C225.915 372.7 227.366 373.603 228.947 374.188C230.272 374.676 231.687 374.851 233.088 374.702C235.017 373.054 236.444 370.968 239.016 370.287C240.251 369.932 241.546 369.694 242.896 369.4C244.246 369.106 245.632 368.803 247 368.429C248.364 368.05 249.702 367.583 251.008 367.029C251.652 366.749 252.277 366.448 252.882 366.124C253.188 365.965 253.484 365.797 253.794 365.625L254.601 365.125C255.958 364.221 257.24 363.205 258.436 362.087C259.599 361.023 260.67 359.983 261.628 359.045C262.12 358.578 262.38 357.99 262.996 357.542C263.798 357.045 264.624 356.59 265.472 356.179C266.753 355.52 267.996 354.788 269.197 353.986C269.713 353.636 269.799 353.491 270.169 353.244C270.795 352.877 271.46 352.586 272.152 352.376L271.878 352.404L271.422 352.446C272.102 352.292 273.041 352.04 273.675 351.942C273.515 352.026 273.356 352.11 273.187 352.189C273.106 352.236 273.018 352.271 272.927 352.292L272.645 352.259C272.453 352.231 272.261 352.213 272.061 352.175C271.956 352.101 271.851 352.045 271.742 351.956L271.391 351.545C270.466 350.381 269.459 349.29 268.376 348.279C268.226 348.041 268.044 347.812 267.92 347.607C267.658 347.324 267.381 347.057 267.091 346.804C266.891 346.65 266.705 346.478 266.534 346.291C266.384 346.123 266.329 346.099 266.343 345.983C266.379 345.759 266.799 345.777 266.434 345.581C266.087 345.426 265.725 345.308 265.353 345.231C265.472 345.077 265.736 344.984 265.873 344.825C265.998 344.692 266.095 344.533 266.156 344.359C265.6 344.284 265.057 344.116 264.51 344.004C263.94 343.922 263.386 343.755 262.864 343.509C262.544 343.358 262.251 343.153 261.997 342.903C261.817 342.704 261.627 342.516 261.427 342.338C261.26 342.193 261.076 342.07 260.88 341.969C261.04 341.839 261.161 341.666 261.231 341.47C261.3 341.335 261.359 341.003 261.578 340.924C261.263 340.271 260 339.991 259.298 339.571C258.92 339.413 258.572 339.19 258.267 338.913C258.449 338.83 258.617 338.718 258.764 338.581C258.863 338.452 258.929 338.3 258.956 338.138C259.011 337.816 258.454 337.751 258.199 337.494C258.7 337.424 259.311 337.648 259.777 337.494C259.498 336.934 258.773 336.523 257.953 336.206C257.609 336.102 257.274 335.966 256.954 335.8C256.74 335.641 256.343 335.217 256.557 334.941C256.745 335.171 256.987 335.347 257.26 335.455C257.349 335.035 257.311 334.596 257.15 334.199C258.062 334.316 258.974 334.367 259.704 334.773C260.05 333.961 257.88 332.664 257.424 331.973C257.241 331.698 257.073 331.189 256.835 330.732C257.336 331.009 257.876 331.201 258.436 331.301L258.491 331.255C258.094 330.265 257.2 329.495 256.211 328.767C256.562 328.413 255.135 327.199 254.875 326.901C254.76 326.769 254.638 326.645 254.51 326.527L254.373 326.383C254.906 326.548 255.458 326.636 256.015 326.644C257.027 326.644 255.91 325.893 255.559 325.566C254.122 324.315 251.546 322.612 252.052 320.951C252.572 321.035 252.932 321.581 253.251 321.805C253.913 322.27 254.678 322.559 255.477 322.645C255.28 322.372 255.06 322.117 254.82 321.884L253.999 320.741C253.384 319.929 252.736 319.201 252.435 318.309C252.335 318.011 252.271 317.693 252.194 317.376C253.106 317.866 252.718 316.909 252.65 316.48C252.555 315.937 252.431 315.399 252.28 314.87C252.44 314.977 252.604 315.075 252.777 315.168C253.361 315.394 253.915 315.692 254.428 316.055C254.533 315.929 254.464 315.71 254.323 315.458C254.249 315.319 254.167 315.185 254.077 315.056C253.988 314.879 253.912 314.695 253.849 314.506C253.99 314.502 254.129 314.465 254.254 314.397C254.379 314.329 254.487 314.232 254.569 314.114C254.733 313.904 254.569 313.61 254.341 313.339L254.378 313.311C254.378 312.046 253.739 310.978 253.133 310.044C252.832 309.578 252.517 309.06 252.266 308.56C252.162 308.351 252.075 308.132 252.007 307.907L252.335 308.089C252.744 308.447 253.233 308.699 253.758 308.822C253.981 308.854 254.036 308.766 254.017 308.63C254.094 308.604 254.162 308.559 254.218 308.5C253.984 308.118 253.704 307.768 253.384 307.459C252.654 306.278 251.56 304.906 251.883 303.665C252.189 303.735 252.371 304.206 252.549 304.402C252.877 304.792 253.318 305.065 253.808 305.182C253.808 305.182 253.648 304.836 253.634 304.799C253.572 304.696 253.531 304.579 253.516 304.458C253.502 304.19 253.529 303.92 253.598 303.66C253.698 303.326 253.853 303.01 254.054 302.727C254.084 302.685 254.105 302.636 254.113 302.584C254.122 302.532 254.119 302.479 254.104 302.428C254.024 302.328 253.934 302.235 253.835 302.153C253.635 301.946 253.456 301.717 253.302 301.472C253.206 301.327 253.105 301.182 253.01 301.033C252.953 300.298 252.696 299.595 252.266 299.003C251.862 298.441 251.425 297.905 250.958 297.398C250.746 297.179 250.602 296.902 250.543 296.6C250.543 296.161 250.93 296.777 251.026 296.539C251.081 296.39 250.807 296.026 250.766 295.867C250.725 295.708 250.766 295.62 250.885 295.75C251.003 295.881 251.067 296.105 251.172 296.25C251.247 296.354 251.334 296.448 251.432 296.53C251.56 296.625 251.714 296.676 251.872 296.676C252.03 296.676 252.184 296.625 252.312 296.53C252.394 296.478 252.978 295.82 252.823 295.769C252.268 295.559 251.797 295.165 251.487 294.649C251.739 294.723 252.004 294.737 252.262 294.691C252.25 294.447 252.222 294.204 252.18 293.963C252.102 293.641 251.975 293.319 251.888 293.002C251.759 292.441 251.726 291.862 251.788 291.289V291.238C251.893 291.433 252.029 291.609 252.189 291.76C252.297 291.313 252.355 290.854 252.362 290.393C252.349 290.148 252.361 289.903 252.399 289.66C252.477 289.445 252.589 289.245 252.732 289.068C252.85 288.872 252.732 288.75 252.672 288.498C252.54 287.882 253.128 287.313 253.37 286.842C253.519 286.626 253.608 286.373 253.625 286.109C253.616 285.862 253.616 285.866 253.447 285.824Z" fill="#1E2727"/>
<path d="M287.993 304.323C287.874 304.668 287.769 305.023 287.678 305.373C287.441 306.19 287.163 306.969 286.907 307.678C286.627 308.444 286.254 309.17 285.795 309.839C285.407 310.427 284.988 310.94 284.586 311.524C284.586 311.524 284.687 312.284 284.769 312.77L284.313 313.582C284.364 314.1 284.442 314.616 284.545 315.126C284.34 315.654 284.089 316.111 283.87 316.564C283.641 317.024 283.454 317.505 283.314 318.001C283.163 318.549 283.1 319.118 283.127 319.686C283.127 319.938 283.2 320.194 283.232 320.432C283.232 320.432 283.232 320.502 283.255 320.563C283.282 320.773 283.319 320.969 283.337 321.174V321.109C283.341 321.131 283.341 321.153 283.337 321.174C283.743 320.325 284.048 319.308 284.431 318.374V318.636C284.394 319.512 284.22 320.377 283.916 321.198C283.631 321.921 283.269 322.61 282.835 323.251C282.467 323.67 282.219 324.185 282.119 324.74C282.119 324.801 282.119 325.085 282.142 325.384V325.907C282.001 326.173 281.86 326.434 281.686 326.672C281.674 327.17 281.689 327.669 281.732 328.165L281.809 328.193L281.787 328.226C281.384 328.609 281.082 329.091 280.911 329.626C280.911 329.687 280.911 330.06 280.911 330.415C280.911 330.769 280.911 331.11 280.911 331.11C281.2 331.082 281.469 330.943 281.663 330.723C281.075 332.076 280.15 333.154 279.954 334.829C279.926 335.067 279.954 335.329 279.954 335.567V335.693V336.304V336.243C279.954 336.276 279.954 336.299 279.954 336.304C280.537 335.529 281.034 334.171 281.691 333.541C281.579 333.892 281.438 334.232 281.271 334.559C280.801 335.463 280.23 336.308 279.57 337.079C279.041 337.756 278.574 338.483 278.175 339.249C277.971 339.584 277.818 339.949 277.719 340.331C277.687 340.546 277.669 340.763 277.664 340.98L277.633 341.638C277.633 341.769 277.633 341.848 277.633 341.811C277.633 341.881 277.633 341.941 277.633 342.021V342.044L277.728 341.965V342.1C277.719 342.167 277.719 342.234 277.728 342.301C277.769 342.431 277.924 342.217 277.975 342.151C278.128 341.953 278.269 341.746 278.399 341.531L278.558 341.269C278.558 341.269 278.59 341.195 278.604 341.19C278.604 341.19 278.604 341.33 278.604 341.447L278.581 341.913C278.972 341.591 279.298 341.195 279.543 340.747L279.411 341.031C279.183 341.498 278.955 341.965 278.736 342.431L278.408 342.935C277.957 343.596 277.562 344.296 277.227 345.026C277.063 345.385 276.936 345.76 276.848 346.146C276.768 346.56 276.714 346.98 276.689 347.401L276.634 348.027C276.643 348.121 276.643 348.217 276.634 348.311L276.743 348.092L276.689 348.68C277.098 348.365 277.563 348.133 278.057 347.994C278.301 347.871 278.528 347.714 278.731 347.527C278.531 347.868 278.317 348.181 278.107 348.461C277.61 349.142 277.035 349.861 276.543 350.659C275.995 351.499 275.642 352.457 275.512 353.459C275.471 353.823 275.435 354.163 275.394 354.537C275.394 354.588 275.394 354.621 275.394 354.611V354.723C275.385 354.802 275.385 354.882 275.394 354.961C275.394 355.041 275.435 354.938 275.471 354.868L275.558 354.728C275.854 354.229 276.151 353.767 276.47 353.305C276.442 353.65 276.415 353.977 276.415 353.977C276.803 354.149 277.172 353.762 277.514 353.337C277.678 353.127 277.838 352.899 278.016 352.707C277.924 352.899 277.829 353.09 277.724 353.272C277.423 353.809 277.104 354.289 276.812 354.803C276.684 355.008 276.566 355.227 276.447 355.451C276.141 355.834 275.827 356.193 275.535 356.557C275.2 356.925 274.895 357.32 274.623 357.738C274.468 358.006 274.336 358.287 274.226 358.578C274.065 358.944 273.927 359.319 273.811 359.703C273.698 360.045 273.619 360.399 273.574 360.757C273.504 361.049 273.467 361.348 273.465 361.649C273.688 361.728 273.729 362.241 273.875 362.554C273.944 362.703 274.017 362.829 274.135 362.783C274.254 362.736 274.55 362.283 274.723 362.316C274.668 362.506 274.599 362.692 274.518 362.871C274.418 363.081 274.299 363.212 274.204 363.413C274.007 363.857 273.877 364.329 273.82 364.813C273.82 364.995 273.821 364.962 273.857 365.046C273.945 365.152 274.027 365.263 274.103 365.377C274.213 365.555 274.354 365.62 274.45 365.844C274.495 365.965 274.504 366.124 274.546 366.255C274.599 366.402 274.665 366.544 274.742 366.679C274.855 366.94 274.988 367.191 275.138 367.431C275.244 367.638 275.401 367.814 275.594 367.939C275.686 367.975 275.784 367.991 275.882 367.986C276 368.257 276.242 368.873 276.397 368.798H276.433C276.415 368.38 276.343 367.965 276.219 367.566L276.597 368.313L276.748 368.541C276.839 368.75 276.949 368.95 277.076 369.139C277.322 369.503 277.669 369.937 277.929 369.969C278.107 369.969 278.23 369.783 278.339 369.582C278.435 369.368 278.561 369.17 278.713 368.994C278.782 368.933 278.868 368.947 278.932 368.873C278.996 368.798 279.06 368.63 279.174 368.602C279.534 368.527 279.917 368.789 280.3 368.817C280.359 368.86 280.427 368.888 280.499 368.897C280.571 368.906 280.643 368.896 280.71 368.868C280.797 368.821 280.829 368.714 280.888 368.602C280.906 368.564 280.927 368.528 280.952 368.495C281.08 368.448 281.18 368.285 281.267 368.061C281.338 368.035 281.415 368.035 281.486 368.061C281.65 368.2 281.829 368.321 282.019 368.42C282.188 368.537 282.39 368.596 282.594 368.588C282.74 368.555 282.74 368.289 282.79 368.075C282.922 368.147 283.06 368.211 283.2 368.266C283.351 368.35 283.518 368.4 283.69 368.412C283.861 368.424 284.033 368.398 284.194 368.336C284.263 368.294 284.318 368.232 284.354 368.159C284.376 368.107 284.403 368.059 284.436 368.014C284.702 368.103 284.978 368.158 285.257 368.177C285.42 368.188 285.583 368.163 285.735 368.103C285.813 368.073 285.894 368.052 285.977 368.042L286.068 367.995C286.165 368.015 286.264 368.015 286.36 367.995C286.491 367.965 286.612 367.905 286.716 367.818C286.752 367.785 286.757 367.79 286.743 367.734C286.741 367.701 286.741 367.669 286.743 367.636L286.839 367.571H286.88L287.049 367.608C287.168 367.622 287.289 367.622 287.409 367.608C287.614 367.608 287.81 367.645 288.015 367.641C288.124 367.635 288.232 367.621 288.339 367.599C288.368 367.611 288.394 367.628 288.417 367.65C288.453 367.711 288.458 367.65 288.526 367.65C288.565 367.64 288.606 367.64 288.645 367.65C288.69 367.65 288.745 367.575 288.791 367.538C288.854 367.528 288.915 367.509 288.973 367.482L289.201 367.37C289.212 367.383 289.226 367.393 289.242 367.4C289.258 367.406 289.275 367.409 289.292 367.407C289.292 367.407 289.319 367.365 289.324 367.319L289.502 367.235C289.652 367.169 289.867 367.174 289.958 367.011C289.999 366.941 289.858 366.777 289.661 366.544C289.821 366.459 289.973 366.36 290.117 366.25C290.3 366.11 290.464 365.872 290.642 365.732C290.82 365.592 290.788 365.597 290.738 365.391C290.707 365.305 290.66 365.226 290.601 365.158C290.514 365.032 290.382 364.789 290.3 364.645C290.194 364.459 290.101 364.266 290.022 364.066L289.958 363.907C290.108 363.685 290.247 363.455 290.373 363.217C290.373 363.273 290.373 363.333 290.396 363.389C290.396 363.576 290.432 363.758 290.469 363.926C290.505 364.094 290.633 364.08 290.642 364.267C290.704 364.168 290.759 364.065 290.806 363.959C290.944 363.346 291.027 362.721 291.052 362.092C291.066 361.841 291.051 361.588 291.007 361.341L290.906 360.701C290.787 359.873 290.608 359.054 290.373 358.251H290.396C290.555 358.2 290.774 357.505 290.852 357.29C291.061 356.845 291.214 356.375 291.308 355.89C291.308 355.685 291.271 355.722 291.207 355.638C291.099 355.449 291.019 355.245 290.97 355.031C290.798 354.577 290.664 354.109 290.569 353.631C290.5 353.165 290.4 352.787 290.35 352.329C290.35 352.101 290.391 351.863 290.396 351.643C290.4 351.424 290.396 351.149 290.396 350.869C290.396 350.682 290.396 350.486 290.396 350.281C290.412 350.31 290.426 350.342 290.437 350.374C290.5 350.523 290.523 350.719 290.587 350.841C290.651 350.962 290.71 351.051 290.765 351.158C290.82 351.265 290.915 351.368 290.911 351.48C290.911 351.48 290.979 351.289 290.988 351.237C291.02 351.024 291.029 350.808 291.016 350.593C291.016 350.285 291.016 349.968 291.016 349.66C291.007 349.236 290.965 348.813 290.888 348.395C290.815 347.988 290.718 347.586 290.596 347.191C290.464 346.809 290.318 346.44 290.168 346.09C290.058 345.847 289.944 345.623 289.83 345.376C289.716 345.129 289.716 344.947 289.657 344.727C289.758 344.833 289.852 344.945 289.94 345.063C290.106 345.257 290.258 345.463 290.396 345.679C290.464 345.815 290.61 346.146 290.742 346.057C290.865 345.705 290.932 345.335 290.943 344.961C291.018 344.401 291.058 343.836 291.061 343.271C291.058 342.978 291.011 342.686 290.92 342.408L290.5 341.302C290.399 341.009 290.26 340.731 290.086 340.476C290.044 340.419 289.993 340.371 289.935 340.331C289.771 339.627 289.557 338.964 289.37 338.287C289.582 338.566 289.778 338.858 289.958 339.16C290.032 339.322 290.119 339.478 290.218 339.627C290.277 339.701 290.45 339.771 290.469 339.911C290.487 340.051 290.555 339.617 290.56 339.594C290.601 339.421 290.625 339.244 290.633 339.067C290.69 338.379 290.581 337.688 290.314 337.055C290.14 336.654 289.976 336.253 289.798 335.87C289.808 335.44 289.795 335.01 289.757 334.582C289.725 334.079 289.652 333.579 289.538 333.089L289.497 332.949C289.643 332.832 290.044 332.365 290.04 332.197C290.06 331.69 290.044 331.181 289.99 330.676C289.926 330.345 289.839 330.037 289.757 329.743V329.705C289.722 329.139 289.578 328.586 289.333 328.077C289.128 327.61 288.877 327.223 288.722 326.723L288.649 326.485C288.626 326.369 288.604 326.252 288.585 326.131C288.558 325.93 288.54 325.743 288.512 325.566C288.485 325.389 288.476 325.174 288.458 324.959C288.601 325.176 288.784 325.363 288.996 325.51C288.996 325.51 289.119 325.155 289.237 324.74C289.33 324.442 289.405 324.138 289.461 323.83C289.389 323.267 289.273 322.712 289.114 322.168L288.895 321.403C288.818 321.146 288.745 320.885 288.677 320.614C288.608 320.344 288.594 320.194 288.563 319.98C288.804 320.624 289.046 321.3 289.288 321.907L289.443 321.24L289.488 321.058C289.563 320.774 289.618 320.486 289.652 320.194C289.681 319.475 289.609 318.755 289.438 318.057C289.356 317.726 289.274 317.408 289.169 317.1L288.868 316.214C288.644 315.584 288.465 314.938 288.33 314.282L288.599 314.706L288.704 314.104C288.704 313.974 288.749 313.866 288.754 313.848C288.828 313.562 288.874 313.27 288.891 312.975C288.781 312.345 288.617 311.748 288.49 311.155C288.421 310.842 288.362 310.553 288.298 310.25C288.234 309.946 288.189 309.62 288.152 309.284C288.093 308.77 288.088 308.248 288.079 307.711C288.079 307.44 288.079 307.174 288.079 306.894C288.079 306.614 288.079 306.339 288.111 306.059C288.147 305.865 288.225 305.682 288.339 305.522C288.339 305.522 288.312 305.056 288.316 304.589C288.316 304.356 288.316 304.122 288.316 303.945V303.73C288.315 303.702 288.315 303.674 288.316 303.646C288.164 303.846 288.053 304.077 287.993 304.323Z" fill="#1E2727"/>
<path d="M228.401 296.217C228.433 296.558 228.456 296.824 228.488 297.15C228.538 297.837 228.538 298.527 228.488 299.213C228.428 299.914 228.251 300.599 227.963 301.238C227.717 301.808 227.421 302.312 227.147 302.872C227.147 302.872 227.394 303.455 227.576 303.805L227.252 304.561C227.399 304.972 227.567 305.376 227.754 305.77C227.639 306.216 227.498 306.653 227.33 307.081C227.176 307.497 227.069 307.929 227.01 308.369C226.95 308.848 226.979 309.334 227.097 309.802C227.162 310.008 227.238 310.211 227.325 310.409L227.371 310.516C227.43 310.679 227.498 310.871 227.553 311.011V310.955C227.553 310.983 227.553 311.006 227.553 311.011C227.813 310.217 227.941 309.298 228.178 308.458L228.201 308.677C228.291 309.424 228.251 310.181 228.082 310.913C227.918 311.588 227.682 312.244 227.38 312.868C227.107 313.293 226.968 313.792 226.979 314.301C226.979 314.352 227.056 314.571 227.134 314.814L227.252 315.225C227.17 315.464 227.075 315.699 226.969 315.929C227.056 316.33 227.169 316.725 227.307 317.11H227.389V317.138C227.17 317.502 226.782 317.894 226.773 318.431C226.807 318.64 226.851 318.847 226.906 319.051C226.974 319.336 227.047 319.602 227.047 319.602C227.316 319.539 227.555 319.384 227.726 319.163C227.352 320.344 226.637 321.343 226.655 322.663C226.672 322.856 226.701 323.048 226.741 323.237C226.741 323.237 226.741 323.289 226.741 323.34L226.805 323.807V323.755C226.809 323.772 226.809 323.79 226.805 323.807C227.284 323.13 227.603 321.996 228.173 321.394C228.115 321.693 228.023 321.984 227.9 322.262C227.557 323.058 227.096 323.795 226.532 324.446C226.083 325.014 225.686 325.623 225.346 326.266C225.177 326.519 225.056 326.802 224.99 327.101C224.978 327.257 224.978 327.413 224.99 327.568L225.013 328.035C225.013 328.133 225.013 328.193 225.013 328.165C225.013 328.217 225.013 328.254 225.013 328.315V328.338L225.104 328.277V328.371C225.097 328.422 225.097 328.474 225.104 328.525C225.155 328.618 225.301 328.459 225.351 328.408C225.493 328.264 225.622 328.108 225.738 327.941L225.875 327.736C225.875 327.736 225.902 327.675 225.912 327.675C225.912 327.675 225.912 327.783 225.912 327.871C225.912 327.96 225.912 328.105 225.912 328.217C226.281 328.053 226.509 327.633 226.792 327.283L226.678 327.507C226.491 327.881 226.295 328.24 226.094 328.595L225.788 328.977C225.39 329.469 225.023 329.986 224.69 330.527C224.535 330.778 224.414 331.05 224.329 331.334C224.261 331.641 224.215 331.953 224.192 332.267L224.129 332.832C224.127 332.917 224.118 333.001 224.101 333.084L224.215 332.893L224.156 333.415C224.585 333.146 225.058 332.956 225.551 332.855C225.794 332.761 226.024 332.635 226.235 332.482C226.035 332.771 225.811 333.047 225.597 333.299C225.039 333.904 224.511 334.538 224.015 335.198C223.479 335.897 223.13 336.727 223.002 337.606C222.961 337.914 222.929 338.199 222.888 338.516C222.888 338.563 222.888 338.586 222.888 338.581V338.675C222.88 338.743 222.88 338.812 222.888 338.88C222.888 338.941 222.929 338.852 222.966 338.801L223.048 338.679C223.344 338.269 223.641 337.877 223.96 337.489L223.914 338.059C224.306 338.213 224.676 337.891 225.013 337.531C225.177 337.354 225.337 337.163 225.51 337.004C225.419 337.172 225.323 337.331 225.223 337.471C224.922 337.937 224.607 338.325 224.311 338.754C224.188 338.927 224.065 339.109 223.951 339.295C223.645 339.608 223.335 339.897 223.039 340.191C222.713 340.479 222.408 340.791 222.127 341.125C221.975 341.33 221.844 341.551 221.735 341.783C221.576 342.063 221.438 342.355 221.32 342.655C221.264 342.808 221.217 342.964 221.178 343.122C221.178 343.215 221.147 343.299 221.128 343.369C221.11 343.439 221.128 343.449 221.105 343.486C221.324 343.561 221.461 343.528 221.561 343.757C221.591 343.801 221.628 343.839 221.672 343.868C221.716 343.897 221.765 343.916 221.817 343.925C221.999 343.925 222.223 343.789 222.378 343.878C222.341 343.901 222.259 343.999 222.186 344.06C222.113 344.121 221.958 344.2 221.849 344.307C221.597 344.596 221.406 344.934 221.288 345.301C221.238 345.446 221.238 345.423 221.288 345.507C221.358 345.62 221.421 345.739 221.475 345.861C221.543 346.053 221.675 346.132 221.721 346.375C221.744 346.501 221.721 346.659 221.721 346.799C221.746 346.965 221.781 347.129 221.826 347.289C221.958 347.826 222.127 348.647 222.442 348.797C222.531 348.839 222.626 348.865 222.724 348.876C222.811 349.156 222.97 349.585 223.135 349.571H223.176C223.195 349.219 223.18 348.866 223.13 348.517C223.232 348.78 223.36 349.032 223.513 349.268L223.632 349.455C223.708 349.624 223.794 349.789 223.887 349.949C224.088 350.299 224.375 350.705 224.639 350.771C224.813 350.817 224.968 350.673 225.095 350.533C225.225 350.372 225.379 350.233 225.551 350.122C225.624 350.08 225.711 350.122 225.784 350.061C225.857 350.001 225.943 349.893 226.062 349.889C226.441 349.965 226.81 350.087 227.161 350.253C227.219 350.3 227.285 350.335 227.357 350.355C227.428 350.375 227.503 350.38 227.576 350.369C227.663 350.341 227.704 350.262 227.772 350.178L227.854 350.103C227.991 350.103 228.091 349.973 228.214 349.805C228.288 349.797 228.362 349.81 228.429 349.842C228.583 349.987 228.749 350.118 228.926 350.234C229.091 350.362 229.286 350.444 229.491 350.472C229.632 350.472 229.66 350.257 229.728 350.066C229.854 350.156 229.985 350.238 230.12 350.313C230.414 350.509 230.766 350.592 231.114 350.547C231.18 350.527 231.237 350.486 231.279 350.43C231.315 350.393 231.338 350.341 231.374 350.304C231.626 350.446 231.899 350.547 232.181 350.603C232.341 350.642 232.506 350.651 232.669 350.631C232.75 350.621 232.831 350.621 232.911 350.631C232.941 350.636 232.972 350.636 233.002 350.631C233.098 350.66 233.198 350.672 233.299 350.668C233.454 350.668 233.581 350.668 233.663 350.551C233.68 350.536 233.693 350.516 233.701 350.494C233.709 350.472 233.712 350.449 233.709 350.425C233.709 350.402 233.709 350.365 233.709 350.346H233.814H233.855L234.019 350.374L234.375 350.43C234.584 350.43 234.776 350.5 234.981 350.537C235.109 350.537 235.2 350.537 235.305 350.565C235.337 350.565 235.364 350.598 235.382 350.607C235.401 350.617 235.41 350.673 235.483 350.691C235.523 350.699 235.565 350.699 235.606 350.691C235.656 350.691 235.715 350.607 235.752 350.691C235.812 350.706 235.87 350.728 235.925 350.757L235.975 350.785L235.164 350.612H235.2H235.25L235.446 350.649L236.13 350.794L235.765 350.715L236.185 350.808H236.249L236.417 350.845C236.569 350.864 236.722 350.864 236.873 350.845C236.924 350.803 236.791 350.687 236.632 350.467C236.788 350.439 236.941 350.393 237.088 350.332C237.288 350.239 237.494 350.061 237.708 349.931C237.849 349.851 237.877 349.833 237.881 349.567C237.878 349.462 237.851 349.36 237.804 349.268C237.749 349.095 237.681 348.759 237.635 348.531C237.594 348.227 237.562 347.901 237.521 347.565L237.494 347.313C237.719 347.015 237.927 346.704 238.114 346.379C238.118 346.459 238.118 346.538 238.114 346.617C238.114 346.893 238.114 347.131 238.114 347.471C238.114 347.812 238.251 347.719 238.21 348.041C238.21 348.041 238.428 347.63 238.456 347.523C238.556 347.163 238.615 346.813 238.684 346.468C238.752 346.123 238.748 346.043 238.766 345.871C238.784 345.698 238.789 345.549 238.789 345.404C238.778 345.002 238.73 344.602 238.647 344.209C238.537 343.47 238.356 342.743 238.109 342.039H238.114C238.273 341.997 238.492 341.4 238.57 341.218C238.774 340.85 238.928 340.454 239.026 340.042C239.026 339.869 238.985 339.897 238.916 339.823C238.808 339.667 238.726 339.493 238.675 339.309C238.495 338.938 238.355 338.549 238.255 338.147C238.178 337.774 238.073 337.447 238.018 337.074C238.018 336.883 238.054 336.705 238.059 336.514C238.064 336.323 238.059 336.113 238.059 335.884C238.059 335.735 238.059 335.576 238.059 335.417L238.105 335.497C238.15 335.633 238.201 335.767 238.26 335.898C238.314 335.987 238.378 336.066 238.433 336.155C238.488 336.243 238.588 336.332 238.583 336.421C238.583 336.421 238.652 336.267 238.661 336.229C238.691 336.059 238.699 335.884 238.684 335.711C238.684 335.464 238.684 335.212 238.684 334.965C238.67 334.612 238.629 334.261 238.561 333.915C238.488 333.52 238.391 333.13 238.269 332.748C238.137 332.379 237.991 332.025 237.84 331.693C237.731 331.46 237.612 331.236 237.484 331.021C237.43 330.821 237.357 330.615 237.288 330.415C237.395 330.509 237.494 330.612 237.585 330.723C237.752 330.901 237.904 331.093 238.041 331.297C238.118 331.423 238.255 331.763 238.392 331.661C238.529 331.558 238.551 330.755 238.565 330.606C238.622 330.067 238.64 329.524 238.62 328.982C238.602 328.703 238.536 328.43 238.424 328.175C238.26 327.829 238.082 327.503 237.913 327.171C237.798 326.905 237.644 326.658 237.457 326.439C237.41 326.391 237.356 326.35 237.298 326.317C237.065 325.687 236.769 325.109 236.504 324.525C236.751 324.749 236.981 324.991 237.193 325.249C237.286 325.383 237.39 325.509 237.503 325.627C237.571 325.687 237.754 325.734 237.785 325.86C237.817 325.986 237.84 325.585 237.84 325.566C237.859 325.4 237.859 325.233 237.84 325.067C237.828 324.427 237.635 323.804 237.284 323.275C237.06 322.939 236.828 322.598 236.604 322.285C236.554 321.9 236.481 321.518 236.386 321.142C236.273 320.707 236.12 320.283 235.93 319.877L235.866 319.756C235.993 319.635 236.322 319.154 236.276 319.005C236.212 318.557 236.104 318.118 235.952 317.693C235.829 317.423 235.688 317.175 235.551 316.933V316.905C235.411 316.415 235.157 315.967 234.812 315.598C234.521 315.257 234.211 314.968 233.941 314.59L233.823 314.403C233.773 314.31 233.727 314.217 233.686 314.119C233.645 314.021 233.558 313.811 233.499 313.652C233.44 313.493 233.372 313.33 233.317 313.185C233.511 313.333 233.728 313.445 233.96 313.517C233.96 313.517 234.001 313.167 234.037 312.84C234.075 312.587 234.09 312.331 234.083 312.075C233.91 311.632 233.696 311.207 233.444 310.805L233.102 310.227C232.979 310.031 232.865 309.83 232.756 309.615C232.672 309.456 232.599 309.29 232.537 309.12C232.879 309.587 233.23 310.115 233.577 310.558L233.554 309.979C233.554 309.9 233.554 309.835 233.554 309.821C233.586 309.576 233.595 309.329 233.581 309.083C233.486 308.477 233.295 307.891 233.016 307.347C232.884 307.086 232.747 306.839 232.596 306.601C232.446 306.362 232.291 306.134 232.14 305.919C231.813 305.438 231.523 304.931 231.274 304.402L231.607 304.701V303.912C231.626 303.657 231.615 303.4 231.575 303.147C231.333 302.634 231.064 302.172 230.8 301.705L230.412 300.991C230.272 300.741 230.144 300.484 230.029 300.221C229.856 299.815 229.692 299.386 229.537 298.947C229.459 298.709 229.395 298.527 229.313 298.28C229.231 298.032 229.149 297.813 229.081 297.594C229.05 297.424 229.061 297.249 229.113 297.085C229.082 297.004 229.047 296.924 229.008 296.847L228.752 296.348C228.657 296.166 228.565 295.984 228.492 295.853C228.468 295.796 228.44 295.74 228.41 295.685L228.383 295.62C228.344 295.818 228.35 296.022 228.401 296.217Z" fill="#1E2727"/>
<path d="M205.505 310.334C205.476 310.403 205.454 310.475 205.441 310.549C205.441 310.549 205.519 310.824 205.56 311.085C205.601 311.347 205.619 311.585 205.519 311.524C205.51 311.653 205.51 311.782 205.519 311.911C205.588 312.169 205.644 312.431 205.688 312.695C205.688 312.793 205.688 312.887 205.688 312.989C205.701 313.119 205.693 313.25 205.665 313.377C205.594 313.566 205.514 313.751 205.423 313.932C205.382 314.035 205.332 314.156 205.291 314.249C205.354 314.407 205.442 314.554 205.551 314.683C205.595 314.745 205.647 314.8 205.706 314.847C205.656 314.982 205.616 315.12 205.587 315.262C205.55 315.384 205.536 315.512 205.546 315.64C205.546 315.687 205.546 315.673 205.592 315.691C205.614 315.698 205.638 315.698 205.66 315.691C205.66 315.766 205.628 315.827 205.615 315.892C205.522 316.333 205.403 316.768 205.259 317.194C205.095 317.533 204.95 317.883 204.826 318.239C204.798 318.365 204.73 318.734 204.826 318.851C204.857 318.758 204.893 318.668 204.935 318.58C205.017 318.477 204.963 318.58 205.008 318.636C205.054 318.692 205.031 318.711 205.099 318.636C205.168 318.561 205.277 318.407 205.373 318.305C205.306 318.506 205.229 318.704 205.14 318.897C205.102 318.969 205.068 319.044 205.04 319.121C205.008 319.21 204.963 319.28 204.931 319.373C204.899 319.467 204.89 319.551 204.862 319.63C204.835 319.709 204.826 319.723 204.812 319.779C204.908 319.952 205.045 319.873 205.136 319.779C205.308 319.677 205.462 319.546 205.592 319.392C205.592 319.495 205.592 319.597 205.592 319.691C205.581 319.817 205.547 319.941 205.492 320.055C205.433 320.176 205.363 320.292 205.282 320.4C205.213 320.507 205.118 320.493 205.036 320.554C205.065 320.653 205.109 320.746 205.168 320.829C205.227 320.904 205.298 320.969 205.378 321.021C205.378 321.119 205.378 321.226 205.337 321.315C205.3 321.501 205.227 321.646 205.177 321.823C205.125 321.983 205.063 322.139 204.99 322.29C204.842 322.634 204.762 323.006 204.757 323.382V323.513C204.795 323.524 204.834 323.524 204.871 323.513C204.812 323.597 204.753 323.676 204.684 323.755C204.453 323.964 204.262 324.216 204.124 324.497C204.078 324.651 204.639 324.581 204.684 324.553C204.895 324.412 205.044 324.193 205.099 323.942C205.209 324.026 205.067 324.175 205.136 324.292C205.204 324.409 205.295 324.292 205.364 324.245C205.243 324.585 205.09 324.911 204.908 325.221C204.61 325.608 204.365 326.035 204.178 326.49C204.124 326.663 203.982 327.148 204.119 327.307C204.201 327.209 204.238 327.031 204.329 326.943C204.42 326.854 204.379 326.915 204.452 327.017C204.525 327.12 204.488 327.115 204.598 327.017C204.707 326.919 204.922 326.705 205.09 326.551C204.956 326.826 204.804 327.091 204.634 327.344C204.262 327.842 204.003 328.419 203.877 329.033C203.836 329.318 203.727 330.004 203.877 330.251C203.993 330.023 204.134 329.808 204.297 329.612C204.379 329.537 204.484 329.509 204.534 329.383C204.569 329.241 204.59 329.096 204.598 328.949C204.657 328.618 204.689 328.679 204.735 328.814C204.698 328.959 204.666 329.094 204.634 329.215C204.57 329.477 204.324 330.527 204.498 330.727C204.557 330.629 204.643 330.522 204.748 330.536C204.785 330.713 204.607 331.003 204.534 331.119C204.156 331.796 203.672 332.351 203.517 333.187C203.299 333.489 203.144 333.834 203.061 334.199C203.244 334.377 203.49 334.269 203.69 334.377C203.659 334.414 203.627 334.447 203.599 334.484C203.433 334.736 203.28 334.998 203.143 335.268C203.034 335.441 202.87 335.483 202.774 335.655C202.823 335.923 202.919 336.179 203.057 336.411C203.145 336.552 203.247 336.684 203.362 336.803L203.257 336.925C203.086 337.122 202.946 337.346 202.842 337.587C202.781 337.697 202.733 337.815 202.701 337.937C202.801 337.97 202.902 338.189 202.993 338.325L203.125 338.521H203.089C202.99 338.514 202.892 338.49 202.801 338.451C202.71 338.443 202.617 338.455 202.53 338.486C202.443 338.516 202.363 338.565 202.295 338.628C202.085 338.804 201.918 339.028 201.807 339.281C201.743 339.44 201.709 339.609 201.707 339.781C201.739 339.991 201.866 339.874 201.958 339.921C201.818 340.393 201.594 340.834 201.296 341.223C201.174 341.42 201.02 341.596 200.841 341.741L200.758 341.806C200.557 341.835 200.366 341.916 200.202 342.039C200.202 342.343 200.462 342.506 200.562 342.702C200.503 342.837 200.398 342.884 200.334 342.996C200.271 343.108 200.312 343.178 200.403 343.299C200.494 343.421 200.535 343.486 200.603 343.57C200.603 343.537 200.147 344.872 200.102 345.007C199.947 345.44 199.711 345.838 199.409 346.179C199.222 346.375 198.953 346.305 198.802 346.505C198.989 347.237 199.396 347.89 199.965 348.372C200.617 348.372 201.301 348.111 201.894 348.405C203.025 348.974 203.964 350.318 205.223 350.659C206.254 350.876 207.327 350.711 208.25 350.192C208.501 350.061 208.761 349.697 209.003 349.609C209.244 349.52 209.554 349.702 209.764 349.735C210 349.794 210.248 349.785 210.479 349.708C210.71 349.631 210.916 349.49 211.073 349.301C211.267 349.008 211.431 348.695 211.561 348.367C211.724 348.034 211.969 347.749 212.272 347.541C212.279 347.405 212.279 347.268 212.272 347.131C212.272 346.977 212.24 346.804 212.222 346.622C212.409 346.594 212.646 346.757 212.833 346.622C212.573 345.885 212.249 345.054 211.921 344.34C211.9 344.266 211.883 344.192 211.871 344.116C211.825 343.962 211.611 343.584 211.675 343.374C211.711 343.243 211.802 343.341 211.748 343.141C211.695 342.979 211.628 342.823 211.547 342.674C211.593 342.604 211.666 342.599 211.72 342.525C211.777 342.447 211.82 342.361 211.848 342.268C211.729 342.1 211.625 341.876 211.506 341.694C211.371 341.493 211.26 341.277 211.173 341.05C211.111 340.868 211.063 340.681 211.032 340.49C211.009 340.327 210.986 340.168 210.954 340.023C210.931 339.909 210.899 339.796 210.859 339.687C210.923 339.601 210.969 339.503 210.995 339.398C211.027 339.314 211.073 339.071 211.132 339.067C211.06 338.619 210.906 338.19 210.676 337.802C210.589 337.633 210.522 337.455 210.476 337.27C210.537 337.216 210.586 337.149 210.621 337.074C210.661 336.974 210.685 336.869 210.694 336.761C210.731 336.528 210.585 336.435 210.535 336.229C210.667 336.229 210.817 336.416 210.945 336.318C210.913 335.923 210.769 335.547 210.53 335.235C210.448 335.133 210.361 335.049 210.279 334.937C210.236 334.878 210.205 334.811 210.189 334.739C210.173 334.668 210.173 334.593 210.188 334.521C210.223 334.619 210.285 334.705 210.366 334.769C210.397 334.571 210.397 334.369 210.366 334.171C210.61 334.204 210.839 334.308 211.027 334.47C211.128 334.087 210.571 333.425 210.462 333.07C210.416 332.93 210.38 332.673 210.32 332.426C210.433 332.561 210.575 332.667 210.735 332.734V332.711C210.634 332.235 210.439 331.785 210.161 331.39C210.257 331.189 209.878 330.541 209.805 330.368C209.776 330.3 209.743 330.235 209.705 330.172L209.673 330.093C209.803 330.173 209.954 330.214 210.106 330.209C210.371 330.181 210.074 329.785 209.969 329.607C209.582 328.912 208.866 328.081 208.934 327.115C209.071 327.115 209.185 327.414 209.276 327.521C209.346 327.622 209.437 327.706 209.542 327.768C209.646 327.83 209.762 327.868 209.883 327.881C209.827 327.736 209.761 327.596 209.687 327.461C209.595 327.246 209.518 327.055 209.427 326.835C209.212 326.423 209.034 325.992 208.893 325.547C208.848 325.361 208.811 325.207 208.766 325.029C209.035 325.188 208.866 324.684 208.811 324.437C208.749 324.143 208.672 323.853 208.579 323.569L208.734 323.648C208.893 323.713 209.076 323.704 209.222 323.872C209.192 323.606 209.093 323.352 208.934 323.139C208.974 323.113 209.008 323.078 209.033 323.037C209.059 322.996 209.075 322.95 209.08 322.901C209.103 322.808 209.039 322.719 208.957 322.64C208.84 322.213 208.648 321.812 208.392 321.455C208.282 321.277 208.164 321.095 208.068 320.904C208.023 320.817 207.984 320.727 207.954 320.633L208.05 320.68C208.159 320.794 208.308 320.861 208.465 320.867C208.519 320.867 208.528 320.815 208.515 320.755C208.535 320.732 208.551 320.705 208.56 320.675C208.476 320.539 208.38 320.411 208.273 320.293C207.923 319.819 207.704 319.258 207.639 318.669C207.721 318.669 207.799 318.879 207.854 318.953C207.908 319.028 208.104 319.215 208.227 319.201C208.227 319.201 208.164 319.056 208.159 319.037C208.136 318.99 208.119 318.94 208.109 318.888C208.085 318.762 208.074 318.634 208.077 318.505C208.078 318.333 208.097 318.161 208.132 317.992C208.143 317.941 208.143 317.889 208.132 317.838C208.111 317.798 208.083 317.761 208.05 317.731C207.981 317.637 207.918 317.539 207.863 317.437L207.762 317.25C207.709 316.92 207.594 316.603 207.425 316.317C207.293 316.095 207.14 315.888 206.969 315.696C206.888 315.602 206.829 315.49 206.796 315.369C206.75 315.159 206.91 315.397 206.905 315.267C206.901 315.136 206.8 315.052 206.773 314.982C206.746 314.912 206.746 314.865 206.773 314.907C206.82 314.967 206.861 315.031 206.896 315.099C206.92 315.135 206.951 315.167 206.987 315.192C207.078 315.267 207.156 315.192 207.202 315.047C207.202 315.005 207.284 314.557 207.243 314.557C207.074 314.557 206.937 314.45 206.787 314.273C206.864 314.252 206.931 314.202 206.974 314.133C206.937 314.021 206.901 313.904 206.855 313.797C206.809 313.689 206.723 313.54 206.654 313.414C206.54 313.178 206.441 312.935 206.358 312.686C206.407 312.735 206.464 312.775 206.527 312.803C206.474 312.588 206.404 312.379 206.317 312.177C206.271 312.075 206.221 311.981 206.185 311.874C206.153 311.766 206.13 311.655 206.116 311.543C206.093 311.435 206.048 311.431 205.989 311.356C205.859 311.106 205.766 310.839 205.71 310.563C205.678 310.452 205.631 310.347 205.569 310.25C205.537 310.287 205.537 310.297 205.505 310.334Z" fill="#1E2727"/>
</g>
<defs>
<linearGradient id="paint0_linear_2491_2169" x1="694.187" y1="450.661" x2="1337" y2="450.661" gradientUnits="userSpaceOnUse">
<stop offset="0.56" stop-color="#C96BB6"/>
<stop offset="1" stop-color="#B10E9B"/>
</linearGradient>
<linearGradient id="paint1_linear_2491_2169" x1="335.973" y1="437.44" x2="417.165" y2="385.497" gradientUnits="userSpaceOnUse">
<stop offset="0.56" stop-color="#AD2398"/>
<stop offset="1" stop-color="#BC5EA9"/>
</linearGradient>
<clipPath id="clip0_2491_2169">
<rect width="1336" height="768" fill="white"/>
</clipPath>
</defs>
</svg>
