<svg width="236" height="66" viewBox="0 0 236 66" fill="none" xmlns="http://www.w3.org/2000/svg">
<g filter="url(#filter0_d_356_1142)">
<rect x="4" width="228" height="58" rx="29" fill="url(#paint0_linear_356_1142)" fill-opacity="0.8" shape-rendering="crispEdges"/>
<rect x="5" y="1" width="226" height="56" rx="28" stroke="url(#paint1_linear_356_1142)" stroke-width="2" shape-rendering="crispEdges"/>
</g>
<path d="M27.517 38V20.5455H34.4034C35.7216 20.5455 36.8466 20.7812 37.7784 21.2528C38.7159 21.7187 39.429 22.3807 39.9176 23.2386C40.4119 24.0909 40.6591 25.0937 40.6591 26.2472C40.6591 27.4062 40.4091 28.4034 39.9091 29.2386C39.4091 30.0682 38.6847 30.7045 37.7358 31.1477C36.7926 31.5909 35.6506 31.8125 34.3097 31.8125H29.6989V28.8466H33.7131C34.4176 28.8466 35.0028 28.75 35.4688 28.5568C35.9347 28.3636 36.2813 28.0739 36.5085 27.6875C36.7415 27.3011 36.858 26.821 36.858 26.2472C36.858 25.6676 36.7415 25.179 36.5085 24.7812C36.2813 24.3835 35.9318 24.0824 35.4602 23.8778C34.9943 23.6676 34.4063 23.5625 33.696 23.5625H31.2074V38H27.517ZM36.9432 30.0568L41.2812 38H37.2074L32.9631 30.0568H36.9432ZM43.267 38V20.5455H55.0284V23.5881H46.9574V27.7472H54.4233V30.7898H46.9574V34.9574H55.0625V38H43.267ZM69.5362 26.1875C69.4169 25.7727 69.2493 25.4062 69.0334 25.0881C68.8175 24.7642 68.5533 24.4915 68.2408 24.2699C67.9339 24.0426 67.5817 23.8693 67.1839 23.75C66.7919 23.6307 66.3572 23.571 65.88 23.571C64.9879 23.571 64.2038 23.7926 63.5277 24.2358C62.8572 24.679 62.3345 25.3239 61.9595 26.1705C61.5845 27.0114 61.397 28.0398 61.397 29.2557C61.397 30.4716 61.5817 31.5057 61.951 32.358C62.3203 33.2102 62.843 33.8608 63.5192 34.3097C64.1953 34.7528 64.9936 34.9744 65.9141 34.9744C66.7493 34.9744 67.4624 34.8267 68.0533 34.5312C68.6499 34.2301 69.1044 33.8068 69.4169 33.2614C69.7351 32.7159 69.8942 32.071 69.8942 31.3267L70.6442 31.4375H66.1442V28.6591H73.4482V30.858C73.4482 32.392 73.1243 33.7102 72.4766 34.8125C71.8288 35.9091 70.9368 36.7557 69.8004 37.3523C68.6641 37.9432 67.3629 38.2386 65.897 38.2386C64.2607 38.2386 62.8232 37.8778 61.5845 37.1562C60.3459 36.429 59.38 35.3977 58.6868 34.0625C57.9993 32.7216 57.6555 31.1307 57.6555 29.2898C57.6555 27.875 57.8601 26.6136 58.2692 25.5057C58.6839 24.392 59.2635 23.4489 60.0078 22.6761C60.7521 21.9034 61.6186 21.3153 62.6072 20.9119C63.5959 20.5085 64.6669 20.3068 65.8203 20.3068C66.8089 20.3068 67.7294 20.4517 68.5817 20.7415C69.4339 21.0256 70.1896 21.429 70.8487 21.9517C71.5135 22.4744 72.0561 23.0966 72.4766 23.8182C72.897 24.5341 73.1669 25.3239 73.2862 26.1875H69.5362ZM79.9105 20.5455V38H76.2202V20.5455H79.9105ZM92.4155 25.5653C92.3473 24.8778 92.0547 24.3437 91.5376 23.9631C91.0206 23.5824 90.3189 23.392 89.4325 23.392C88.8303 23.392 88.3217 23.4773 87.907 23.6477C87.4922 23.8125 87.174 24.0426 86.9524 24.3381C86.7365 24.6335 86.6286 24.9688 86.6286 25.3438C86.6172 25.6562 86.6825 25.929 86.8246 26.1619C86.9723 26.3949 87.174 26.5966 87.4297 26.767C87.6854 26.9318 87.9808 27.0767 88.3161 27.2017C88.6513 27.321 89.0092 27.4233 89.3899 27.5085L90.9581 27.8835C91.7195 28.054 92.4183 28.2812 93.0547 28.5653C93.6911 28.8494 94.2422 29.1989 94.7081 29.6136C95.174 30.0284 95.5348 30.517 95.7905 31.0795C96.0518 31.642 96.1854 32.2869 96.1911 33.0142C96.1854 34.0824 95.9126 35.0085 95.3729 35.7926C94.8388 36.571 94.0661 37.1761 93.0547 37.608C92.049 38.0341 90.8359 38.2472 89.4155 38.2472C88.0064 38.2472 86.7791 38.0312 85.7337 37.5994C84.6939 37.1676 83.8814 36.5284 83.2962 35.6818C82.7166 34.8295 82.4126 33.7756 82.3842 32.5199H85.9553C85.995 33.1051 86.1626 33.5937 86.4581 33.9858C86.7592 34.3722 87.1598 34.6648 87.6598 34.8636C88.1655 35.0568 88.7365 35.1534 89.3729 35.1534C89.9979 35.1534 90.5405 35.0625 91.0007 34.8807C91.4666 34.6989 91.8274 34.446 92.0831 34.1222C92.3388 33.7983 92.4666 33.4261 92.4666 33.0057C92.4666 32.6136 92.3501 32.2841 92.1172 32.017C91.8899 31.75 91.5547 31.5227 91.1115 31.3352C90.674 31.1477 90.1371 30.9773 89.5007 30.8239L87.6001 30.3466C86.1286 29.9886 84.9666 29.429 84.1143 28.6676C83.2621 27.9062 82.8388 26.8807 82.8445 25.5909C82.8388 24.5341 83.12 23.6108 83.6882 22.821C84.2621 22.0312 85.049 21.4148 86.049 20.9716C87.049 20.5284 88.1854 20.3068 89.4581 20.3068C90.7536 20.3068 91.8842 20.5284 92.8501 20.9716C93.8217 21.4148 94.5774 22.0312 95.1172 22.821C95.657 23.6108 95.9354 24.5256 95.9524 25.5653H92.4155ZM98.0085 23.5881V20.5455H112.344V23.5881H107V38H103.352V23.5881H98.0085ZM114.705 38V20.5455H126.466V23.5881H118.395V27.7472H125.861V30.7898H118.395V34.9574H126.5V38H114.705ZM129.4 38V20.5455H136.286C137.604 20.5455 138.729 20.7812 139.661 21.2528C140.599 21.7187 141.312 22.3807 141.8 23.2386C142.295 24.0909 142.542 25.0937 142.542 26.2472C142.542 27.4062 142.292 28.4034 141.792 29.2386C141.292 30.0682 140.567 30.7045 139.619 31.1477C138.675 31.5909 137.533 31.8125 136.192 31.8125H131.582V28.8466H135.596C136.3 28.8466 136.886 28.75 137.352 28.5568C137.817 28.3636 138.164 28.0739 138.391 27.6875C138.624 27.3011 138.741 26.821 138.741 26.2472C138.741 25.6676 138.624 25.179 138.391 24.7812C138.164 24.3835 137.815 24.0824 137.343 23.8778C136.877 23.6676 136.289 23.5625 135.579 23.5625H133.09V38H129.4ZM138.826 30.0568L143.164 38H139.09L134.846 30.0568H138.826ZM165.304 20.5455V38H162.116L154.523 27.0142H154.395V38H150.705V20.5455H153.943L161.477 31.5227H161.631V20.5455H165.304ZM184.393 29.2727C184.393 31.1761 184.032 32.7955 183.31 34.1307C182.594 35.4659 181.617 36.4858 180.379 37.1903C179.146 37.8892 177.759 38.2386 176.219 38.2386C174.668 38.2386 173.276 37.8864 172.043 37.1818C170.81 36.4773 169.836 35.4574 169.12 34.1222C168.404 32.7869 168.046 31.1705 168.046 29.2727C168.046 27.3693 168.404 25.75 169.12 24.4148C169.836 23.0795 170.81 22.0625 172.043 21.3636C173.276 20.6591 174.668 20.3068 176.219 20.3068C177.759 20.3068 179.146 20.6591 180.379 21.3636C181.617 22.0625 182.594 23.0795 183.31 24.4148C184.032 25.75 184.393 27.3693 184.393 29.2727ZM180.651 29.2727C180.651 28.0398 180.467 27 180.097 26.1534C179.734 25.3068 179.219 24.6648 178.555 24.2273C177.89 23.7898 177.112 23.571 176.219 23.571C175.327 23.571 174.549 23.7898 173.884 24.2273C173.219 24.6648 172.702 25.3068 172.333 26.1534C171.969 27 171.788 28.0398 171.788 29.2727C171.788 30.5057 171.969 31.5455 172.333 32.392C172.702 33.2386 173.219 33.8807 173.884 34.3182C174.549 34.7557 175.327 34.9744 176.219 34.9744C177.112 34.9744 177.89 34.7557 178.555 34.3182C179.219 33.8807 179.734 33.2386 180.097 32.392C180.467 31.5455 180.651 30.5057 180.651 29.2727ZM190.399 38L185.405 20.5455H189.436L192.325 32.6733H192.47L195.658 20.5455H199.109L202.288 32.6989H202.442L205.331 20.5455H209.362L204.368 38H200.771L197.447 26.5881H197.311L193.996 38H190.399Z" fill="white"/>
<defs>
<filter id="filter0_d_356_1142" x="0" y="0" width="236" height="66" filterUnits="userSpaceOnUse" color-interpolation-filters="sRGB">
<feFlood flood-opacity="0" result="BackgroundImageFix"/>
<feColorMatrix in="SourceAlpha" type="matrix" values="0 0 0 0 0 0 0 0 0 0 0 0 0 0 0 0 0 0 127 0" result="hardAlpha"/>
<feOffset dy="4"/>
<feGaussianBlur stdDeviation="2"/>
<feComposite in2="hardAlpha" operator="out"/>
<feColorMatrix type="matrix" values="0 0 0 0 0 0 0 0 0 0 0 0 0 0 0 0 0 0 0.25 0"/>
<feBlend mode="normal" in2="BackgroundImageFix" result="effect1_dropShadow_356_1142"/>
<feBlend mode="normal" in="SourceGraphic" in2="effect1_dropShadow_356_1142" result="shape"/>
</filter>
<linearGradient id="paint0_linear_356_1142" x1="4" y1="29" x2="232" y2="29" gradientUnits="userSpaceOnUse">
<stop stop-color="#A05BA6"/>
<stop offset="1" stop-color="#761D9C"/>
</linearGradient>
<linearGradient id="paint1_linear_356_1142" x1="118" y1="0" x2="118" y2="58" gradientUnits="userSpaceOnUse">
<stop stop-color="#CECCCC"/>
<stop offset="1" stop-color="#747474"/>
</linearGradient>
</defs>
</svg>
