<svg width="72" height="51" viewBox="0 0 72 51" fill="none" xmlns="http://www.w3.org/2000/svg">
<ellipse cx="36" cy="10" rx="18" ry="10" fill="white"/>
<path d="M50.25 10.0001C50.25 11.9052 48.8512 13.7877 46.2424 15.237C43.659 16.6722 40.0392 17.5834 36 17.5834C31.9608 17.5834 28.341 16.6722 25.7576 15.237C23.1488 13.7877 21.75 11.9052 21.75 10.0001C21.75 8.09495 23.1488 6.21248 25.7576 4.76314C28.341 3.32792 31.9608 2.41675 36 2.41675C40.0392 2.41675 43.659 3.32792 46.2424 4.76314C48.8512 6.21248 50.25 8.09495 50.25 10.0001Z" stroke="#EC41C9" stroke-width="1.5"/>
<g filter="url(#filter0_d_2609_237)">
<path d="M36.8563 6.81102H34.1363V5.35547H36.8563V6.81102ZM36.8563 14.2332H34.1363V12.7777H36.8563V14.2332ZM36.3963 11.8888V10.611C36.3963 10.5147 36.3563 10.4481 36.2763 10.411C36.1963 10.3666 36.0563 10.3444 35.8563 10.3444H34.0963C33.2163 10.3444 32.603 10.2332 32.2563 10.011C31.9097 9.7814 31.7363 9.47769 31.7363 9.09991V7.49991C31.7363 7.11473 31.9297 6.81473 32.3163 6.59991C32.703 6.37769 33.3497 6.26658 34.2563 6.26658H36.6963C37.603 6.26658 38.2497 6.37769 38.6363 6.59991C39.023 6.81473 39.2163 7.11473 39.2163 7.49991V8.41103H36.3563V7.71102C36.3563 7.60732 36.3163 7.53695 36.2363 7.49991C36.1563 7.45547 36.0163 7.43325 35.8163 7.43325H35.1363C34.9363 7.43325 34.7963 7.45547 34.7163 7.49991C34.6363 7.53695 34.5963 7.60732 34.5963 7.71102V8.95547C34.5963 9.05177 34.6363 9.12214 34.7163 9.16658C34.7963 9.20362 34.9363 9.22214 35.1363 9.22214H36.8563C37.7497 9.22214 38.3697 9.32954 38.7163 9.54436C39.0763 9.75917 39.2563 10.0592 39.2563 10.4444V12.0999C39.2563 12.4851 39.063 12.7888 38.6763 13.011C38.2897 13.2258 37.643 13.3332 36.7363 13.3332H34.3163C33.4097 13.3332 32.7563 13.2258 32.3563 13.011C31.9697 12.7888 31.7763 12.4851 31.7763 12.0999V11.1888H34.6363V11.8888C34.6363 11.9851 34.6763 12.0555 34.7563 12.0999C34.8363 12.1444 34.9763 12.1666 35.1763 12.1666H35.8563C36.0563 12.1666 36.1963 12.1444 36.2763 12.0999C36.3563 12.0555 36.3963 11.9851 36.3963 11.8888Z" fill="#EC41C9"/>
</g>
<ellipse cx="18" cy="20" rx="18" ry="10" fill="white"/>
<path d="M32.25 20.0001C32.25 21.9052 30.8512 23.7877 28.2424 25.237C25.659 26.6722 22.0392 27.5834 18 27.5834C13.9608 27.5834 10.341 26.6722 7.75763 25.237C5.14882 23.7877 3.75 21.9052 3.75 20.0001C3.75 18.0949 5.14882 16.2125 7.75763 14.7631C10.341 13.3279 13.9608 12.4167 18 12.4167C22.0392 12.4167 25.659 13.3279 28.2424 14.7631C30.8512 16.2125 32.25 18.0949 32.25 20.0001Z" stroke="#EC41C9" stroke-width="1.5"/>
<g filter="url(#filter1_d_2609_237)">
<path d="M22.623 20.5554L17.8598 15.5554L17.8599 21.9443L22.623 20.5554Z" fill="#EC41C9"/>
<path d="M17.8598 15.5554L13.0967 20.5554L17.8599 21.9443L17.8598 15.5554Z" fill="#9C1480"/>
<path d="M22.8599 20.8333L17.86 24.7222V22.1843L22.8599 20.8333Z" fill="#EC41C9"/>
<path d="M17.86 24.7222L13 20.7954L17.86 22.1843V24.7222Z" fill="#9C1480"/>
</g>
<ellipse cx="54" cy="20" rx="18" ry="10" fill="white"/>
<path d="M68.25 20.0001C68.25 21.9052 66.8512 23.7877 64.2424 25.237C61.659 26.6722 58.0392 27.5834 54 27.5834C49.9608 27.5834 46.341 26.6722 43.7576 25.237C41.1488 23.7877 39.75 21.9052 39.75 20.0001C39.75 18.0949 41.1488 16.2125 43.7576 14.7631C46.341 13.3279 49.9608 12.4167 54 12.4167C58.0392 12.4167 61.659 13.3279 64.2424 14.7631C66.8512 16.2125 68.25 18.0949 68.25 20.0001Z" stroke="#EC41C9" stroke-width="1.5"/>
<g filter="url(#filter2_d_2609_237)">
<path d="M55 16.8963H57.284H59.1953H60.5469C61.849 16.8963 62.8255 17.0518 63.4766 17.3628C64.1667 17.6956 64.5117 18.1188 64.5117 18.6324C64.5117 19.1604 64.1602 19.5728 63.457 19.8694C64.6159 20.2021 65.1953 20.7012 65.1953 21.3668C65.1953 21.6199 65.1237 21.8478 64.9805 22.0503C64.8503 22.2529 64.6875 22.4193 64.4922 22.5495C64.3099 22.6725 64.0625 22.781 63.75 22.875C63.4375 22.969 63.151 23.0378 62.8906 23.0812C62.6432 23.1246 62.3307 23.1571 61.9531 23.1788C61.5755 23.2005 61.2891 23.215 61.0938 23.2222C60.9115 23.2222 60.6706 23.2222 60.3711 23.2222H59.1953H57.284H55V22.3325H56.582V17.786H55V16.8963ZM60.5078 17.786H58.2812V19.4896H60.4102C60.6966 19.4896 60.9375 19.4823 61.1328 19.4679C61.3281 19.4534 61.569 19.4209 61.8555 19.3702C62.1549 19.3196 62.3828 19.2292 62.5391 19.099C62.6953 18.9615 62.7734 18.7879 62.7734 18.5781C62.7734 18.0501 62.0182 17.786 60.5078 17.786ZM60.2539 20.3793H58.2812V22.3325H60.332C60.8529 22.3325 61.276 22.3252 61.6016 22.3108C61.9271 22.2891 62.2396 22.2493 62.5391 22.1914C62.8516 22.1335 63.0794 22.0431 63.2227 21.9201C63.3659 21.7899 63.4375 21.6236 63.4375 21.421C63.4375 20.7266 62.3763 20.3793 60.2539 20.3793Z" fill="#EC41C9"/>
<path d="M57.284 16V16.8963H59.1953V16H57.284Z" fill="#EC41C9"/>
<path d="M57.284 23.2222V24.0556H59.1953V23.2222H57.284Z" fill="#EC41C9"/>
<path d="M54.1953 16.8963H51.9113H50H48.6484C47.3464 16.8963 46.3698 17.0518 45.7188 17.3628C45.0286 17.6956 44.6836 18.1188 44.6836 18.6324C44.6836 19.1604 45.0352 19.5728 45.7383 19.8694C44.5794 20.2021 44 20.7012 44 21.3668C44 21.6199 44.0716 21.8478 44.2148 22.0503C44.3451 22.2529 44.5078 22.4193 44.7031 22.5495C44.8854 22.6725 45.1328 22.781 45.4453 22.875C45.7578 22.969 46.0443 23.0378 46.3047 23.0812C46.5521 23.1246 46.8646 23.1571 47.2422 23.1788C47.6198 23.2005 47.9062 23.215 48.1016 23.2222C48.2839 23.2222 48.5247 23.2222 48.8242 23.2222H50H51.9113H54.1953V22.3325H52.6133V17.786H54.1953V16.8963ZM48.6875 17.786H50.9141V19.4896H48.7852C48.4987 19.4896 48.2578 19.4823 48.0625 19.4679C47.8672 19.4534 47.6263 19.4209 47.3398 19.3702C47.0404 19.3196 46.8125 19.2292 46.6562 19.099C46.5 18.9615 46.4219 18.7879 46.4219 18.5781C46.4219 18.0501 47.1771 17.786 48.6875 17.786ZM48.9414 20.3793H50.9141V22.3325H48.8633C48.3424 22.3325 47.9193 22.3252 47.5938 22.3108C47.2682 22.2891 46.9557 22.2493 46.6562 22.1914C46.3438 22.1335 46.1159 22.0431 45.9727 21.9201C45.8294 21.7899 45.7578 21.6236 45.7578 21.421C45.7578 20.7266 46.819 20.3793 48.9414 20.3793Z" fill="#EC41C9"/>
<path d="M51.9113 16V16.8963H50V16H51.9113Z" fill="#EC41C9"/>
<path d="M51.9113 23.2222V24.0556H50V23.2222H51.9113Z" fill="#EC41C9"/>
</g>
<g filter="url(#filter3_d_2609_237)">
<path d="M5.95643 26.305V32.155C5.95643 32.295 5.98643 32.395 6.04643 32.455C6.10643 32.505 6.21143 32.53 6.36143 32.53H6.75143V34H5.70143C5.02143 34 4.53143 33.855 4.23143 33.565C3.94143 33.265 3.79643 32.86 3.79643 32.35V26.125C3.79643 25.605 3.94143 25.2 4.23143 24.91C4.53143 24.61 5.02143 24.46 5.70143 24.46H6.79643V25.93H6.36143C6.21143 25.93 6.10643 25.96 6.04643 26.02C5.98643 26.07 5.95643 26.165 5.95643 26.305ZM7.36643 27.805V26.305C7.36643 26.165 7.33643 26.07 7.27643 26.02C7.22643 25.96 7.12643 25.93 6.97643 25.93H6.54143V24.46H7.62143C8.30143 24.46 8.78643 24.61 9.07643 24.91C9.37643 25.2 9.52643 25.605 9.52643 26.125V27.805H7.36643ZM7.36643 32.155V30.7H9.52643V32.35C9.52643 32.86 9.37643 33.265 9.07643 33.565C8.78643 33.855 8.30143 34 7.62143 34H6.54143V32.53H6.97643C7.12643 32.53 7.22643 32.505 7.27643 32.455C7.33643 32.395 7.36643 32.295 7.36643 32.155ZM19.5644 28.555V26.41C19.5644 26.27 19.5344 26.175 19.4744 26.125C19.4244 26.065 19.3244 26.035 19.1744 26.035H16.4894V24.46H19.8194C20.4994 24.46 20.9844 24.61 21.2744 24.91C21.5644 25.2 21.7094 25.605 21.7094 26.125V28.78C21.7094 29.29 21.5644 29.695 21.2744 29.995C20.9844 30.285 20.4994 30.43 19.8194 30.43H16.6694V28.915H19.1744C19.3244 28.915 19.4244 28.89 19.4744 28.84C19.5344 28.78 19.5644 28.685 19.5644 28.555ZM15.8744 24.46H18.0194V34H15.8744V24.46ZM18.0344 29.59H20.1644L22.1894 34H19.8944L18.0344 29.59ZM31.9506 31.27H30.0606L27.5106 24.46H29.7156L30.9906 28.945L32.1756 24.46H34.3656L31.9506 31.27ZM29.9256 30.115H32.0706V34H29.9256V30.115ZM43.9804 28.72V26.41C43.9804 26.27 43.9504 26.175 43.8904 26.125C43.8404 26.065 43.7404 26.035 43.5904 26.035H40.9054V24.46H44.2354C44.9154 24.46 45.4004 24.61 45.6904 24.91C45.9804 25.2 46.1254 25.605 46.1254 26.125V29.005C46.1254 29.525 45.9804 29.935 45.6904 30.235C45.4004 30.525 44.9154 30.67 44.2354 30.67H41.0854V29.095H43.5904C43.7404 29.095 43.8404 29.065 43.8904 29.005C43.9504 28.945 43.9804 28.85 43.9804 28.72ZM40.2904 24.46H42.4354V34H40.2904V24.46ZM53.5362 25.09H55.6812V34H53.5362V25.09ZM57.4362 24.46V26.035H51.7962V24.46H57.4362ZM67.0323 29.44V26.41C67.0323 26.27 67.0023 26.175 66.9423 26.125C66.8923 26.065 66.7923 26.035 66.6423 26.035H66.1323V24.46H67.2873C67.9673 24.46 68.4523 24.61 68.7423 24.91C69.0323 25.2 69.1773 25.605 69.1773 26.125V29.44H67.0323ZM67.0323 32.05V29.08H69.1773V32.335C69.1773 32.855 69.0323 33.265 68.7423 33.565C68.4523 33.855 67.9673 34 67.2873 34H66.1023V32.425H66.6423C66.7923 32.425 66.8923 32.395 66.9423 32.335C67.0023 32.275 67.0323 32.18 67.0323 32.05ZM65.5173 26.41V29.44H63.3723V26.125C63.3723 25.605 63.5173 25.2 63.8073 24.91C64.1073 24.61 64.5973 24.46 65.2773 24.46H66.4173V26.035H65.9223C65.7723 26.035 65.6673 26.065 65.6073 26.125C65.5473 26.175 65.5173 26.27 65.5173 26.41ZM65.5173 29.035V32.05C65.5173 32.18 65.5473 32.275 65.6073 32.335C65.6673 32.395 65.7723 32.425 65.9223 32.425H66.4023V34H65.2773C64.5973 34 64.1073 33.855 63.8073 33.565C63.5173 33.265 63.3723 32.855 63.3723 32.335V29.035H65.5173ZM12.1044 38.305V44.155C12.1044 44.295 12.1344 44.395 12.1944 44.455C12.2544 44.505 12.3594 44.53 12.5094 44.53H12.8994V46H11.8494C11.1694 46 10.6794 45.855 10.3794 45.565C10.0894 45.265 9.94438 44.86 9.94438 44.35V38.125C9.94438 37.605 10.0894 37.2 10.3794 36.91C10.6794 36.61 11.1694 36.46 11.8494 36.46H12.9444V37.93H12.5094C12.3594 37.93 12.2544 37.96 12.1944 38.02C12.1344 38.07 12.1044 38.165 12.1044 38.305ZM13.5144 39.805V38.305C13.5144 38.165 13.4844 38.07 13.4244 38.02C13.3744 37.96 13.2744 37.93 13.1244 37.93H12.6894V36.46H13.7694C14.4494 36.46 14.9344 36.61 15.2244 36.91C15.5244 37.2 15.6744 37.605 15.6744 38.125V39.805H13.5144ZM13.5144 44.155V42.7H15.6744V44.35C15.6744 44.86 15.5244 45.265 15.2244 45.565C14.9344 45.855 14.4494 46 13.7694 46H12.6894V44.53H13.1244C13.2744 44.53 13.3744 44.505 13.4244 44.455C13.4844 44.395 13.5144 44.295 13.5144 44.155ZM25.7123 40.555V38.41C25.7123 38.27 25.6823 38.175 25.6223 38.125C25.5723 38.065 25.4723 38.035 25.3223 38.035H22.6373V36.46H25.9673C26.6473 36.46 27.1323 36.61 27.4223 36.91C27.7123 37.2 27.8573 37.605 27.8573 38.125V40.78C27.8573 41.29 27.7123 41.695 27.4223 41.995C27.1323 42.285 26.6473 42.43 25.9673 42.43H22.8173V40.915H25.3223C25.4723 40.915 25.5723 40.89 25.6223 40.84C25.6823 40.78 25.7123 40.685 25.7123 40.555ZM22.0223 36.46H24.1673V46H22.0223V36.46ZM24.1823 41.59H26.3123L28.3373 46H26.0423L24.1823 41.59ZM39.3436 42.715V44.275H35.1886V42.715H39.3436ZM40.8286 46H38.6686L37.2436 38.68L35.8336 46H33.7036L35.8786 36.46H38.6086L40.8286 46ZM52.0095 36.46V38.035H46.5645V36.46H52.0095ZM49.7895 38.035H52.0095L48.6045 44.425H46.3845L49.7895 38.035ZM51.9195 44.425V46H46.3845V44.425H51.9195ZM58.1629 36.46H60.3229V46H58.1629V36.46ZM62.8279 40.36V41.935H59.1529V40.36H62.8279ZM63.2629 36.46V38.035H59.0179V36.46H63.2629ZM63.3829 44.425V46H59.0179V44.425H63.3829Z" fill="#EC41C9"/>
</g>
<defs>
<filter id="filter0_d_2609_237" x="31.7363" y="4.75547" width="9.12002" height="10.0777" filterUnits="userSpaceOnUse" color-interpolation-filters="sRGB">
<feFlood flood-opacity="0" result="BackgroundImageFix"/>
<feColorMatrix in="SourceAlpha" type="matrix" values="0 0 0 0 0 0 0 0 0 0 0 0 0 0 0 0 0 0 127 0" result="hardAlpha"/>
<feOffset dx="1"/>
<feGaussianBlur stdDeviation="0.3"/>
<feComposite in2="hardAlpha" operator="out"/>
<feColorMatrix type="matrix" values="0 0 0 0 0.0166232 0 0 0 0 0.0166232 0 0 0 0 0.0166232 0 0 0 0.52 0"/>
<feBlend mode="normal" in2="BackgroundImageFix" result="effect1_dropShadow_2609_237"/>
<feBlend mode="normal" in="SourceGraphic" in2="effect1_dropShadow_2609_237" result="shape"/>
</filter>
<filter id="filter1_d_2609_237" x="13" y="15.1554" width="11.2599" height="9.96675" filterUnits="userSpaceOnUse" color-interpolation-filters="sRGB">
<feFlood flood-opacity="0" result="BackgroundImageFix"/>
<feColorMatrix in="SourceAlpha" type="matrix" values="0 0 0 0 0 0 0 0 0 0 0 0 0 0 0 0 0 0 127 0" result="hardAlpha"/>
<feOffset dx="1"/>
<feGaussianBlur stdDeviation="0.2"/>
<feComposite in2="hardAlpha" operator="out"/>
<feColorMatrix type="matrix" values="0 0 0 0 0 0 0 0 0 0 0 0 0 0 0 0 0 0 0.25 0"/>
<feBlend mode="normal" in2="BackgroundImageFix" result="effect1_dropShadow_2609_237"/>
<feBlend mode="normal" in="SourceGraphic" in2="effect1_dropShadow_2609_237" result="shape"/>
</filter>
<filter id="filter2_d_2609_237" x="44" y="15.7" width="22.4953" height="8.65566" filterUnits="userSpaceOnUse" color-interpolation-filters="sRGB">
<feFlood flood-opacity="0" result="BackgroundImageFix"/>
<feColorMatrix in="SourceAlpha" type="matrix" values="0 0 0 0 0 0 0 0 0 0 0 0 0 0 0 0 0 0 127 0" result="hardAlpha"/>
<feOffset dx="1"/>
<feGaussianBlur stdDeviation="0.15"/>
<feComposite in2="hardAlpha" operator="out"/>
<feColorMatrix type="matrix" values="0 0 0 0 0 0 0 0 0 0 0 0 0 0 0 0 0 0 0.25 0"/>
<feBlend mode="normal" in2="BackgroundImageFix" result="effect1_dropShadow_2609_237"/>
<feBlend mode="normal" in="SourceGraphic" in2="effect1_dropShadow_2609_237" result="shape"/>
</filter>
<filter id="filter3_d_2609_237" x="2.79639" y="24.46" width="66.3809" height="21.54" filterUnits="userSpaceOnUse" color-interpolation-filters="sRGB">
<feFlood flood-opacity="0" result="BackgroundImageFix"/>
<feColorMatrix in="SourceAlpha" type="matrix" values="0 0 0 0 0 0 0 0 0 0 0 0 0 0 0 0 0 0 127 0" result="hardAlpha"/>
<feOffset dx="-1"/>
<feComposite in2="hardAlpha" operator="out"/>
<feColorMatrix type="matrix" values="0 0 0 0 0.611765 0 0 0 0 0.0784314 0 0 0 0 0.501961 0 0 0 1 0"/>
<feBlend mode="normal" in2="BackgroundImageFix" result="effect1_dropShadow_2609_237"/>
<feBlend mode="normal" in="SourceGraphic" in2="effect1_dropShadow_2609_237" result="shape"/>
</filter>
</defs>
</svg>
