<svg width="151" height="29" viewBox="0 0 151 29" fill="none" xmlns="http://www.w3.org/2000/svg">
<path d="M107.5 21H103.5V9C103.5 7.4 104.167 7 104.5 7H117V13.5C117 15.1 116 15.5 115.5 15.5H108.5C108.1 13.5 109.333 12.6667 110 12.5H113V10.5H107.5V21Z" fill="#D9D9D9"/>
<path d="M119 10.5V7H134.5C134.5 9 133.5 10.1667 133 10.5H128V21H124V10.5H119Z" fill="#D9D9D9"/>
<path d="M18 7V21H22V11H29V17.5H25.5C23.5 17.5 23.1769 19.5 23.2654 20.5H31.5C32.7 20.5 33 19.8333 33 19.5V8.5C33 7.7 32.3333 7.16667 32 7H18Z" fill="#D9D9D9"/>
<path d="M50 7C50 9.8 48.3333 10.5 47.5 10.5H35.5V7H50Z" fill="#C43CDC"/>
<path d="M47.5 15.5C49.5 15.9 49.6667 13.1667 49.5 12H36V21H48C50.8 21 50.8333 18.6667 50.5 17.5H39.5V15.5H47.5Z" fill="#D9D9D9"/>
<path d="M84 10.5H53V8C53 7.2 53.6667 7 54 7H84V10.5Z" fill="#C43CDC"/>
<path d="M53 21V11H56.7967V17.5H67.5C67.1 19.5 65.6667 20.6667 65 21H53Z" fill="#D9D9D9"/>
<path d="M74.5 21H70.5V13H80V11H84V14.5C84 15.7 82 16 81 16L84 21H79.5L77 16H74.5V21Z" fill="#D9D9D9"/>
<path d="M87 7.00023C87 7.00023 89.5 7 91 7.00009V12.5H96.5V7H100.5V14.5C100.5 15.3 99.8333 15.8333 99.5 16H95.5V21H92V16H87V7.00023Z" fill="#D9D9D9"/>
<path d="M12.4998 0.999987C10.4998 0.999987 9.33314 2.66665 8.99981 3.49999C6.49981 9.99999 1.39981 23.8 0.999808 25C0.599808 26.2 2.49981 26.8333 3.49981 27H138C141.2 27.8 142.666 25.6667 143 24.5C144.5 19.8333 147.9 9.49999 149.5 5.49999C151.1 1.49999 149.166 0.833321 148 0.999987H12.4998Z" stroke="#F23DE0"/>
</svg>
