<svg width="179" height="32" viewBox="0 0 179 32" fill="none" xmlns="http://www.w3.org/2000/svg">
<path d="M17.5 22C8.7 21.6 10.1667 16.5 12 14C2.20794 24.5754 18.7841 23.8684 28.8667 22.1131C27.6023 22.239 24.3473 22.3112 17.5 22Z" fill="#F23DE0"/>
<path d="M17.5001 25C0.700109 24.2 4.50011 16.6667 8.50011 13C-7.49976 25 8.50011 27 17 26.5C23.0107 26.1464 31.8085 24.725 36.7625 23.8242C34.2597 24.0916 28.6751 24.492 17.5001 25Z" fill="white"/>
<path d="M22.3175 21.24C21.2135 21.24 20.4055 21.088 19.8935 20.784C19.3975 20.464 19.1495 20.136 19.1495 19.8C19.1495 19.608 19.1895 19.384 19.2695 19.128C19.3495 18.856 19.4775 18.616 19.6535 18.408C19.9095 18.648 20.2375 18.848 20.6375 19.008C21.0535 19.168 21.5495 19.248 22.1255 19.248C22.9735 19.248 23.5735 19.024 23.9255 18.576C24.2935 18.128 24.4775 17.536 24.4775 16.8C24.4775 16.256 24.3735 15.752 24.1655 15.288C23.9735 14.824 23.6135 14.288 23.0855 13.68L20.6855 10.872C20.1415 10.2 19.7495 9.6 19.5095 9.072C19.2855 8.528 19.1735 7.968 19.1735 7.392C19.1735 6.384 19.5255 5.56 20.2295 4.92C20.9495 4.28 21.9735 3.96 23.3015 3.96C24.4375 3.96 25.2455 4.08 25.7255 4.32C26.2055 4.544 26.4455 4.824 26.4455 5.16C26.4455 5.32 26.4055 5.504 26.3255 5.712C26.2455 5.904 26.1255 6.088 25.9655 6.264C25.8055 6.152 25.5095 6.032 25.0775 5.904C24.6615 5.76 24.1735 5.688 23.6135 5.688C22.8935 5.688 22.3175 5.832 21.8855 6.12C21.4695 6.408 21.2615 6.816 21.2615 7.344C21.2615 7.776 21.3575 8.176 21.5495 8.544C21.7575 8.896 22.0375 9.288 22.3895 9.72L24.9815 12.672C25.6055 13.408 26.0295 14.08 26.2535 14.688C26.4775 15.296 26.5895 15.976 26.5895 16.728C26.5895 17.528 26.4535 18.272 26.1815 18.96C25.9255 19.648 25.4855 20.2 24.8615 20.616C24.2535 21.032 23.4055 21.24 22.3175 21.24ZM34.5671 21.24C34.0231 21.24 33.5111 21.16 33.0311 21C32.5671 20.856 32.1591 20.584 31.8071 20.184C31.4711 19.784 31.2071 19.216 31.0151 18.48C30.8391 17.744 30.7511 16.792 30.7511 15.624C30.7511 14.12 30.8711 12.912 31.1111 12C31.3511 11.088 31.6711 10.4 32.0711 9.936C32.4711 9.472 32.9271 9.16 33.4391 9C33.9511 8.84 34.4711 8.76 34.9991 8.76C36.0071 8.76 36.7671 9.08 37.2791 9.72C37.7911 10.36 38.0471 11.328 38.0471 12.624C38.0471 13.152 38.0231 13.696 37.9751 14.256C37.9431 14.816 37.8711 15.312 37.7591 15.744C37.2151 15.856 36.6071 15.936 35.9351 15.984C35.2631 16.032 34.6231 16.072 34.0151 16.104C33.4071 16.12 32.9031 16.128 32.5031 16.128C32.1191 16.128 31.9271 16.128 31.9271 16.128L31.9511 14.544C31.9511 14.544 32.1031 14.552 32.4071 14.568C32.7111 14.568 33.0791 14.568 33.5111 14.568C33.9591 14.552 34.4071 14.528 34.8551 14.496C35.3191 14.448 35.7111 14.376 36.0311 14.28C36.0791 14.056 36.1111 13.816 36.1271 13.56C36.1431 13.304 36.1511 13.064 36.1511 12.84C36.1351 11.976 36.0311 11.368 35.8391 11.016C35.6631 10.648 35.3111 10.464 34.7831 10.464C34.5111 10.464 34.2471 10.544 33.9911 10.704C33.7511 10.848 33.5351 11.112 33.3431 11.496C33.1511 11.864 32.9991 12.376 32.8871 13.032C32.7911 13.688 32.7431 14.528 32.7431 15.552C32.7431 16.304 32.7831 16.928 32.8631 17.424C32.9591 17.92 33.0951 18.304 33.2711 18.576C33.4631 18.848 33.6951 19.048 33.9671 19.176C34.2551 19.288 34.5991 19.344 34.9991 19.344C35.4791 19.344 35.9511 19.28 36.4151 19.152C36.8951 19.024 37.3271 18.84 37.7111 18.6C37.7911 18.792 37.8391 19.016 37.8551 19.272C37.8871 19.512 37.9031 19.728 37.9031 19.92C37.9031 20.16 37.7511 20.384 37.4471 20.592C37.1431 20.8 36.7351 20.96 36.2231 21.072C35.7271 21.184 35.1751 21.24 34.5671 21.24ZM42.6635 21V4.248C42.6635 3.944 42.7115 3.736 42.8075 3.624C42.9195 3.496 43.1195 3.424 43.4075 3.408C43.6955 3.376 44.0955 3.36 44.6075 3.36V20.616C44.6075 20.744 44.5755 20.832 44.5115 20.88C44.4635 20.928 44.3035 20.96 44.0315 20.976C43.7755 20.992 43.3195 21 42.6635 21ZM49.692 21V4.248C49.692 3.944 49.74 3.736 49.836 3.624C49.948 3.496 50.148 3.424 50.436 3.408C50.724 3.376 51.124 3.36 51.636 3.36V20.616C51.636 20.744 51.604 20.832 51.54 20.88C51.492 20.928 51.332 20.96 51.06 20.976C50.804 20.992 50.348 21 49.692 21ZM116.157 21.24C115.053 21.24 114.245 21.088 113.733 20.784C113.237 20.464 112.989 20.136 112.989 19.8C112.989 19.608 113.029 19.384 113.109 19.128C113.189 18.856 113.317 18.616 113.493 18.408C113.749 18.648 114.077 18.848 114.477 19.008C114.893 19.168 115.389 19.248 115.965 19.248C116.813 19.248 117.413 19.024 117.765 18.576C118.133 18.128 118.317 17.536 118.317 16.8C118.317 16.256 118.213 15.752 118.005 15.288C117.813 14.824 117.453 14.288 116.925 13.68L114.525 10.872C113.981 10.2 113.589 9.6 113.349 9.072C113.125 8.528 113.013 7.968 113.013 7.392C113.013 6.384 113.365 5.56 114.069 4.92C114.789 4.28 115.813 3.96 117.141 3.96C118.277 3.96 119.085 4.08 119.565 4.32C120.045 4.544 120.285 4.824 120.285 5.16C120.285 5.32 120.245 5.504 120.165 5.712C120.085 5.904 119.965 6.088 119.805 6.264C119.645 6.152 119.349 6.032 118.917 5.904C118.501 5.76 118.013 5.688 117.453 5.688C116.733 5.688 116.157 5.832 115.725 6.12C115.309 6.408 115.101 6.816 115.101 7.344C115.101 7.776 115.197 8.176 115.389 8.544C115.597 8.896 115.877 9.288 116.229 9.72L118.821 12.672C119.445 13.408 119.869 14.08 120.093 14.688C120.317 15.296 120.429 15.976 120.429 16.728C120.429 17.528 120.293 18.272 120.021 18.96C119.765 19.648 119.325 20.2 118.701 20.616C118.093 21.032 117.245 21.24 116.157 21.24ZM128.286 21.24C127.678 21.24 127.134 21.16 126.654 21C126.19 20.856 125.798 20.568 125.478 20.136C125.158 19.704 124.918 19.08 124.758 18.264C124.598 17.432 124.518 16.344 124.518 15C124.518 12.808 124.87 11.224 125.574 10.248C126.278 9.256 127.254 8.76 128.502 8.76C129.35 8.76 130.046 8.936 130.59 9.288C131.15 9.64 131.566 10.264 131.838 11.16C132.11 12.056 132.246 13.312 132.246 14.928C132.246 17.168 131.91 18.784 131.238 19.776C130.566 20.752 129.582 21.24 128.286 21.24ZM128.334 19.584C128.686 19.584 128.99 19.464 129.246 19.224C129.518 18.968 129.734 18.504 129.894 17.832C130.054 17.16 130.134 16.2 130.134 14.952C130.134 13.672 130.07 12.712 129.942 12.072C129.814 11.416 129.63 10.976 129.39 10.752C129.15 10.528 128.83 10.416 128.43 10.416C128.078 10.416 127.766 10.544 127.494 10.8C127.222 11.04 127.006 11.496 126.846 12.168C126.702 12.84 126.63 13.8 126.63 15.048C126.63 16.024 126.67 16.816 126.75 17.424C126.83 18.032 126.934 18.496 127.062 18.816C127.206 19.12 127.39 19.328 127.614 19.44C127.838 19.536 128.078 19.584 128.334 19.584ZM136.878 21V4.248C136.878 3.944 136.926 3.736 137.022 3.624C137.134 3.496 137.334 3.424 137.622 3.408C137.91 3.376 138.31 3.36 138.822 3.36V20.616C138.822 20.744 138.79 20.832 138.726 20.88C138.678 20.928 138.518 20.96 138.246 20.976C137.99 20.992 137.534 21 136.878 21ZM147.338 21.24C146.794 21.24 146.282 21.16 145.802 21C145.338 20.856 144.93 20.584 144.578 20.184C144.242 19.784 143.978 19.216 143.786 18.48C143.61 17.744 143.522 16.792 143.522 15.624C143.522 14.12 143.642 12.912 143.882 12C144.122 11.088 144.442 10.4 144.842 9.936C145.242 9.472 145.698 9.16 146.21 9C146.722 8.84 147.242 8.76 147.77 8.76C148.778 8.76 149.538 9.08 150.05 9.72C150.562 10.36 150.818 11.328 150.818 12.624C150.818 13.152 150.794 13.696 150.746 14.256C150.714 14.816 150.642 15.312 150.53 15.744C149.986 15.856 149.378 15.936 148.706 15.984C148.034 16.032 147.394 16.072 146.786 16.104C146.178 16.12 145.674 16.128 145.274 16.128C144.89 16.128 144.698 16.128 144.698 16.128L144.722 14.544C144.722 14.544 144.874 14.552 145.178 14.568C145.482 14.568 145.85 14.568 146.282 14.568C146.73 14.552 147.178 14.528 147.626 14.496C148.09 14.448 148.482 14.376 148.802 14.28C148.85 14.056 148.882 13.816 148.898 13.56C148.914 13.304 148.922 13.064 148.922 12.84C148.906 11.976 148.802 11.368 148.61 11.016C148.434 10.648 148.082 10.464 147.554 10.464C147.282 10.464 147.018 10.544 146.762 10.704C146.522 10.848 146.306 11.112 146.114 11.496C145.922 11.864 145.77 12.376 145.658 13.032C145.562 13.688 145.514 14.528 145.514 15.552C145.514 16.304 145.554 16.928 145.634 17.424C145.73 17.92 145.866 18.304 146.042 18.576C146.234 18.848 146.466 19.048 146.738 19.176C147.026 19.288 147.37 19.344 147.77 19.344C148.25 19.344 148.722 19.28 149.186 19.152C149.666 19.024 150.098 18.84 150.482 18.6C150.562 18.792 150.61 19.016 150.626 19.272C150.658 19.512 150.674 19.728 150.674 19.92C150.674 20.16 150.522 20.384 150.218 20.592C149.914 20.8 149.506 20.96 148.994 21.072C148.498 21.184 147.946 21.24 147.338 21.24Z" fill="white"/>
<path d="M67.2613 15.384L66.1573 15.36L62.4373 4.512C62.4053 4.4 62.4133 4.328 62.4613 4.296C62.5253 4.248 62.7173 4.224 63.0373 4.224C63.3573 4.208 63.8933 4.2 64.6453 4.2L65.6053 7.488C65.7173 7.872 65.8373 8.32 65.9653 8.832C66.1093 9.328 66.2373 9.824 66.3493 10.32C66.4773 10.816 66.5733 11.264 66.6373 11.664C66.7173 12.048 66.7653 12.328 66.7813 12.504C66.7973 12.328 66.8453 12.048 66.9253 11.664C67.0053 11.264 67.1013 10.816 67.2133 10.32C67.3413 9.824 67.4693 9.328 67.5973 8.832C67.7413 8.32 67.8693 7.872 67.9813 7.488L68.8213 4.56C68.8533 4.432 68.9013 4.344 68.9653 4.296C69.0453 4.248 69.2293 4.224 69.5173 4.224C69.8053 4.208 70.2773 4.2 70.9333 4.2L67.2613 15.384ZM65.7493 21V12.792H67.6933V20.616C67.6933 20.744 67.6613 20.832 67.5973 20.88C67.5493 20.928 67.3893 20.96 67.1173 20.976C66.8613 20.992 66.4053 21 65.7493 21ZM76.8315 21.24C76.2235 21.24 75.6795 21.16 75.1995 21C74.7355 20.856 74.3435 20.568 74.0235 20.136C73.7035 19.704 73.4635 19.08 73.3035 18.264C73.1435 17.432 73.0635 16.344 73.0635 15C73.0635 12.808 73.4155 11.224 74.1195 10.248C74.8235 9.256 75.7995 8.76 77.0475 8.76C77.8955 8.76 78.5915 8.936 79.1355 9.288C79.6955 9.64 80.1115 10.264 80.3835 11.16C80.6555 12.056 80.7915 13.312 80.7915 14.928C80.7915 17.168 80.4555 18.784 79.7835 19.776C79.1115 20.752 78.1275 21.24 76.8315 21.24ZM76.8795 19.584C77.2315 19.584 77.5355 19.464 77.7915 19.224C78.0635 18.968 78.2795 18.504 78.4395 17.832C78.5995 17.16 78.6795 16.2 78.6795 14.952C78.6795 13.672 78.6155 12.712 78.4875 12.072C78.3595 11.416 78.1755 10.976 77.9355 10.752C77.6955 10.528 77.3755 10.416 76.9755 10.416C76.6235 10.416 76.3115 10.544 76.0395 10.8C75.7675 11.04 75.5515 11.496 75.3915 12.168C75.2475 12.84 75.1755 13.8 75.1755 15.048C75.1755 16.024 75.2155 16.816 75.2955 17.424C75.3755 18.032 75.4795 18.496 75.6075 18.816C75.7515 19.12 75.9355 19.328 76.1595 19.44C76.3835 19.536 76.6235 19.584 76.8795 19.584ZM88.9749 21.24C88.0149 21.24 87.2789 21.096 86.7669 20.808C86.2549 20.52 85.8949 20.08 85.6869 19.488C85.4949 18.896 85.3989 18.152 85.3989 17.256V9.384C85.3989 9.256 85.4229 9.168 85.4709 9.12C85.5189 9.072 85.6789 9.04 85.9509 9.024C86.2389 9.008 86.7189 9 87.3909 9V17.424C87.3909 17.936 87.4309 18.352 87.5109 18.672C87.6069 18.976 87.7669 19.2 87.9909 19.344C88.2309 19.472 88.5669 19.536 88.9989 19.536C89.2229 19.536 89.4869 19.504 89.7909 19.44C90.0949 19.376 90.3749 19.264 90.6309 19.104V9.384C90.6309 9.256 90.6549 9.168 90.7029 9.12C90.7669 9.072 90.9269 9.04 91.1829 9.024C91.4549 9.008 91.9189 9 92.5749 9V20.376C92.1109 20.632 91.5589 20.84 90.9189 21C90.2789 21.16 89.6309 21.24 88.9749 21.24ZM97.607 21V9.84C98.071 9.504 98.583 9.24 99.143 9.048C99.703 8.856 100.279 8.76 100.871 8.76C101.495 8.76 101.927 8.848 102.167 9.024C102.423 9.184 102.551 9.432 102.551 9.768C102.551 9.896 102.535 10.072 102.503 10.296C102.471 10.504 102.415 10.712 102.335 10.92C102.159 10.824 101.975 10.752 101.783 10.704C101.591 10.656 101.391 10.632 101.183 10.632C100.911 10.632 100.631 10.68 100.343 10.776C100.071 10.856 99.823 10.984 99.599 11.16L99.575 20.616C99.575 20.744 99.543 20.832 99.479 20.88C99.431 20.928 99.271 20.96 98.999 20.976C98.727 20.992 98.263 21 97.607 21Z" fill="#F23DE0"/>
</svg>
