<svg width="753" height="183" viewBox="0 0 753 183" fill="none" xmlns="http://www.w3.org/2000/svg">
<path d="M163.549 83.6364C159.791 81.3305 155.813 79.4928 151.615 78.1233C147.408 76.7627 143.809 76.0736 140.807 76.0736C137.965 76.0736 135.703 76.6037 134.013 77.6639C132.341 78.7064 131.514 80.2349 131.514 82.2581C131.514 84.8556 132.711 86.8347 135.105 88.1953C137.516 89.5382 141.23 90.9518 146.229 92.4361C151.245 93.9027 155.364 95.3605 158.585 96.8183C161.824 98.2849 164.587 100.485 166.893 103.427C169.19 106.351 170.343 110.23 170.343 115.054C170.343 119.719 169.093 123.748 166.611 127.14C164.147 130.533 160.75 133.104 156.438 134.844C152.143 136.585 147.25 137.46 141.758 137.46C135.844 137.46 130.035 136.417 124.332 134.314C118.629 132.22 113.683 129.358 109.512 125.727L116.095 112.227C119.773 115.575 124.015 118.261 128.803 120.284C133.608 122.316 138 123.323 141.969 123.323C145.366 123.323 148.024 122.705 149.925 121.45C151.844 120.178 152.812 118.358 152.812 115.973C152.812 114.091 152.161 112.545 150.876 111.343C149.582 110.124 147.936 109.117 145.947 108.339C143.976 107.562 141.247 106.696 137.78 105.724C132.781 104.337 128.698 102.95 125.529 101.554C122.361 100.14 119.624 98.011 117.327 95.1573C115.047 92.2859 113.912 88.478 113.912 83.7424C113.912 79.3426 115.083 75.4728 117.432 72.1508C119.8 68.8288 123.109 66.2844 127.36 64.5173C131.602 62.7327 136.548 61.8315 142.18 61.8315C147.179 61.8315 152.108 62.5736 156.966 64.0579C161.841 65.5245 166.163 67.4771 169.921 69.9244L163.549 83.6364Z" fill="black"/>
<path d="M200.651 102.599C200.651 108.345 202.227 112.889 205.39 116.231C208.547 119.58 212.774 121.251 218.07 121.251C223.193 121.251 227.279 119.606 230.34 116.311C233.395 113.001 234.925 108.431 234.925 102.599V55.2552H252.549V102.599C252.549 109.646 251.146 115.769 248.348 120.96C245.562 126.139 241.566 130.128 236.36 132.928C231.147 135.729 225.012 137.129 217.942 137.129C210.872 137.129 204.686 135.729 199.396 132.928C194.119 130.128 190.059 126.139 187.229 120.96C184.411 115.769 183.002 109.646 183.002 102.599V55.2552H200.651V102.599Z" fill="black"/>
<path d="M553.413 50.3229H535.328V137.46L553.413 137.358V50.3229Z" fill="black" stroke="black" stroke-width="0.1"/>
<path d="M583.008 137.459H564.923V14.1527H398.87H117.73V1.00003H745.772V14.1527H583.008V137.459Z" fill="black" stroke="black" stroke-width="0.1"/>
<path d="M1 160.477V165.409H122.663V160.477H1Z" fill="black" stroke="black" stroke-width="0.1"/>
<path d="M178.932 168.876V157.412H183.894C184.921 157.412 185.805 157.581 186.547 157.919C187.29 158.247 187.863 158.722 188.267 159.344C188.671 159.967 188.873 160.709 188.873 161.572C188.873 162.423 188.671 163.16 188.267 163.783C187.863 164.394 187.29 164.864 186.547 165.191C185.805 165.519 184.921 165.683 183.894 165.683H180.406L181.585 164.52V168.876H178.932ZM186.22 168.876L183.354 164.716H186.187L189.086 168.876H186.22ZM181.585 164.815L180.406 163.57H183.747C184.566 163.57 185.177 163.395 185.581 163.046C185.985 162.685 186.187 162.194 186.187 161.572C186.187 160.938 185.985 160.447 185.581 160.098C185.177 159.748 184.566 159.574 183.747 159.574H180.406L181.585 158.313V164.815Z" fill="black"/>
<path d="M200.95 162.03H206.469V164.094H200.95V162.03ZM201.146 166.747H207.386V168.876H198.509V157.412H207.173V159.541H201.146V166.747Z" fill="black"/>
<path d="M219.488 162.571H224.991V164.7H219.488V162.571ZM219.685 168.876H217.031V157.412H225.695V159.541H219.685V168.876Z" fill="black"/>
<path d="M235.026 168.876V157.412H237.679V166.715H243.428V168.876H235.026Z" fill="black"/>
<path d="M254.884 162.03H260.404V164.094H254.884V162.03ZM255.081 166.747H261.321V168.876H252.444V157.412H261.108V159.541H255.081V166.747Z" fill="black"/>
<path d="M276.453 169.073C275.568 169.073 274.744 168.931 273.98 168.647C273.226 168.352 272.571 167.937 272.014 167.402C271.457 166.867 271.021 166.24 270.704 165.519C270.398 164.798 270.245 164.007 270.245 163.144C270.245 162.281 270.398 161.49 270.704 160.769C271.021 160.049 271.457 159.421 272.014 158.886C272.582 158.351 273.243 157.941 273.996 157.657C274.749 157.363 275.574 157.215 276.469 157.215C277.463 157.215 278.358 157.39 279.155 157.739C279.963 158.078 280.64 158.58 281.186 159.246L279.483 160.818C279.09 160.371 278.653 160.038 278.172 159.819C277.692 159.59 277.168 159.475 276.6 159.475C276.065 159.475 275.574 159.563 275.126 159.737C274.678 159.912 274.291 160.163 273.963 160.491C273.636 160.818 273.379 161.206 273.194 161.654C273.019 162.101 272.931 162.598 272.931 163.144C272.931 163.69 273.019 164.187 273.194 164.634C273.379 165.082 273.636 165.47 273.963 165.797C274.291 166.125 274.678 166.376 275.126 166.551C275.574 166.725 276.065 166.813 276.6 166.813C277.168 166.813 277.692 166.704 278.172 166.485C278.653 166.256 279.09 165.912 279.483 165.453L281.186 167.026C280.64 167.692 279.963 168.199 279.155 168.549C278.358 168.898 277.457 169.073 276.453 169.073Z" fill="black"/>
<path d="M292.775 168.876V159.574H289.106V157.412H299.097V159.574H295.428V168.876H292.775Z" fill="black"/>
<path d="M308.058 168.876V157.412H310.711V168.876H308.058Z" fill="black"/>
<path d="M326.535 169.073C325.629 169.073 324.788 168.926 324.013 168.631C323.248 168.336 322.582 167.921 322.014 167.386C321.458 166.851 321.021 166.223 320.704 165.503C320.398 164.782 320.246 163.996 320.246 163.144C320.246 162.292 320.398 161.506 320.704 160.786C321.021 160.065 321.463 159.437 322.031 158.902C322.599 158.367 323.265 157.952 324.029 157.657C324.793 157.363 325.623 157.215 326.518 157.215C327.425 157.215 328.255 157.363 329.008 157.657C329.772 157.952 330.433 158.367 330.99 158.902C331.557 159.437 332 160.065 332.316 160.786C332.633 161.495 332.791 162.281 332.791 163.144C332.791 163.996 332.633 164.787 332.316 165.519C332 166.24 331.557 166.867 330.99 167.402C330.433 167.927 329.772 168.336 329.008 168.631C328.255 168.926 327.43 169.073 326.535 169.073ZM326.518 166.813C327.032 166.813 327.501 166.725 327.927 166.551C328.364 166.376 328.746 166.125 329.073 165.797C329.401 165.47 329.652 165.082 329.827 164.634C330.012 164.187 330.105 163.69 330.105 163.144C330.105 162.598 330.012 162.101 329.827 161.654C329.652 161.206 329.401 160.818 329.073 160.491C328.757 160.163 328.38 159.912 327.943 159.737C327.507 159.563 327.032 159.475 326.518 159.475C326.005 159.475 325.53 159.563 325.094 159.737C324.668 159.912 324.291 160.163 323.963 160.491C323.636 160.818 323.379 161.206 323.194 161.654C323.019 162.101 322.932 162.598 322.932 163.144C322.932 163.679 323.019 164.176 323.194 164.634C323.379 165.082 323.63 165.47 323.947 165.797C324.275 166.125 324.657 166.376 325.094 166.551C325.53 166.725 326.005 166.813 326.518 166.813Z" fill="black"/>
<path d="M342.319 168.876V157.412H344.514L351.278 165.666H350.214V157.412H352.834V168.876H350.656L343.875 160.622H344.94V168.876H342.319Z" fill="black"/>
<path d="M366.848 169.073C365.93 169.073 365.051 168.953 364.211 168.713C363.37 168.462 362.693 168.139 362.18 167.746L363.081 165.748C363.572 166.098 364.151 166.387 364.817 166.616C365.494 166.835 366.176 166.944 366.864 166.944C367.388 166.944 367.808 166.895 368.125 166.796C368.453 166.687 368.693 166.54 368.846 166.354C368.998 166.169 369.075 165.956 369.075 165.715C369.075 165.41 368.955 165.17 368.715 164.995C368.474 164.809 368.158 164.662 367.765 164.553C367.372 164.432 366.935 164.323 366.454 164.225C365.985 164.116 365.51 163.985 365.03 163.832C364.56 163.679 364.129 163.483 363.736 163.242C363.343 163.002 363.02 162.685 362.769 162.292C362.529 161.899 362.409 161.397 362.409 160.786C362.409 160.13 362.584 159.535 362.933 159C363.293 158.454 363.828 158.023 364.538 157.707C365.259 157.379 366.16 157.215 367.241 157.215C367.961 157.215 368.671 157.303 369.37 157.477C370.069 157.641 370.685 157.892 371.22 158.231L370.402 160.245C369.867 159.939 369.332 159.716 368.796 159.574C368.261 159.421 367.737 159.344 367.224 159.344C366.711 159.344 366.291 159.404 365.963 159.525C365.635 159.645 365.401 159.803 365.259 159.999C365.117 160.185 365.046 160.403 365.046 160.655C365.046 160.949 365.166 161.19 365.406 161.375C365.646 161.55 365.963 161.692 366.356 161.801C366.749 161.91 367.181 162.019 367.65 162.129C368.13 162.238 368.605 162.363 369.075 162.505C369.555 162.647 369.992 162.838 370.385 163.079C370.778 163.319 371.095 163.635 371.335 164.028C371.586 164.422 371.712 164.918 371.712 165.519C371.712 166.163 371.532 166.753 371.171 167.288C370.811 167.823 370.271 168.254 369.55 168.582C368.84 168.909 367.939 169.073 366.848 169.073Z" fill="black"/>
<path d="M398.8 169.073C397.893 169.073 397.053 168.926 396.277 168.631C395.513 168.336 394.847 167.921 394.279 167.386C393.722 166.851 393.286 166.223 392.969 165.503C392.663 164.782 392.51 163.996 392.51 163.144C392.51 162.292 392.663 161.506 392.969 160.786C393.286 160.065 393.728 159.437 394.296 158.902C394.863 158.367 395.529 157.952 396.294 157.657C397.058 157.363 397.888 157.215 398.783 157.215C399.689 157.215 400.519 157.363 401.273 157.657C402.037 157.952 402.698 158.367 403.254 158.902C403.822 159.437 404.264 160.065 404.581 160.786C404.898 161.495 405.056 162.281 405.056 163.144C405.056 163.996 404.898 164.787 404.581 165.519C404.264 166.24 403.822 166.867 403.254 167.402C402.698 167.927 402.037 168.336 401.273 168.631C400.519 168.926 399.695 169.073 398.8 169.073ZM398.783 166.813C399.296 166.813 399.766 166.725 400.192 166.551C400.629 166.376 401.011 166.125 401.338 165.797C401.666 165.47 401.917 165.082 402.092 164.634C402.277 164.187 402.37 163.69 402.37 163.144C402.37 162.598 402.277 162.101 402.092 161.654C401.917 161.206 401.666 160.818 401.338 160.491C401.022 160.163 400.645 159.912 400.208 159.737C399.771 159.563 399.296 159.475 398.783 159.475C398.27 159.475 397.795 159.563 397.358 159.737C396.932 159.912 396.556 160.163 396.228 160.491C395.901 160.818 395.644 161.206 395.458 161.654C395.284 162.101 395.196 162.598 395.196 163.144C395.196 163.679 395.284 164.176 395.458 164.634C395.644 165.082 395.895 165.47 396.212 165.797C396.539 166.125 396.922 166.376 397.358 166.551C397.795 166.725 398.27 166.813 398.783 166.813Z" fill="black"/>
<path d="M417.041 162.571H422.544V164.7H417.041V162.571ZM417.237 168.876H414.584V157.412H423.248V159.541H417.237V168.876Z" fill="black"/>
<path d="M444.751 168.876V157.412H449.713C450.74 157.412 451.624 157.581 452.366 157.919C453.109 158.247 453.682 158.722 454.086 159.344C454.49 159.967 454.692 160.709 454.692 161.572C454.692 162.423 454.49 163.16 454.086 163.783C453.682 164.394 453.109 164.864 452.366 165.191C451.624 165.519 450.74 165.683 449.713 165.683H446.225L447.404 164.52V168.876H444.751ZM452.039 168.876L449.173 164.716H452.006L454.905 168.876H452.039ZM447.404 164.815L446.225 163.57H449.566C450.385 163.57 450.996 163.395 451.4 163.046C451.804 162.685 452.006 162.194 452.006 161.572C452.006 160.938 451.804 160.447 451.4 160.098C450.996 159.748 450.385 159.574 449.566 159.574H446.225L447.404 158.313V164.815Z" fill="black"/>
<path d="M466.769 162.03H472.288V164.094H466.769V162.03ZM466.965 166.747H473.205V168.876H464.328V157.412H472.992V159.541H466.965V166.747Z" fill="black"/>
<path d="M486.617 169.073C485.7 169.073 484.821 168.953 483.98 168.713C483.14 168.462 482.463 168.139 481.95 167.746L482.85 165.748C483.342 166.098 483.92 166.387 484.586 166.616C485.263 166.835 485.946 166.944 486.634 166.944C487.158 166.944 487.578 166.895 487.895 166.796C488.222 166.687 488.463 166.54 488.615 166.354C488.768 166.169 488.845 165.956 488.845 165.715C488.845 165.41 488.725 165.17 488.484 164.995C488.244 164.809 487.928 164.662 487.535 164.553C487.141 164.432 486.705 164.323 486.224 164.225C485.755 164.116 485.28 163.985 484.799 163.832C484.33 163.679 483.899 163.483 483.505 163.242C483.112 163.002 482.79 162.685 482.539 162.292C482.299 161.899 482.179 161.397 482.179 160.786C482.179 160.13 482.354 159.535 482.703 159C483.063 158.454 483.598 158.023 484.308 157.707C485.029 157.379 485.929 157.215 487.01 157.215C487.731 157.215 488.441 157.303 489.14 157.477C489.838 157.641 490.455 157.892 490.99 158.231L490.171 160.245C489.636 159.939 489.101 159.716 488.566 159.574C488.031 159.421 487.507 159.344 486.994 159.344C486.481 159.344 486.06 159.404 485.733 159.525C485.405 159.645 485.171 159.803 485.029 159.999C484.887 160.185 484.816 160.403 484.816 160.655C484.816 160.949 484.936 161.19 485.176 161.375C485.416 161.55 485.733 161.692 486.126 161.801C486.519 161.91 486.95 162.019 487.42 162.129C487.9 162.238 488.375 162.363 488.845 162.505C489.325 162.647 489.762 162.838 490.155 163.079C490.548 163.319 490.865 163.635 491.105 164.028C491.356 164.422 491.482 164.918 491.482 165.519C491.482 166.163 491.301 166.753 490.941 167.288C490.581 167.823 490.04 168.254 489.32 168.582C488.61 168.909 487.709 169.073 486.617 169.073Z" fill="black"/>
<path d="M500.829 168.876V157.412H503.482V168.876H500.829Z" fill="black"/>
<path d="M513.737 168.876V157.412H516.39V166.715H522.139V168.876H513.737Z" fill="black"/>
<path d="M531.155 168.876V157.412H533.808V168.876H531.155Z" fill="black"/>
<path d="M546.503 162.03H552.023V164.094H546.503V162.03ZM546.7 166.747H552.94V168.876H544.063V157.412H552.727V159.541H546.7V166.747Z" fill="black"/>
<path d="M562.585 168.876V157.412H564.78L571.544 165.666H570.479V157.412H573.1V168.876H570.922L564.141 160.622H565.206V168.876H562.585Z" fill="black"/>
<path d="M588.833 169.073C587.949 169.073 587.124 168.931 586.36 168.647C585.607 168.352 584.951 167.937 584.395 167.402C583.838 166.867 583.401 166.24 583.084 165.519C582.779 164.798 582.626 164.007 582.626 163.144C582.626 162.281 582.779 161.49 583.084 160.769C583.401 160.049 583.838 159.421 584.395 158.886C584.962 158.351 585.623 157.941 586.376 157.657C587.13 157.363 587.954 157.215 588.849 157.215C589.843 157.215 590.738 157.39 591.536 157.739C592.344 158.078 593.02 158.58 593.566 159.246L591.863 160.818C591.47 160.371 591.033 160.038 590.553 159.819C590.072 159.59 589.548 159.475 588.981 159.475C588.445 159.475 587.954 159.563 587.507 159.737C587.059 159.912 586.671 160.163 586.344 160.491C586.016 160.818 585.759 161.206 585.574 161.654C585.399 162.101 585.312 162.598 585.312 163.144C585.312 163.69 585.399 164.187 585.574 164.634C585.759 165.082 586.016 165.47 586.344 165.797C586.671 166.125 587.059 166.376 587.507 166.551C587.954 166.725 588.445 166.813 588.981 166.813C589.548 166.813 590.072 166.704 590.553 166.485C591.033 166.256 591.47 165.912 591.863 165.453L593.566 167.026C593.02 167.692 592.344 168.199 591.536 168.549C590.738 168.898 589.838 169.073 588.833 169.073Z" fill="black"/>
<path d="M605.332 162.03H610.852V164.094H605.332V162.03ZM605.529 166.747H611.769V168.876H602.892V157.412H611.556V159.541H605.529V166.747Z" fill="black"/>
<path d="M178.932 170.924V182.388H183.894C184.921 182.388 185.805 182.219 186.547 181.881C187.29 181.553 187.863 181.078 188.267 180.456C188.671 179.833 188.873 179.091 188.873 178.228C188.873 177.377 188.671 176.64 188.267 176.017C187.863 175.406 187.29 174.936 186.547 174.609C185.805 174.281 184.921 174.117 183.894 174.117H180.406L181.585 175.28V170.924H178.932ZM186.22 170.924L183.354 175.084H186.187L189.086 170.924H186.22ZM181.585 174.985L180.406 176.23H183.747C184.566 176.23 185.177 176.405 185.581 176.754C185.985 177.115 186.187 177.606 186.187 178.228C186.187 178.862 185.985 179.353 185.581 179.702C185.177 180.052 184.566 180.227 183.747 180.227H180.406L181.585 181.488V174.985Z" fill="url(#paint0_linear_356_1111)" fill-opacity="0.34"/>
<path d="M200.95 177.77H206.469V175.706H200.95V177.77ZM201.146 173.053H207.386V170.924H198.509V182.388H207.173V180.259H201.146V173.053Z" fill="url(#paint1_linear_356_1111)" fill-opacity="0.34"/>
<path d="M219.488 177.229H224.991V175.1H219.488V177.229ZM219.685 170.924H217.031V182.388H225.695V180.259H219.685V170.924Z" fill="url(#paint2_linear_356_1111)" fill-opacity="0.34"/>
<path d="M235.026 170.924V182.388H237.679V173.086H243.428V170.924H235.026Z" fill="url(#paint3_linear_356_1111)" fill-opacity="0.34"/>
<path d="M254.884 177.77H260.404V175.706H254.884V177.77ZM255.081 173.053H261.321V170.924H252.444V182.388H261.108V180.259H255.081V173.053Z" fill="url(#paint4_linear_356_1111)" fill-opacity="0.34"/>
<path d="M276.453 170.727C275.568 170.727 274.744 170.869 273.98 171.153C273.226 171.448 272.571 171.863 272.014 172.398C271.457 172.933 271.021 173.561 270.704 174.281C270.398 175.002 270.245 175.793 270.245 176.656C270.245 177.519 270.398 178.31 270.704 179.031C271.021 179.752 271.457 180.379 272.014 180.914C272.582 181.449 273.243 181.859 273.996 182.143C274.749 182.438 275.574 182.585 276.469 182.585C277.463 182.585 278.358 182.41 279.155 182.061C279.963 181.722 280.64 181.22 281.186 180.554L279.483 178.982C279.09 179.429 278.653 179.762 278.172 179.981C277.692 180.21 277.168 180.325 276.6 180.325C276.065 180.325 275.574 180.237 275.126 180.063C274.678 179.888 274.291 179.637 273.963 179.309C273.636 178.982 273.379 178.594 273.194 178.146C273.019 177.699 272.931 177.202 272.931 176.656C272.931 176.11 273.019 175.613 273.194 175.166C273.379 174.718 273.636 174.33 273.963 174.003C274.291 173.675 274.678 173.424 275.126 173.249C275.574 173.075 276.065 172.987 276.6 172.987C277.168 172.987 277.692 173.097 278.172 173.315C278.653 173.544 279.09 173.888 279.483 174.347L281.186 172.774C280.64 172.108 279.963 171.601 279.155 171.251C278.358 170.902 277.457 170.727 276.453 170.727Z" fill="url(#paint5_linear_356_1111)" fill-opacity="0.34"/>
<path d="M292.775 170.924V180.227H289.106V182.388H299.097V180.227H295.428V170.924H292.775Z" fill="url(#paint6_linear_356_1111)" fill-opacity="0.34"/>
<path d="M308.058 170.924V182.388H310.711V170.924H308.058Z" fill="url(#paint7_linear_356_1111)" fill-opacity="0.34"/>
<path d="M326.535 170.727C325.629 170.727 324.788 170.875 324.013 171.169C323.248 171.464 322.582 171.879 322.014 172.414C321.458 172.949 321.021 173.577 320.704 174.298C320.398 175.018 320.246 175.804 320.246 176.656C320.246 177.508 320.398 178.294 320.704 179.015C321.021 179.735 321.463 180.363 322.031 180.898C322.599 181.433 323.265 181.848 324.029 182.143C324.793 182.438 325.623 182.585 326.518 182.585C327.425 182.585 328.255 182.438 329.008 182.143C329.772 181.848 330.433 181.433 330.99 180.898C331.557 180.363 332 179.735 332.316 179.015C332.633 178.305 332.791 177.519 332.791 176.656C332.791 175.804 332.633 175.013 332.316 174.281C332 173.561 331.557 172.933 330.99 172.398C330.433 171.874 329.772 171.464 329.008 171.169C328.255 170.875 327.43 170.727 326.535 170.727ZM326.518 172.987C327.032 172.987 327.501 173.075 327.927 173.249C328.364 173.424 328.746 173.675 329.073 174.003C329.401 174.33 329.652 174.718 329.827 175.166C330.012 175.613 330.105 176.11 330.105 176.656C330.105 177.202 330.012 177.699 329.827 178.146C329.652 178.594 329.401 178.982 329.073 179.309C328.757 179.637 328.38 179.888 327.943 180.063C327.507 180.237 327.032 180.325 326.518 180.325C326.005 180.325 325.53 180.237 325.094 180.063C324.668 179.888 324.291 179.637 323.963 179.309C323.636 178.982 323.379 178.594 323.194 178.146C323.019 177.699 322.932 177.202 322.932 176.656C322.932 176.121 323.019 175.624 323.194 175.166C323.379 174.718 323.63 174.33 323.947 174.003C324.275 173.675 324.657 173.424 325.094 173.249C325.53 173.075 326.005 172.987 326.518 172.987Z" fill="url(#paint8_linear_356_1111)" fill-opacity="0.34"/>
<path d="M342.319 170.924V182.388H344.514L351.278 174.134H350.214V182.388H352.834V170.924H350.656L343.875 179.178H344.94V170.924H342.319Z" fill="url(#paint9_linear_356_1111)" fill-opacity="0.34"/>
<path d="M366.848 170.727C365.93 170.727 365.051 170.847 364.211 171.087C363.37 171.339 362.693 171.661 362.18 172.054L363.081 174.052C363.572 173.703 364.151 173.413 364.817 173.184C365.494 172.966 366.176 172.856 366.864 172.856C367.388 172.856 367.808 172.905 368.125 173.004C368.453 173.113 368.693 173.26 368.846 173.446C368.998 173.632 369.075 173.844 369.075 174.085C369.075 174.39 368.955 174.631 368.715 174.805C368.474 174.991 368.158 175.138 367.765 175.248C367.372 175.368 366.935 175.477 366.454 175.575C365.985 175.684 365.51 175.815 365.03 175.968C364.56 176.121 364.129 176.318 363.736 176.558C363.343 176.798 363.02 177.115 362.769 177.508C362.529 177.901 362.409 178.403 362.409 179.015C362.409 179.67 362.584 180.265 362.933 180.8C363.293 181.346 363.828 181.777 364.538 182.094C365.259 182.421 366.16 182.585 367.241 182.585C367.961 182.585 368.671 182.498 369.37 182.323C370.069 182.159 370.685 181.908 371.22 181.57L370.402 179.555C369.867 179.861 369.332 180.085 368.796 180.227C368.261 180.379 367.737 180.456 367.224 180.456C366.711 180.456 366.291 180.396 365.963 180.276C365.635 180.156 365.401 179.997 365.259 179.801C365.117 179.615 365.046 179.397 365.046 179.146C365.046 178.851 365.166 178.611 365.406 178.425C365.646 178.25 365.963 178.108 366.356 177.999C366.749 177.89 367.181 177.781 367.65 177.672C368.13 177.562 368.605 177.437 369.075 177.295C369.555 177.153 369.992 176.962 370.385 176.722C370.778 176.481 371.095 176.165 371.335 175.772C371.586 175.379 371.712 174.882 371.712 174.281C371.712 173.637 371.532 173.047 371.171 172.512C370.811 171.977 370.271 171.546 369.55 171.219C368.84 170.891 367.939 170.727 366.848 170.727Z" fill="url(#paint10_linear_356_1111)" fill-opacity="0.34"/>
<path d="M398.8 170.727C397.893 170.727 397.053 170.875 396.277 171.169C395.513 171.464 394.847 171.879 394.279 172.414C393.722 172.949 393.286 173.577 392.969 174.298C392.663 175.018 392.51 175.804 392.51 176.656C392.51 177.508 392.663 178.294 392.969 179.015C393.286 179.735 393.728 180.363 394.296 180.898C394.863 181.433 395.529 181.848 396.294 182.143C397.058 182.438 397.888 182.585 398.783 182.585C399.689 182.585 400.519 182.438 401.273 182.143C402.037 181.848 402.698 181.433 403.254 180.898C403.822 180.363 404.264 179.735 404.581 179.015C404.898 178.305 405.056 177.519 405.056 176.656C405.056 175.804 404.898 175.013 404.581 174.281C404.264 173.561 403.822 172.933 403.254 172.398C402.698 171.874 402.037 171.464 401.273 171.169C400.519 170.875 399.695 170.727 398.8 170.727ZM398.783 172.987C399.296 172.987 399.766 173.075 400.192 173.249C400.629 173.424 401.011 173.675 401.338 174.003C401.666 174.33 401.917 174.718 402.092 175.166C402.277 175.613 402.37 176.11 402.37 176.656C402.37 177.202 402.277 177.699 402.092 178.146C401.917 178.594 401.666 178.982 401.338 179.309C401.022 179.637 400.645 179.888 400.208 180.063C399.771 180.237 399.296 180.325 398.783 180.325C398.27 180.325 397.795 180.237 397.358 180.063C396.932 179.888 396.556 179.637 396.228 179.309C395.901 178.982 395.644 178.594 395.458 178.146C395.284 177.699 395.196 177.202 395.196 176.656C395.196 176.121 395.284 175.624 395.458 175.166C395.644 174.718 395.895 174.33 396.212 174.003C396.539 173.675 396.922 173.424 397.358 173.249C397.795 173.075 398.27 172.987 398.783 172.987Z" fill="url(#paint11_linear_356_1111)" fill-opacity="0.34"/>
<path d="M417.041 177.229H422.544V175.1H417.041V177.229ZM417.237 170.924H414.584V182.388H423.248V180.259H417.237V170.924Z" fill="url(#paint12_linear_356_1111)" fill-opacity="0.34"/>
<path d="M444.751 170.924V182.388H449.713C450.74 182.388 451.624 182.219 452.366 181.881C453.109 181.553 453.682 181.078 454.086 180.456C454.49 179.833 454.692 179.091 454.692 178.228C454.692 177.377 454.49 176.64 454.086 176.017C453.682 175.406 453.109 174.936 452.366 174.609C451.624 174.281 450.74 174.117 449.713 174.117H446.225L447.404 175.28V170.924H444.751ZM452.039 170.924L449.173 175.084H452.006L454.905 170.924H452.039ZM447.404 174.985L446.225 176.23H449.566C450.385 176.23 450.996 176.405 451.4 176.754C451.804 177.115 452.006 177.606 452.006 178.228C452.006 178.862 451.804 179.353 451.4 179.702C450.996 180.052 450.385 180.227 449.566 180.227H446.225L447.404 181.488V174.985Z" fill="url(#paint13_linear_356_1111)" fill-opacity="0.34"/>
<path d="M466.769 177.77H472.288V175.706H466.769V177.77ZM466.965 173.053H473.205V170.924H464.328V182.388H472.992V180.259H466.965V173.053Z" fill="url(#paint14_linear_356_1111)" fill-opacity="0.34"/>
<path d="M486.617 170.727C485.7 170.727 484.821 170.847 483.98 171.087C483.14 171.339 482.463 171.661 481.95 172.054L482.85 174.052C483.342 173.703 483.92 173.413 484.586 173.184C485.263 172.966 485.946 172.856 486.634 172.856C487.158 172.856 487.578 172.905 487.895 173.004C488.222 173.113 488.463 173.26 488.615 173.446C488.768 173.632 488.845 173.844 488.845 174.085C488.845 174.39 488.725 174.631 488.484 174.805C488.244 174.991 487.928 175.138 487.535 175.248C487.141 175.368 486.705 175.477 486.224 175.575C485.755 175.684 485.28 175.815 484.799 175.968C484.33 176.121 483.899 176.318 483.505 176.558C483.112 176.798 482.79 177.115 482.539 177.508C482.299 177.901 482.179 178.403 482.179 179.015C482.179 179.67 482.354 180.265 482.703 180.8C483.063 181.346 483.598 181.777 484.308 182.094C485.029 182.421 485.929 182.585 487.01 182.585C487.731 182.585 488.441 182.498 489.14 182.323C489.838 182.159 490.455 181.908 490.99 181.57L490.171 179.555C489.636 179.861 489.101 180.085 488.566 180.227C488.031 180.379 487.507 180.456 486.994 180.456C486.481 180.456 486.06 180.396 485.733 180.276C485.405 180.156 485.171 179.997 485.029 179.801C484.887 179.615 484.816 179.397 484.816 179.146C484.816 178.851 484.936 178.611 485.176 178.425C485.416 178.25 485.733 178.108 486.126 177.999C486.519 177.89 486.95 177.781 487.42 177.672C487.9 177.562 488.375 177.437 488.845 177.295C489.325 177.153 489.762 176.962 490.155 176.722C490.548 176.481 490.865 176.165 491.105 175.772C491.356 175.379 491.482 174.882 491.482 174.281C491.482 173.637 491.301 173.047 490.941 172.512C490.581 171.977 490.04 171.546 489.32 171.219C488.61 170.891 487.709 170.727 486.617 170.727Z" fill="url(#paint15_linear_356_1111)" fill-opacity="0.34"/>
<path d="M500.829 170.924V182.388H503.482V170.924H500.829Z" fill="url(#paint16_linear_356_1111)" fill-opacity="0.34"/>
<path d="M513.737 170.924V182.388H516.39V173.086H522.139V170.924H513.737Z" fill="url(#paint17_linear_356_1111)" fill-opacity="0.34"/>
<path d="M531.155 170.924V182.388H533.808V170.924H531.155Z" fill="url(#paint18_linear_356_1111)" fill-opacity="0.34"/>
<path d="M546.503 177.77H552.023V175.706H546.503V177.77ZM546.7 173.053H552.94V170.924H544.063V182.388H552.727V180.259H546.7V173.053Z" fill="url(#paint19_linear_356_1111)" fill-opacity="0.34"/>
<path d="M562.585 170.924V182.388H564.78L571.544 174.134H570.479V182.388H573.1V170.924H570.922L564.141 179.178H565.206V170.924H562.585Z" fill="url(#paint20_linear_356_1111)" fill-opacity="0.34"/>
<path d="M588.833 170.727C587.949 170.727 587.124 170.869 586.36 171.153C585.607 171.448 584.951 171.863 584.395 172.398C583.838 172.933 583.401 173.561 583.084 174.281C582.779 175.002 582.626 175.793 582.626 176.656C582.626 177.519 582.779 178.31 583.084 179.031C583.401 179.752 583.838 180.379 584.395 180.914C584.962 181.449 585.623 181.859 586.376 182.143C587.13 182.438 587.954 182.585 588.849 182.585C589.843 182.585 590.738 182.41 591.536 182.061C592.344 181.722 593.02 181.22 593.566 180.554L591.863 178.982C591.47 179.429 591.033 179.762 590.553 179.981C590.072 180.21 589.548 180.325 588.981 180.325C588.445 180.325 587.954 180.237 587.507 180.063C587.059 179.888 586.671 179.637 586.344 179.309C586.016 178.982 585.759 178.594 585.574 178.146C585.399 177.699 585.312 177.202 585.312 176.656C585.312 176.11 585.399 175.613 585.574 175.166C585.759 174.718 586.016 174.33 586.344 174.003C586.671 173.675 587.059 173.424 587.507 173.249C587.954 173.075 588.445 172.987 588.981 172.987C589.548 172.987 590.072 173.097 590.553 173.315C591.033 173.544 591.47 173.888 591.863 174.347L593.566 172.774C593.02 172.108 592.344 171.601 591.536 171.251C590.738 170.902 589.838 170.727 588.833 170.727Z" fill="url(#paint21_linear_356_1111)" fill-opacity="0.34"/>
<path d="M605.332 177.77H610.852V175.706H605.332V177.77ZM605.529 173.053H611.769V170.924H602.892V182.388H611.556V180.259H605.529V173.053Z" fill="url(#paint22_linear_356_1111)" fill-opacity="0.34"/>
<path d="M640.555 160.477V165.409H752.353V160.477H640.555Z" fill="black" stroke="black" stroke-width="0.1"/>
<path d="M599.438 53.6118H615.639L614.303 81.5613H600.671L599.438 53.6118Z" fill="black"/>
<path d="M679.569 120.149V138.967H624.458V124.123L650.935 94.7606C653.486 91.9014 655.199 89.4477 656.072 87.4199C656.963 85.3718 657.408 83.3136 657.408 81.2554C657.408 78.528 656.629 76.4089 655.079 74.888C653.521 73.3773 651.26 72.6169 648.297 72.6169C645.668 72.6169 643.262 73.3266 641.07 74.7258C638.878 76.1047 637.071 78.1224 635.658 80.7687L620.793 70.9541C623.55 65.5195 627.421 61.251 632.404 58.1383C637.405 55.0357 643.314 53.4743 650.147 53.4743C655.533 53.4743 660.294 54.5186 664.43 56.5972C668.583 58.6554 671.828 61.6261 674.157 65.5195C676.486 69.3927 677.651 73.8741 677.651 78.9842C677.651 83.5265 676.812 87.8153 675.151 91.8406C673.507 95.8759 670.321 100.438 665.594 105.549L652.27 120.149H679.569Z" fill="black"/>
<path d="M752.165 122.614H741.649V138.966H722.126V122.614H684.723V106.881L716.474 53.6108H737.196L708.391 103.494H722.742V88.9588H741.649V103.494H752.165V122.614Z" fill="black"/>
<path d="M91.4269 61.8315H51.9688V91.4251H91.4269V61.8315Z" fill="black" stroke="black" stroke-width="0.1"/>
<path d="M543.843 45.1489C543.587 45.1254 542.888 44.9873 542.524 44.8903C541.927 44.7346 541.237 44.4467 540.817 44.1822L540.64 44.0706L540.317 44.0853C539.774 44.1058 538.575 44.0882 538.249 44.0529C537.435 43.9648 536.274 43.6416 535.56 43.3037L535.328 43.1921L535.349 42.863C535.393 42.1197 535.64 41.0649 535.942 40.3068C536.215 39.6311 536.735 38.6997 537.106 38.2266L537.217 38.0827V37.7213C537.217 36.5313 537.555 35.2562 538.149 34.2249C538.287 33.984 538.481 33.6784 538.51 33.652C538.519 33.6431 538.56 33.5903 538.598 33.5344C538.827 33.1995 539.383 32.6031 539.765 32.2769C540.153 31.9508 540.388 31.7863 540.943 31.4513C541.057 31.3837 541.09 31.3308 541.275 30.9548C541.721 30.0439 542.136 29.4211 542.782 28.6895C543.038 28.4015 543.537 27.9255 543.775 27.7463C543.808 27.7228 543.875 27.667 543.928 27.6259C543.978 27.5818 544.098 27.4936 544.192 27.4261C544.342 27.3232 544.389 27.3056 544.522 27.3056C544.663 27.3056 544.692 27.3203 544.924 27.4907C545.711 28.0695 546.42 28.7982 547.01 29.6473C547.236 29.9705 547.536 30.4964 547.765 30.9724C547.95 31.3543 547.956 31.3632 548.115 31.4542C548.814 31.845 549.652 32.5502 550.157 33.1642C551.241 34.4864 551.814 36.0877 551.82 37.8065C551.823 38.065 551.826 38.0797 551.926 38.2208C552.786 39.4371 553.315 40.6388 553.568 41.9522C553.63 42.2754 553.7 42.8571 553.7 43.0422V43.195L553.474 43.3037C553.007 43.527 552.543 43.6827 551.82 43.859C551.138 44.0236 550.994 44.0441 550.157 44.0882C549.643 44.1146 549.352 44.1146 548.967 44.0882L548.456 44.0559L548.182 44.2175C548.033 44.3056 547.903 44.3761 547.895 44.3761C547.889 44.3761 547.8 44.4143 547.701 44.4613C547.11 44.7375 546.467 44.9403 545.811 45.0548C545.365 45.1342 544.251 45.1871 543.843 45.1489ZM545.576 44.4378C546.828 44.2204 547.965 43.6592 548.999 42.7543C549.449 42.3606 549.992 41.676 550.324 41.0854C550.518 40.7358 550.733 40.2686 550.733 40.1864C550.733 40.1217 550.295 39.4401 550.257 39.4401C550.242 39.4401 550.233 39.4606 550.233 39.4871C550.233 39.5135 550.192 39.6546 550.142 39.8015C549.781 40.8533 549.181 41.7259 548.318 42.4458C547.639 43.0128 546.819 43.4095 545.811 43.6622C545.491 43.7444 545.482 43.7444 544.504 43.7415H543.52L543.111 43.6357L542.703 43.53L542.45 43.6152C542.312 43.6622 542.092 43.7297 541.962 43.7621C541.575 43.862 541.554 43.8355 542.271 44.1146C542.55 44.2234 543.208 44.3967 543.617 44.4672C544.04 44.5377 545.089 44.523 545.576 44.4378ZM540.435 43.4183C541.416 43.2743 542.227 43.0363 543.005 42.6661C543.387 42.484 543.887 42.2019 543.887 42.1696C543.887 42.1578 543.769 42.0521 543.628 41.9287L543.37 41.7083L543.12 41.8376C542.391 42.2196 541.645 42.4722 540.731 42.6515C540.435 42.7073 540.314 42.7132 539.436 42.7132C538.663 42.7132 538.407 42.7014 538.172 42.6603C537.84 42.6044 537.364 42.4957 537.05 42.4017L536.835 42.34V42.1902C536.835 41.914 537.141 40.9503 537.408 40.3891C537.482 40.2334 537.541 40.0865 537.541 40.06C537.541 40.0336 537.514 39.9396 537.485 39.8514C537.455 39.7633 537.408 39.5752 537.379 39.4342C537.35 39.2902 537.314 39.1756 537.303 39.1756C537.244 39.1756 536.712 40.2069 536.503 40.7329C536.289 41.2705 535.936 42.6985 536.004 42.7602C536.033 42.7866 536.577 42.9952 536.835 43.0804C537.285 43.2244 538.193 43.4124 538.698 43.4653C539.024 43.5006 540.076 43.4712 540.435 43.4183ZM550.536 43.433C550.985 43.3919 551.741 43.2273 552.246 43.0657C552.51 42.9805 552.998 42.7925 553.033 42.7631C553.074 42.7249 552.883 41.8288 552.716 41.2617C552.49 40.5037 551.949 39.4371 551.429 38.7202C551.009 38.1414 550.292 37.4128 549.69 36.9485C549.319 36.6635 548.529 36.1729 548.529 36.2287C548.529 36.2405 548.512 36.3462 548.488 36.4579C548.465 36.5725 548.438 36.7164 548.426 36.784L548.409 36.9045L548.653 37.0602C550.333 38.1444 551.441 39.5664 552.011 41.3792C552.125 41.7406 552.202 42.0726 552.202 42.2019C552.202 42.3106 552.193 42.3253 552.105 42.3635C551.796 42.4928 550.944 42.6603 550.269 42.7249L549.992 42.7543L549.74 43.004C549.599 43.1421 549.425 43.3096 549.352 43.3772L549.22 43.4976L549.734 43.48C550.016 43.4712 550.377 43.4506 550.536 43.433ZM545.274 43.1186L545.382 43.0981L545.156 42.9776C545.033 42.91 544.836 42.8013 544.721 42.7337L544.513 42.6103L544.295 42.7425C544.175 42.816 543.987 42.9247 543.872 42.9864L543.667 43.0951L543.769 43.1157C543.907 43.1421 545.139 43.1451 545.274 43.1186ZM546.796 42.6103C547.134 42.4428 547.21 42.3958 547.163 42.3782C546.519 42.1373 546.029 41.914 545.714 41.7259C545.615 41.6642 545.526 41.6143 545.518 41.6143C545.503 41.6143 545.083 41.3293 544.936 41.2206C544.14 40.6271 543.299 39.6869 542.817 38.8525C542.576 38.4382 542.289 37.7683 542.139 37.2835L542.059 37.0249L541.968 37.0426C541.877 37.0602 541.492 37.2247 541.428 37.2717C541.378 37.3099 541.622 37.9857 541.889 38.5528C542.6 40.0512 543.808 41.3734 545.291 42.2754C545.541 42.4252 546.308 42.8189 546.352 42.8189C546.361 42.8189 546.561 42.7249 546.796 42.6103ZM539.994 42.0961C540.123 42.0873 540.238 42.0726 540.252 42.0638C540.27 42.0521 540.12 41.867 539.853 41.5702C539.718 41.4233 539.33 40.8034 539.18 40.4978C538.939 40.0042 538.783 39.5077 538.666 38.8671C538.625 38.6321 538.613 38.4176 538.613 37.8094C538.613 37.1248 538.619 37.0132 538.681 36.7252C538.948 35.456 539.424 34.551 540.308 33.6343C540.435 33.5021 540.537 33.3875 540.537 33.3787C540.537 33.3435 540.717 32.5061 540.731 32.462C540.764 32.3798 540.702 32.415 540.435 32.6295C539.688 33.2289 539.151 33.8606 538.683 34.6891C538.363 35.2532 538.152 35.8262 537.961 36.6489C537.884 36.975 537.881 37.0191 537.878 37.8388V38.6909L537.975 39.1169C538.137 39.8309 538.357 40.4273 538.672 41.0032C538.886 41.3939 539.195 41.8523 539.365 42.0315C539.471 42.1432 539.483 42.149 539.618 42.1314C539.694 42.1226 539.865 42.1079 539.994 42.0961ZM538.396 41.8846C538.331 41.7935 538.187 41.5497 538.078 41.344L537.875 40.9738L537.837 41.0649C537.799 41.1618 537.57 41.8435 537.57 41.8611C537.57 41.8875 538.299 42.0433 538.445 42.0521C538.507 42.055 538.504 42.0462 538.396 41.8846ZM550.841 42.0109C551.256 41.9316 551.47 41.8699 551.458 41.8376C551.453 41.82 551.411 41.6936 551.37 41.5555C551.326 41.4174 551.262 41.2294 551.223 41.1354L551.156 40.9679L551.103 41.0766C551.032 41.2265 550.718 41.7759 550.612 41.9316C550.515 42.0726 550.515 42.0726 550.841 42.0109ZM541.648 41.7436C541.957 41.6378 542.656 41.3352 542.788 41.247L542.861 41.2L542.688 41.0032C542.153 40.392 541.689 39.681 541.31 38.8906C541.131 38.5116 541.063 38.35 540.893 37.877C540.849 37.7507 540.805 37.6419 540.796 37.6331C540.752 37.5891 539.923 38.2149 539.536 38.5851L539.3 38.8084L539.359 39.0287C539.538 39.7074 539.785 40.2657 540.114 40.7534C540.346 41.0972 540.393 41.153 540.796 41.5673L541.104 41.8846L541.225 41.867C541.293 41.8552 541.484 41.7994 541.648 41.7436ZM547.986 41.8082C548.212 41.6349 548.694 41.0913 548.923 40.7475C549.255 40.2569 549.461 39.8015 549.649 39.1492L549.746 38.8113L549.51 38.591C549.155 38.2531 548.282 37.5861 548.247 37.6243C548.244 37.6302 548.185 37.78 548.118 37.9563C547.642 39.2138 547.139 40.0718 546.308 41.0531L546.173 41.2147L546.337 41.297C546.816 41.5379 547.674 41.8699 547.836 41.8758C547.868 41.8787 547.933 41.8464 547.986 41.8082ZM545.8 40.5742C546.599 39.6693 547.145 38.7261 547.539 37.5597C547.883 36.5519 548.047 35.3326 547.974 34.3894C547.956 34.1691 547.93 33.9517 547.918 33.9017C547.889 33.7959 547.601 33.5462 547.307 33.3699C547.195 33.3023 547.101 33.2524 547.095 33.2553C547.092 33.2583 547.107 33.3787 547.131 33.5227C547.225 34.0927 547.245 34.4306 547.228 35.077C547.21 35.8732 547.157 36.2669 546.984 36.9574C546.693 38.1062 546.035 39.3196 545.218 40.2157L545.03 40.4185L545.139 40.5096C545.283 40.63 545.541 40.8181 545.565 40.821C545.573 40.821 545.679 40.7094 545.8 40.5742ZM544.663 39.8015C545.424 38.9347 545.917 38.0974 546.27 37.0631C546.317 36.925 546.355 36.8105 546.355 36.8046C546.355 36.7869 546.02 36.7047 545.679 36.643C545.353 36.5842 545.221 36.5754 544.504 36.5754C543.669 36.5754 543.678 36.5754 542.961 36.7252C542.85 36.7488 542.738 36.7781 542.72 36.7899C542.653 36.834 542.903 37.5068 543.217 38.1326C543.402 38.5028 543.793 39.1198 543.999 39.3666C544.254 39.6751 544.489 39.9337 544.516 39.9366C544.53 39.9396 544.595 39.8779 544.663 39.8015ZM539.691 37.542C540.649 36.8075 541.654 36.3492 542.92 36.073L543.431 35.9584L544.519 35.9613H545.606L546.043 36.0554C546.284 36.1053 546.49 36.1406 546.502 36.1347C546.528 36.1171 546.605 35.4765 546.581 35.453C546.537 35.4119 545.82 35.2709 545.503 35.2415C545.056 35.2004 543.881 35.2004 543.511 35.2415C543.017 35.2944 542.051 35.5382 541.507 35.7468C540.955 35.9584 540.438 36.2199 539.976 36.5225C539.856 36.5989 539.744 36.6694 539.729 36.6782C539.603 36.737 539.333 36.9632 539.306 37.0249C539.253 37.1513 539.215 37.4363 539.215 37.7066V37.9534L539.342 37.8329C539.409 37.7683 539.568 37.6361 539.691 37.542ZM551.162 37.1718C551.15 37.0866 551.1 36.8222 551.053 36.5842C550.797 35.312 550.157 34.125 549.202 33.1554C548.256 32.1917 546.893 31.4954 545.473 31.2544C544.877 31.1516 543.722 31.1781 543.478 31.2956C543.393 31.3367 543.346 31.4072 543.191 31.7099C543.085 31.9067 543.008 32.0771 543.017 32.0859C543.023 32.0948 543.167 32.0683 543.335 32.0331C543.617 31.9684 543.699 31.9625 544.504 31.9625C545.494 31.9625 545.664 31.986 546.428 32.227C547.994 32.7235 549.317 33.9311 549.969 35.4589C550.069 35.6969 550.26 36.2757 550.304 36.4755C550.316 36.5255 550.442 36.6606 550.665 36.8633C550.856 37.0338 551.044 37.2071 551.085 37.2482C551.126 37.2864 551.165 37.3217 551.171 37.3217C551.176 37.3246 551.171 37.2541 551.162 37.1718ZM540.17 35.6058C540.285 35.5471 540.393 35.4824 540.414 35.4677C540.44 35.4442 540.449 35.3091 540.449 34.9682V34.4981L540.382 34.5834C540.214 34.7802 539.912 35.2679 539.762 35.5764C539.671 35.7615 539.597 35.9173 539.597 35.9261C539.597 35.932 539.679 35.8908 539.782 35.8291C539.882 35.7674 540.059 35.6675 540.17 35.6058ZM549.293 35.6176C549.096 35.2092 548.896 34.886 548.691 34.6362L548.62 34.5481V35.0182L548.617 35.4883L548.929 35.6499C549.102 35.738 549.284 35.8409 549.334 35.8732C549.384 35.9084 549.428 35.9349 549.434 35.932C549.437 35.9261 549.375 35.785 549.293 35.6176ZM541.76 34.9389C541.78 34.9242 541.798 34.7449 541.81 34.4688C541.863 33.0967 542.33 31.6628 543.099 30.514C543.393 30.0733 543.661 29.7531 544.16 29.236C544.369 29.0215 544.386 29.0097 544.51 29.0097C544.627 29.0097 544.651 29.0244 544.886 29.2565C545.341 29.7031 545.65 30.0704 545.944 30.514C546.014 30.6228 546.099 30.7168 546.132 30.7285C546.167 30.7373 546.281 30.7638 546.39 30.7873C546.499 30.8108 546.681 30.8637 546.793 30.9019C546.907 30.943 547.001 30.9695 547.001 30.9636C547.001 30.9459 546.716 30.4582 546.596 30.2731C546.29 29.7971 545.638 29.0127 545.28 28.6865C544.989 28.4221 544.73 28.2017 544.683 28.1753C544.657 28.1606 544.613 28.1224 544.583 28.093C544.548 28.0578 544.516 28.046 544.495 28.0636C543.755 28.6189 542.964 29.4681 542.444 30.2731C541.813 31.2486 541.392 32.3151 541.187 33.4492C541.096 33.9517 541.037 34.551 541.037 34.9624V35.2004L541.384 35.0799C541.572 35.0153 541.742 34.9506 541.76 34.9389ZM542.75 34.8125C543.332 34.7009 543.719 34.6715 544.563 34.6715C545.406 34.6715 545.794 34.7009 546.375 34.8125C546.502 34.836 546.613 34.8566 546.628 34.8566C546.705 34.8566 546.587 33.8165 546.449 33.2994C546.352 32.9321 546.381 32.9556 545.797 32.8117C545.259 32.6794 545.062 32.653 544.592 32.653C544.087 32.653 543.79 32.6883 543.314 32.8146C542.817 32.9409 542.776 32.9586 542.738 33.0555C542.603 33.4081 542.412 34.8566 542.5 34.8566C542.512 34.8566 542.624 34.836 542.75 34.8125ZM545.094 30.517C545.071 30.47 544.533 29.8471 544.522 29.8471C544.504 29.8471 543.916 30.5258 543.916 30.5464C543.916 30.5581 544.187 30.5669 544.519 30.5669C545.086 30.5669 545.121 30.564 545.094 30.517Z" fill="black"/>
<path d="M287.1 137.131H262.41L311.79 33.8819L340.969 101.218L372.393 33.8819L390.349 69.7945L379.126 92.2399L372.393 78.7727L340.969 139.375L311.79 78.7727L287.1 137.131Z" fill="url(#paint23_linear_356_1111)" stroke="url(#paint24_linear_356_1111)"/>
<path d="M385.862 137.131H361.172L410.552 33.8819L441.975 101.218L471.154 33.8819L520.534 137.131H495.844L471.154 74.2836L441.975 139.375L410.552 74.2836L385.862 137.131Z" fill="url(#paint25_linear_356_1111)" stroke="url(#paint26_linear_356_1111)"/>
<defs>
<linearGradient id="paint0_linear_356_1111" x1="389.985" y1="170.924" x2="389.985" y2="181.16" gradientUnits="userSpaceOnUse">
<stop offset="0.641" stop-color="white"/>
<stop offset="1" stop-color="#FF12CC" stop-opacity="0.27"/>
</linearGradient>
<linearGradient id="paint1_linear_356_1111" x1="389.985" y1="170.924" x2="389.985" y2="181.16" gradientUnits="userSpaceOnUse">
<stop offset="0.641" stop-color="white"/>
<stop offset="1" stop-color="#FF12CC" stop-opacity="0.27"/>
</linearGradient>
<linearGradient id="paint2_linear_356_1111" x1="389.985" y1="170.924" x2="389.985" y2="181.16" gradientUnits="userSpaceOnUse">
<stop offset="0.641" stop-color="white"/>
<stop offset="1" stop-color="#FF12CC" stop-opacity="0.27"/>
</linearGradient>
<linearGradient id="paint3_linear_356_1111" x1="389.985" y1="170.924" x2="389.985" y2="181.16" gradientUnits="userSpaceOnUse">
<stop offset="0.641" stop-color="white"/>
<stop offset="1" stop-color="#FF12CC" stop-opacity="0.27"/>
</linearGradient>
<linearGradient id="paint4_linear_356_1111" x1="389.985" y1="170.924" x2="389.985" y2="181.16" gradientUnits="userSpaceOnUse">
<stop offset="0.641" stop-color="white"/>
<stop offset="1" stop-color="#FF12CC" stop-opacity="0.27"/>
</linearGradient>
<linearGradient id="paint5_linear_356_1111" x1="389.985" y1="170.924" x2="389.985" y2="181.16" gradientUnits="userSpaceOnUse">
<stop offset="0.641" stop-color="white"/>
<stop offset="1" stop-color="#FF12CC" stop-opacity="0.27"/>
</linearGradient>
<linearGradient id="paint6_linear_356_1111" x1="389.985" y1="170.924" x2="389.985" y2="181.16" gradientUnits="userSpaceOnUse">
<stop offset="0.641" stop-color="white"/>
<stop offset="1" stop-color="#FF12CC" stop-opacity="0.27"/>
</linearGradient>
<linearGradient id="paint7_linear_356_1111" x1="389.985" y1="170.924" x2="389.985" y2="181.16" gradientUnits="userSpaceOnUse">
<stop offset="0.641" stop-color="white"/>
<stop offset="1" stop-color="#FF12CC" stop-opacity="0.27"/>
</linearGradient>
<linearGradient id="paint8_linear_356_1111" x1="389.985" y1="170.924" x2="389.985" y2="181.16" gradientUnits="userSpaceOnUse">
<stop offset="0.641" stop-color="white"/>
<stop offset="1" stop-color="#FF12CC" stop-opacity="0.27"/>
</linearGradient>
<linearGradient id="paint9_linear_356_1111" x1="389.985" y1="170.924" x2="389.985" y2="181.16" gradientUnits="userSpaceOnUse">
<stop offset="0.641" stop-color="white"/>
<stop offset="1" stop-color="#FF12CC" stop-opacity="0.27"/>
</linearGradient>
<linearGradient id="paint10_linear_356_1111" x1="389.985" y1="170.924" x2="389.985" y2="181.16" gradientUnits="userSpaceOnUse">
<stop offset="0.641" stop-color="white"/>
<stop offset="1" stop-color="#FF12CC" stop-opacity="0.27"/>
</linearGradient>
<linearGradient id="paint11_linear_356_1111" x1="389.985" y1="170.924" x2="389.985" y2="181.16" gradientUnits="userSpaceOnUse">
<stop offset="0.641" stop-color="white"/>
<stop offset="1" stop-color="#FF12CC" stop-opacity="0.27"/>
</linearGradient>
<linearGradient id="paint12_linear_356_1111" x1="389.985" y1="170.924" x2="389.985" y2="181.16" gradientUnits="userSpaceOnUse">
<stop offset="0.641" stop-color="white"/>
<stop offset="1" stop-color="#FF12CC" stop-opacity="0.27"/>
</linearGradient>
<linearGradient id="paint13_linear_356_1111" x1="389.985" y1="170.924" x2="389.985" y2="181.16" gradientUnits="userSpaceOnUse">
<stop offset="0.641" stop-color="white"/>
<stop offset="1" stop-color="#FF12CC" stop-opacity="0.27"/>
</linearGradient>
<linearGradient id="paint14_linear_356_1111" x1="389.985" y1="170.924" x2="389.985" y2="181.16" gradientUnits="userSpaceOnUse">
<stop offset="0.641" stop-color="white"/>
<stop offset="1" stop-color="#FF12CC" stop-opacity="0.27"/>
</linearGradient>
<linearGradient id="paint15_linear_356_1111" x1="389.985" y1="170.924" x2="389.985" y2="181.16" gradientUnits="userSpaceOnUse">
<stop offset="0.641" stop-color="white"/>
<stop offset="1" stop-color="#FF12CC" stop-opacity="0.27"/>
</linearGradient>
<linearGradient id="paint16_linear_356_1111" x1="389.985" y1="170.924" x2="389.985" y2="181.16" gradientUnits="userSpaceOnUse">
<stop offset="0.641" stop-color="white"/>
<stop offset="1" stop-color="#FF12CC" stop-opacity="0.27"/>
</linearGradient>
<linearGradient id="paint17_linear_356_1111" x1="389.985" y1="170.924" x2="389.985" y2="181.16" gradientUnits="userSpaceOnUse">
<stop offset="0.641" stop-color="white"/>
<stop offset="1" stop-color="#FF12CC" stop-opacity="0.27"/>
</linearGradient>
<linearGradient id="paint18_linear_356_1111" x1="389.985" y1="170.924" x2="389.985" y2="181.16" gradientUnits="userSpaceOnUse">
<stop offset="0.641" stop-color="white"/>
<stop offset="1" stop-color="#FF12CC" stop-opacity="0.27"/>
</linearGradient>
<linearGradient id="paint19_linear_356_1111" x1="389.985" y1="170.924" x2="389.985" y2="181.16" gradientUnits="userSpaceOnUse">
<stop offset="0.641" stop-color="white"/>
<stop offset="1" stop-color="#FF12CC" stop-opacity="0.27"/>
</linearGradient>
<linearGradient id="paint20_linear_356_1111" x1="389.985" y1="170.924" x2="389.985" y2="181.16" gradientUnits="userSpaceOnUse">
<stop offset="0.641" stop-color="white"/>
<stop offset="1" stop-color="#FF12CC" stop-opacity="0.27"/>
</linearGradient>
<linearGradient id="paint21_linear_356_1111" x1="389.985" y1="170.924" x2="389.985" y2="181.16" gradientUnits="userSpaceOnUse">
<stop offset="0.641" stop-color="white"/>
<stop offset="1" stop-color="#FF12CC" stop-opacity="0.27"/>
</linearGradient>
<linearGradient id="paint22_linear_356_1111" x1="389.985" y1="170.924" x2="389.985" y2="181.16" gradientUnits="userSpaceOnUse">
<stop offset="0.641" stop-color="white"/>
<stop offset="1" stop-color="#FF12CC" stop-opacity="0.27"/>
</linearGradient>
<linearGradient id="paint23_linear_356_1111" x1="326.38" y1="33.8819" x2="326.38" y2="139.375" gradientUnits="userSpaceOnUse">
<stop stop-color="#DA08FF"/>
<stop offset="1" stop-color="#7C47CB"/>
</linearGradient>
<linearGradient id="paint24_linear_356_1111" x1="326.38" y1="33.8819" x2="326.38" y2="139.375" gradientUnits="userSpaceOnUse">
<stop offset="0.201" stop-color="white"/>
<stop offset="1" stop-color="#999999"/>
</linearGradient>
<linearGradient id="paint25_linear_356_1111" x1="440.853" y1="33.8819" x2="440.853" y2="139.375" gradientUnits="userSpaceOnUse">
<stop stop-color="#DA08FF"/>
<stop offset="1" stop-color="#7C47CB"/>
</linearGradient>
<linearGradient id="paint26_linear_356_1111" x1="440.853" y1="33.8819" x2="440.853" y2="139.375" gradientUnits="userSpaceOnUse">
<stop offset="0.201" stop-color="white"/>
<stop offset="1" stop-color="#999999"/>
</linearGradient>
</defs>
</svg>
