<svg width="1336" height="768" viewBox="0 0 1336 768" fill="none" xmlns="http://www.w3.org/2000/svg">
<mask id="mask0_2642_46312" style="mask-type:alpha" maskUnits="userSpaceOnUse" x="1" y="1" width="715" height="766">
<rect x="1" y="1" width="715" height="766" fill="#D9D9D9"/>
</mask>
<g mask="url(#mask0_2642_46312)">
<path d="M24.4651 277.706C32.8437 276.883 49.2807 279.014 59.3679 279.911C75.2307 281.327 91.0322 282.746 106.909 284.087C118.084 285.029 128.755 286.144 139.298 289.617C146.618 292.036 145.177 292.085 153.975 290.394C159.68 289.3 166.011 288.979 171.462 288.156C176.07 291.802 183.046 295.064 186.614 299.364C189.885 303.305 190.761 309.464 193.279 313.945C195.872 318.561 198.457 323.658 201.46 327.933C205.15 333.162 210.092 335.639 215.195 339.922C221.531 345.242 222.062 352.944 226.567 359.753C230.766 366.109 236.551 371.952 242.19 377.403C253.957 388.796 270.197 393.622 278.787 407.437C283.023 414.271 285.89 422.66 291.327 428.597C296.33 434.065 305.236 438.393 309.171 444.178C315.045 452.855 316.255 465.235 321.504 474.866C327.552 485.999 334.947 496.861 341.188 507.924C347.308 518.769 353.337 529.956 358.605 540.863C362.309 548.503 368.805 554.897 372.796 562.644C377.461 571.695 379.904 581.335 385.529 589.983C391.747 599.549 400.502 607.782 406.447 617.327C410.128 617.985 421.872 626.518 422.324 630.608C404.908 626.275 380.53 626.843 362.808 631.43C353.93 633.739 344.201 636.03 335.305 638.783C327.514 641.194 322.012 646.188 313.605 647.785C276.132 654.886 237.822 652.524 200.024 657.856C178.842 660.848 159.19 656.585 138.192 654.125C121.779 652.199 105.365 654.479 88.8341 653.713C69.168 652.796 42.2343 649.262 24.4416 655.483C17.1927 658.029 -1 658.893 -1 658.893V277.5L24.4651 277.706Z" fill="#530B65"/>
<g style="mix-blend-mode:darken">
<path d="M212.998 390.943C217.06 390.425 221.856 391.873 225.806 390.914C229.454 390.03 231.035 386.582 235.22 388.791C232.579 395.012 250.423 396.995 254.665 397.843C261.654 399.238 258.185 401.41 261.377 405.425C266.409 411.753 266.385 405.783 270.739 404.096C276.35 408.593 279.315 415.83 284.507 420.574C284.832 420.399 285.146 420.21 285.449 420.006C283.17 415.81 281.189 411.366 278.741 407.437C270.151 393.605 253.926 388.779 242.144 377.403C240.52 375.831 238.886 374.223 237.277 372.585C233.831 371.302 230.48 370.812 227.51 372.145C228.192 373.063 228.616 375.568 229.294 376.519C224.53 378.493 218.467 376.004 213.76 374.786C209.868 373.778 206.507 373.778 202.463 372.931C199.639 372.343 192.913 366.759 189.971 367.994C186.205 369.594 193.035 373.54 194.48 375.074C191.251 381.044 176.005 376.938 169.674 376.638C160.387 376.206 161.272 378.753 155.2 383.007C152.145 385.15 147.772 385.117 145.461 387.969C151.58 391.737 168.813 388.791 175.586 387.557C182.115 386.352 185.179 386.282 191.835 386.862C195.313 387.17 198.312 387.899 200.985 385.916C201.331 386.235 201.628 386.592 201.87 386.977C191.84 393.342 209.75 391.359 212.998 390.943Z" fill="#5E3078"/>
</g>
<path opacity="0.05" d="M409.667 618.668C408.688 618.078 407.61 617.626 406.471 617.327C400.526 607.782 391.771 599.549 385.553 589.983C379.905 581.343 377.485 571.708 372.82 562.644C368.829 554.897 362.333 548.503 358.629 540.863C353.338 529.956 347.304 518.77 341.213 507.924C334.971 496.861 327.562 485.999 321.528 474.866C316.256 465.235 315.046 452.855 309.153 444.178C305.218 438.393 296.307 434.065 291.308 428.618C285.872 422.685 283.019 414.292 278.769 407.458C270.178 393.626 253.953 388.8 242.172 377.424C240.496 375.803 238.811 374.132 237.154 372.454C236.024 371.952 234.894 371.442 233.779 370.915C230.705 369.463 229.039 367.443 226.619 365.315C222.698 361.868 217.38 359.741 213.162 356.564C210.121 354.277 208.21 351.339 204.925 349.196C202.326 347.497 199.93 345.723 197.464 343.888C194.889 341.967 192.249 339.926 189.316 338.42C187.405 337.441 184.473 336.775 182.849 335.54C181.225 334.306 179.954 332.023 178.528 330.603C176.489 328.546 175.007 326.287 173.397 323.988C171.425 321.173 168.986 318.865 167.198 315.957C165.658 313.459 164.373 310.456 162.171 308.349C159.685 305.955 156.522 303.412 153.288 301.725C149.805 299.915 144.99 299.125 141.878 297.113C145.95 296.833 149.951 297.084 153.5 298.759C155.11 299.52 155.124 299.66 156.772 299.294C158.184 298.981 158.899 298.109 160.481 298.38C163.107 298.829 164.035 303.223 164.962 305.329C166.04 307.798 166.299 310.777 167.56 312.957C168.897 315.261 170.502 317.483 172.903 319.108C176.08 321.247 177.497 325.14 180.796 327.46C182.246 328.431 183.784 329.298 185.395 330.052C194.338 334.541 203.305 338.486 212.56 342.613C216.24 344.259 217.267 348.455 220.256 351.072C221.423 352.105 222.567 353.306 223.729 354.495C221.404 349.233 219.902 343.938 215.177 339.967C210.074 335.635 205.132 333.167 201.441 327.917C198.434 323.658 195.854 318.561 193.261 313.928C190.742 309.448 189.867 303.289 186.595 299.347C183.027 295.048 176.052 291.785 171.448 288.14C165.993 288.963 159.68 289.284 153.957 290.378C145.159 292.065 146.6 292.024 139.28 289.6C128.736 286.12 118.065 285.013 106.891 284.071C91.0329 282.73 75.2313 281.31 59.3497 279.895C49.2625 278.998 32.8255 276.85 24.4469 277.69L5.05859 277.546C19.2974 287.399 42.2772 294.171 57.1892 298.528C65.9772 301.108 78.8934 300.635 86.6694 304.461C92.4262 307.296 92.059 310.316 99.1149 311.332C104.434 312.097 111.706 309.234 116.809 310.921C133.655 316.446 144.387 336.491 158.748 346.003C167.767 351.977 177.76 358.947 185.748 365.916C195.162 374.145 200.312 384.513 212.315 390.511C209.02 392.733 202.741 393.963 198.664 395.518C204.36 396.596 213.115 396.67 219.083 396.037C224.214 395.498 227.175 391.511 231.477 390.688C236.918 389.623 241.456 394.835 246.949 397.271C251.755 399.39 251.986 398.238 257.935 398.678C254.302 407.03 243.814 402.694 237.111 398.629C235.149 400.361 232.353 401.023 230.291 402.364C237.747 410.86 244.911 419.422 253.586 427.161C262.694 435.287 268.084 448.86 277.658 455.862C279.541 454.031 280.774 451.291 282.026 449.045C288.654 455.426 294.641 466.477 298.228 474.356C300.704 479.791 301.052 483.448 305.288 487.694C309.186 491.587 315.611 494.113 318.468 498.058C321.636 502.391 322.803 509.422 325.133 514.314C328.014 520.366 331.695 526.007 334.406 532.087C339.057 542.525 344.597 553.07 347.586 563.961C349.779 571.971 351.352 580.15 355.433 587.309C351.667 588.436 347.497 587.902 343.914 589.333C361.641 605.001 386.414 611.073 409.667 618.668Z" fill="white"/>
<path d="M242.169 377.387L241.985 377.206H241.891C240.523 376.981 239.139 376.835 237.749 376.77C236.375 376.65 234.981 375.667 233.833 376.453C233.329 376.798 231.917 379.189 232.19 379.794C232.887 381.374 237.66 380.423 239.171 380.394C241.312 380.357 242.88 380.74 243.972 382.373C244.504 383.171 243.755 383.106 244.777 383.665C245.327 383.966 246.264 383.809 246.834 384.052C248.288 384.669 251.762 386.52 252.35 387.8C250.571 388.425 249.055 388.039 247.111 387.969C245.614 387.915 241.237 387.52 240.376 388.833C241.656 389.886 244.687 390.437 246.415 390.799C248.768 391.293 250.562 392.161 252.741 392.988C254.487 393.655 255.777 393.597 257.504 393.017C258.446 392.692 259.858 391.828 260.461 393.272C260.992 394.543 259.448 394.728 260.409 395.996C261.247 397.098 262.437 397.176 263.704 397.432C266.711 398.045 269.677 400.694 272.892 400.591C273.01 400.587 273.128 400.574 273.245 400.554C264.269 391.589 251.767 386.652 242.169 377.387Z" fill="#8E3986"/>
<path opacity="0.1" d="M130.84 310.62C129.23 308.563 127.182 307.148 128.326 304.329C129.381 301.725 132.191 302.544 134.883 301.573C136.342 301.046 135.895 300.573 137.966 300.433C139.072 300.359 141.064 300.972 142.254 301.091C142.306 301.042 142.363 300.997 142.419 300.952C141.53 298.808 138.381 298.257 138.07 295.908C141.365 294.937 145.578 295.2 149.089 294.443C153.754 293.439 158.71 293.209 163.13 292.196C170.12 290.608 181.389 299.364 185.122 304.317C186.374 305.963 186.595 307.197 188.487 308.431C189.466 309.086 190.539 309.719 191.631 310.345C190.163 306.526 189.057 302.309 186.595 299.343C183.027 295.044 176.051 291.781 171.448 288.136C165.992 288.959 159.68 289.279 153.956 290.374C145.159 292.061 146.599 292.02 139.28 289.596C128.736 286.116 118.065 285.009 106.89 284.067C91.0323 282.725 75.2307 281.306 59.3491 279.891C49.2619 278.994 32.8249 276.846 24.4463 277.685L12.208 277.595C13.0568 278.094 13.8724 278.636 14.651 279.216C21.7633 285.087 32.373 287.379 41.693 289.699C51.0129 292.02 59.9846 293.974 69.1163 296.829C73.6303 298.24 78.7045 300.121 83.501 300.371C88.0668 300.606 92.4067 300.61 96.3277 303.021C99.3732 304.893 100.531 306.078 104.396 306.638C107.761 307.131 110.755 306.765 114.078 306.814C112.854 304.399 109.206 304.494 106.697 303.741C104.344 303.033 102.409 301.824 100.286 300.692C101.962 299.845 108.952 299.285 110.557 299.845C112.289 300.446 113.518 302.614 115.391 304.025C121.181 308.398 125.888 315.059 133.829 318.158C133.52 315.475 132.496 312.894 130.84 310.62Z" fill="white"/>
<path opacity="0.3" d="M362.855 631.451C367.27 630.328 371.768 629.47 376.317 628.884C375.611 628.472 374.905 628.003 374.265 627.522C368.089 622.963 366.169 616.932 360.652 612.25C348.856 602.231 330.085 597.776 321 585.684C324.54 586.856 333.657 586.313 337.155 584.499C343.453 581.232 342.681 575.447 341.574 568.297C340.49 561.55 338.621 554.918 335.997 548.503C333.511 542.496 330.489 536.485 328.155 530.273C326.465 525.772 323.193 522.966 320.703 518.946C319.056 516.288 318.02 512.491 315.121 510.66C315.083 514.811 319.047 525.961 311.826 525.615C299.46 525.019 288.639 517.992 276.9 514.873C271.872 513.536 266.521 512.894 261.249 512.051C255.082 511.067 250.601 510.549 245.908 506.883C240.472 502.674 234.032 499.091 228.233 495.215C225.075 493.1 221.893 491.068 219.29 488.513C211.354 480.675 203.531 472.422 195.854 464.313C190.158 458.302 183.013 453.204 177.656 447.033C168.454 436.435 155.867 428.206 145.017 419.006C151.184 418.681 156.027 418.846 162.189 420.167C171.316 422.125 180.89 422.425 189.866 424.388C194.696 425.441 198.781 427.844 202.989 430.049C208.986 433.188 215.228 436.06 221.272 439.133C223.517 440.273 230.747 441.911 231.891 443.593C233.679 446.226 230.135 447.144 233.971 449.736C238.434 452.743 245.009 454.533 250.079 456.73C255.064 458.89 259.079 461.532 263.536 464.412C270.079 468.699 276.984 470.48 283.951 473.8C290.122 476.738 292.555 479.704 296.241 484.909C299.536 489.566 303.49 493.829 307.269 498.177C309.449 500.691 312.297 504.283 315.577 505.488C313.723 500.963 311.567 497.832 307.317 494.791C302.609 491.426 300.83 487.575 298.001 482.992C294.791 477.791 292.39 472.344 288.493 467.456C286.14 464.494 282.661 461.894 280.844 458.643C280.091 459.799 279.474 460.98 278.411 461.935C273.478 459.359 270.07 454.286 266.864 450.361C262.811 445.387 260.778 438.87 256.48 434.003C254.64 431.917 251.825 430.605 249.613 428.877C246.897 426.754 244.878 423.993 242.595 421.516C239.436 418.081 236.706 414.473 233.223 411.292C230.3 408.626 227.73 404.393 224.52 402.241C227.438 399.583 235.553 396.563 239.897 396.954C233.421 392.132 228.44 391.98 222.067 396.954C218.56 399.673 216.056 400.657 211.114 399.929C206.459 399.225 201.46 396.744 196.743 398.057C197.186 395.131 203.39 392.675 203.451 390.005C203.451 388.927 201.464 387.787 200.561 387.063C197.543 384.648 194.785 382.636 192.399 379.658C186.529 372.318 177.844 367.15 170.497 360.983C165.182 356.527 159.576 352.919 153.664 349.191C148.289 345.801 144.721 340.082 140.485 335.676C136.855 331.883 133.09 328.221 129.324 324.535C125.558 320.848 120.851 316.586 115.485 314.763C113.033 313.94 109.602 314.5 106.843 314.977C99.279 316.29 90.2603 317.108 83.4869 320.387C80.2437 317.561 86.5935 311.533 81.5381 307.975C79.1187 306.275 75.1318 306.794 72.2464 306.522C67.5394 306.078 62.8323 305.263 58.0829 304.798C48.8006 303.881 39.7536 303.153 30.4525 301.766C22.6157 300.672 15.0109 298.557 7.89162 295.492C4.77084 294.126 1.89484 292.34 -1 290.637V658.864C-1 658.864 17.1928 658 24.4651 655.462C42.2437 649.241 69.1821 652.775 88.8576 653.693C105.389 654.462 121.807 652.183 138.216 654.104C159.214 656.573 178.871 660.827 200.048 657.836C237.374 652.57 275.224 654.804 312.254 648.015C314.137 638.046 312.499 626.851 317.22 618.874C322.37 625.605 322.967 635.088 326.545 642.617C329.327 641.173 332.132 639.737 335.328 638.762C344.225 636.042 353.954 633.751 362.855 631.451Z" fill="#151515"/>
<path opacity="0.3" d="M163.105 398.55C168.942 401.801 175.523 401.344 182.188 401.797C183.993 401.941 185.807 401.99 187.62 401.945C188.627 401.912 189.842 401.574 190.844 401.797C192.181 402.097 191.696 402.406 192.553 403.212C193.885 404.446 198.488 403.253 200.63 403.138C203.379 402.994 206.1 403.298 208.844 403.212C210.971 403.146 213 402.673 215.104 402.801C216.987 402.908 219.92 402.801 221.407 403.866C222.527 403.29 223.558 402.537 224.702 401.982C224.848 401.908 224.998 401.842 225.173 401.78C228.491 399.266 235.853 396.646 239.92 397.012C233.443 392.19 228.463 392.038 222.09 397.012C220 398.657 218.258 399.641 216.149 400.032C215.802 400.2 215.436 400.338 215.057 400.443C213.057 401.003 209.564 400.797 207.526 400.274C204.862 399.596 202.155 398.353 199.293 398.423C197.41 398.464 196.144 399.892 194.29 399.604C193.287 399.447 192.407 398.736 191.404 398.567C190.402 398.398 190.599 398.867 189.597 398.337C188.048 397.514 187.187 395.37 185.864 394.321C184.81 393.498 184.287 393.576 182.659 394.033C179.467 394.926 176.643 396.724 173.273 397.168C170.787 397.497 168.693 396.724 166.287 396.559C164.588 396.419 163.84 397.008 163.105 398.55Z" fill="#151515"/>
<path d="M549.047 636.388C539.28 633.837 531.946 628.732 523.257 624.568C512.699 619.503 501.699 615.656 490.929 610.991C454.266 595.069 417.758 579.504 382.822 560.747C375.291 556.711 366.818 554.81 359.169 550.717C349.6 545.599 340.539 539.02 330.776 534.498C320.284 529.643 307.335 529.376 296.566 524.723C288.521 521.242 281.094 515.223 273.845 510.504C264.289 504.287 256.923 497.017 246.544 491.747C237.939 487.373 235.51 484.568 231.123 477.417C227.179 470.99 225.475 469.567 217.299 468.514C209.386 467.497 206.774 466.115 200.198 462.136C181.304 450.711 162.245 439.364 143.262 427.795C128.872 419.027 114.728 409.013 98.9777 401.969C80.8509 393.864 64.2774 384.233 45.5668 377.173C29.883 371.252 14.1897 365.373 -1 359.115V775.763C27.8589 775.208 54.402 777.232 80.6014 764.84C92.5197 759.207 103.708 752.876 116.775 749.296C128.279 746.141 140.513 745.281 152.229 742.647C187.569 734.711 225 725.779 258.872 714.004C275.304 708.277 292.033 706.1 309.477 703.932C326.206 701.85 343.683 697.987 360.52 697.415C376.129 696.88 390.052 692.511 405.336 689.812C413.286 688.413 423.567 687.023 430.345 683.196C428.495 681.604 426.706 679.872 424.875 678.259C433.047 668.887 453.588 664.176 466.052 661.736C464.831 660.139 463.41 658.665 461.816 657.342C477.891 651.438 499.072 649.718 516.277 646.896C524.853 645.489 532.723 647.036 541.224 646.452C549.014 645.921 555.872 642.444 563.578 642.65C559.982 638.972 554.404 637.787 549.047 636.388Z" fill="#530B65"/>
<g style="mix-blend-mode:darken">
<path d="M427.436 675.786C421.317 672.672 417.527 669.204 419.255 664.801C413.47 659.864 403.166 656.079 395.508 654.215C383.778 651.364 375.945 649.159 365.449 641.996C354.152 634.298 347.166 627.538 333.563 622.47C321 617.792 307.623 611.773 297.116 604.396C287.566 597.702 283.89 592.76 271.463 589.745C260.298 587.042 249.387 582.615 238.514 578.743C214.173 570.103 194.39 551.902 169.32 543.434C155.75 538.847 145.723 537.539 135.161 529.277C129.108 524.542 129.47 522.016 121.181 522.608C113.414 523.168 106.504 528.714 98.54 528.648C85.4921 528.541 71.7098 517.827 59.0855 515.071C46.0893 512.24 40.1067 509.751 29.8218 501.736C20.7281 494.684 10.2982 489.07 -1 485.148L-1 775.763C27.8589 775.208 54.402 777.232 80.6014 764.84C92.5197 759.207 103.708 752.876 116.775 749.296C128.279 746.141 140.513 745.281 152.229 742.647C187.569 734.711 225 725.779 258.872 714.004C275.304 708.277 292.033 706.1 309.477 703.932C326.206 701.85 343.683 697.987 360.52 697.415C376.129 696.88 390.052 692.511 405.336 689.812C413.286 688.413 423.567 687.023 430.345 683.196C428.495 681.604 426.706 679.872 424.875 678.259C425.651 677.376 426.507 676.549 427.436 675.786Z" fill="#5E3078"/>
</g>
<g style="mix-blend-mode:darken">
<path d="M242.533 488.275C242.453 488.772 245.522 491.06 247.711 491.007C249.024 493.335 255.426 497.371 258.504 497.799C262.27 498.326 272.447 496.322 273.567 501.983C271.138 502.127 268.968 501.819 266.69 501.716C264.746 505.703 272.094 507.887 273.129 511.545C268.893 510.644 264.897 507.196 261.479 504.802C256.904 501.597 250.714 500.63 245.4 498.408C240.01 496.158 235.044 493.471 229.42 491.414C224.435 489.571 218.739 486.176 213.288 487.209C215.576 491.085 223.098 492.451 224.562 496.219C220.881 497.454 211.476 494.228 207.579 493.236C199.238 491.122 184.547 493.907 178.193 488.299C179.158 487.151 180.65 486.497 182.114 485.909C180.777 484.127 174.032 482.091 176.569 479.602C178.489 477.722 190.149 482.922 188.628 476.45C187.743 472.661 178.663 472.303 175.618 471.513C170.911 470.279 167.272 468.744 162.523 467.958C158.089 467.222 148.901 464.667 154.521 460.672C156.7 459.125 168.171 462.318 168.581 458.759C168.906 455.908 162.702 456.549 160.885 456.27C156.319 455.566 152.916 453.949 149.362 451.398C142.584 446.527 132.548 445.371 124.015 443.548C120.065 442.726 113.075 443.709 109.846 441.606C108.815 440.94 106.843 438.726 107.667 437.414C108.575 435.953 109.964 437.031 110.778 436.299C113.014 434.304 114.544 434.542 111.249 431.033C107.794 427.379 101.981 426.314 98.3093 422.94C92.7927 417.921 88.4763 412.572 81.5946 408.758C75.9885 405.644 66.1837 400.966 63.2842 395.321C68.0665 393.585 73.715 397.23 78.0031 398.826C87.163 402.245 95.8099 405.294 104.452 409.976C116.223 416.348 128.038 422.648 139.896 428.877C145.86 431.987 151.565 435.254 157.661 438.171C163.831 441.125 168.101 445.671 173.956 448.95C181.709 453.303 190.158 456.212 198.311 459.886C204.26 462.56 209.297 466.514 215.256 469.16C221.742 472.04 224.67 474.66 229.401 479.223C231.947 481.692 235.294 483.556 242.533 488.275Z" fill="#5E3078"/>
</g>
<path d="M548.97 636.388C539.245 633.833 531.921 628.744 523.26 624.592C512.702 619.528 501.701 615.681 490.932 611.015C454.268 595.093 417.761 579.529 382.825 560.772C376.4 557.324 369.283 555.423 362.585 552.395C361.216 552.248 359.86 552.019 358.527 551.708C353.105 550.379 345.733 548.417 340.829 546.109C336.696 544.183 333.886 541.172 329.88 539.246C319.557 534.251 308.595 535.214 297.401 533.223C285.163 531.046 274.238 525.694 262.875 521.592C256.94 519.448 249.559 513.713 243.289 515.98C249.516 524.451 260.512 525.747 270.011 530.38C281.957 536.214 288.778 545.142 302.301 548.417C324.787 553.864 344.058 567.297 363.229 578.406C356.837 577.171 352.737 571.823 345.715 572.67C343.705 588.926 375.637 594.517 387.372 601.795C397.629 608.148 406.831 610.727 418.655 614.048C424.44 615.673 435.271 618.573 429.392 625.646C436.208 633.265 443 632.669 452.894 633.845C459.065 634.574 471.011 638.857 476.594 633.623C475.653 632.611 475.351 631.229 474.429 630.188C479.865 623.852 484.219 629.39 489.76 631.5C495.596 633.722 502.04 633.669 508.451 634.512C522.205 636.331 536.769 635.689 549.346 637.931C549.264 637.409 549.138 636.894 548.97 636.388Z" fill="#5E3078"/>
<path opacity="0.3" d="M429.505 682.468C427.029 682.616 424.591 682.772 422.36 682.772C416.984 682.772 411.609 682.67 406.261 683.06C394.395 683.933 381.71 681.933 369.829 681.073C356 680.082 343.597 677.621 330.186 674.601C297.176 667.163 266.17 685.71 233.541 684.122C219.825 683.451 206.532 681.032 193.06 679.028C187.605 678.206 175.988 677.572 172.109 682.489C172.768 683.225 173.889 683.254 174.863 683.583C176.314 684.116 177.717 684.744 179.062 685.459C183.068 687.518 186.738 690.039 189.973 692.955C192.994 695.584 195.946 698.304 199.043 700.859C201.453 702.838 203.322 703.698 206.574 704.08C208.895 704.356 211.281 704.319 213.593 704.57C214.868 704.701 217.641 704.759 218.681 705.557C221.557 707.767 205.816 715.74 203.496 716.629C196.906 719.151 190.114 719.723 183.034 719.509C173.681 719.237 165.016 721.064 155.781 721.566C150.989 721.825 146.178 722.253 141.4 722.619C140.37 722.697 137.903 723.413 136.844 722.932C135.785 722.45 136.496 721.208 135.592 720.578C131.596 717.81 122.954 719.669 118.421 720.031C114.655 720.336 108.479 719.83 105.283 721.525C113.257 722.241 120.892 725.289 129.162 725.466C135.724 725.606 142.281 726.289 148.819 726.881C152.514 727.215 155.517 727.704 158.873 729.136C160.285 729.745 161.457 730.617 162.945 730.819C150.993 735.246 137.738 737.435 125.641 741.75C117.225 744.754 107.204 743.952 100.779 749.909C94.4665 755.755 86.5775 760.228 79.4463 765.387L80.6183 764.856C92.5366 759.224 103.725 752.892 116.792 749.312C128.296 746.157 140.53 745.297 152.246 742.664C187.586 734.727 225.017 725.795 258.888 714.02C275.321 708.293 292.05 706.117 309.494 703.949C326.223 701.867 343.7 698.003 360.537 697.432C376.146 696.897 390.069 692.527 405.353 689.828C413.303 688.43 423.583 687.039 430.362 683.213C430.06 682.953 429.783 682.711 429.505 682.468Z" fill="#151515"/>
<path opacity="0.2" d="M461.816 657.346C453.282 647.431 433.875 645.312 416.417 635.985C398.958 626.658 388.763 619.026 380.521 616.479C372.279 613.933 355.781 607.156 352.382 602.902C348.984 598.648 348.019 592.3 347.049 591.037C346.079 589.774 326.192 578.311 326.192 578.311C326.192 578.311 341.226 579.583 346.079 581.282C350.932 582.981 356.265 581.693 356.265 581.693L362.573 583.812C363.307 580.418 360.78 579.78 357.325 578.784C355.734 578.328 353.507 578.196 352.147 577.386C350.636 576.501 350.311 575.094 348.673 574.423C343.881 572.457 336.162 573.041 330.819 572.226C325.036 571.317 319.409 569.77 314.071 567.622C309.807 565.944 308.95 562.973 305.345 560.69C303.598 559.587 301.235 559.776 299.037 559.785C295.068 559.827 291.121 559.252 287.382 558.086C277.427 555.037 269.651 548.154 260.082 544.307C249.938 540.242 240.011 535.367 230.248 530.676C222.642 527.027 212.22 524.007 206.068 518.523C203.752 516.466 202.773 513.055 200.001 511.368C198.316 510.331 193.505 508.529 191.561 509.253C192.917 511.446 196.042 514.063 196.343 516.494C187.442 517.362 180.518 510.463 173.411 506.929C170.464 505.464 164.67 502.979 161.055 501.28C154.695 498.301 147.936 496.083 141.412 493.343C135.011 490.661 127.837 489.546 121.115 487.583C114.238 485.563 110.289 482.646 105.422 478.38C96.0362 470.089 80.8889 466.366 69.4367 460.433C66.0852 458.697 62.2207 457.512 59.1235 455.496C57.3725 454.348 56.0404 452.711 54.0823 451.793C51.5828 450.645 48.462 450.633 45.6849 449.995C39.8858 448.671 34.388 446.515 28.6689 445.009C24.0277 443.775 19.3348 442.816 15.2491 440.483C9.60063 437.237 4.42287 433.489 -0.976113 429.926V524.069C6.82818 528.241 14.8207 532.182 22.8557 535.897C45.8496 546.545 68.9424 549.886 94.5629 552.914C152.13 559.682 206.906 575.497 260.806 594.427C280.105 601.199 304.544 605.667 319.249 619.211C316.453 622.017 307.274 619.865 303.024 619.713C292.471 619.302 281.842 618.635 271.28 617.928C250.352 616.516 229.246 616.035 208.205 616.035C192.507 616.035 176.828 616.302 161.267 617.948C137.891 620.417 113.848 618.458 90.3312 620.417C72.3174 621.923 50.9144 625.564 33.3195 621.001C33.5454 605.609 15.3574 609.423 -0.990234 611.608V643.095C95.8997 624.556 180.641 629.727 191.834 631.291C203.959 632.99 249.557 638.923 264.106 641.042C278.656 643.16 285.453 647.83 300.007 649.949C314.561 652.068 331.05 654.615 342.69 656.31C354.331 658.005 389.257 665.633 396.049 667.332C402.842 669.031 413.513 673.264 424.885 678.235C433.056 668.862 453.598 664.151 466.062 661.712C464.836 660.124 463.412 658.66 461.816 657.346Z" fill="#151515"/>
<path opacity="0.1" d="M461.815 657.346C453.281 647.431 433.874 645.312 416.415 635.985C398.957 626.658 388.762 619.026 380.519 616.479C372.277 613.933 355.779 607.156 352.381 602.902C348.982 598.648 348.017 592.3 347.048 591.037C346.078 589.774 326.191 578.311 326.191 578.311C326.191 578.311 341.225 579.583 346.078 581.282C350.931 582.981 356.264 581.693 356.264 581.693L362.571 583.812C363.306 580.418 360.778 579.78 357.323 578.784C355.732 578.328 353.506 578.196 352.145 577.386C350.634 576.501 350.31 575.094 348.672 574.423C343.88 572.457 336.16 573.041 330.818 572.226C325.035 571.317 319.407 569.77 314.07 567.622C309.805 565.944 308.949 562.973 305.343 560.69C303.597 559.587 301.234 559.777 299.036 559.785C295.066 559.827 291.12 559.252 287.381 558.086C277.426 555.037 269.65 548.154 260.08 544.307C249.936 540.242 240.009 535.367 230.247 530.676C222.64 527.027 212.219 524.007 206.067 518.523C203.751 516.466 202.772 513.055 199.999 511.368C198.314 510.331 193.504 508.529 191.56 509.253C192.915 511.446 196.041 514.063 196.342 516.494C187.441 517.362 180.517 510.463 173.409 506.929C170.463 505.464 164.668 502.979 161.053 501.28C154.694 498.301 147.935 496.083 141.411 493.343C135.009 490.661 127.836 489.546 121.114 487.583C114.237 485.563 110.288 482.646 105.421 478.38C96.0348 470.089 80.8875 466.366 69.4352 460.433C66.0838 458.697 62.2193 457.512 59.1221 455.496C57.3711 454.348 56.039 452.711 54.0808 451.793C51.5814 450.645 48.4606 450.633 45.6834 449.995C39.8844 448.671 34.3865 446.515 28.6675 445.009C24.0263 443.775 19.3334 442.816 15.2477 440.483C9.5992 437.237 4.42145 433.489 -0.977539 429.926V490.611C3.18349 492.233 7.60812 493.57 11.3926 495.043C20.7549 498.68 30.5456 503.045 39.4607 507.299C50.4611 512.541 60.4259 519.592 71.4687 524.949C81.4617 529.808 91.2383 529.57 101.66 532.404C115.23 536.107 125.967 542.081 140.394 543.99C158.916 546.459 178.573 549.17 196.055 555.14C211.235 560.324 224.834 568.885 239.543 575.02C252.116 580.266 267.72 581.426 279.181 588.531C283.71 591.345 286.75 594.941 291.914 597.274C299.728 600.804 307.772 603.503 315.586 607.276C325.833 612.213 334.023 617.331 343.174 623.667C349.655 628.156 358.109 630.822 364.059 635.784C362.571 634.549 351.284 635.487 348.785 635.29C342.628 634.796 336.301 633.167 330.154 633.027C319.328 632.784 308.906 634.302 297.925 632.616C288.097 631.097 279.097 626.444 269.362 625.576C252.083 624.033 235.472 627.176 218.489 624.93C202.103 622.766 186.853 624.765 171.658 628.909C170.519 629.217 169.305 629.509 168.086 629.797C180.531 630.209 188.858 630.888 191.87 631.307C203.996 633.006 249.593 638.939 264.142 641.058C278.692 643.177 285.489 647.847 300.043 649.965C314.597 652.084 331.086 654.631 342.727 656.326C354.367 658.021 389.293 665.649 396.086 667.348C402.878 669.047 413.549 673.281 424.921 678.251C433.092 668.879 453.634 664.168 466.098 661.728C464.861 660.133 463.425 658.663 461.815 657.346Z" fill="#151515"/>
<path opacity="0.3" d="M415.287 688.047C413.877 688.133 412.462 688.147 411.051 688.088C402.978 687.706 393.776 689.417 384.908 689.026C368.052 688.277 351.958 687.512 335.432 684.698C312.697 680.826 298.072 688.125 276.033 692.182C262.383 694.704 248.318 693.28 234.588 694.918C225.127 696.049 212.644 700.168 203.752 697.251C190.243 692.815 171.419 679.284 156.164 681.164C151.061 681.797 149.423 685.866 144.457 688.347C150.925 693.803 159.75 692.412 166.726 696.095C174.982 700.456 184.585 706.615 192.497 711.729C178.965 713.646 163.549 716.74 149.856 717.003C142.636 717.143 136.54 713.49 129.752 712.934C123.873 712.457 117.138 714.115 111.084 714.629C95.9935 715.909 84.6024 716.88 71.4603 723.763C56.3178 731.675 37.5131 735.954 20.0358 735.542C14.0484 735.406 6.69603 734.452 -1 733.608V740.492C4.72279 741.101 10.3419 742.306 15.7383 744.079C37.0565 751.201 56.1059 749.839 78.1632 745.643C75.1083 726.952 128.646 732.888 141.511 731.745C134.587 733.189 128.049 736.003 121.237 738.36C111.197 741.849 97.8763 741.15 88.9611 746.844C78.535 753.497 75.113 764.56 60.6529 767.646C43.5005 771.308 24.4981 770.579 7.01611 772.583C4.32367 772.887 1.65948 773.303 -0.985879 773.784V775.772C27.873 775.216 54.4161 777.24 80.6156 764.848C92.5338 759.216 103.722 752.884 116.789 749.304C128.293 746.149 140.527 745.289 152.243 742.656C187.583 734.719 225.014 725.787 258.886 714.012C275.318 708.285 292.047 706.109 309.491 703.94C326.22 701.859 343.697 697.995 360.534 697.423C376.143 696.889 390.066 692.519 405.35 689.82C408.419 689.273 411.846 688.73 415.287 688.047Z" fill="#151515"/>
<path opacity="0.1" d="M461.815 657.346C453.281 647.431 433.874 645.312 416.415 635.985C398.957 626.658 388.762 619.026 380.519 616.479C372.277 613.933 355.779 607.156 352.381 602.902C348.982 598.648 348.017 592.3 347.048 591.037C346.078 589.774 326.191 578.311 326.191 578.311C326.191 578.311 341.225 579.583 346.078 581.282C350.931 582.981 356.264 581.693 356.264 581.693L362.572 583.812C363.306 580.418 360.778 579.78 357.323 578.784C355.732 578.328 353.506 578.196 352.145 577.386C350.634 576.501 350.31 575.094 348.672 574.423C343.88 572.457 336.16 573.041 330.818 572.226C325.035 571.317 319.407 569.77 314.07 567.622C309.805 565.944 308.949 562.973 305.343 560.69C303.597 559.587 301.234 559.776 299.036 559.785C295.066 559.827 291.12 559.252 287.381 558.086C277.426 555.037 269.65 548.154 260.08 544.307C249.936 540.242 240.009 535.367 230.247 530.676C222.64 527.027 212.219 524.007 206.067 518.523C203.751 516.466 202.772 513.055 199.999 511.368C198.314 510.331 193.504 508.529 191.56 509.253C192.915 511.446 196.041 514.063 196.342 516.494C187.441 517.362 180.517 510.463 173.409 506.929C170.463 505.464 164.668 502.979 161.053 501.28C154.694 498.301 147.935 496.083 141.411 493.343C135.009 490.661 127.836 489.546 121.114 487.583C114.237 485.563 110.288 482.646 105.421 478.38C96.0348 470.089 80.8875 466.366 69.4352 460.433C66.0838 458.697 62.2193 457.512 59.1221 455.496C57.3711 454.348 56.039 452.711 54.0808 451.793C51.5814 450.645 48.4606 450.633 45.6834 449.995C39.8844 448.671 34.3865 446.515 28.6675 445.009C24.0263 443.775 19.3334 442.816 15.2477 440.483C9.5992 437.237 4.42145 433.489 -0.977539 429.926V474.866C9.02024 477.018 19.2628 478.939 28.8699 482.354C42.0778 487.044 56.2178 490.764 66.6816 499.321C74.7401 505.904 82.0078 506.797 92.4668 507.505C104.362 508.328 116.308 509.15 128.137 510.685C137.617 511.919 147.054 514.47 155.97 517.486C160.206 518.909 162.164 522.715 166.683 524.41C173.423 526.945 181.105 528.183 188.269 528.981C194.101 529.635 199.938 531.273 205.728 532.124C211.08 532.959 216.167 534.782 220.649 537.473C219.327 539.563 214.831 541.024 212.812 542.822C215.439 544.57 221.03 544.406 224.227 544.595C231.551 545.039 238.884 544.57 245.931 546.759C252.869 548.907 259.012 552.494 265.432 555.547C268.798 557.147 269.198 557.094 268.798 560.361C268.101 565.878 269.861 569.313 274.178 573.777C275.077 574.711 280.89 577.727 280.504 579.29C280.085 580.99 274.211 580.405 272.733 580.459C272.657 583.31 281.601 585.285 284.185 586.124C296.955 590.308 309.194 595.842 322.411 599.039C329.905 600.849 337.817 602.647 344.426 606.387C347.721 608.251 349.914 611.736 352.522 614.336C358.034 619.874 363.522 625.366 370.668 629.345C376.264 632.463 382.176 636.66 385.551 641.729C387.509 644.666 387.717 644.958 391.812 646.151C397.488 647.797 403.335 649.093 408.988 650.677C412.626 651.693 421.617 654.38 423.65 657.26C420.614 658.416 416.491 658.14 413.182 658.309C410.019 658.474 406.234 659.305 403.066 658.671C398.797 657.82 394.212 655.297 390.032 653.915C384.384 652.043 378.599 650.212 372.852 648.62C365.001 646.442 356.886 645.072 348.672 644.539C343.376 644.181 338.067 644.041 332.785 643.613C327.424 643.202 322.18 641.634 316.838 640.922C307.518 639.688 298.165 639.379 288.887 638.174C280.697 637.112 272.69 635.389 264.51 634.356C257.124 633.422 249.871 633.043 242.448 632.71C234.827 632.389 227.385 630.517 219.793 630.172C210.976 629.76 199.552 631.171 191.244 628.781C190.788 629.525 190.393 630.296 190.063 631.089C190.764 631.163 191.362 631.237 191.823 631.299C203.949 632.998 249.546 638.931 264.095 641.05C278.645 643.169 285.442 647.838 299.996 649.957C314.55 652.076 331.039 654.623 342.68 656.318C354.32 658.013 389.246 665.641 396.039 667.34C402.831 669.039 413.502 673.273 424.874 678.243C433.045 668.87 453.587 664.16 466.051 661.72C464.828 660.13 463.408 658.663 461.815 657.346Z" fill="#151515"/>
<path opacity="0.3" d="M494.126 638.96C483.412 638.927 473.245 635.121 462.536 634.212C457.232 633.763 443.388 633.8 440.234 628.76C438.323 625.695 443.576 622.272 446.316 621.079C441.369 615.496 432.482 612.229 425.483 609C413.026 603.256 401.301 596.374 390.504 588.469C383.58 583.388 375.23 581.064 368.033 576.48C359.847 571.272 353.441 564.175 345.223 558.986C336.75 553.638 325.674 553.144 316.481 549.038C309.077 545.747 302.685 540.62 295.493 536.909C286.13 532.083 276.716 528.018 267.82 522.476C264.525 520.419 260.086 517.264 256.664 516.272C253.784 515.449 249.693 515.861 246.586 515.404C242.915 514.849 238.876 514.096 235.205 514.059C234.042 519.946 239.394 520.901 245.631 522.501C252.593 524.291 260.693 524.789 267.034 528.072C273.285 531.314 278.863 534.655 285.674 537.185C291.675 539.407 295.93 542.533 300.991 545.969C305.505 549.038 310.381 550.33 315.766 551.955C326.719 555.247 338.082 558.509 347.379 564.709C353.229 568.597 357.117 574.172 363.288 577.628C369.459 581.084 375.244 584.371 380.93 588.539C386.616 592.707 391.926 596.398 396.779 601.236C403.552 607.992 412.783 608.67 421.792 612.192C424.678 613.324 436.577 619.458 433.659 622.803C431.884 624.835 426.866 623.963 430.449 627.888C424.118 627.859 421.185 620.98 417.222 617.549C413.348 614.196 406.245 611.888 400.747 612.172C404.244 614.895 409.22 616.286 413.023 618.898C415.923 620.914 417.481 623.626 419.876 625.963C422.743 628.773 427.158 629.801 430.802 631.41C438.079 634.611 445.812 636.606 453.433 639.174C456.987 640.371 457.095 640.071 456.912 642.876C456.747 645.345 456.229 645.547 458.357 647.402C461.586 650.216 466.5 650.932 469.799 653.615C469.589 654.13 469.325 654.627 469.009 655.1C481.087 651.751 494.996 650.052 507.696 648.233C508.425 647.663 509.213 647.152 510.049 646.707C512.53 645.386 515.943 644.65 513.9 641.996C510.746 637.841 498.574 638.972 494.126 638.96Z" fill="#151515"/>
<path opacity="0.2" d="M504.25 641.737C501.501 640.749 498.305 641.432 495.306 641.325C491.866 641.183 488.453 640.721 485.125 639.947C478.86 638.499 472.661 636.302 466.297 634.648C465.045 634.471 463.793 634.319 462.531 634.236C457.226 633.788 443.383 633.825 440.229 628.785C438.318 625.72 443.571 622.297 446.311 621.104C441.985 616.224 434.651 613.114 428.198 610.25C426.315 609.707 424.395 609.189 422.587 608.604C418.944 607.395 415.244 606.658 411.54 605.601C409.897 605.132 407.091 603.276 405.383 603.955C406.95 605.264 408.645 606.555 410.674 607.275C413.375 608.234 416.539 608.576 419.057 609.744C421.255 610.773 423.072 612.213 424.856 613.673C429.299 615.994 435.913 620.256 433.653 622.836C431.879 624.868 426.861 623.996 430.443 627.921C430.307 627.921 430.175 627.921 430.043 627.921C430.89 628.641 431.799 629.274 432.514 629.789C436.077 632.319 441.561 633.385 445.831 634.783C451.554 636.66 457.702 638.536 463.769 639.309C465.986 639.589 468.208 639.675 470.298 640.453C471.639 640.955 472.708 641.971 474.106 642.276C472.265 642.21 469.036 642.16 467.464 643.098C466.226 643.823 466.325 643.765 466.993 644.9C468.697 647.727 473.932 649.772 477.349 649.945C476.464 649.072 475.344 648.085 474.939 646.958C475.88 646.884 476.751 646.476 477.664 646.238C480.28 645.611 483 645.382 485.704 645.563C487.883 645.69 492.496 645.88 493.861 647.649C490.371 648.795 486.958 650.112 483.638 651.594C483.313 651.747 482.979 651.911 482.635 652.08L482.842 652.047C486.424 651.393 490.063 650.813 493.696 650.274C493.709 650.27 493.722 650.27 493.734 650.274C497.429 649.727 501.115 649.212 504.725 648.71C504.65 647.983 504.866 647.256 505.337 646.653C506.942 644.571 507.361 642.864 504.25 641.737Z" fill="#151515"/>
<path opacity="0.1" d="M344.05 660.662C307.26 652.459 269.524 647.085 232.531 639.556C216.23 636.236 199.742 636.713 183.248 635.121C163.784 633.245 142.391 631.863 122.828 632.714C104.17 633.537 85.9486 632.772 67.4876 635.751C49.0971 638.717 30.9656 641.799 12.3398 643.469C7.85181 643.921 3.39771 644.601 -1 645.506L-1 722.673C2.72798 720.665 6.46068 718.439 10.2404 716.226C20.1582 710.425 32.3636 706.656 41.7777 700.801C49.4455 696.029 41.8624 697.629 43.9147 692.342C46.3012 686.196 74.0633 682.287 80.159 680.925C98.5165 676.811 114.902 668.525 134.201 667.064C151.052 665.789 168.411 668.71 185.136 670.117C200.076 671.351 215.576 671.286 230.573 671.388C242.623 671.471 254.631 672.038 266.629 670.784C271.19 670.31 278.684 670.327 281.428 666.933C277.747 664.053 273.426 662.329 269.232 659.905C280.091 660.062 291.2 659.021 300.967 662.008C310.852 665.028 319.014 668.591 329.327 669.512C338.868 670.292 348.35 671.555 357.724 673.293C377.903 677.144 400.205 675.449 419.589 679.02C394.11 669.385 368.692 666.18 344.05 660.662Z" fill="white"/>
<path opacity="0.1" d="M302.501 554.346C296.053 552.585 289.27 551.836 283.673 548.244C277.399 544.233 274.442 537.658 267.641 534.071C261.333 530.746 254.612 528.08 247.4 527.01C239.827 525.891 228.572 525.821 229.74 517.058C230.319 512.68 232.244 511.956 228.285 508.109C237.963 509.381 244.666 510.167 253.501 513.869C258.937 516.157 262.915 519.827 268.253 521.728C274.052 523.785 284.257 527.488 290.14 526.574C285.57 524.929 280.759 523.633 275.888 521.909C272.616 520.757 269.227 520.456 266.44 518.547C262.595 515.91 260.891 511.467 256.862 508.871C249.368 504.073 239.53 501.341 231.528 497.124C225.423 493.866 218.943 491.176 212.196 489.097C203.008 486.279 193.006 484.732 184.331 480.803C180.494 479.067 177.303 476.117 173.344 474.632C169.278 473.105 164.74 473.582 160.386 473.587C151.254 473.587 138.475 468.612 146.448 460.392C148.006 458.783 150.779 460.503 148.562 457.051C146.815 454.336 140.63 453.994 137.561 453.13C135.453 452.534 122.348 449.016 126.382 454.505C124.73 455.854 119.684 453.937 117.105 453.657C111.823 453.089 106.749 452.719 101.571 451.324C93.9318 449.267 91.2158 449.946 91.3194 456.994C85.5297 455.451 80.6579 450.164 74.7929 448.243C68.1607 446.066 60.8506 447.868 54.0537 446.354C46.2352 444.614 37.0612 441.927 29.8265 438.735C21.8857 435.237 14.4768 430.716 6.4089 427.383C3.9377 426.363 1.46649 425.384 -1 424.405V431.81C5.22743 434.114 11.4501 436.422 17.9176 438.241C27.9578 441.067 37.5555 445.202 47.7368 447.535C54.0631 448.987 56.7367 450.724 62.258 453.665C71.3474 458.516 82.1406 459.8 91.3382 464.202C96.13 466.498 99.6179 469.999 103.647 473.101C109.206 477.38 115.773 479.273 122.574 481.638C134.921 485.966 146.966 491.759 158.818 496.997C165.22 499.819 173.702 507.377 180.73 507.965C178.847 504.337 171.198 498.939 172.761 494.755C186.237 498.589 199.953 508.109 209.302 516.856C215.703 522.847 226.021 525.706 234.089 529.462C251.74 537.691 268.657 549.622 287.42 555.819C292.758 557.588 297.775 556.58 302.953 557.913C308.418 559.324 313.68 560.793 319.282 561.838C313.502 559.497 308.663 556.024 302.501 554.346Z" fill="white"/>
<path opacity="0.05" d="M540.311 643.185C547.108 642.556 554.225 640.906 561.154 640.688C557.722 638.482 553.326 637.503 549.066 636.392C539.299 633.842 531.965 628.736 523.276 624.572C512.718 619.507 501.718 615.661 490.948 610.995C454.285 595.073 417.777 579.508 382.841 560.752C375.31 556.715 366.837 554.815 359.188 550.721C349.619 545.603 340.558 539.024 330.795 534.502C320.303 529.648 307.354 529.38 296.584 524.727C288.54 521.246 281.112 515.227 273.863 510.508C264.308 504.291 256.942 497.021 246.563 491.751C237.958 487.378 235.529 484.572 231.142 477.421C227.198 470.995 225.494 469.571 217.318 468.518C209.405 467.502 206.793 466.119 200.217 462.141C181.304 450.711 162.245 439.364 143.262 427.795C128.872 419.027 114.728 409.013 98.9777 401.969C80.8509 393.864 64.2774 384.233 45.5668 377.173C29.883 371.252 14.1897 365.373 -1 359.115V413.185C2.78918 414.501 6.65837 415.81 7.00199 415.505C17.7482 421.088 29.304 425.557 40.6998 429.938C47.7603 432.641 55.2916 436.245 62.7805 437.871C70.5142 439.545 77.556 443.055 85.1155 444.77C91.39 446.194 98.3611 445.182 105.389 446.564C109.286 447.321 113.485 448.917 117.467 449.107C121.322 449.288 121.43 447.774 124.368 447.284C132.059 446.009 150.821 452.867 153.01 459.602C154.512 464.222 152.102 464.766 159.2 466.81C166.011 468.773 171.589 469.007 177.36 472.216C185.07 476.508 195.717 480.104 204.416 482.819C214.545 485.975 224.425 489.496 234.395 492.981C248.69 497.98 260.194 507.768 271.397 516.326C276.824 520.473 302.685 523.731 301.927 532.108C298.015 530.972 293.181 530.689 288.884 530.919C290.917 533.42 295.916 533.132 298.538 535.07C303.151 538.481 312.188 541.925 317.94 543.764C326.305 546.442 333.784 550.182 341.683 554.148C349.002 557.826 355.766 560.513 361.97 565.717C367.666 570.49 373.239 574.152 380.379 577.373C388.381 580.994 395.997 584.503 403.444 589.017C412.048 594.242 419.062 601.071 427.568 606.296C433.517 609.95 455.551 617.442 450.933 625.304C464.753 630.805 481.873 629.155 496.568 632.175C501.666 633.224 512.05 634.722 516.126 637.483C518.479 639.071 518.437 640.247 516.78 642.77C521.04 646.481 534.94 643.683 540.311 643.185Z" fill="white"/>
<path opacity="0.1" d="M38.5391 424.915C36.3504 424.026 34.1616 423.129 31.9493 422.298C28.8238 421.126 25.2464 420.681 22.0645 419.912C23.8437 421.22 26.8751 421.899 29.0215 422.816C32.8436 424.462 36.6798 425.919 40.5443 427.449C45.675 429.477 50.9281 431.226 56.0211 433.25C60.4081 434.995 65.1387 436.13 69.5963 437.776C72.6334 438.873 75.7636 439.762 78.9586 440.434C81.2792 440.944 83.7362 442.079 86.1839 441.931C89.074 441.746 91.7806 440.368 94.6566 439.989C98.1869 439.52 100.578 440.491 103.882 441.746C110.618 444.293 115.179 445.811 122.174 444.807C129.663 443.725 136.356 446.539 143.262 448.95C148.439 450.761 152.888 452.818 155.09 457.533C156.281 460.079 155.938 462.248 158.616 464.066C161.652 466.123 165.714 466.37 169.334 467.098C174.206 468.078 177.656 470.678 181.977 472.566C186.684 474.623 191.711 476.199 196.508 478.116C195.185 476.849 193.057 476.236 191.25 475.504C188.186 474.293 185.278 472.8 182.575 471.052C181.163 470.102 179.944 468.876 178.452 468.008C176.437 466.843 174.116 466.362 171.862 465.613C167.225 464.091 161.845 462.021 158.625 458.578C156.375 456.175 155.072 453.229 152.779 450.831C149.781 447.724 146.538 446.231 142.424 444.626C140.118 443.73 137.704 443.066 135.227 442.647C130.708 441.857 126.133 442.215 121.449 442.236C119.199 442.236 117.49 441.503 115.255 440.965C113.108 440.442 110.722 440.257 108.425 439.8C105.662 439.253 102.997 438.237 100.267 437.533C93.6775 435.846 87.0877 438.122 80.4036 437.57C76.2581 437.273 72.1504 436.659 68.1277 435.735C60.4928 433.88 53.2298 430.453 45.9104 427.811C43.4203 426.894 40.9821 425.906 38.5391 424.915Z" fill="white"/>
<path opacity="0.2" d="M427.192 672.454C425.907 672.952 424.584 673.939 423.289 673.301C422.244 672.783 421.209 671.244 420.296 670.467C418.689 669.193 416.956 668.046 415.118 667.039C412.534 665.517 410.274 663.608 407.662 662.061C405.445 660.745 403.171 659.399 400.86 658.103C397.241 656.992 393.494 655.063 390.034 653.919C384.386 652.047 378.601 650.216 372.853 648.624C365.003 646.446 356.888 645.076 348.673 644.543C343.378 644.185 338.068 644.045 332.787 643.617C327.426 643.205 322.182 641.638 316.839 640.926C307.519 639.692 298.167 639.383 288.889 638.178C280.699 637.116 272.692 635.392 264.511 634.36C257.126 633.426 249.872 633.047 242.449 632.714C234.829 632.393 227.387 630.521 219.794 630.176C210.978 629.764 199.554 631.175 191.246 628.785C190.789 629.529 190.394 630.3 190.064 631.093C190.766 631.167 191.364 631.241 191.825 631.303C203.95 633.002 249.547 638.935 264.097 641.054C278.646 643.173 285.443 647.842 299.998 649.961C314.552 652.08 331.041 654.627 342.681 656.322C354.322 658.017 389.248 665.645 396.04 667.344C402.833 669.043 413.503 673.277 424.876 678.247C428.641 673.939 435.01 670.615 442.009 668.052C436.869 668.866 431.95 670.607 427.192 672.454Z" fill="#151515"/>
<path opacity="0.1" d="M269.599 352.656C269.754 353.125 270.484 355.268 270.267 355.684C270.116 355.968 269.382 356.169 269.062 356.285C269.392 357.14 270.695 357.856 270.917 358.597C271.152 359.42 269.923 360.099 270.724 360.991C270.324 361.23 269.425 361.111 269.26 361.464C268.973 362.069 270.973 363.583 271.364 364.04C271.728 364.421 271.993 364.865 272.143 365.344C272.292 365.822 272.322 366.324 272.23 366.813C272.183 367.245 272.051 367.508 272.23 367.866C271.806 368.162 271.329 368.394 270.818 368.553C270.818 369.347 272.178 369.635 272.329 370.429C271.797 370.643 271.284 370.384 270.813 370.561C271.566 371.384 272.912 371.906 273.755 372.742C274.438 373.421 274.753 374.387 275.459 375.042C276.612 376.095 277.982 376.523 279.036 377.366C278.603 376.601 277.21 375.881 276.396 375.309C276.094 375.095 275.803 374.869 275.525 374.638C275.702 374.676 275.885 374.685 276.066 374.667L276.118 374.354C276.16 372.417 274.786 371.063 273.812 369.561C273.637 369.286 273.19 368.738 273.317 368.397C273.459 368.416 273.593 368.463 273.71 368.534C273.828 368.606 273.925 368.699 273.995 368.808C274.518 368.471 273.995 366.422 273.868 365.928L273.642 365.151C273.783 364.904 273.887 364.793 274.014 365.435C274.021 365.711 274.057 365.987 274.122 366.258C274.254 366.509 274.536 366.583 274.758 366.751C275.173 367.148 275.525 367.592 275.803 368.072C276.306 367.661 276.127 366.299 276.043 365.747C275.817 364.418 275.002 363.41 274.113 362.394C273.675 361.898 273.276 361.377 272.917 360.835C273.388 361.119 273.802 361.506 274.282 361.757C274.583 361.917 274.499 361.905 274.692 361.757C274.885 361.608 274.645 361.345 275.035 361.629C275.29 361.814 275.379 362.156 275.61 362.361C276.005 362.077 275.638 361.127 275.487 360.802C275.045 359.819 274.202 359.103 273.463 358.333C272.946 357.76 272.501 357.139 272.136 356.482C272.329 356.605 272.606 356.762 272.776 356.585C272.945 356.408 272.555 356.087 272.87 355.935C272.968 356.188 273.121 356.421 273.322 356.622C273.524 356.822 273.768 356.986 274.042 357.103C274.174 357.161 275.76 357.342 275.619 357.042C275.351 356.474 274.513 356.005 274.019 355.614C273.094 354.894 272.354 354.01 271.849 353.022C271.227 351.782 270.806 350.472 270.597 349.13C270.597 349.019 270.55 348.718 270.502 348.352C270.818 348.533 270.973 348.381 271.114 348.056C271.213 348.595 271.505 348.772 271.919 349.122C271.873 348.279 271.567 347.463 271.034 346.76C270.692 346.366 270.378 345.954 270.093 345.526C269.861 345.034 269.689 344.523 269.58 343.999C269.382 343.37 269.303 342.717 269.345 342.066C269.387 341.691 269.655 341.136 269.537 340.77C269.489 340.651 269.423 340.539 269.34 340.436C269.104 340.971 268.869 341.543 268.714 342.082C268.243 343.518 268.756 344.843 268.944 346.291C268.601 346.067 268.286 345.811 268.003 345.53C267.928 346.524 267.956 347.523 268.088 348.513C268.271 350.035 269.123 351.183 269.599 352.656Z" fill="#15DCD0"/>
<g opacity="0.1">
<path d="M276.381 384.546C275.664 383.796 274.999 383.008 274.39 382.188L273.11 381.394C272.965 381.246 272.778 381.134 272.568 381.069C273.194 382.106 273.689 383.278 274.451 384.249C274.141 384.472 273.679 384.286 273.321 384.418C273.529 385.163 274.79 385.805 275.402 386.319C276.169 386.952 277.097 387.611 277.633 388.405C278.154 389.16 278.539 389.98 278.777 390.836C278.949 391.533 279.076 392.238 279.158 392.947C279.591 392.038 279.516 390.511 279.422 389.824C279.201 387.714 277.84 386.121 276.381 384.546Z" fill="#15DCD0"/>
<path d="M278.738 382.423C278.017 380.991 276.582 379.925 275.367 378.777C275.156 378.576 274.958 378.366 274.77 378.173C274.947 378.608 275.149 379.035 275.377 379.452C275.669 379.991 277.382 382.205 278.201 383.752C278.422 384.065 278.664 384.368 278.926 384.657C279.59 384.299 278.987 382.888 278.738 382.423Z" fill="#15DCD0"/>
</g>
</g>
<path style="mix-blend-mode:difference" opacity="0.6" d="M1336 0H1V768H1336V0Z" fill="url(#paint0_radial_2642_46312)"/>
<defs>
<radialGradient id="paint0_radial_2642_46312" cx="0" cy="0" r="1" gradientUnits="userSpaceOnUse" gradientTransform="translate(193.237 842.524) scale(744.374 727.984)">
<stop stop-color="#15559D"/>
<stop offset="0.2" stop-color="#154376"/>
<stop offset="0.45" stop-color="#152F4C"/>
<stop offset="0.67" stop-color="#15212E"/>
<stop offset="0.86" stop-color="#15181C"/>
<stop offset="1" stop-color="#151515"/>
</radialGradient>
</defs>
</svg>
