<svg width="1336" height="768" viewBox="0 0 1336 768" fill="none" xmlns="http://www.w3.org/2000/svg">
<g clip-path="url(#clip0_2642_85695)">
<path d="M1354.1 590.18H-8.13672V775.774H1354.1V590.18Z" fill="url(#paint0_radial_2642_85695)"/>
<g opacity="0.3">
<path d="M1264.97 751.912C1221.36 748.02 1176.76 744.992 1132.66 742.01C1073.98 738.045 1007.85 739.381 947.815 739.122C935.557 739.07 923.327 739.639 911.055 739.194C904.363 738.93 879.833 736.922 886.952 732.657C889.041 731.404 894.07 730.923 897.423 730.312C901.779 729.515 905.668 728.241 910.203 727.491C914.738 726.74 920.62 726.362 924.646 725.322C928.233 724.401 928.673 723.189 926.02 721.875C921.238 719.54 910.574 719.437 903.621 719.157C891.858 718.686 880.356 717.506 868.62 717.009C866.078 716.9 859.44 716.605 858.162 715.544C856.884 714.483 860.76 714.602 860.416 713.618C859.949 712.2 844.695 711.113 841.727 710.606C839.294 710.202 835.309 709.571 834.856 708.432C834.21 706.403 842.73 705.181 842.084 703.038C840.71 698.737 832.465 698.116 821.979 696.703C734.704 685.035 641.244 679.807 550.368 673.86C528.999 672.467 403.013 670.464 436.309 657.529C443.565 654.723 466.748 653.315 468.631 648.771C470.925 643.154 449.983 642.01 439.662 641.664C401.542 640.38 330.07 642.901 303.754 629.391C317.496 625.379 340.418 624.023 352.799 619.68C380.283 610.052 325.947 611.688 310.364 611.398C283.773 610.938 257.732 608.085 231.333 606.859C200.496 605.42 171.597 606.724 140.869 606.341C116.917 606.051 45.1425 597.215 27.8825 605.611C45.3623 612.34 80.3771 609.68 103.203 610.446C125.19 611.181 219.694 611.181 229.712 619.297C236.06 624.442 222.483 624.225 209.428 625.27C186.768 627.082 162.458 628.04 139.509 629.246C109.153 630.845 13.7008 632.352 0 644.588C11.9831 649.154 37.3095 646.25 52.5769 645.97C79.1952 645.453 106.404 646.519 132.734 647.808C161.276 649.211 248.291 650.256 261.469 661.737C248.964 666.194 220.669 663.999 210.102 669.051C197.734 674.973 224.229 679.02 216.561 684.616C209.181 690.01 154.722 686.599 142.917 686.335C120.037 685.817 83.1529 682.882 62.6086 687.846C74.6054 697.764 141.117 697.572 167.199 699.948C211.627 704.006 256.248 706.325 301.349 709.125C317.99 710.161 418.843 717.263 380.558 727.108C372.01 729.302 338.397 730.633 350.037 737.243C359.409 742.564 393.53 735.447 401.515 742.548C380.737 752.818 325.741 742.228 302.077 755.184C293.612 759.842 298.916 760.199 282.77 761.478C270.69 762.43 229.959 762.084 221.123 768H1321.86C1322.81 766.173 1329.73 764.806 1336 762.197C1326.37 756.597 1282.16 753.455 1264.97 751.912Z" fill="white"/>
</g>
<g style="mix-blend-mode:lighten">
<path d="M1336 590H0V768H1336V590Z" fill="url(#paint1_linear_2642_85695)"/>
</g>
<g style="mix-blend-mode:screen" opacity="0.3">
<path d="M701.552 625.896C698.685 626.838 695.86 627.842 693.114 628.928C689.12 630.5 660.869 643.328 658.998 641.501C664.295 646.611 670.494 647.183 677.806 648.38C672.035 654.761 664.667 654.103 656.783 656.173C647.474 658.617 636.863 662.443 628.96 667.693C621.304 672.778 618.921 678.694 610.417 681.891C603.059 684.664 595.058 686.264 587.411 689.494C578.01 693.456 568.762 695.229 577.014 704.33C570.856 714.583 537.848 704.503 528.959 702.425C517.728 699.792 498.641 699.422 489.463 692.934C492.767 686.24 507.754 686.351 513.74 681.101C507.94 669.556 495.672 672.309 485.567 666.29C487.066 650.499 534.553 648.38 546.259 646.665C553.785 645.566 559.09 643.521 566.142 641.472C569.083 640.617 583.162 641.094 584.791 639.004C592.526 629.101 560.491 629.796 557.513 627.035C565.588 626.731 573.923 623.966 581.784 622.053C593.206 619.276 608.546 621.456 618.492 616.602C613.373 610.171 601.975 612.142 595.784 607.007C603.329 609.677 612.251 606.505 620.201 605.797C639.888 604.037 660.399 604.238 680.156 604.872C711.261 605.872 743.543 599.881 774.516 602.045C768.387 613.504 748.327 613.281 736.626 616.346C725.14 619.366 712.978 622.144 701.552 625.896Z" fill="#A715DC"/>
</g>
</g>
<defs>
<radialGradient id="paint0_radial_2642_85695" cx="0" cy="0" r="1" gradientUnits="userSpaceOnUse" gradientTransform="translate(848.192 714.228) scale(400.348 109.709)">
<stop stop-color="#942F9D"/>
<stop offset="0.18" stop-color="#BD4BFF"/>
<stop offset="0.53" stop-color="#852ED6"/>
<stop offset="0.81" stop-color="#C72EED"/>
<stop offset="1" stop-color="#E42EF5"/>
</radialGradient>
<linearGradient id="paint1_linear_2642_85695" x1="668" y1="590" x2="668" y2="768" gradientUnits="userSpaceOnUse">
<stop stop-color="#F9CBFF"/>
<stop offset="0.11" stop-color="#EEBDEB"/>
<stop offset="0.33" stop-color="#BD9AC0"/>
<stop offset="0.63" stop-color="#776174"/>
<stop offset="1" stop-color="#151515"/>
</linearGradient>
<clipPath id="clip0_2642_85695">
<rect width="1336" height="768" fill="white"/>
</clipPath>
</defs>
</svg>
