<svg width="360" height="225" viewBox="0 0 360 225" fill="none" xmlns="http://www.w3.org/2000/svg">
<g clip-path="url(#clip0_2643_32726)">
<mask id="mask0_2643_32726" style="mask-type:alpha" maskUnits="userSpaceOnUse" x="0" y="0" width="360" height="225">
<rect width="360" height="225" transform="matrix(1 0 0 -1 0 225)" fill="#D9D9D9"/>
</mask>
<g mask="url(#mask0_2643_32726)">
<path d="M398.022 349.402L-9.96875 346.592L-8.01972 63.5985L399.971 66.4084L398.022 349.402Z" fill="url(#paint0_radial_2643_32726)"/>
<path d="M398.022 349.402L-9.96875 346.592L-8.01972 63.5985L399.971 66.4084L398.022 349.402Z" fill="url(#paint1_linear_2643_32726)" fill-opacity="0.2"/>
<path d="M385.701 -0.216919H-22V66.4136H385.701V-0.216919Z" fill="url(#paint2_radial_2643_32726)"/>
<g opacity="0.3">
<path d="M280.223 61.4082C275.803 60.2974 271.282 59.4334 266.812 58.5826C260.864 57.4511 254.161 57.8322 248.075 57.7584C246.832 57.7436 245.593 57.9061 244.349 57.779C243.67 57.7037 241.184 57.1306 241.906 55.9135C242.117 55.5561 242.627 55.4187 242.967 55.2444C243.409 55.0169 243.803 54.6536 244.262 54.4394C244.722 54.2252 245.318 54.1174 245.726 53.8205C246.09 53.5576 246.135 53.2119 245.866 52.8368C245.381 52.1706 244.3 52.1411 243.595 52.0613C242.403 51.9269 241.237 51.5901 240.047 51.4483C239.79 51.4173 239.117 51.3331 238.987 51.0303C238.858 50.7275 239.251 50.7615 239.216 50.4808C239.168 50.0761 237.622 49.766 237.321 49.6212C237.075 49.506 236.671 49.3258 236.625 49.0008C236.559 48.4218 237.423 48.0732 237.358 47.4617C237.218 46.2343 236.382 46.057 235.32 45.6538C226.473 42.3245 216.999 40.8326 207.788 39.1355C205.622 38.7382 192.851 38.1665 196.226 34.4753C196.962 33.6748 199.312 33.273 199.503 31.9761C199.735 30.3735 197.612 30.0471 196.566 29.9481C192.702 29.5818 185.457 30.3011 182.79 26.446C184.183 25.3013 186.506 24.9143 187.761 23.675C190.547 20.9277 185.04 21.3944 183.46 21.3117C180.765 21.1802 178.125 20.3664 175.449 20.0163C172.323 19.6057 169.394 19.9779 166.279 19.8686C163.851 19.7859 156.576 17.2645 154.826 19.6603C156.598 21.5805 160.147 20.8213 162.461 21.0399C164.69 21.2497 174.269 21.2497 175.285 23.5657C175.928 25.0339 174.552 24.9719 173.229 25.2702C170.932 25.7872 168.468 26.0605 166.141 26.4046C163.064 26.8611 153.389 27.2909 152 30.7827C153.215 32.0854 155.782 31.2568 157.329 31.1771C160.028 31.0293 162.786 31.3336 165.455 31.7014C168.348 32.1017 177.168 32.4001 178.504 35.6762C177.236 36.948 174.368 36.3217 173.297 37.7633C172.043 39.4531 174.729 40.6081 173.952 42.2048C173.204 43.7439 167.683 42.7706 166.487 42.6952C164.167 42.5475 160.429 41.71 158.346 43.1265C159.562 45.9566 166.304 45.9019 168.948 46.5799C173.452 47.7379 177.974 48.3997 182.546 49.1987C184.233 49.4942 194.456 51.5207 190.575 54.3301C189.709 54.9564 186.302 55.336 187.481 57.2222C188.431 58.7406 191.89 56.7096 192.699 58.7362C190.593 61.6667 185.019 58.6446 182.62 62.3417C181.762 63.6711 182.3 63.773 180.663 64.1378C179.438 64.4096 175.31 64.3106 174.414 65.9989H285.99C286.086 65.4775 286.788 65.0876 287.423 64.3431C286.447 62.7449 281.966 61.8484 280.223 61.4082Z" fill="white"/>
</g>
<g style="mix-blend-mode:lighten">
<path d="M393.701 -0.217285H-14V66.4133H393.701V-0.217285Z" fill="url(#paint3_linear_2643_32726)"/>
</g>
<g style="mix-blend-mode:screen" opacity="0.3">
<path d="M190.401 12.6057C189.543 12.9439 188.698 13.3043 187.876 13.6943C186.681 14.2585 178.225 18.864 177.665 18.2082C179.251 20.0427 181.106 20.248 183.294 20.6778C181.567 22.9688 179.362 22.7324 177.002 23.4754C174.217 24.3528 171.041 25.7264 168.675 27.6112C166.384 29.4368 165.671 31.5609 163.126 32.7086C160.924 33.7041 158.529 34.2787 156.24 35.4382C153.427 36.8606 150.659 37.4972 153.129 40.7645C151.286 44.4453 141.407 40.8265 138.746 40.0806C135.385 39.1353 129.673 39.0023 126.926 36.673C127.915 34.2698 132.4 34.3097 134.191 32.4249C132.456 28.2803 128.784 29.2685 125.76 27.1075C126.208 21.4385 140.421 20.6778 143.924 20.0619C146.176 19.6675 147.764 18.9334 149.875 18.1978C150.755 17.8906 154.969 18.0619 155.456 17.3116C157.771 13.7563 148.184 14.0059 147.292 13.0148C149.709 12.9055 152.204 11.9129 154.556 11.2261C157.975 10.229 162.566 11.0119 165.543 9.26895C164.01 6.96029 160.599 7.66781 158.746 5.82443C161.004 6.78305 163.675 5.64422 166.054 5.39016C171.946 4.75798 178.085 4.83036 183.998 5.05782C193.307 5.41675 202.969 3.26614 212.239 4.04308C210.404 8.15671 204.4 8.07695 200.899 9.17737C197.461 10.2615 193.821 11.2586 190.401 12.6057Z" fill="#A715DC"/>
</g>
<g opacity="0.3">
<path d="M274.231 34.9519C273.268 34.6432 272.235 34.6919 271.271 34.4881C269.802 34.1784 268.351 33.7839 266.923 33.3065C263.133 32.0406 259.918 29.7748 256.278 28.1618C253.855 27.088 251.218 26.571 248.639 26.0467C245.033 25.3081 241.357 24.6464 237.709 24.2136C227.973 23.0586 218.175 23.9862 208.418 23.4441C202.631 23.1221 196.266 23.7085 190.652 23.6272C190.492 23.959 190.265 24.2491 189.986 24.4766C189.884 24.9359 190.141 25.0511 190.283 25.4603C190.313 25.5504 190.585 25.5282 190.653 25.7882C190.722 26.0482 190.499 26.1973 190.529 26.379C190.631 26.9831 190.205 26.8221 190.947 27.2298C191.351 27.4469 191.666 27.3347 192.108 27.3332C193.202 27.3332 194.168 27.6611 195.233 27.6404C196.236 27.6242 198.577 26.9654 199.184 28.153C198.057 28.8915 196.305 28.7084 194.94 28.7911C194.648 29.4233 195.377 29.5872 195.711 29.9107C195.339 30.6005 193.549 30.8398 195.403 31.24C197.394 31.6743 199.164 30.5488 201.188 30.7467C202.318 30.859 203.365 31.2829 204.504 31.3375C205.451 31.3878 207.868 31.5606 208.666 31.0421C209.967 30.1869 207.551 29.9432 206.866 29.9018C205.664 29.8309 204.233 29.7674 203.209 29.0008C203.636 28.7409 204.237 28.8989 204.742 28.9506C205.703 29.0495 206.402 28.9506 207.345 28.8176C208.421 28.6699 209.479 28.8989 210.549 28.8812C211.688 28.862 212.835 28.5326 213.981 28.6891C214.428 28.7482 217.784 29.7718 217.45 28.153C217.347 27.6655 214.793 27.6212 214.146 27.2254C214.616 26.605 216.718 27.2697 217.386 27.3554C218.221 27.4602 223.171 27.2667 222.679 29.1278C222.296 30.5709 216.689 29.7689 215.597 29.7009C214.065 29.6094 211.279 29.4336 210.112 30.7201C211.296 31.8589 213.389 31.4424 214.855 31.4424C216.048 31.4424 218.245 31.0717 219.203 31.853C218.804 32.5088 217.979 32.2961 217.342 32.367C216.39 32.4778 216.604 32.822 216.004 33.1942C214.694 34.0022 212.57 33.24 211.147 33.1942C208.408 33.0952 205.66 33.1779 202.92 33.0465C202.333 33.0184 199.1 32.6994 199.716 33.9785C200.106 34.785 202.801 34.9519 203.502 34.9992C204.736 35.0834 208.948 35.3788 206.179 36.8056C207.225 37.5752 208.792 36.3625 209.982 36.5102C211.145 36.6432 212.187 37.3965 213.36 37.522C214.441 37.6431 215.633 37.3876 216.718 37.3241C217.259 37.2916 221.342 37.2753 221.42 36.5856C221.535 35.5634 217.65 36.1291 217.072 35.7805C217.412 35.1011 218.539 35.2148 219.217 35.2385C221.045 35.3064 223.118 35.3862 224.909 35.7879C226.122 36.0627 227.097 36.5265 225.583 37.327C224.346 37.9873 222.137 37.491 221.45 39.0729C221.835 39.6711 222.565 39.9282 223.161 40.228C223.161 42.609 218.175 39.2458 217.547 41.1246C216.764 43.4613 222.144 43.0241 223.258 43.2944C227.288 44.2781 230.931 43.3239 234.981 42.7464C234.64 41.2693 232.067 42.3195 231.098 41.3343C232.278 40.3004 236.45 40.5471 237.923 40.7213C240.021 40.971 242.964 41.7287 245.068 41.0995C245.026 40.036 244.162 40.1024 243.524 39.8986C245.53 37.2266 250.222 39.6254 253.027 38.4038C252.943 38.2358 252.877 38.0584 252.829 37.875C252.046 37.912 251.223 37.9858 250.704 37.4216C252.127 36.0154 254.883 37.9637 255.507 39.5367C254.314 40.2251 252.669 40.0286 251.286 40.4377C250.071 40.7952 249.169 41.4436 247.879 41.3816C249.578 42.9 254.313 41.8395 256.471 41.9591C259.132 42.1068 263.591 40.3477 265.897 41.9591C265.278 42.6696 263.965 43.2353 263.052 43.5086C262.115 43.7892 260.03 43.4037 259.262 44.0772C256.601 46.4036 264.02 45.4746 264.901 45.4657C266.609 45.4564 268.313 45.2669 269.986 44.9C272.354 44.4022 274.527 45.2737 276.854 44.7272C281.843 43.5603 284.376 39.3802 289.743 40.0906C294.132 40.6711 298.51 40.0404 302.875 40.8292C306.636 41.5027 311.197 42.6725 314.961 41.1718C314.174 38.9991 310.188 37.8898 308.304 37.2399C302.591 35.256 296.64 34.1473 290.631 33.9475C285.285 33.754 279.304 36.5826 274.231 34.9519Z" fill="#746B7D"/>
</g>
<g opacity="0.3">
<path d="M113.16 60.3183C113.389 60.2078 113.595 60.0492 113.766 59.8519C113.936 59.6547 114.067 59.4229 114.15 59.1706C113.175 57.9668 110.786 58.7083 109.414 58.1942C108.777 57.9564 107.823 57.6743 108.043 56.6965C108.183 56.0436 108.961 56.2076 109.057 55.4868C108.713 55.4499 108.517 55.1692 108.23 55.0555C108.663 54.0703 111.573 54.6965 112.576 54.6478C113.908 54.5828 115.362 54.1338 116.565 53.6552C116.565 53.6109 116.565 53.3332 116.565 53.2874C115.312 53.4174 114.206 52.9329 112.908 53.1397C111.763 53.3229 110.598 53.4218 109.402 53.1161C108.438 52.8679 106.809 52.0437 108.298 51.2092C109.208 50.6996 110.725 51.3983 111.781 50.7971C110.973 48.2743 104.844 49.6154 103.061 49.3673C102.504 49.2934 100.932 49.3761 101.754 48.5386C102.218 48.066 103.508 48.0704 104.1 48.0955C104.87 48.1325 105.649 48.2683 106.426 48.2595C107.436 48.2506 108.364 47.7898 109.368 47.71C110.846 47.5963 112.387 47.7189 113.874 47.6819C114.92 47.6554 117.788 48.2152 118.392 47.0114C117.734 46.4043 115.951 46.5165 115.153 46.4634C114.039 46.3925 112.924 46.3068 111.821 46.2669C111.228 46.2448 110.629 46.3614 110.044 46.3334C109.025 46.2832 107.999 45.7514 106.979 45.6082C106.464 45.5373 104.231 45.6968 104.218 44.7455C104.209 43.9125 107.164 44.2153 107.475 44.1975C108.323 44.1503 112.715 42.3497 113.165 43.7278C112.977 43.9686 112.232 44.0498 112.242 44.4664C112.257 45.0483 113.054 44.9095 113.442 44.9435C115.335 45.103 117.098 44.9612 118.977 44.8622C120.457 44.7854 121.97 45.1384 123.442 44.9848C124.071 44.9198 126.351 44.8947 126.631 44.36C126.299 43.9169 125.575 43.9937 125.083 44.007C123.752 44.0255 122.42 43.954 121.097 43.7928C120.261 43.7057 115.546 44.0513 115.539 42.5491C115.539 41.6777 119.382 41.9495 119.953 41.9362C121.756 41.9022 123.603 42.1592 125.394 41.7885C125.717 41.722 126.472 41.5743 126.008 41.1311C125.759 40.8904 124.937 41.3719 125.198 40.5521C125.329 40.14 126.049 40.044 126.365 39.8136C125.978 39.3513 124.576 39.7368 123.968 39.3867C124.674 37.8993 127.762 38.7959 128.952 38.6674C129.602 38.5965 130.115 38.3055 130.736 38.1578C131.463 37.985 132.231 38.0101 132.965 37.821C135.402 37.1918 131.785 36.4784 130.951 36.3617C129.669 36.183 128.29 35.8698 126.995 35.9599C126.272 36.0102 123.965 36.5641 123.502 35.7148C123.111 34.9969 124.961 34.5892 125.198 34.09C124.536 33.3514 122.856 33.3514 121.962 33.2983C121.242 33.2554 120.28 33.0796 121.155 32.251C121.583 31.8463 124.607 30.7577 124.861 31.4165C124.285 31.5996 123.778 31.7562 123.27 32.0664C123.908 32.251 124.663 31.9866 125.317 31.9275C126.217 31.8434 127.12 32.0295 128.025 31.9275C128.048 31.9611 128.065 31.9993 128.074 32.0398C127.3 32.4829 126.288 32.4681 125.529 33.0826C126.365 34.087 129.109 33.9688 130.389 33.8935C131.302 33.8462 132.2 33.9452 133.101 33.9157C133.554 33.9024 134.441 33.6779 134.564 33.1771C133.639 32.7724 132.445 33.6734 131.778 32.6764C131.614 32.4297 131.868 32.285 131.332 32.0073C131.008 31.8419 130.661 31.9069 130.431 31.5967C130.808 31.3205 131.615 31.3603 132.102 31.3146C132.988 31.2318 133.884 31.4002 134.776 31.3751C135.217 31.3648 135.737 31.3751 136.169 31.2274C136.564 31.09 136.894 30.7385 137.298 30.6159C137.777 30.4682 138.482 30.7134 138.844 30.3456C138.148 29.7282 137.471 30.2496 136.702 30.2762C135.738 30.3087 134.776 30.093 133.777 30.0709C133.377 30.062 130.184 30.1861 130.593 29.4343C130.788 29.0753 131.962 29.3294 132.274 29.3161C133.015 29.2851 133.736 29.1196 134.471 29.0384C135.375 28.9409 136.187 28.9453 137.013 28.6115C136.734 28.4092 136.433 28.1684 136.056 28.1374C136.32 27.1669 137.977 27.3708 138.676 27.2511C139.375 27.1315 140.133 26.9217 140.725 26.5229C141.031 26.3147 142.047 24.8406 142.193 24.8479C142.181 24.8479 100.385 22.8214 82.4784 24.8479C76.4483 25.5289 74.2879 31.5036 73.9104 37.177C73.6708 40.7634 73.9814 44.3837 74.4954 47.9286C74.7322 49.5534 74.6152 50.9729 75.7769 52.1722C76.7269 53.153 78.0405 53.7128 79.1604 54.4351C80.5422 55.3214 81.2304 56.2977 81.5953 58.0451C81.9213 59.6019 81.8015 59.8175 83.3309 60.5443C87.2145 62.3817 92.5245 62.2104 96.7437 62.4571C98.8109 62.5767 100.576 61.9135 102.529 61.3064C104.27 60.7614 105.826 60.7053 107.639 60.6122C108.964 60.5457 111.644 61.107 113.16 60.3183Z" fill="#746B7D"/>
</g>
<path opacity="0.2" d="M216.871 78.0375C212.53 77.9134 208.17 77.782 203.831 77.559C199.915 77.3566 196.079 77.6476 192.173 77.8677C188.913 78.0508 185.702 77.7643 182.445 77.7436C179.577 77.7259 176.734 77.6358 173.88 77.5176C173.183 77.488 172.478 77.429 171.79 77.4437C171.34 77.4541 170.757 77.6387 169.851 77.5914C169.315 77.4866 169.029 77.7805 169.348 78.1823C169.538 78.423 170.25 78.5323 170.535 78.6933C170.821 78.8544 171.371 79.1261 171.579 79.3994C171.815 79.714 171.774 80.0257 172.005 80.3683C172.549 81.1733 173.979 81.6416 174.803 81.8705C176.475 82.3343 178.146 82.7804 179.818 83.1999C180.445 83.3594 183.119 83.5381 183.193 84.2678C182.87 84.3756 181.265 84.5115 181.418 85.1186C181.558 85.6681 184.065 85.4539 184.493 85.4997C185.823 85.637 187.139 85.8261 188.458 86.0137C189.261 86.1289 191.384 86.7389 191.969 85.9546C191.147 85.2279 189.172 85.6725 188.578 84.8114C188.974 84.2929 191.604 84.4406 190.566 83.5943C190.234 83.3239 189.385 83.352 188.974 83.3092C187.943 83.1999 186.9 83.2339 185.87 83.0655C185.053 82.934 183.428 82.3786 185.068 82.0817C186.994 81.7361 188.868 82.2191 190.754 82.5249C191.839 82.7036 192.933 82.8912 194.023 83.0019C194.745 83.0714 196.053 83.002 196.638 83.5485C197.737 84.5647 195.394 84.6193 194.755 85.089C193.466 86.0388 195.803 86.0802 196.471 86.253C198.282 86.7212 200.18 86.7123 201.946 87.377C202.676 87.6532 203.533 88.2456 203.943 87.318C203.385 86.8202 201.764 86.3446 202.916 85.6932C203.994 85.0861 205.51 85.445 206.659 84.8187C205.925 84.6075 206.207 84.0802 206.702 83.807C207.897 83.1319 209.538 83.2693 210.831 82.9768C212.123 82.6844 213.355 82.386 214.659 82.2088C215.504 82.0965 216.758 82.1231 217.46 81.68C216.68 80.8528 215.306 81.6342 214.444 81.2088C215.462 79.9548 218.028 80.5988 219.363 80.005C220.338 79.5619 221.027 79.0774 221.671 78.1941C220.173 77.8145 218.392 78.0818 216.871 78.0375Z" fill="#564361"/>
<path opacity="0.6" d="M241.091 88.8753C247.273 86.8462 248.412 84.5479 245.718 82.9994C243.722 81.8534 242.386 81.7177 240.091 81.1923C237.936 80.699 235.734 80.4229 233.595 79.8186C232.843 79.607 232.129 78.9903 231.307 78.9549C230.486 78.9194 229.727 79.5743 228.945 79.7843C226.879 80.338 224.718 80.4202 222.556 80.4124C220.097 80.4041 217.599 80.9284 215.141 80.6259C212.24 80.2766 209.319 80.154 206.402 80.259C202.976 80.3973 199.524 80.8377 196.042 80.9429C193.596 81.0164 191.104 81.5604 188.705 81.5215C187.56 81.5 182.366 80.8862 182.246 79.3486C179.45 78.6021 176.534 79.1675 173.664 78.3649C172.109 77.93 170.556 77.5409 168.951 77.2479C167.903 77.0571 165.461 77.2876 164.812 76.3313C166.946 76.1835 169.223 76.1268 171.36 76.1965C177.764 76.3973 184.17 76.1519 190.592 76.1927C198.719 76.2526 206.747 77.5166 214.837 77.7479C217.919 77.836 221.101 78.3369 224.149 77.8493C227.041 77.3801 230.305 77.9764 233.043 76.9339C234.668 76.3148 236.399 73.3619 236.991 71.7315C237.89 69.2629 236.9 69.1902 234.805 68.7579C232.71 68.3256 230.676 67.5945 228.564 67.1196C226.348 66.6128 223.381 66.9179 221.349 66.0397C221.814 65.7309 222.452 65.3481 222.618 64.7608C221.637 63.5487 220.021 63.1395 218.603 62.8707C217.013 62.5713 215.353 62.237 213.743 62.145C213.621 62.1441 213.501 62.1302 213.382 62.1244C212.417 62.1065 211.454 62.0164 210.501 61.8546C210.076 61.7776 209.664 61.6323 209.28 61.4239C209.355 61.4718 209.657 61.1798 209.648 61.0783C209.634 60.8755 209.223 60.7482 209.08 60.7096C208.511 60.5419 207.933 60.2744 207.337 60.1883C206.82 60.1109 206.307 60.0957 205.787 60.033C204.564 59.8867 203.337 59.688 202.125 59.4927C201.4 59.3843 200.713 59.1013 199.99 58.9963C199.746 58.9602 199.402 58.9707 199.209 58.8172C199.47 58.6361 199.851 58.6977 200.134 58.7162C200.459 58.7229 200.784 58.7001 201.105 58.6481C202.635 58.4779 204.157 58.1164 205.697 58.0754C207.771 58.0204 209.702 58.548 211.732 58.7853C213.837 59.0313 215.98 59.2515 218.098 59.5221C222.638 60.1016 227.202 60.5701 231.781 60.4862C243.776 60.2868 257.436 56.1451 268.666 62.3438C274.647 65.6429 278.268 73.9452 281.383 79.9108C283.101 83.1932 285.346 86.0249 287.548 88.9479C288.516 90.2352 341.325 109.513 341.693 111.13C341.332 111.137 333.021 111.066 332.991 111.066C331.565 111.055 329.444 109.647 328.132 109.12C324.904 107.831 321.773 107.157 318.335 106.759C315.673 106.449 313.084 105.638 310.525 104.758C308.569 104.09 306.745 103.852 304.76 103.447C301.853 102.855 299.054 101.69 296.161 100.983C293.588 100.355 291.08 100.021 288.744 98.6155C289.096 97.8889 289.666 97.1803 290.162 96.566C285.992 96.2443 281.779 94.6012 277.808 93.0254C273.745 91.4146 269.946 89.7108 265.582 89.2095C262.91 88.889 240.015 89.2303 241.091 88.8753Z" fill="white"/>
<path opacity="0.6" d="M138.514 20.9184C133.033 20.6471 127.631 21.5364 122.131 21.0231C114.1 20.2712 106.172 18.7228 98.0984 18.4259C93.1432 18.2422 88.1391 18.4705 83.179 18.522C80.1733 18.5512 77.2067 18.8155 74.1895 18.8104C71.8945 18.8104 68.866 17.88 66.3949 18.1632H66.3802C45.9661 17.4148 -40 19.4833 -40 19.4833V77H-8.39433C-8.39433 77 -4.15633 72.2845 4.78747 68.429C13.7313 64.5735 30.116 63.6413 39.2685 61.2467C47.57 59.0769 55.7543 49.8793 73.3925 47.8451C77.7723 47.5155 82.157 47.2872 86.54 47.0349C93.875 46.6108 101.226 45.4899 108.555 45.1466C111.508 45.0041 114.346 45.4899 117.174 46.0444C119.596 46.5216 122.01 47.0503 124.483 47.2889C128.495 47.6734 124.037 45.4934 122.814 44.817C121.171 43.9089 119.554 42.8515 117.966 41.9417C116.201 40.9323 111.225 38.9307 111.446 36.1825C111.706 33.0771 117.608 31.8085 119.864 31.0927C121.494 30.5777 125.08 30.6292 126.125 29.0843C125.008 28.5899 123.665 29.0345 122.625 28.365C124.491 27.9462 126.519 27.1479 128.384 26.5162C131.357 25.5034 134.777 25.1653 137.865 24.7498C142.459 24.1284 149.15 25.1687 153.947 22.2402C154.989 21.6084 157.303 21.8471 159 21.5535C156.103 20.1716 145.331 21.26 138.514 20.9184Z" fill="white"/>
<rect x="-60" width="447" height="336" fill="url(#paint4_radial_2643_32726)" fill-opacity="0.2"/>
<g style="mix-blend-mode:screen" opacity="0.3">
<path d="M63.6415 58.7331C62.7834 59.0713 61.9379 59.4318 61.1161 59.8217C59.9209 60.3859 51.4657 64.9914 50.9057 64.3356C52.4909 66.1701 54.3463 66.3754 56.5346 66.8053C54.8074 69.0962 52.6023 68.8599 50.2427 69.6028C47.4567 70.4802 44.2808 71.8539 41.9156 73.7386C39.6242 75.5643 38.911 77.6883 36.366 78.836C34.1638 79.8315 31.7693 80.4061 29.4806 81.5656C26.6669 82.988 23.8991 83.6246 26.3688 86.8919C24.5259 90.5728 14.6471 86.9539 11.9865 86.208C8.62532 85.2627 2.91281 85.1298 0.165903 82.8004C1.1549 80.3972 5.64022 80.4371 7.43156 78.5524C5.69594 74.4077 2.02411 75.3959 -1 73.2349C-0.551468 67.566 13.6609 66.8053 17.1641 66.1893C19.4166 65.795 21.0045 65.0609 23.1148 64.3253C23.9952 64.018 28.2089 64.1894 28.6964 63.439C31.0115 59.8837 21.4238 60.1333 20.5323 59.1422C22.9491 59.0329 25.4439 58.0403 27.7966 57.3535C31.2149 56.3565 35.8061 57.1393 38.7828 55.3964C37.2506 53.0877 33.8392 53.7953 31.9866 51.9519C34.2446 52.9105 36.9149 51.7717 39.294 51.5176C45.1862 50.8854 51.325 50.9578 57.2381 51.1853C66.5472 51.5442 76.2087 49.3936 85.4789 50.1705C83.6443 54.2842 77.6407 54.2044 74.1388 55.3048C70.701 56.389 67.0612 57.386 63.6415 58.7331Z" fill="#A715DC"/>
</g>
<path style="mix-blend-mode:difference" opacity="0.6" d="M360 -516H-1V225H360V-516Z" fill="url(#paint5_radial_2643_32726)"/>
<g opacity="0.3">
<path d="M429.855 102.835C424.241 103.946 418.499 104.81 412.821 105.661C405.267 106.792 396.754 106.411 389.024 106.485C387.446 106.5 385.871 106.337 384.292 106.464C383.43 106.539 380.272 107.113 381.188 108.33C381.457 108.687 382.105 108.824 382.537 108.999C383.097 109.226 383.598 109.59 384.182 109.804C384.766 110.018 385.523 110.126 386.041 110.423C386.503 110.686 386.56 111.031 386.218 111.406C385.603 112.073 384.23 112.102 383.334 112.182C381.82 112.316 380.339 112.653 378.828 112.795C378.501 112.826 377.646 112.91 377.482 113.213C377.317 113.516 377.816 113.482 377.772 113.762C377.712 114.167 375.748 114.477 375.366 114.622C375.053 114.737 374.54 114.917 374.481 115.242C374.398 115.821 375.495 116.17 375.412 116.781C375.235 118.009 374.174 118.186 372.824 118.589C361.588 121.919 349.555 123.411 337.856 125.108C335.105 125.505 318.885 126.077 323.172 129.768C324.106 130.568 327.09 130.97 327.333 132.267C327.628 133.87 324.932 134.196 323.603 134.295C318.696 134.661 309.494 133.942 306.106 137.797C307.875 138.942 310.826 139.329 312.42 140.568C315.959 143.315 308.963 142.849 306.957 142.931C303.534 143.063 300.181 143.877 296.782 144.227C292.812 144.637 289.092 144.265 285.136 144.375C282.052 144.457 272.812 146.979 270.59 144.583C272.84 142.663 277.348 143.422 280.287 143.203C283.117 142.993 295.284 142.993 296.574 140.677C297.391 139.209 295.643 139.271 293.962 138.973C291.045 138.456 287.915 138.183 284.961 137.839C281.053 137.382 268.764 136.952 267 133.46C268.543 132.158 271.803 132.986 273.769 133.066C277.196 133.214 280.699 132.91 284.089 132.542C287.763 132.141 298.966 131.843 300.662 128.567C299.052 127.295 295.41 127.921 294.049 126.48C292.457 124.79 295.868 123.635 294.881 122.038C293.931 120.499 286.919 121.473 285.4 121.548C282.454 121.696 277.705 122.533 275.06 121.117C276.605 118.287 285.168 118.341 288.526 117.663C294.245 116.505 299.99 115.844 305.796 115.044C307.939 114.749 320.923 112.722 315.994 109.913C314.894 109.287 310.566 108.907 312.065 107.021C313.271 105.503 317.664 107.534 318.692 105.507C316.017 102.576 308.937 105.599 305.89 101.901C304.8 100.572 305.483 100.47 303.404 100.105C301.849 99.8336 296.605 99.9325 295.468 98.2442H437.18C437.302 98.7656 438.193 99.1556 439 99.9C437.76 101.498 432.068 102.395 429.855 102.835Z" fill="white"/>
</g>
</g>
</g>
<defs>
<radialGradient id="paint0_radial_2643_32726" cx="0" cy="0" r="1" gradientUnits="userSpaceOnUse" gradientTransform="translate(258.5 48.5) rotate(176.713) scale(148.244 34.9287)">
<stop stop-color="#942F9D"/>
<stop offset="0.18" stop-color="#BD4BFF"/>
<stop offset="0.616451" stop-color="#852ED6"/>
<stop offset="0.81" stop-color="#DB4DFF"/>
<stop offset="1" stop-color="#E42EF5"/>
</radialGradient>
<linearGradient id="paint1_linear_2643_32726" x1="195.975" y1="65.0034" x2="195.975" y2="336" gradientUnits="userSpaceOnUse">
<stop stop-opacity="0"/>
<stop offset="0.497948" stop-color="#474747" stop-opacity="0.81"/>
<stop offset="1"/>
</linearGradient>
<radialGradient id="paint2_radial_2643_32726" cx="0" cy="0" r="1" gradientUnits="userSpaceOnUse" gradientTransform="translate(234.288 44.3179) scale(119.819 39.3869)">
<stop stop-color="#942F9D"/>
<stop offset="0.18" stop-color="#BD4BFF"/>
<stop offset="0.53" stop-color="#852ED6"/>
<stop offset="0.81" stop-color="#C72EED"/>
<stop offset="1" stop-color="#E42EF5"/>
</radialGradient>
<linearGradient id="paint3_linear_2643_32726" x1="189.851" y1="-0.217285" x2="189.851" y2="66.4133" gradientUnits="userSpaceOnUse">
<stop stop-color="#F9CBFF"/>
<stop offset="0.11" stop-color="#EEBDEB"/>
<stop offset="0.33" stop-color="#BD9AC0"/>
<stop offset="0.63" stop-color="#776174"/>
<stop offset="1" stop-color="#151515"/>
</linearGradient>
<radialGradient id="paint4_radial_2643_32726" cx="0" cy="0" r="1" gradientUnits="userSpaceOnUse" gradientTransform="translate(163.5 143.624) rotate(90) scale(73.7882 169.27)">
<stop stop-color="#7C2CC0"/>
<stop offset="0.422492" stop-color="#A020BD"/>
<stop offset="1" stop-color="#CC12BA"/>
</radialGradient>
<radialGradient id="paint5_radial_2643_32726" cx="0" cy="0" r="1" gradientUnits="userSpaceOnUse" gradientTransform="translate(50.9831 296.904) scale(201.288 702.391)">
<stop stop-color="#15559D"/>
<stop offset="0.2" stop-color="#154376"/>
<stop offset="0.45" stop-color="#152F4C"/>
<stop offset="0.67" stop-color="#15212E"/>
<stop offset="0.86" stop-color="#15181C"/>
<stop offset="1" stop-color="#151515"/>
</radialGradient>
<clipPath id="clip0_2643_32726">
<rect width="360" height="225" fill="white"/>
</clipPath>
</defs>
</svg>
