<svg width="1363" height="683" viewBox="0 0 1363 683" fill="none" xmlns="http://www.w3.org/2000/svg">
<path d="M0 682.572H1362.24V16.9492C1361.77 17.7432 1361.34 18.5414 1360.9 19.3519C1360.71 19.7099 1361.1 20.7754 1360.35 20.1377C1359.6 19.5 1360.94 20.2406 1358.7 17.6692C1356.46 15.0978 1355.2 10.103 1349.52 5.62259C1343.85 1.14215 1329 -2.33853 1319.9 1.95677C1317.83 2.93185 1315.67 3.67242 1313.56 3.69711C1311.45 3.72179 1309.66 3.06762 1307.75 2.46283C1297.22 -0.947905 1286.51 7.58921 1282.08 12.6127C1277.66 17.6363 1279.67 21.1581 1277.17 23.4168C1275.65 24.7992 1274.44 19.3025 1270.66 19.5823C1266.87 19.8621 1261.54 20.5368 1259.67 24.9597C1253.35 15.9576 1244.51 11.831 1232.59 13.559C1230.87 13.8059 1229.82 15.5586 1228.36 15.0895C1226.9 14.6205 1226.15 12.1026 1224.1 10.9218C1210.25 2.97711 1195.76 4.57756 1183.9 14.6246C1181.92 16.3073 1182.41 19.0804 1179.93 20.0719C1177.45 21.0634 1170.96 19.4877 1168.12 21.8081C1168.41 15.2911 1170.72 11.3332 1162.89 6.24796C1155.07 1.16272 1140.88 4.63105 1133.62 9.34189C1126.36 14.0527 1127.03 19.2161 1122.45 23.676C1120.13 25.943 1117.21 21.2774 1112.03 24.3055C1106.86 27.3336 1099.88 33.8383 1101.66 41.3756C1087.52 34.9656 1073.45 33.6284 1060.32 41.9557C1052.74 46.7612 1050.82 53.6444 1048.99 61.0459C1042.74 59.2068 1036.73 59.0958 1030.72 61.338C1022.78 51.7518 1018.06 44.2926 1002.15 42.5235C986.229 40.7543 968.892 47.6581 958.945 59.8404C954.873 64.8228 955.031 72.2532 952.695 76.5691C951.359 79.0376 944.536 79.5355 942.414 81.0125C940.291 82.4895 939.84 86.6038 937.88 85.6863C928.218 81.1606 920.194 74.4502 906.422 75.6639C892.65 76.8776 880.824 85.1268 875.057 96.6879C870.71 96.5315 866.41 97.1486 862.933 99.0618C859.456 100.975 858.279 103.197 856.743 106.221C847.281 100.568 837.758 98.9754 827.002 102.46C824.866 103.147 823.4 105.139 821.827 105.427C820.254 105.715 819.402 104.287 817.829 103.925C800.417 99.9258 786.013 103.62 774.782 116.21C774.703 114.231 768.336 113.651 769.197 111.73C771.524 106.665 776.839 101.567 775.61 94.7953C772.255 76.2152 756.151 66.7606 735.202 65.4688C725.675 64.8804 717.982 71.0683 710.367 71.9981C706.244 72.5001 703.558 66.5138 698.899 64.8969C685.076 60.0996 672.063 57.9355 657.942 63.8354C657.197 64.1399 656.681 65.3783 656.15 64.8146C651.109 59.5113 649.169 56.1746 641.191 51.5378C633.214 46.9011 620.713 42.8362 609.85 44.7946C607.988 45.1237 605.861 47.0039 604.544 46.3909C603.227 45.7779 602.947 42.47 600.979 40.923C591.205 33.2623 579.844 30.8348 566.584 30.263C542.587 29.222 521.507 31.7564 502.877 45.4858C501.224 46.72 501.48 49.8057 499.363 49.5301C490.878 48.4398 486.596 45.1114 475.579 45.9753C464.563 46.8393 450.223 52.731 444.215 62.5106C443.786 63.2183 442.469 62.0992 441.529 61.9017C425.602 58.8201 408.614 68.6902 406.827 81.0125C405.04 93.3347 414.041 95.5852 422.679 100.798C418.565 104.83 416.373 109.459 418.444 114.947C409.713 118.531 402.987 123.11 397.351 129.927C385.334 116.543 371.003 107.866 351.097 110.072C347.472 110.483 344.93 114.087 342.924 114.067C340.918 114.046 340.383 112.174 338.615 110.199C336.846 108.224 328.789 106.496 328.119 103.295C326.481 95.4207 325.829 87.188 319.276 79.6383C312.723 72.0886 300.687 65.8967 291.081 64.0041C281.474 62.1115 271.477 65.8678 267.433 69.0605C263.388 72.2532 265.469 72.4383 263.663 73.4381C262.83 73.8989 262.676 74.1005 262.657 74.1705C262.634 74.1417 262.564 74.0923 262.359 74.0388C261.526 73.8207 261.429 72.2697 260.903 71.2246C256.193 62.1362 250.035 54.315 238.818 50.6903C237.45 50.2501 236.552 50.5751 235.328 50.4764C234.104 50.3776 233.466 49.9909 232.219 50.0115C230.971 50.032 230.255 50.9166 228.923 51.2087C227.592 51.5008 226.708 51.4926 224.967 51.8258C223.227 52.1591 220.006 53.9817 218.046 53.9982C216.087 54.0146 215.435 57.1456 213.299 55.5328C211.163 53.92 207.579 48.5344 203.414 46.4362C192.672 41.0053 182.088 37.0392 169.228 36.2122C166.561 36.0435 164.327 35.6773 161.162 36.0682C157.997 36.459 156.871 37.142 152.459 37.9896C148.047 38.8371 142.964 41.1658 136.904 42.9267C130.845 44.6876 123.947 51.2828 119.642 55.0185C117.426 56.944 110.287 53.8295 107.834 54.784C105.381 55.7385 102.584 55.829 101.453 56.2405C100.322 56.6519 101.039 55.936 100.909 55.7509C97.3294 50.8137 95.9751 46.3662 91.1347 41.6842C86.2943 37.0021 79.1826 32.5628 71.41 30.9295C56.6654 27.8314 40.7246 30.1066 31.6954 40.8695C22.6661 51.6325 23.8669 63.0002 27.097 74.7012C27.5624 76.4251 30.0059 77.4084 29.5591 78.7044C29.1123 80.0004 28.9819 78.6097 26.599 80.2637C24.216 81.9176 19.9434 81.9094 16.5319 86.3981C13.1203 90.8867 14.6283 99.6049 20.5485 103.814C21.0139 104.139 19.8643 103.485 18.4913 103.542C17.1183 103.6 12.4035 103.917 9.87164 104.456C7.33974 104.995 6.98136 105.044 3.90956 106.957C2.71808 107.698 1.32646 109.38 0 111.318V682.572Z" fill="white"/>
</svg>
