<svg width="1364" height="186" viewBox="0 0 1364 186" fill="none" xmlns="http://www.w3.org/2000/svg">
<g clip-path="url(#clip0_2642_85695)">
<path d="M1363.1 0.179688H0.863281V185.774H1363.1V0.179688Z" fill="url(#paint0_radial_2642_85695)"/>
<g opacity="0.3">
<path d="M1291.53 167.974C1247.05 163.612 1201.54 160.219 1156.55 156.879C1096.69 152.436 1029.22 153.932 967.97 153.642C955.464 153.584 942.987 154.222 930.467 153.724C923.64 153.428 898.614 151.178 905.877 146.398C908.008 144.995 913.139 144.455 916.56 143.771C921.004 142.878 924.972 141.451 929.598 140.61C934.225 139.769 940.225 139.346 944.333 138.18C947.992 137.148 948.441 135.79 945.735 134.317C940.856 131.701 929.977 131.585 922.883 131.272C910.882 130.745 899.147 129.422 887.174 128.865C884.581 128.744 877.809 128.413 876.505 127.224C875.201 126.035 879.155 126.168 878.805 125.066C878.328 123.477 862.766 122.259 859.738 121.691C857.256 121.239 853.19 120.531 852.728 119.255C852.069 116.981 860.761 115.613 860.102 113.212C858.7 108.392 850.288 107.696 839.591 106.112C750.552 93.0395 655.204 87.1817 562.491 80.5176C540.69 78.9575 412.157 76.7129 446.127 62.219C453.529 59.0755 477.181 57.4979 479.101 52.4056C481.443 46.1127 460.077 44.831 449.548 44.4424C410.657 43.004 337.74 45.8286 310.892 30.6909C324.912 26.196 348.297 24.6764 360.929 19.8103C388.968 9.02253 333.534 10.8553 317.636 10.5305C290.508 10.0143 263.94 6.81856 237.008 5.44399C205.548 3.83163 176.064 5.2932 144.716 4.864C120.28 4.53921 47.0548 -5.3612 29.446 4.0462C47.2791 11.586 83.0015 8.60496 106.288 9.46334C128.72 10.2869 225.134 10.2869 235.354 19.3811C241.831 25.1462 227.98 24.9025 214.661 26.0741C191.542 28.1041 166.741 29.1771 143.328 30.5285C112.359 32.3206 14.9777 34.0084 1 47.7193C13.2252 52.8348 39.0635 49.5811 54.6394 49.2679C81.7957 48.6879 109.555 49.8826 136.417 51.3268C165.536 52.8986 254.309 54.0702 267.754 66.9343C254.996 71.928 226.129 69.4689 215.348 75.1295C202.73 81.7646 229.76 86.3001 221.937 92.5697C214.409 98.6132 158.848 94.7911 146.805 94.4953C123.463 93.9153 85.8334 90.6268 64.8739 96.1888C77.1131 107.301 144.969 107.087 171.578 109.749C216.904 114.296 262.426 116.894 308.439 120.032C325.417 121.192 428.308 129.15 389.249 140.181C380.529 142.64 346.236 144.131 358.111 151.537C367.672 157.499 402.483 149.525 410.629 157.482C389.431 168.989 333.324 157.122 309.182 171.639C300.546 176.859 305.957 177.26 289.484 178.692C277.161 179.759 235.606 179.371 226.592 186H1349.57C1350.54 183.953 1357.61 182.421 1364 179.498C1354.17 173.223 1309.07 169.702 1291.53 167.974Z" fill="white"/>
</g>
<g style="mix-blend-mode:lighten">
<path d="M1364 0H1V186H1364V0Z" fill="url(#paint1_linear_2642_85695)"/>
</g>
<g style="mix-blend-mode:screen" opacity="0.3">
<path d="M710.552 35.8957C707.685 36.8379 704.86 37.8418 702.114 38.928C698.12 40.4996 669.869 53.3279 667.998 51.5011C673.295 56.6111 679.494 57.1829 686.806 58.3802C681.035 64.7614 673.667 64.1032 665.783 66.1726C656.474 68.6165 645.863 72.4428 637.96 77.6926C630.304 82.7778 627.921 88.6942 619.417 91.891C612.059 94.664 604.058 96.2644 596.411 99.4941C587.01 103.456 577.762 105.229 586.014 114.33C579.856 124.583 546.848 114.503 537.959 112.425C526.728 109.792 507.641 109.422 498.463 102.934C501.767 96.2397 516.754 96.3508 522.74 91.101C516.94 79.5564 504.672 82.3088 494.567 76.2896C496.066 60.4991 543.553 58.3802 555.259 56.6646C562.785 55.5661 568.09 53.5213 575.142 51.4724C578.083 50.6166 592.162 51.0939 593.791 49.0038C601.526 39.1008 569.491 39.796 566.513 37.0354C574.588 36.7309 582.923 33.9661 590.784 32.053C602.206 29.2759 617.546 31.4564 627.492 26.6016C622.373 20.171 610.975 22.1417 604.784 17.0071C612.329 19.6773 621.251 16.5052 629.201 15.7975C648.888 14.0366 669.399 14.2382 689.156 14.8718C720.261 15.8716 752.543 9.88118 783.516 12.0453C777.387 23.5035 757.327 23.2814 745.626 26.3465C734.14 29.3664 721.978 32.1435 710.552 35.8957Z" fill="#A715DC"/>
</g>
</g>
<defs>
<radialGradient id="paint0_radial_2642_85695" cx="0" cy="0" r="1" gradientUnits="userSpaceOnUse" gradientTransform="translate(857.192 124.228) scale(400.348 109.709)">
<stop stop-color="#942F9D"/>
<stop offset="0.18" stop-color="#BD4BFF"/>
<stop offset="0.53" stop-color="#852ED6"/>
<stop offset="0.81" stop-color="#C72EED"/>
<stop offset="1" stop-color="#E42EF5"/>
</radialGradient>
<linearGradient id="paint1_linear_2642_85695" x1="682.5" y1="0" x2="682.5" y2="186" gradientUnits="userSpaceOnUse">
<stop stop-color="#F9CBFF"/>
<stop offset="0.11" stop-color="#EEBDEB"/>
<stop offset="0.33" stop-color="#BD9AC0"/>
<stop offset="0.63" stop-color="#776174"/>
<stop offset="1" stop-color="#151515"/>
</linearGradient>
<clipPath id="clip0_2642_85695">
<rect width="1364" height="186" fill="white"/>
</clipPath>
</defs>
</svg>
