<svg width="161" height="30" viewBox="0 0 161 30" fill="none" xmlns="http://www.w3.org/2000/svg">
<path d="M68.5 29L154.5 1H7.5L68.5 29Z" fill="#EC41C9"/>
<path d="M66.5803 27H63.0403L62.1203 24.02H57.6003L56.6603 27H53.2003L57.8403 13.8H61.9603L66.5803 27ZM58.2403 21.68H61.4803L59.8603 16.34L58.2403 21.68ZM82.4155 13.8V27H78.5955L74.4955 19.86L73.4955 17.9H73.4755L73.5555 20.34V27H70.5155V13.8H74.3355L78.4355 20.94L79.4355 22.9H79.4555L79.3755 20.46V13.8H82.4155Z" fill="white"/>
<path d="M85.7567 19.6992C85.7567 19.0508 85.8466 18.4141 86.0262 17.7891C86.2059 17.1562 86.4716 16.5547 86.8231 15.9844C87.1747 15.4141 87.6083 14.8867 88.1239 14.4023C88.6473 13.9102 89.2489 13.4883 89.9286 13.1367C90.6083 12.7773 91.3622 12.5 92.1903 12.3047C93.0262 12.1016 93.9325 12 94.9091 12C96.2059 12 97.3231 12.168 98.2606 12.5039C99.1981 12.8398 100.022 13.3008 100.733 13.8867V12.4102H103.499V16.6289H100.733C100.366 16.1836 99.9755 15.793 99.5614 15.457C99.1552 15.1133 98.7137 14.8242 98.2372 14.5898C97.7684 14.3555 97.2528 14.1797 96.6903 14.0625C96.1356 13.9375 95.5302 13.875 94.8739 13.875C93.9052 13.875 93.0458 14.0273 92.2958 14.332C91.5458 14.6367 90.913 15.0547 90.3973 15.5859C89.8817 16.1094 89.4911 16.7266 89.2255 17.4375C88.9598 18.1484 88.827 18.9062 88.827 19.7109C88.827 20.5469 88.9598 21.3164 89.2255 22.0195C89.4911 22.7227 89.8856 23.332 90.4091 23.8477C90.9325 24.3555 91.5809 24.7539 92.3544 25.043C93.1278 25.332 94.0262 25.4766 95.0497 25.4766C95.9637 25.4766 96.7841 25.3711 97.5106 25.1602C98.2372 24.9414 98.8583 24.6406 99.3739 24.2578C99.8973 23.8672 100.307 23.4023 100.604 22.8633C100.909 22.3242 101.097 21.7266 101.167 21.0703H96.245V19.6055H103.85V27H101.179V25.1367C100.843 25.4648 100.464 25.7656 100.042 26.0391C99.6278 26.3047 99.163 26.5352 98.6473 26.7305C98.1395 26.9258 97.577 27.0781 96.9598 27.1875C96.3427 27.2969 95.6708 27.3516 94.9442 27.3516C93.4833 27.3516 92.1825 27.1562 91.0419 26.7656C89.9012 26.3672 88.9403 25.8242 88.1591 25.1367C87.3778 24.4492 86.7802 23.6406 86.3661 22.7109C85.9598 21.7812 85.7567 20.7773 85.7567 19.6992ZM101.436 17.4492H104.343V13.0078H104.811V17.8945H101.436V17.4492ZM89.6708 19.6992C89.6708 18.9883 89.788 18.3281 90.0223 17.7188C90.2645 17.1094 90.6083 16.582 91.0536 16.1367C91.4989 15.6836 92.0419 15.332 92.6825 15.082C93.3309 14.8242 94.0614 14.6953 94.8739 14.6953C95.4364 14.6953 95.9442 14.7383 96.3973 14.8242C96.8583 14.9023 97.2684 15.0195 97.6278 15.1758C97.995 15.332 98.3231 15.5273 98.6122 15.7617C98.9012 15.9883 99.163 16.25 99.3973 16.5469C99.038 16.2891 98.6864 16.0742 98.3427 15.9023C97.9989 15.7227 97.6473 15.5781 97.288 15.4688C96.9286 15.3516 96.5497 15.2695 96.1512 15.2227C95.7606 15.168 95.3348 15.1406 94.8739 15.1406C94.1317 15.1406 93.4677 15.2617 92.8817 15.5039C92.2958 15.7383 91.7997 16.0625 91.3934 16.4766C90.9872 16.8828 90.6747 17.3633 90.4559 17.918C90.245 18.4727 90.1395 19.0664 90.1395 19.6992C90.1395 20.2461 90.2177 20.7617 90.3739 21.2461C90.5302 21.7305 90.7762 22.1797 91.1122 22.5938C91.4481 23.0078 91.8778 23.3867 92.4012 23.7305C92.9247 24.0664 93.5536 24.3633 94.288 24.6211C93.5614 24.5039 92.913 24.3086 92.3427 24.0352C91.7723 23.7617 91.288 23.418 90.8895 23.0039C90.4989 22.582 90.1981 22.0977 89.9872 21.5508C89.7762 20.9961 89.6708 20.3789 89.6708 19.6992ZM104.694 27.8203V20.1914H105.163V28.2656H101.882V27.8203H104.694ZM96.9012 21.8906H100.511C100.495 21.9375 100.472 22.0078 100.44 22.1016C100.417 22.1875 100.39 22.2656 100.358 22.3359H96.9012V21.8906ZM88.7567 26.4375C89.202 26.7422 89.6473 27.0039 90.0927 27.2227C90.5458 27.4414 91.0184 27.6211 91.5106 27.7617C92.0106 27.9023 92.5419 28.0039 93.1044 28.0664C93.6747 28.1367 94.2958 28.1719 94.9677 28.1719C95.5458 28.1719 96.0848 28.1445 96.5848 28.0898C97.0927 28.0352 97.5692 27.9492 98.0145 27.832C98.4677 27.7148 98.8934 27.5664 99.2919 27.3867C99.6981 27.207 100.093 26.9922 100.475 26.7422V27.2812C99.6708 27.7734 98.8153 28.1172 97.9091 28.3125C97.0106 28.5156 96.0223 28.6172 94.9442 28.6172C93.5067 28.6172 92.2802 28.4375 91.2645 28.0781C90.2567 27.7266 89.4208 27.1797 88.7567 26.4375ZM111.676 25.125H114.84V14.2852H111.676V12.4102H129.102V16.9805H126.465V14.2852H117.594V18.9023H123.477V20.3672H117.594V25.125H126.465V22.4297H129.102V27H111.676V25.125ZM127.168 17.8008H129.945V12.9961H130.414V18.2461H127.168V17.8008ZM118.438 15.1055H125.973V15.5508H118.906V18.1992H118.438V15.1055ZM112.379 15.1055H114.348V15.5508H112.379V15.1055ZM118.438 21.1875H124.309V19.4883H124.777V21.6328H118.906V24.4219H118.438V21.1875ZM129.945 27.8203V23.0859H130.414V28.2656H112.379V27.8203H129.945ZM137.384 25.125H140.431V14.2852H137.185V12.4102H146.372V14.2852H143.091V25.125H151.235V21.7266H153.872V27H137.384V25.125ZM143.935 15.2227H147.204V12.9961H147.673V15.668H144.403V24.4219H143.935V15.2227ZM137.888 15.2227H139.939V15.668H137.888V15.2227ZM154.716 27.8203V22.3828H155.185V28.2656H138.087V27.8203H154.716Z" fill="white"/>
<path d="M6.11859 20.125H9.17719V9.28516H5.94281V7.41016H14.3569C15.185 7.41016 15.9233 7.41797 16.5717 7.43359C17.228 7.44922 17.8022 7.46875 18.2944 7.49219C18.7944 7.51562 19.228 7.54688 19.5952 7.58594C19.9623 7.625 20.2787 7.66797 20.5444 7.71484C21.185 7.83203 21.728 8 22.1733 8.21875C22.6264 8.4375 22.9936 8.69922 23.2748 9.00391C23.5561 9.30859 23.7592 9.65234 23.8842 10.0352C24.017 10.4102 24.0834 10.8164 24.0834 11.2539C24.0834 11.5664 24.017 11.8867 23.8842 12.2148C23.7514 12.5352 23.5444 12.8438 23.2631 13.1406C22.9897 13.4297 22.642 13.6953 22.2202 13.9375C21.8061 14.1797 21.3178 14.375 20.7553 14.5234C21.3256 14.5938 21.8334 14.7344 22.2787 14.9453C22.7319 15.1484 23.1108 15.4023 23.4155 15.707C23.728 16.0039 23.9623 16.3398 24.1186 16.7148C24.2827 17.0898 24.3647 17.4805 24.3647 17.8867C24.3647 18.3633 24.2983 18.8047 24.1655 19.2109C24.0327 19.6094 23.8139 19.9688 23.5092 20.2891C23.2123 20.6094 22.8217 20.8867 22.3373 21.1211C21.853 21.3477 21.2592 21.5273 20.5561 21.6602C19.7983 21.8008 18.9272 21.8945 17.9428 21.9414C16.9662 21.9805 15.8373 22 14.5561 22H6.11859V20.125ZM14.5561 22.8203C15.7983 22.8203 16.9389 22.8047 17.978 22.7734C19.0248 22.75 19.9389 22.6602 20.7202 22.5039C21.5952 22.332 22.3217 22.0859 22.8998 21.7656C23.478 21.4375 23.935 21.0664 24.2709 20.6523C24.6147 20.2383 24.853 19.7891 24.9858 19.3047C25.1264 18.8203 25.1967 18.332 25.1967 17.8398C25.1967 17.4961 25.1459 17.1602 25.0444 16.832C24.9428 16.4961 24.7866 16.1836 24.5756 15.8945C24.3647 15.6055 24.0952 15.3438 23.767 15.1094C23.4389 14.8672 23.0483 14.668 22.5952 14.5117C23.3998 14.1133 23.9897 13.6445 24.3647 13.1055C24.7397 12.5586 24.9272 11.9414 24.9272 11.2539C24.9272 10.5742 24.7436 9.92969 24.3764 9.32031C24.0092 8.70312 23.4077 8.18359 22.5717 7.76172C23.0405 7.87891 23.4506 8.05078 23.8022 8.27734C24.1537 8.49609 24.4467 8.75391 24.6811 9.05078C24.9233 9.34766 25.103 9.67578 25.2202 10.0352C25.3373 10.3945 25.3959 10.7695 25.3959 11.1602C25.3959 11.8711 25.2514 12.4922 24.9623 13.0234C24.6733 13.5469 24.2084 14.0352 23.5678 14.4883C24.3178 14.8867 24.853 15.375 25.1733 15.9531C25.5014 16.5234 25.6655 17.1523 25.6655 17.8398C25.6655 18.4492 25.5795 19.0273 25.4077 19.5742C25.2358 20.1133 24.9545 20.6055 24.5639 21.0508C24.1811 21.4883 23.6811 21.8672 23.0639 22.1875C22.4545 22.5156 21.7045 22.7656 20.8139 22.9375C20.0248 23.0938 19.1186 23.1875 18.0952 23.2188C17.0795 23.25 15.8998 23.2656 14.5561 23.2656H6.86859V22.8203H14.5561ZM16.1967 13.8555C17.1577 13.8555 17.9506 13.8086 18.5756 13.7148C19.2084 13.6211 19.7123 13.4766 20.0873 13.2812C20.4623 13.0781 20.7241 12.8281 20.8725 12.5312C21.0287 12.2266 21.1069 11.8633 21.1069 11.4414C21.1069 11.0195 20.9741 10.6406 20.7084 10.3047C20.4428 9.96875 20.017 9.71094 19.4311 9.53125C19.0327 9.41406 18.5717 9.34375 18.0483 9.32031C17.5248 9.29688 16.9077 9.28516 16.1967 9.28516H11.8491V13.8555H16.1967ZM12.6928 10.1055H16.1967C16.7905 10.1055 17.3022 10.1211 17.7319 10.1523C18.1616 10.1758 18.5287 10.2227 18.8334 10.293C19.1381 10.3633 19.3959 10.457 19.6069 10.5742C19.8178 10.6836 20.0053 10.8242 20.1694 10.9961C20.0131 10.9258 19.8256 10.8633 19.6069 10.8086C19.3959 10.7539 19.1342 10.707 18.8217 10.668C18.5092 10.6289 18.1381 10.6016 17.7084 10.5859C17.2866 10.5625 16.7827 10.5508 16.1967 10.5508H13.1616V13.1523H12.6928V10.1055ZM6.64594 10.1055H8.685V10.5742H6.64594V10.1055ZM16.4194 20.125C17.2241 20.125 17.9155 20.1055 18.4936 20.0664C19.0717 20.0195 19.5717 19.918 19.9936 19.7617C20.2592 19.6602 20.478 19.5391 20.6498 19.3984C20.8295 19.2578 20.9702 19.1055 21.0717 18.9414C21.1733 18.7695 21.2436 18.5859 21.2827 18.3906C21.3217 18.1953 21.3412 17.9922 21.3412 17.7812C21.3412 17.2656 21.1811 16.8203 20.8608 16.4453C20.5483 16.0625 20.06 15.7734 19.3959 15.5781C18.9897 15.4609 18.5248 15.3906 18.0014 15.3672C17.478 15.3359 16.8842 15.3203 16.2202 15.3203H11.8491V20.125H16.4194ZM12.6928 16.1406H16.1967C16.7905 16.1406 17.3139 16.1602 17.767 16.1992C18.2202 16.2383 18.6108 16.3008 18.9389 16.3867C19.2748 16.4648 19.56 16.5664 19.7944 16.6914C20.0287 16.8086 20.228 16.9531 20.392 17.125C20.1889 17.0312 19.9702 16.9531 19.7358 16.8906C19.5092 16.8203 19.2358 16.7617 18.9155 16.7148C18.5952 16.668 18.2162 16.6367 17.7787 16.6211C17.3412 16.5977 16.8139 16.5859 16.1967 16.5859H13.1616V19.4219H12.6928V16.1406ZM31.7916 20.125H34.9556V9.28516H31.7916V7.41016H49.2173V11.9805H46.5806V9.28516H37.7095V13.9023H43.5923V15.3672H37.7095V20.125H46.5806V17.4297H49.2173V22H31.7916V20.125ZM47.2838 12.8008H50.0611V7.99609H50.5298V13.2461H47.2838V12.8008ZM38.5533 10.1055H46.0884V10.5508H39.022V13.1992H38.5533V10.1055ZM32.4947 10.1055H34.4634V10.5508H32.4947V10.1055ZM38.5533 16.1875H44.4244V14.4883H44.8931V16.6328H39.022V19.4219H38.5533V16.1875ZM50.0611 22.8203V18.0859H50.5298V23.2656H32.4947V22.8203H50.0611Z" fill="white"/>
<rect x="0.5" y="0.5" width="160" height="29" rx="7.5" stroke="white"/>
</svg>
