<svg width="82" height="38" viewBox="0 0 82 38" fill="none" xmlns="http://www.w3.org/2000/svg">
<path d="M34.35 13.6C34.35 13.9867 34.21 14.32 33.93 14.6C33.6633 14.8667 33.3367 15 32.95 15H27.35C26.9633 15 26.63 14.8667 26.35 14.6C26.0833 14.32 25.95 13.9867 25.95 13.6V6.6C25.95 6.21333 26.0833 5.88667 26.35 5.62C26.63 5.34 26.9633 5.2 27.35 5.2H32.95C33.3367 5.2 33.6633 5.34 33.93 5.62C34.21 5.88667 34.35 6.21333 34.35 6.6V8H32.75V6.6H27.55V13.6H32.75V12.2H34.35V13.6ZM45.9586 15H43.9186L39.7586 10.8H44.1586V6.6H38.9586V15H37.3586V7.98L38.7586 6.6H37.3586V5.2H44.3586C44.7319 5.2 45.0586 5.34 45.3386 5.62C45.6186 5.9 45.7586 6.22667 45.7586 6.6V10.4C45.7586 11.4667 45.2919 12 44.3586 12H43.1586V12.22L45.9586 15ZM56.8625 10.8C56.8625 11.1867 56.7225 11.52 56.4425 11.8C56.1758 12.0667 55.8492 12.2 55.4625 12.2H53.4625V15H51.8625V12.2H49.8625C49.4758 12.2 49.1425 12.0667 48.8625 11.8C48.5958 11.52 48.4625 11.1867 48.4625 10.8V5.2H50.0625V10.8H55.2625V5.2H56.8625V10.8ZM68.4539 10.8C68.4539 11.1733 68.3139 11.5 68.0339 11.78C67.7539 12.06 67.4272 12.2 67.0539 12.2H61.6539V15H60.0539V8L61.4539 6.6H60.0539V5.2H67.0539C67.4272 5.2 67.7539 5.34 68.0339 5.62C68.3139 5.9 68.4539 6.22667 68.4539 6.6V10.8ZM66.8539 10.8V6.6H61.6539V12L62.8539 10.8H66.8539ZM80.0531 13.6C80.0531 13.9867 79.9131 14.32 79.6331 14.6C79.3665 14.8667 79.0398 15 78.6531 15H73.0531C72.6665 15 72.3331 14.8667 72.0531 14.6C71.7865 14.32 71.6531 13.9867 71.6531 13.6V6.6C71.6531 6.21333 71.7865 5.88667 72.0531 5.62C72.3331 5.34 72.6665 5.2 73.0531 5.2H78.6531C79.0398 5.2 79.3665 5.34 79.6331 5.62C79.9131 5.88667 80.0531 6.21333 80.0531 6.6V13.6ZM78.4531 13.6V6.6H73.2531V13.6H78.4531ZM35.3949 32.6C35.3949 32.9867 35.2549 33.32 34.9749 33.6C34.7083 33.8667 34.3816 34 33.9949 34H28.3949C28.0083 34 27.6749 33.8667 27.3949 33.6C27.1283 33.32 26.9949 32.9867 26.9949 32.6V25.6C26.9949 25.2133 27.1283 24.8867 27.3949 24.62C27.6749 24.34 28.0083 24.2 28.3949 24.2H33.9949C34.3816 24.2 34.7083 24.34 34.9749 24.62C35.2549 24.8867 35.3949 25.2133 35.3949 25.6V27H33.7949V25.6H28.5949V32.6H33.7949V31.2H35.3949V32.6ZM47.0035 34H44.9635L40.8035 29.8H45.2035V25.6H40.0035V34H38.4035V26.98L39.8035 25.6H38.4035V24.2H45.4035C45.7768 24.2 46.1035 24.34 46.3835 24.62C46.6635 24.9 46.8035 25.2267 46.8035 25.6V29.4C46.8035 30.4667 46.3368 31 45.4035 31H44.2035V31.22L47.0035 34ZM58.3074 34H56.7074V31.2H51.5074V34H49.9074V25.6C49.9074 25.2133 50.0408 24.8867 50.3074 24.62C50.5874 24.34 50.9208 24.2 51.3074 24.2H58.3074V34ZM56.7074 29.8V25.6H51.5074V31L52.7074 29.8H56.7074ZM69.5996 34H61.1996V32.3L67.8996 25.6H61.1996V24.2H69.5996V25.92L62.8996 32.6H69.5996V34ZM79.5051 34H72.5051V27L73.9051 25.6H72.5051V24.2H79.5051V25.6H74.1051V29.6L75.3051 28.4H79.5051V29.8H74.1051V32.6H79.5051V34Z" fill="white"/>
<path d="M23.0809 36.4963C20.4718 37.1995 17.7359 37.2927 15.085 36.7685C12.4342 36.2443 9.9396 35.1169 7.79456 33.4735C5.64951 31.8302 3.91159 29.7151 2.71545 27.2921C1.51931 24.8691 0.897053 22.2032 0.896898 19.501C0.896744 16.7988 1.51869 14.1329 2.71456 11.7097C3.91043 9.28659 5.6481 7.17128 7.79296 5.5277C9.93782 3.88412 12.4323 2.7564 15.0831 2.23191C17.7338 1.70742 20.4698 1.80024 23.0789 2.50318L22.2523 5.57133C20.1142 4.99528 17.8721 4.91922 15.6998 5.34903C13.5275 5.77884 11.4834 6.703 9.72568 8.04989C7.968 9.39678 6.54399 11.1302 5.564 13.116C4.584 15.1017 4.07432 17.2864 4.07445 19.5008C4.07458 21.7152 4.5845 23.8999 5.56473 25.8855C6.54495 27.8711 7.96915 29.6044 9.72699 30.9511C11.4848 32.2978 13.5291 33.2217 15.7014 33.6513C17.8738 34.0809 20.1158 34.0045 22.2539 33.4282L23.0809 36.4963Z" fill="url(#paint0_linear_2584_141)"/>
<path d="M6.48168 26.036C7.32711 26.0977 8.72558 26.0107 9.52051 25.7208C10.3154 25.4308 11.0384 24.9758 11.641 24.386C12.2436 23.7962 12.712 23.0854 13.0148 22.301C13.3175 21.5166 13.4477 20.6768 13.3967 19.8377C13.3456 18.9987 13.1144 18.1798 12.7186 17.4358C12.3227 16.6918 11.7714 16.0398 11.1015 15.5236C10.4315 15.0074 9.65842 14.6387 8.83389 14.4424C8.00935 14.2461 6.99063 14.2838 6.15862 14.4424L7.1471 15.8771C7.75245 15.7617 7.85849 15.8629 8.4584 16.0058C9.05831 16.1486 9.6208 16.4168 10.1082 16.7924C10.5957 17.168 10.9968 17.6423 11.2848 18.1837C11.5728 18.725 11.741 19.3208 11.7782 19.9313C11.8153 20.5417 11.7206 21.1528 11.5003 21.7235C11.28 22.2942 10.9392 22.8114 10.5008 23.2405C10.0623 23.6696 9.53634 24.0007 8.95797 24.2116C8.3796 24.4226 7.76221 24.5085 7.1471 24.4636L6.48168 26.036Z" fill="url(#paint1_linear_2584_141)"/>
<path d="M10.229 19.4702L19.105 19.4702L18.4595 21.8506H9.5835L10.229 19.4702Z" fill="#4B0A3D"/>
<path d="M22.1397 26.2098C21.2987 26.3156 20.0453 26.2942 19.2363 26.0463C18.4273 25.7984 17.6815 25.3818 17.0489 24.8243C16.4162 24.2669 15.9113 23.5815 15.5679 22.8141C15.2244 22.0466 15.0505 21.2148 15.0576 20.3742C15.0647 19.5336 15.2527 18.7037 15.609 17.94C15.9654 17.1763 16.4818 16.4964 17.1238 15.9458C17.7659 15.3952 18.5186 14.9867 19.3317 14.7474C20.1449 14.5082 21.3159 14.4847 22.1551 14.5995L21.6126 16.1517C21.002 16.0681 20.3801 16.115 19.7885 16.289C19.1969 16.4631 18.6492 16.7603 18.1821 17.1609C17.715 17.5615 17.3393 18.0562 17.08 18.6119C16.8207 19.1675 16.6839 19.7713 16.6788 20.3829C16.6736 20.9945 16.8002 21.5997 17.05 22.1581C17.2999 22.7165 17.6673 23.2151 18.1276 23.6207C18.5879 24.0263 19.1305 24.3294 19.7191 24.5098C20.3077 24.6902 20.9288 24.7437 21.5407 24.6667L22.1397 26.2098Z" fill="url(#paint2_linear_2584_141)"/>
<defs>
<linearGradient id="paint0_linear_2584_141" x1="19.421" y1="1.92126" x2="20.5" y2="36.5" gradientUnits="userSpaceOnUse">
<stop stop-color="#9C1480"/>
<stop offset="1" stop-color="#36072C"/>
</linearGradient>
<linearGradient id="paint1_linear_2584_141" x1="5.48135" y1="19.9583" x2="13.3615" y2="20.9258" gradientUnits="userSpaceOnUse">
<stop stop-color="#9C1480"/>
<stop offset="1" stop-color="#36072C"/>
</linearGradient>
<linearGradient id="paint2_linear_2584_141" x1="23.1155" y1="20.0461" x2="15.1482" y2="21.4509" gradientUnits="userSpaceOnUse">
<stop stop-color="#9C1480"/>
<stop offset="1" stop-color="#36072C"/>
</linearGradient>
</defs>
</svg>
