<svg width="177" height="55" viewBox="0 0 177 55" fill="none" xmlns="http://www.w3.org/2000/svg">
<path d="M121.5 12.5H129C130.5 13.6667 132.6 16.8 129 20M129 20H121.5M129 20L133 26.5" stroke="white" stroke-width="3"/>
<path d="M84.6032 16.2374H79.5635C79.537 15.8615 79.4279 15.5377 79.2361 15.2658C79.0443 14.9939 78.7963 14.786 78.4921 14.642C78.1944 14.4901 77.8638 14.4141 77.5 14.4141C77.0304 14.4141 76.627 14.5181 76.2897 14.726C75.9524 14.9339 75.787 15.2298 75.7937 15.6136C75.787 15.8855 75.8829 16.1374 76.0813 16.3693C76.2864 16.6012 76.6799 16.7811 77.2619 16.9091L80.3571 17.5808C81.918 17.9247 83.0787 18.5044 83.8393 19.3201C84.6065 20.1277 84.9934 21.2113 85 22.5707C84.9934 23.8822 84.6693 25.0217 84.0278 25.9893C83.3929 26.9489 82.5231 27.6926 81.4187 28.2203C80.3208 28.7401 79.0675 29 77.6587 29C75.3307 29 73.5086 28.4242 72.1925 27.2727C70.8829 26.1212 70.1521 24.6019 70 22.7146H75.4365C75.5093 23.2984 75.7474 23.7502 76.1508 24.0701C76.5608 24.3819 77.0767 24.5379 77.6984 24.5379C78.2011 24.5379 78.6144 24.4339 78.9385 24.226C79.2692 24.0181 79.4378 23.7222 79.4444 23.3384C79.4378 22.9865 79.2923 22.7066 79.0079 22.4987C78.7302 22.2908 78.2937 22.1229 77.6984 21.995L75 21.4192C73.4458 21.0913 72.2817 20.4676 71.5079 19.548C70.7341 18.6284 70.3505 17.4449 70.3571 15.9975C70.3505 14.718 70.6283 13.6345 71.1905 12.7468C71.7593 11.8512 72.5694 11.1715 73.621 10.7077C74.6792 10.2359 75.9325 10 77.381 10C79.5833 10 81.3194 10.5518 82.5893 11.6553C83.8657 12.7588 84.537 14.2862 84.6032 16.2374Z" fill="white"/>
<path d="M51 12H47.5M44 12H47.5M47.5 12V24C49 28.5 55 28.5 58 24M58 24V20M58 24V27.5H61.5M58 20V12H55H62.5C64.3333 13.3333 66.9 16.8 62.5 20H58Z" stroke="white" stroke-width="3"/>
<circle cx="18" cy="25" r="16.5" stroke="white"/>
<line x1="7.71716" y1="22.7172" x2="14.7172" y2="15.7172" stroke="white" stroke-width="0.8"/>
<line x1="7.71716" y1="22.7172" x2="14.7172" y2="15.7172" stroke="white" stroke-width="0.8"/>
<path d="M8.55652 29.0565L20.2118 15.212" stroke="white" stroke-width="0.8"/>
<path d="M9.12085 34.9929L26.8109 14.9391" stroke="white" stroke-width="0.8"/>
<path d="M15.9354 34.0614L27.288 20.7882" stroke="white" stroke-width="0.8"/>
<path d="M20.8156 35.9415L28.1195 27.1051" stroke="white" stroke-width="0.8"/>
<path d="M39.002 44.9981L39.0171 7.01709" stroke="white" stroke-width="0.8"/>
<line x1="86" y1="12.5" x2="101" y2="12.5" stroke="white" stroke-width="3"/>
<line x1="93.5" y1="28" x2="94.5" y2="16" stroke="white" stroke-width="3"/>
<path d="M104 27.5L110 12L117.5 27" stroke="#F23DE0" stroke-width="3"/>
<line x1="136" y1="12.5" x2="151" y2="12.5" stroke="white" stroke-width="3"/>
<line x1="143.5" y1="17" x2="143.5" y2="28" stroke="white" stroke-width="3"/>
<path d="M166.5 14C167.7 12 169.667 10.5 170.5 10C170.1 11.6 168.667 14 168 15L169.5 18.5C170.3 18.5 170.167 19.1667 170 19.5L170.5 21C171.7 21 171.333 22 171 22.5L171.5 24.5L171 25.5L166 18L161 24.5C161 24.5 162.5 28 162 28C161.5 28 160 25.5 159.5 25C159 24.5 156 24.5 156 24C156 23.6 158.667 23.5 160 23.5L164 17L154.5 15L155.5 14H158C158.4 13.2 158.833 13.6667 159 14H161C161.8 13.2 162.333 13.6667 162.5 14H166.5Z" fill="white"/>
<path d="M159 26.5C157.935 27.5915 156.655 28.8504 155.233 30.1927C147.144 38.3167 137.067 49.019 130 47C126.5 46 130.5 37.5 132.5 34.5C130.5 38.2642 129 45.5 131 46C135.669 47.1671 147.536 37.4584 155.233 30.1927C156.549 28.8717 157.811 27.6189 159 26.5Z" fill="white"/>
<path d="M122.427 41.6965V39.7412C122.427 39.5879 122.371 39.4899 122.259 39.4473C122.165 39.3962 121.951 39.3706 121.615 39.3706H119.545C118.65 39.3706 117.998 39.2726 117.587 39.0767C117.196 38.8807 117 38.5996 117 38.2332V36.1246C117 35.7583 117.205 35.4814 117.615 35.2939C118.044 35.098 118.706 35 119.601 35H122.343C123.256 35 123.918 35.098 124.329 35.2939C124.739 35.4814 124.944 35.7583 124.944 36.1246V37.3003H122.399V36.3035C122.399 36.1502 122.343 36.0522 122.231 36.0096C122.138 35.9585 121.914 35.9329 121.559 35.9329H120.385C120.049 35.9329 119.825 35.9585 119.713 36.0096C119.601 36.0522 119.545 36.1502 119.545 36.3035V38.0799C119.545 38.2247 119.601 38.3227 119.713 38.3738C119.825 38.4249 120.049 38.4505 120.385 38.4505H122.427C123.322 38.4505 123.974 38.5485 124.385 38.7444C124.795 38.9318 125 39.2087 125 39.5751V41.8754C125 42.2417 124.786 42.5229 124.357 42.7188C123.946 42.9063 123.294 43 122.399 43H119.657C118.762 43 118.1 42.9063 117.671 42.7188C117.261 42.5229 117.056 42.2417 117.056 41.8754V40.6997H119.601V41.6965C119.601 41.8413 119.657 41.9393 119.769 41.9904C119.881 42.0415 120.105 42.0671 120.441 42.0671H121.615C121.951 42.0671 122.165 42.0415 122.259 41.9904C122.371 41.9393 122.427 41.8413 122.427 41.6965Z" fill="white"/>
<path d="M108.565 41.6965V35H111V41.8754C111 42.2417 110.795 42.5229 110.385 42.7188C109.992 42.9063 109.359 43 108.485 43H106.719V42.0671H107.789C108.11 42.0671 108.315 42.0415 108.405 41.9904C108.512 41.9393 108.565 41.8413 108.565 41.6965ZM105.435 35V41.6965C105.435 41.8413 105.488 41.9393 105.595 41.9904C105.702 42.0415 105.916 42.0671 106.237 42.0671H107.067V43H105.515C104.641 43 103.999 42.9063 103.589 42.7188C103.196 42.5229 103 42.2417 103 41.8754V35H105.435Z" fill="white"/>
<path d="M94.5652 38.6038V36.3035C94.5652 36.1502 94.5117 36.0522 94.4047 36.0096C94.3155 35.9585 94.1014 35.9329 93.7625 35.9329H89.3211V35H94.4849C95.359 35 95.9922 35.098 96.3846 35.2939C96.7949 35.4814 97 35.7583 97 36.1246V38.7827C97 39.1491 96.7949 39.4302 96.3846 39.6262C95.9922 39.8136 95.359 39.9073 94.4849 39.9073H90.1773V38.9872H93.7625C94.1014 38.9872 94.3155 38.9617 94.4047 38.9105C94.5117 38.8594 94.5652 38.7572 94.5652 38.6038ZM89 35H91.408V43H89V35Z" fill="white"/>
<path d="M79.3956 41.262H77.6044L75.7257 37.1597V43H74V35H76.1626L78.5 39.9585L80.8374 35H83V43H81.2743V37.147L79.3956 41.262Z" fill="white"/>
<path d="M65.8116 40.2141V41.147H60.133V40.2141H65.8116ZM68 43H65.4792L62.8753 35.9968L60.5208 43H58L61.0748 35H64.7036L68 43Z" fill="white"/>
<path d="M48.4846 36.2759V41.7241C48.4846 41.8687 48.5392 41.9665 48.6485 42.0175C48.7577 42.0686 48.9761 42.0941 49.3038 42.0941H50.0683V43H48.5392C47.6655 43 47.0193 42.9064 46.6007 42.7193C46.2002 42.5237 46 42.2387 46 41.8644V36.1228C46 35.757 46.2002 35.4806 46.6007 35.2935C47.0193 35.0978 47.6655 35 48.5392 35H50.2321V35.9059H49.3038C48.9761 35.9059 48.7577 35.9314 48.6485 35.9825C48.5392 36.025 48.4846 36.1228 48.4846 36.2759ZM51.4881 37.5008V36.2759C51.4881 36.1228 51.4334 36.025 51.3242 35.9825C51.2332 35.9314 51.0239 35.9059 50.6962 35.9059H49.7952V35H51.4334C52.3254 35 52.9716 35.0978 53.372 35.2935C53.7907 35.4806 54 35.757 54 36.1228V37.5008H51.4881ZM51.4881 41.7241V40.512H54V41.8644C54 42.2387 53.7907 42.5237 53.372 42.7193C52.9716 42.9064 52.3254 43 51.4334 43H49.7952V42.0941H50.6962C51.0239 42.0941 51.2332 42.0686 51.3242 42.0175C51.4334 41.9665 51.4881 41.8687 51.4881 41.7241Z" fill="white"/>
</svg>
